<?xml version="1.0" encoding="UTF-8"?>
<svg id="katman_2" data-name="katman 2" xmlns="http://www.w3.org/2000/svg" xmlns:xlink="http://www.w3.org/1999/xlink" viewBox="0 0 580 580">
  <defs>
    <style>
      .cls-1 {
        fill: url(#Adsız_degrade_20);
      }

      .cls-2 {
        fill: url(#Adsız_degrade_4);
      }

      .cls-2, .cls-3, .cls-4, .cls-5, .cls-6, .cls-7, .cls-8, .cls-9, .cls-10, .cls-11, .cls-12, .cls-13, .cls-14, .cls-15, .cls-16, .cls-17, .cls-18, .cls-19, .cls-20, .cls-21, .cls-22 {
        fill-rule: evenodd;
      }

      .cls-23 {
        fill: url(#Adsız_degrade_20-8);
      }

      .cls-24 {
        fill: url(#Adsız_degrade_20-7);
      }

      .cls-25 {
        fill: url(#Adsız_degrade_20-4);
      }

      .cls-26 {
        fill: url(#Adsız_degrade_20-6);
      }

      .cls-27 {
        fill: url(#Adsız_degrade_20-3);
      }

      .cls-28 {
        fill: url(#Adsız_degrade_20-2);
      }

      .cls-29 {
        fill: url(#Adsız_degrade_20-5);
      }

      .cls-30 {
        fill: #fff;
      }

      .cls-3 {
        fill: url(#Adsız_degrade_28);
      }

      .cls-4 {
        fill: url(#Adsız_degrade_21);
      }

      .cls-5 {
        fill: url(#Adsız_degrade_21-3);
      }

      .cls-6 {
        fill: url(#Adsız_degrade_21-4);
      }

      .cls-7 {
        fill: url(#Adsız_degrade_21-2);
      }

      .cls-8 {
        fill: url(#Adsız_degrade_20-9);
      }

      .cls-9 {
        fill: url(#Adsız_degrade_28-6);
      }

      .cls-10 {
        fill: url(#Adsız_degrade_28-7);
      }

      .cls-11 {
        fill: url(#Adsız_degrade_28-3);
      }

      .cls-12 {
        fill: url(#Adsız_degrade_28-2);
      }

      .cls-13 {
        fill: url(#Adsız_degrade_28-5);
      }

      .cls-14 {
        fill: url(#Adsız_degrade_28-4);
      }

      .cls-15 {
        fill: #ed9023;
      }

      .cls-16 {
        fill: url(#Adsız_degrade_20-13);
      }

      .cls-17 {
        fill: url(#Adsız_degrade_20-12);
      }

      .cls-18 {
        fill: url(#Adsız_degrade_20-11);
      }

      .cls-19 {
        fill: url(#Adsız_degrade_20-14);
      }

      .cls-20 {
        fill: url(#Adsız_degrade_20-10);
      }

      .cls-21 {
        fill: url(#Adsız_degrade_20-15);
      }

      .cls-22 {
        fill: url(#Adsız_degrade_20-16);
      }
    </style>
    <radialGradient id="Adsız_degrade_21" data-name="Adsız degrade 21" cx="220.18" cy="592.83" fx="220.18" fy="592.83" r="281.97" gradientTransform="translate(0 776) scale(1 -1)" gradientUnits="userSpaceOnUse">
      <stop offset="0" stop-color="#474846"/>
      <stop offset=".48" stop-color="#363736"/>
      <stop offset="1" stop-color="#232323"/>
    </radialGradient>
    <radialGradient id="Adsız_degrade_21-2" data-name="Adsız degrade 21" cx="293.01" cy="398.48" fx="293.01" fy="398.48" r="48.61" xlink:href="#Adsız_degrade_21"/>
    <radialGradient id="Adsız_degrade_21-3" data-name="Adsız degrade 21" cx="288.74" cy="377.97" fx="288.74" fy="377.97" r="71.64" xlink:href="#Adsız_degrade_21"/>
    <radialGradient id="Adsız_degrade_4" data-name="Adsız degrade 4" cx="289.03" cy="584.46" fx="289.03" fy="584.46" r="106.69" gradientTransform="translate(0 776) scale(1 -1)" gradientUnits="userSpaceOnUse">
      <stop offset="0" stop-color="#fff6e1"/>
      <stop offset=".27" stop-color="#ffd644"/>
      <stop offset="1" stop-color="#f68c1f"/>
    </radialGradient>
    <linearGradient id="Adsız_degrade_20" data-name="Adsız degrade 20" x1="176.87" y1="296.15" x2="176.87" y2="263.07" gradientTransform="translate(0 776) scale(1 -1)" gradientUnits="userSpaceOnUse">
      <stop offset="0" stop-color="#474846"/>
      <stop offset=".48" stop-color="#363736"/>
      <stop offset="1" stop-color="#232323"/>
    </linearGradient>
    <linearGradient id="Adsız_degrade_20-2" data-name="Adsız degrade 20" x1="198.9" y1="296.15" x2="198.9" y2="263.07" xlink:href="#Adsız_degrade_20"/>
    <linearGradient id="Adsız_degrade_20-3" data-name="Adsız degrade 20" x1="226.07" x2="226.07" xlink:href="#Adsız_degrade_20"/>
    <linearGradient id="Adsız_degrade_20-4" data-name="Adsız degrade 20" x1="256.33" y1="296.15" x2="256.33" y2="263.07" xlink:href="#Adsız_degrade_20"/>
    <linearGradient id="Adsız_degrade_20-5" data-name="Adsız degrade 20" x1="293.62" x2="293.62" y2="263.07" xlink:href="#Adsız_degrade_20"/>
    <linearGradient id="Adsız_degrade_20-6" data-name="Adsız degrade 20" x1="330.75" x2="330.75" y2="263.07" xlink:href="#Adsız_degrade_20"/>
    <linearGradient id="Adsız_degrade_20-7" data-name="Adsız degrade 20" x1="364.46" y1="296.15" x2="364.46" y2="263.07" xlink:href="#Adsız_degrade_20"/>
    <linearGradient id="Adsız_degrade_20-8" data-name="Adsız degrade 20" x1="396.97" x2="396.97" xlink:href="#Adsız_degrade_20"/>
    <linearGradient id="Adsız_degrade_20-9" data-name="Adsız degrade 20" x1="187.9" y1="350.23" x2="187.9" y2="310.46" xlink:href="#Adsız_degrade_20"/>
    <linearGradient id="Adsız_degrade_20-10" data-name="Adsız degrade 20" x1="226.52" y1="350.23" x2="226.52" y2="310.46" xlink:href="#Adsız_degrade_20"/>
    <linearGradient id="Adsız_degrade_20-11" data-name="Adsız degrade 20" x1="280.38" y1="350.23" x2="280.38" y2="310.46" xlink:href="#Adsız_degrade_20"/>
    <linearGradient id="Adsız_degrade_20-12" data-name="Adsız degrade 20" x1="309" y1="350.23" x2="309" y2="310.46" xlink:href="#Adsız_degrade_20"/>
    <linearGradient id="Adsız_degrade_20-13" data-name="Adsız degrade 20" x1="346.18" y1="350.23" x2="346.18" y2="310.46" xlink:href="#Adsız_degrade_20"/>
    <linearGradient id="Adsız_degrade_20-14" data-name="Adsız degrade 20" x1="378.21" y1="350.23" x2="378.21" y2="310.46" xlink:href="#Adsız_degrade_20"/>
    <linearGradient id="Adsız_degrade_20-15" data-name="Adsız degrade 20" x1="400.23" y1="350.23" x2="400.23" y2="310.46" xlink:href="#Adsız_degrade_20"/>
    <linearGradient id="Adsız_degrade_20-16" data-name="Adsız degrade 20" x1="400.23" y1="350.23" x2="400.23" y2="310.46" xlink:href="#Adsız_degrade_20"/>
    <radialGradient id="Adsız_degrade_21-4" data-name="Adsız degrade 21" cx="288.74" cy="543.72" fx="288.74" fy="543.72" r="91.93" xlink:href="#Adsız_degrade_21"/>
    <linearGradient id="Adsız_degrade_28" data-name="Adsız degrade 28" x1="420.39" y1="559.52" x2="420.39" y2="528.46" gradientTransform="translate(0 776) scale(1 -1)" gradientUnits="userSpaceOnUse">
      <stop offset="0" stop-color="#f68c1f"/>
      <stop offset=".5" stop-color="#ffd644"/>
      <stop offset="1" stop-color="#f68c1f"/>
    </linearGradient>
    <linearGradient id="Adsız_degrade_28-2" data-name="Adsız degrade 28" x1="-173.7" y1="559.52" x2="-173.7" y2="528.46" gradientTransform="translate(-14.09 776) rotate(-180)" xlink:href="#Adsız_degrade_28"/>
    <linearGradient id="Adsız_degrade_28-3" data-name="Adsız degrade 28" x1="24.06" y1="1137.9" x2="24.06" y2="1106.83" gradientTransform="translate(-832.44 125.6) rotate(-90)" xlink:href="#Adsız_degrade_28"/>
    <linearGradient id="Adsız_degrade_28-4" data-name="Adsız degrade 28" x1="-107.51" y1="1158.8" x2="-107.51" y2="1127.74" gradientTransform="translate(-686.69 -408.32) rotate(135) scale(1 -1)" xlink:href="#Adsız_degrade_28"/>
    <linearGradient id="Adsız_degrade_28-5" data-name="Adsız degrade 28" x1="354.2" y1="1158.8" x2="354.2" y2="1127.74" gradientTransform="translate(-676.72 -418.29) rotate(-45)" xlink:href="#Adsız_degrade_28"/>
    <linearGradient id="Adsız_degrade_28-6" data-name="Adsız degrade 28" x1="441.41" y1="889.56" x2="441.41" y2="858.49" gradientTransform="translate(-548 630.81) rotate(45) scale(1 -1)" xlink:href="#Adsız_degrade_28"/>
    <linearGradient id="Adsız_degrade_28-7" data-name="Adsız degrade 28" x1="-194.71" y1="889.56" x2="-194.71" y2="858.49" gradientTransform="translate(-557.97 620.84) rotate(-135)" xlink:href="#Adsız_degrade_28"/>
  </defs>
  <g id="katman_2-2" data-name="katman 2">
    <g>
      <circle class="cls-30" cx="290" cy="290" r="290"/>
      <g id="katman_1" data-name="katman 1">
        <g>
          <path class="cls-4" d="m378.53,228.74c-.42-11.55-4.67-28.83-12.15-41.44-3.81-6.43-9.87-16.59-25.95-28.07-8.33-5.96-20.04-10.53-28.24-12.44-8.18-1.93-10.45-2.46-21.55-2.74-10.56-.27-26.87,1.62-43.87,10.47-17,8.85-32.91,25.69-40.07,46.3-6.56,18.88-9.77,44.37,4.71,70.58,7.79,14.09,14.31,21.09,19.89,27.32,5.56,6.22,8.7,9.6,12.75,17.9,4.04,8.3,4.57,14.73,4.55,32.94,0,1.21-.1,2.28,1.21,2.28,2.02,0,46.59.05,47.34,0,.77-.05.51.35-.29.6-.82.26-46.09,9.72-47.2,10.01-1.11.31-1.01,1.13-1.06,1.98-.05.86-.05,8.75,0,9.71.05.97.65.87,1.36.77,1.32-.2,11.97-2.51,70.13-14.58,9.46-1.96,9.55-1.97,9.55-1.97,0,0,1-.31,1.06-1.52.1-1.66-.05-9.76,0-12.29.29-14.49.64-25.77,10.63-38.25,3.04-3.8,8.35-9.71,11.38-13.2,3.04-3.49,14.58-17.3,19.73-30.36,4.73-11.96,6.62-18.72,6.07-34.01h0Zm-14.72,34.16c-6.73,13.54-13.59,20.91-23.99,33.55-10.38,12.64-12.6,18.44-14.87,25.64-2.28,7.21-2.02,17.51-1.97,18.07.05.55,0,1.16-.91,1.21s-63.8.05-64.35,0c-.56-.05-.91-.04-.91-.61s.18-6.25-.92-13.2-3.75-13.06-7.43-19.58c-3.68-6.54-9.37-12.75-12.75-16.55s-7.16-8.16-12.75-16.69c-8.7-13.29-12.7-24.24-13.66-38.41-1.06-15.6,2.33-27.16,5.46-35.22,3.76-9.63,10.31-20.1,21.4-29.59,12.85-10.99,22.75-14.11,31.27-16.69,12.15-3.68,28.16-4.35,44.48,0,16.38,4.36,28.67,12.32,39.61,24.89,12.11,13.91,17.01,29.3,18.67,42.96,1.68,13.66.35,26.68-6.37,40.22h0Z"/>
          <path class="cls-7" d="m250.13,378.4c-.6.15-1.47.1-1.52,1.82-.05,1.73-.05,9.46,0,10.17.05.7.26,1.11,1.37.91,1.42-.26,78.83-16.19,79.84-16.4,1.01-.2.91-.91.91-1.68v-10.32c0-.7-.14-.93-1.06-.75-1.32.26-78.93,16.09-79.53,16.24h0Z"/>
          <path class="cls-5" d="m265.45,392.21c-.5.12-1.41.54-.91,1.52s5.58,9.68,5.92,10.32,1.1.91,2.12.91,34.07.08,34.91,0c.83-.08,1.06-.35,1.37-.75.31-.42,4.71-8.16,5.01-8.65.31-.5.72-.87,1.82-1.06s13.17-2.62,14.12-2.88c.95-.27.91-1.06.91-1.82s-.04-9.41,0-9.86c.04-.46-.15-.91-.91-.75-.75.15-63.87,12.94-64.35,13.06h0v-.04Z"/>
          <path class="cls-2" d="m363.97,232.09c-.54,12.33-3.57,21.32-7.75,29.44-4.17,8.12-11.5,18.43-20.03,27.62-8.89,9.57-13.29,15.07-17.15,24.44-3.88,9.37-3.45,17.69-3.49,18.83s-.08,2.05-1.52,2.28c-1.45.22-10.59.08-22.76.14-12.19.08-23.34-.04-25.35-.14-2.02-.12-1.68-2.06-1.68-2.74s.08-1.42-.31-5.01c-.45-4.36-.95-8.99-5.15-17.75-4.22-8.77-13.71-18.37-18.07-23.22-9.28-10.4-14.72-19.54-17.6-25.04-2.89-5.51-6.91-15.87-7.29-27.78-.38-11.92,1.61-20.09,3.8-26.72,2.31-7.02,7.78-16.14,13.04-22.47,7.56-9.07,14.76-13.74,21.72-17.6,12.56-6.98,25.45-8.75,33.09-8.66,8.47.1,18.52-.52,34.61,6.98,16.09,7.52,25.18,18.33,31.12,27.62,8.5,13.33,11.31,27.43,10.78,39.77h0Z"/>
          <g>
            <path class="cls-1" d="m172.21,512.18v-23.42h9.32v23.42h-9.32Zm0-25.82v-7.66h9.32v7.66h-9.32Z"/>
            <path class="cls-28" d="m190.53,501.37c1.42,1.56,2.78,2.71,4.07,3.45,1.36.77,2.69,1.14,3.98,1.14,1.21,0,2.23-.33,3.03-.98.81-.65,1.2-1.48,1.2-2.49,0-1.1-.33-1.96-1-2.58-.72-.59-2.28-1.21-4.69-1.85-3.3-.88-5.64-2.03-7.01-3.43-1.39-1.43-2.08-3.39-2.08-5.86,0-3.2,1.09-5.81,3.26-7.83,2.15-2.03,4.95-3.04,8.43-3.04,1.96,0,3.73.26,5.32.75,1.66.5,3.25,1.25,4.74,2.24l-2.89,6.56c-1.02-.87-2.1-1.53-3.24-2.01-1.11-.45-2.2-.67-3.26-.67s-1.98.27-2.71.81c-.69.5-1.04,1.18-1.04,2.01s.29,1.48.91,2.01c.63.5,1.82.98,3.57,1.45.06.01.12.03.17.05.05,0,.12.01.2.05,3.76.98,6.25,2.11,7.46,3.34.79.78,1.41,1.76,1.85,2.95.4,1.13.6,2.4.6,3.84,0,3.54-1.18,6.39-3.54,8.58-2.38,2.15-5.52,3.22-9.44,3.22-2.4,0-4.55-.38-6.46-1.16-1.88-.78-3.75-2.03-5.58-3.75l4.17-6.79h-.03Z"/>
            <path class="cls-27" d="m221.46,512.18v-25.57h-7.6v-7.92h24.41v7.92h-7.6v25.57h-9.23.01Z"/>
            <path class="cls-25" d="m251.77,499.66h9.18l-3.45-11.05c-.08-.19-.22-.74-.43-1.65-.26-1.05-.5-2.01-.72-2.86-.22.78-.4,1.56-.55,2.35-.24.77-.46,1.48-.63,2.15l-3.4,11.05h0Zm-12.93,12.51l11.69-33.48h11.57l11.71,33.48h-9.18l-1.71-6h-13.12l-1.75,6h-9.21Z"/>
            <path class="cls-29" d="m277.06,512.18v-33.48h8.91l12.8,17.23c.32.47.73,1.18,1.23,2.12.63,1.21,1.25,2.48,1.85,3.77-.23-1.75-.36-2.98-.4-3.68-.09-1.1-.14-2.07-.14-2.9v-16.54h8.86v33.48h-8.86l-12.8-17.29c-.18-.24-.59-.96-1.23-2.15-.55-.97-1.18-2.21-1.85-3.71.15,1.19.29,2.43.43,3.71.06,1.43.09,2.4.09,2.9v16.54h-8.91.01Z"/>
            <path class="cls-26" d="m326.02,492.08h1.85c2.3,0,3.86-.24,4.69-.73.84-.51,1.27-1.38,1.27-2.58,0-1.27-.4-2.16-1.18-2.67-.87-.54-2.42-.81-4.66-.81h-2v6.79h.01Zm-8.57,20.1v-33.48h9.28c3.73,0,6.41.13,8.01.37,1.5.23,2.81.65,3.94,1.25,1.24.72,2.19,1.62,2.85,2.72.67,1.16,1,2.51,1,4.03,0,1.93-.5,3.47-1.48,4.58-.97,1.1-2.53,1.93-4.68,2.52,2.34.18,4.23,1.01,5.64,2.47,1.36,1.5,2.03,3.49,2.03,6,0,1.76-.38,3.34-1.16,4.69-.77,1.41-1.85,2.47-3.26,3.18-1.07.56-2.49,1.01-4.26,1.33-1.82.24-4.6.37-8.35.37h-9.55v-.04Zm8.57-6.84h3.24c2.19,0,3.73-.28,4.63-.84.92-.52,1.39-1.41,1.39-2.67,0-1.37-.42-2.35-1.25-2.95-.83-.55-2.38-.82-4.63-.82h-3.38v7.29Z"/>
            <path class="cls-24" d="m349.37,478.7h9.26v16.28c0,2.48.06,4.21.18,5.17.15,1.14.36,2.01.63,2.61.32.87.93,1.51,1.83,1.92.9.47,1.97.7,3.24.7s2.33-.23,3.21-.7c.82-.4,1.43-1.04,1.85-1.92.24-.61.45-1.48.6-2.61.14-.92.2-2.63.2-5.17v-16.28h9.18v17.7c0,3.63-.22,6.33-.67,8.1-.42,1.75-1.18,3.26-2.26,4.5-1.2,1.38-2.8,2.4-4.8,3.04-1.97.69-4.43,1.02-7.34,1.02s-5.44-.35-7.35-1.02c-1.96-.64-3.56-1.65-4.8-3.04-1.06-1.21-1.82-2.72-2.26-4.5-.47-1.8-.72-4.5-.72-8.1v-17.7h.01Z"/>
            <path class="cls-23" d="m386.61,512.18v-33.48h9.23v25.65h11.48v7.83h-20.72Z"/>
          </g>
          <g>
            <path class="cls-8" d="m192.84,426.98c-.23-.6-.54-.47-.84-.47h-7.58c-.35,0-1.02-.08-1.21.46-.19.54-13.62,38.74-13.81,39.16s.15.46.46.46h8.5c.49,0,.7-.46.91-1.06.22-.6,1.85-6.32,1.97-6.52.12-.22.31-.31.91-.31h12c.33,0,.46.31.6.75.15.46,1.94,6.19,2.12,6.68.18.49.46.6.91.6h8.35c.27,0,.46-.22.31-.75-.12-.42-13.24-38.14-13.57-38.99h-.01Zm-1,24.27h-7.58c-.28,0-.74.09-.6-.31.13-.4,3.71-12.51,3.8-12.9s.22-.92.46-.91c.37.01.5.63.6,1.06s3.31,11.5,3.49,12.14c.18.65.09.91-.15.91h-.01Z"/>
            <path class="cls-20" d="m242.84,426.37c-.54-.03-8.1,0-8.65,0s-1.27.03-1.68.6c-.41.58-12.6,17.87-12.9,18.21-.31.36-.63.13-.6-.31s0-17.48,0-17.76-.23-.75-.75-.75-7.11-.05-7.58,0c-.49.05-.88.08-.91.6-.03.54.01,39.08,0,39.31-.03.33.38.49.75.46.38-.03,7.61,0,7.89,0s.63-.41.6-.75c-.03-.36-.03-17.84,0-18.06.03-.23.31-.38.6,0,.31.38,11.64,17.71,12,18.21.36.51.58.6,1.21.6h9.57c.38,0,.36-.41.15-.75-.2-.36-12.24-18.77-12.6-19.27-.36-.51-.38-.78.15-1.52.54-.73,12.52-17.61,12.9-18.06.38-.46.38-.73-.15-.75h-.01Z"/>
            <path class="cls-18" d="m295.21,440.63c.47-5.08-1.1-7.46-1.68-8.5-.56-1.04-3.2-4.6-8.35-5.17-1.6-.18-4.83-.46-6.83-.46h-11.38c-.43,0-1.52-.05-1.52,1.06v38.41c0,.41.23.73.75.75.54.03,7.42,0,7.74,0s.73-.26.75-.91c.03-.65,0-13.01,0-13.35q0-.46.75-.46h4.25c.56,0,5.73-.26,8.8-1.68,3.08-1.41,6.2-4.64,6.68-9.72l.04.03Zm-9.26.91c-1.18,2.62-4.49,2.43-5.77,2.43h-5.17c-.19,0-.31-.1-.31-.31v-8.5c0-.22.1-.46.46-.46s4.27-.03,6.07,0,2.71.26,3.8,1.21,2.08,2.99.91,5.61h0Z"/>
            <path class="cls-17" d="m314.02,427.13c-.26-.73-.56-.58-1.21-.6s-7.47,0-7.74,0-.68-.03-.91.6c-.23.63-13.4,38.15-13.66,38.85-.26.7,0,.73.46.75s7.74,0,8.2,0,.91-.36,1.06-.75,1.82-6.23,1.97-6.68c.15-.46.49-.6.91-.6h11.69c.54,0,.91.03,1.06.6s2,6.39,2.12,6.83.33.63,1.21.6,7.61,0,8.04,0,.41-.41.31-.75c-.1-.36-13.25-38.12-13.51-38.85h-.01Zm-1.37,24.13h-7.14c-.18,0-.75.08-.6-.6s3.71-12.73,3.8-13.06c.19-.75.46-.47.6.15.09.38,3.62,12.11,3.8,12.75.18.63-.1.75-.46.75Z"/>
            <path class="cls-16" d="m354.86,451.1c-.31-.7-.08-1.04.46-1.37s5.12-4.05,5.61-8.95c.51-4.91-1.55-9.95-5.46-12.29-3.54-2.12-12.29-1.97-13.66-1.97h-10.17c-.24,0-.75.23-.75.75v38.85c0,.36.28.6.6.6h7.89c.36,0,.75-.23.75-.91v-13.51c0-.33.18-.46.6-.46h4.71c.28,0,.68-.08.91.6.23.68,5.46,13.56,5.61,13.81.15.26.41.49,1.06.46.65-.03,7.76,0,8.04,0s.51-.15.31-.75c-.2-.6-6.23-14.17-6.52-14.87h0Zm-3.95-8.8c-1.27,1.57-3.77,1.52-4.55,1.52h-5.61c-.49,0-.6-.15-.6-.46v-8.04c0-.38.18-.46.46-.46h4.55c2.74,0,3.98-.13,5.61,1.37s1.42,4.5.15,6.07h-.01Z"/>
            <path class="cls-19" d="m392.34,426.52h-28.24c-.38,0-.78.13-.75.75s0,6.7,0,6.98.28.6.75.6h8.95c.38,0,.58.08.6.6.03.54,0,30.34,0,30.66s.28.63.91.6c.43-.01,7.24,0,7.58,0s.6-.23.6-.75v-30.66c0-.38.08-.46.6-.46h8.8c.46,0,.91-.36.91-.91v-6.68c0-.41-.28-.75-.75-.75h.04Z"/>
            <path class="cls-21" d="m403.88,426.37h-7.14c-.28,0-.75.05-.75.46v7.14c0,.2.1.6.6.6h7.29c.43,0,.6-.41.6-.75v-6.83c0-.41-.23-.6-.6-.6h0Z"/>
            <path class="cls-22" d="m403.88,437.6c-.41,0-6.85-.03-7.14,0s-.78.05-.75.6c.03.56,0,27.6,0,27.93s.23.6.6.6h7.29c.38,0,.6-.33.6-.75v-27.62c0-.43-.2-.75-.6-.75h0Z"/>
          </g>
          <path class="cls-6" d="m317.21,233.47c-5.24-.88-9.62-.47-13.63.47-5.01-3.12-9.48-5.12-12.9-5.03-.51.01-1.02.01-1.53,0-3.41-.1-7.89,1.91-12.9,5.03-4.02-.95-8.39-1.36-13.63-.47-5.15,1.6-8.75,3.57-9.14,6.3,0,0,.09,1.14,1.66,2.26,1.56,1.14,5.31,9.92,5.31,9.92l13.02,27.87,6.7,16.24s-1.57,2.48-1.57,6.27v32.18h3.17v-34.5c0-.92.75-1.68,1.68-1.68h4.9v-40.3c0-.5-.36-.92-.86-1l-2.74-.43c-.7-.12-1.23-.73-1.23-1.45,0-.79.65-1.45,1.46-1.45h9.9c.81,0,1.46.65,1.46,1.45,0,.72-.52,1.33-1.23,1.45l-2.74.43c-.49.08-.86.5-.86,1v40.3h4.9c.92,0,1.68.75,1.68,1.68v34.5h3.17v-32.18c0-3.79-1.57-6.27-1.57-6.27l6.7-16.24,13.02-27.87s3.75-8.79,5.31-9.92c1.57-1.13,1.66-2.26,1.66-2.26-.4-2.74-3.99-4.71-9.14-6.3h0Zm-32.59,25.34c.33.09.58.37.58.72v35.2h-1.96l-24.25-53.73c-.17-.36-.12-.81.18-1.07,3.02-2.8,9.28-1.79,15.65-.67.31.05.55.26.68.54l5.95,13.79h0c-.75,1.16-.54,2.72.42,3.72.73.75,1.65,1.24,2.74,1.51h.01Zm11.51-7.38c-.2.52-.77.77-1.3.63-1.25-.33-3.03-.37-4.92-.35-1.89-.03-3.67,0-4.92.35-.54.14-1.1-.1-1.3-.63l-5.27-13.08c4.07-3.06,7.83-3.81,11.5-3.91,3.67.1,7.43.86,11.5,3.91l-5.27,13.08Zm24.68-10.44l-24.25,53.73h-1.96v-35.2c0-.35.24-.63.58-.72,1.32-.33,2.4-.97,3.17-2.03.68-.93.63-2.21,0-3.18v-.03l5.93-13.79c.12-.28.37-.49.68-.54,6.37-1.14,12.64-2.15,15.65.67.29.27.35.7.18,1.07h.01Z"/>
          <g>
            <g>
              <path class="cls-3" d="m454.11,231.79c-1.88.37-26.82,5.99-35.36,7.74s-26.56,6.07-30.21,6.83c-.7.15-2.01.55-2.76.19,2.75-3.39,4.51-8.67,4.51-14.61s-1.75-11.19-4.49-14.58c.27-.17.67-.23,1.23-.14,2.03.29,13.01,2.6,20.78,4.25,7.79,1.65,45.78,9.48,46.14,9.57.37.08,2.05.38.15.75Z"/>
              <path class="cls-15" d="m390.3,231.94c0,5.93-1.76,11.22-4.51,14.61-.36-.15-.59-.49-.58-1.1.09-2.81.22-11.45.31-13.51.09-2.06-.28-11.52-.31-12.44-.01-.68-.13-1.73.6-2.14,2.74,3.39,4.49,8.66,4.49,14.58Z"/>
            </g>
            <g>
              <path class="cls-12" d="m125.89,231.79c1.88.37,26.82,5.99,35.36,7.74s26.56,6.07,30.21,6.83c.7.15,2.01.55,2.76.19-2.75-3.39-4.51-8.67-4.51-14.61s1.75-11.19,4.49-14.58c-.27-.17-.67-.23-1.23-.14-2.03.29-13.01,2.6-20.78,4.25-7.79,1.65-45.78,9.48-46.14,9.57-.37.08-2.05.38-.15.75h0Z"/>
              <path class="cls-15" d="m189.7,231.94c0,5.93,1.76,11.22,4.51,14.61.36-.15.59-.49.58-1.1-.09-2.81-.22-11.45-.31-13.51s.28-11.52.31-12.44c.01-.68.13-1.73-.6-2.14-2.74,3.39-4.49,8.66-4.49,14.58Z"/>
            </g>
          </g>
          <g>
            <path class="cls-11" d="m290.15,67.82c-.37,1.88-5.99,26.82-7.74,35.36s-6.07,26.56-6.83,30.21c-.15.7-.55,2.01-.19,2.76,3.39-2.75,8.67-4.51,14.61-4.51s11.19,1.75,14.58,4.49c.17-.27.23-.67.14-1.23-.29-2.03-2.6-13.01-4.25-20.78-1.65-7.79-9.48-45.78-9.57-46.14-.08-.37-.38-2.05-.75-.15Z"/>
            <path class="cls-15" d="m289.99,131.63c-5.93,0-11.22,1.76-14.61,4.51.15.36.49.59,1.1.58,2.81-.09,11.45-.22,13.51-.31s11.52.28,12.44.31c.68.01,1.73.13,2.14-.6-3.39-2.74-8.66-4.49-14.58-4.49Z"/>
          </g>
          <g>
            <g>
              <path class="cls-14" d="m174.06,348.08c1.06-1.59,14.73-23.2,19.53-30.48s14.49-23.08,16.54-26.19c.38-.6,1.04-1.8,1.82-2.08.45,4.34,2.94,9.32,7.14,13.52s9.16,6.68,13.48,7.14c-.08.31-.31.63-.77.97-1.65,1.23-11.04,7.37-17.7,11.69-6.68,4.34-39.07,25.67-39.39,25.86-.32.2-1.71,1.18-.64-.42h0Z"/>
              <path class="cls-15" d="m219.08,302.85c-4.19-4.19-6.69-9.18-7.14-13.52.36-.14.75-.08,1.19.37,1.93,2.06,7.94,8.25,9.34,9.77s8.35,7.95,9.02,8.58c.49.47,1.32,1.13,1.09,1.93-4.34-.46-9.3-2.95-13.48-7.14h-.01Z"/>
            </g>
            <g>
              <path class="cls-13" d="m406.16,115.98c-1.59,1.06-23.2,14.73-30.48,19.53s-23.08,14.49-26.19,16.54c-.6.38-1.8,1.04-2.08,1.82,4.34.45,9.32,2.94,13.52,7.14s6.68,9.16,7.14,13.48c.31-.08.63-.31.97-.77,1.23-1.65,7.37-11.04,11.69-17.7,4.34-6.68,25.67-39.07,25.86-39.39.2-.32,1.18-1.71-.42-.64h0Z"/>
              <path class="cls-15" d="m360.92,161c-4.19-4.19-9.18-6.69-13.52-7.14-.14.36-.08.75.37,1.19,2.06,1.93,8.25,7.94,9.77,9.34s7.95,8.35,8.58,9.02c.47.49,1.13,1.32,1.93,1.09-.46-4.34-2.95-9.3-7.14-13.48h0Z"/>
            </g>
          </g>
          <g>
            <g>
              <path class="cls-9" d="m406.16,348.59c-1.59-1.06-23.2-14.73-30.48-19.53s-23.08-14.49-26.19-16.54c-.6-.38-1.8-1.04-2.08-1.82,4.34-.45,9.32-2.94,13.52-7.14s6.68-9.16,7.14-13.48c.31.08.63.31.97.77,1.23,1.65,7.37,11.04,11.69,17.7,4.34,6.68,25.67,39.07,25.86,39.39.2.32,1.18,1.71-.42.64h0Z"/>
              <path class="cls-15" d="m360.92,303.57c-4.19,4.19-9.18,6.69-13.52,7.14-.14-.36-.08-.75.37-1.19,2.06-1.93,8.25-7.94,9.77-9.34s7.95-8.35,8.58-9.02c.47-.49,1.13-1.32,1.93-1.09-.46,4.34-2.95,9.3-7.14,13.48h0Z"/>
            </g>
            <g>
              <path class="cls-10" d="m174.06,116.49c1.06,1.59,14.73,23.2,19.53,30.48s14.49,23.08,16.54,26.19c.38.6,1.04,1.8,1.82,2.08.45-4.34,2.94-9.32,7.14-13.52s9.16-6.68,13.48-7.14c-.08-.31-.31-.63-.77-.97-1.65-1.23-11.04-7.37-17.7-11.69-6.68-4.34-39.07-25.67-39.39-25.86-.32-.2-1.71-1.18-.64.42h0Z"/>
              <path class="cls-15" d="m219.08,161.73c-4.19,4.19-6.69,9.18-7.14,13.52.36.14.75.08,1.19-.37,1.93-2.06,7.94-8.25,9.34-9.77s8.35-7.95,9.02-8.58c.49-.47,1.32-1.13,1.09-1.93-4.34.46-9.3,2.95-13.48,7.14h-.01Z"/>
            </g>
          </g>
        </g>
      </g>
    </g>
  </g>
</svg>