<svg width="941" height="599" viewBox="0 0 941 599" fill="none" xmlns="http://www.w3.org/2000/svg">
<path d="M12.69 154.601H32.649C36.065 154.601 41.1816 154.78 47.9987 155.108C47.9987 155.614 48.5059 156.135 49.5352 156.641L48.5059 162.774L49.0131 169.919C48.67 176.216 48.5059 181.827 48.5059 186.769H47.9987C47.9987 188.645 51.0716 189.657 57.2026 189.836C57.2026 190.178 57.3666 190.342 57.7097 190.342C57.7097 190.521 57.5307 191.191 57.2026 192.381C57.5456 194.168 57.7097 195.195 57.7097 195.448C57.2771 197.145 56.77 198.008 56.1733 198.008H53.6225C52.7722 197.323 52.086 196.981 51.5788 196.981C50.2064 197.323 49.5352 198.351 49.5352 200.048C49.8783 201.075 50.8926 201.581 52.6081 201.581H56.1882L57.7247 202.608C57.3816 204.9 57.0385 206.434 56.6954 207.208L57.2026 209.768L56.6954 214.368C57.3816 215.901 58.0528 216.749 58.739 216.913C60.0965 216.913 62.3191 212.492 65.392 203.635C65.392 202.876 63.6915 202.191 60.2755 201.596L59.7683 200.569V199.035C60.2755 197.16 63.3484 195.969 68.9721 195.463C70.255 194.525 71.1053 192.992 71.5379 190.863C70.8517 190.863 70.5086 190.521 70.5086 189.836L69.4793 190.342H67.4357C66.9285 190.342 66.2423 189.657 65.392 188.303V187.276C70.8517 174.935 74.4318 168.475 76.1323 167.88H104.281L109.397 169.413L112.47 168.907L112.978 169.934V170.961C107.771 181.262 104.878 186.71 104.281 187.305V188.332C104.281 188.839 105.131 189.523 106.832 190.372L107.861 189.866H109.905C110.412 189.866 110.934 190.372 111.441 191.399C111.441 193.438 109.905 195.314 106.832 197.011H103.252C101.372 197.011 100.015 197.859 99.1643 199.556V200.062C99.1643 200.911 101.208 201.596 105.31 202.102V203.635C103.341 205.927 101.82 208.652 100.701 211.807C98.7317 215.558 97.5383 217.419 97.1207 217.419H95.5842C94.8234 217.419 94.1373 217.255 93.5406 216.913C90.9898 216.913 88.5881 219.637 86.3804 225.085C85.008 226.366 81.95 232.484 77.1765 243.469C80.2495 248.575 84.3367 258.787 89.4533 274.104C90.5572 275.474 92.6008 280.579 95.5991 289.421C97.3892 293.843 99.6118 298.606 102.252 303.712V304.218C102.252 305.156 100.03 305.84 95.5991 306.257C95.256 306.942 95.092 307.448 95.092 307.79C96.7179 313.923 98.4185 316.975 100.209 316.975C108.398 317.66 112.485 318.851 112.485 320.548C112.485 321.485 114.186 325.906 117.602 333.826C119.899 338.425 122.122 343.873 124.255 350.17C124.255 351.525 117.259 352.209 103.281 352.209H102.774C98.9406 352.209 93.9881 352.031 87.9318 351.703C87.3351 352.046 86.6489 352.209 85.8881 352.209C84.1876 352.209 80.7715 344.38 75.655 328.72C73.2683 321.917 71.2246 318.508 69.5092 318.508C61.3197 318.508 57.2324 316.975 57.2324 313.908C56.8893 311.69 56.039 309.487 54.6816 307.269C54.6816 305.826 56.3821 304.977 59.7981 304.724V305.23C60.4843 304.888 60.9915 304.724 61.3346 304.724V304.218C60.0517 298.174 58.5153 293.753 56.7252 290.94C55.4423 286.176 54.0849 283.795 52.6379 283.795C49.9081 288.141 48.5506 291.878 48.5506 295.033V300.645C49.2368 303.027 49.5799 304.396 49.5799 304.724C49.5799 305.409 49.2368 305.751 48.5506 305.751H44.4634C42.4197 305.751 41.3904 306.778 41.3904 308.818V312.39C40.0181 314.429 38.8247 315.457 37.8103 315.457V316.484H38.3175C41.1368 316.484 44.3739 317.168 48.0435 318.523H48.5506L52.1307 317.496L53.16 319.029C53.16 320.056 52.981 321.247 52.6528 322.602C52.9959 327.708 53.16 331.965 53.16 335.374C53.16 336.222 52.981 337.592 52.6528 339.452C52.9959 340.733 53.16 342.266 53.16 344.052C52.8169 346.434 52.6528 347.788 52.6528 348.131C53.339 349.232 53.6821 350.081 53.6821 350.676L52.6528 351.182H49.5799C44.6274 351.867 42.0766 352.209 41.8976 352.209C39.9286 352.209 38.7352 352.031 38.3175 351.703C35.4236 352.046 33.022 352.209 31.1573 352.209H17.2993C16.106 352.209 14.7485 351.525 13.2121 350.17C13.5552 346.761 13.7192 344.216 13.7192 342.504V333.826C13.7192 330.938 13.5402 327.871 13.2121 324.641V319.029C5.02258 318.687 0.935303 317.675 0.935303 315.963C0.935303 315.114 1.2784 313.417 1.96458 310.857C1.62149 309.502 1.4574 308.133 1.4574 306.778C2.56127 305.498 4.948 304.65 8.6176 304.218C9.30379 302.863 9.64688 301.672 9.64688 300.645C9.64688 300.303 9.46788 300.139 9.1397 300.139L9.64688 297.073C9.64688 294.691 9.46788 293.5 9.1397 293.5C9.48279 290.091 9.64688 287.546 9.64688 285.834V265.917C9.64688 255.869 9.46788 244.809 9.1397 232.722C9.48279 230.34 9.64688 226.931 9.64688 222.51L9.1397 219.444C9.1397 217.404 11.8695 216.213 17.3292 215.871C17.3292 215.529 17.4933 215.365 17.8364 215.365L17.3292 212.299C17.6723 208.726 17.8364 205.838 17.8364 203.62C16.8966 202.519 14.5099 201.834 10.6762 201.581L9.1397 199.541C10.169 197.16 11.6905 195.969 13.7491 195.969C14.0922 195.969 14.2563 196.147 14.2563 196.475C16.2999 196.043 17.3292 195.537 17.3292 194.942V191.369C17.3292 190.684 16.9861 190.342 16.2999 190.342L13.227 190.848C11.6905 190.253 10.3331 189.062 9.1397 187.276V179.609C9.1397 177.987 9.30379 176.29 9.64688 174.504C9.30379 173.223 9.1397 171.69 9.1397 169.904L9.64688 163.771L9.1397 161.226L9.64688 158.665C8.96069 157.564 8.6176 156.715 8.6176 156.12C10.3181 155.093 11.6905 154.587 12.7049 154.587L12.69 154.601ZM29.0689 208.726L27.5325 210.765V212.805L30.0833 213.311H33.6634C34.1706 213.311 34.6927 212.805 35.1998 211.778C35.1998 210.497 33.1562 209.485 29.054 208.711L29.0689 208.726ZM52.1009 206.687L51.5937 207.714V208.22C51.6832 208.905 52.0263 209.247 52.623 209.247C53.3092 208.905 53.8164 208.741 54.1595 208.741V207.208L52.1158 206.701L52.1009 206.687ZM76.1473 232.722V233.749C76.6544 233.749 77.1765 233.243 77.6837 232.216V231.709H77.1765C76.4903 231.799 76.1473 232.141 76.1473 232.737V232.722ZM84.8439 154.601V155.108L85.8732 154.601H87.4097C87.7527 154.601 87.9168 154.78 87.9168 155.108L88.9461 154.601H94.5699C94.9129 154.601 95.077 154.78 95.077 155.108L96.1063 154.601H104.296C104.639 154.601 104.803 154.78 104.803 155.108C105.489 154.765 105.996 154.601 106.339 154.601C107.19 154.601 111.62 154.78 119.645 155.108L120.675 156.641C118.199 161.747 115.648 164.307 112.992 164.307H79.2202C77.8478 163.622 77.1765 162.774 77.1765 161.761L80.7566 155.629C82.0395 154.944 83.397 154.601 84.8439 154.601ZM80.7566 264.89V266.929H81.7859V265.902C81.7859 265.217 81.4428 264.875 80.7566 264.875V264.89Z" fill="#E80D0D"/>
<path d="M159.668 146.95H194.976L198.049 147.457L199.079 146.95C202.569 147.293 205.299 147.457 207.268 147.457H208.297C209.744 147.457 210.595 150.865 210.848 157.668C212.131 161.077 212.981 166.004 213.399 172.479C214.428 172.479 215.1 175.025 215.443 180.146C216.472 180.905 219.366 181.768 224.139 182.691C224.139 184.388 224.482 185.758 225.169 186.77C225.169 188.467 222.782 189.494 218.008 189.836C217.322 190.938 216.979 191.801 216.979 192.382C218.262 193.409 219.455 193.915 220.559 193.915H224.139C225.84 194.763 226.705 196.133 226.705 197.994C226.198 199.363 224.826 200.033 222.618 200.033V201.06C226.034 201.06 227.734 202.43 227.734 205.139V208.711C227.734 209.396 225.512 209.902 221.081 210.245L220.052 212.284C220.052 213.728 221.081 218.149 223.125 225.562C223.468 231.516 223.632 235.089 223.632 236.28C224.572 236.28 225.586 240.358 226.705 248.531C225.422 249.215 224.065 249.558 222.618 249.558H206.239C205.732 249.558 205.21 250.064 204.702 251.091V252.624C204.702 253.13 205.21 253.651 206.239 254.157H219.038C225.184 254.157 228.242 255.348 228.242 257.73C228.242 266.498 229.778 275.861 232.851 285.819C232.851 286.162 232.672 286.326 232.344 286.326L232.851 288.871V291.431L232.344 293.977C232.851 293.977 233.537 294.662 234.387 296.016V296.522C234.044 297.549 233.015 298.055 231.314 298.055H227.734C225.765 300.437 224.408 301.628 223.647 301.628C222.961 301.286 222.454 301.122 222.111 301.122L221.603 302.149V303.176C221.857 305.216 222.364 306.243 223.14 306.243C223.14 305.737 223.99 305.052 225.706 304.203H226.213C228.167 307.954 230.047 309.815 231.837 309.815C236.61 310.5 238.997 311.691 238.997 313.388C240.697 315.353 241.563 316.871 241.563 317.987C242.323 323.436 243.01 327.172 243.606 329.226C243.099 332.293 242.413 333.826 241.563 333.826L238.997 332.799C236.774 333.826 234.387 334.332 231.837 334.332H219.56C219.053 334.332 218.531 334.838 218.023 335.865C218.531 337.235 219.053 337.905 219.56 337.905H235.417C235.849 337.905 237.714 338.247 241.04 338.932L243.591 338.426C245.292 340.212 246.157 341.581 246.157 342.504C245.053 343.1 241.294 343.784 234.895 344.544L231.314 344.037L228.764 344.544C226.974 344.201 225.944 344.037 225.691 344.037L222.111 344.544C219.127 344.201 217.248 344.037 216.487 344.037L210.341 344.544V344.037L209.312 344.544H208.805C206.925 344.544 205.568 343.695 204.717 341.998L205.225 337.398C204.195 333.573 202.838 326.085 201.137 314.936V311.869C201.137 311.616 200.63 311.11 199.601 310.336C198.915 310.679 198.407 310.842 198.064 310.842C195.678 310.842 188.517 309.994 176.569 308.282C171.452 308.624 167.186 308.788 163.77 308.788L163.263 309.815C163.606 311.855 164.113 312.882 164.799 312.882H165.828L167.365 311.855H168.901C169.409 311.855 169.931 312.361 170.438 313.388L166.351 335.344V341.983C166.351 342.832 165.157 343.516 162.77 344.023L161.741 343.516C157.385 344.201 154.835 344.544 154.059 344.544C153.88 344.544 151.672 344.38 147.406 344.037C147.227 344.037 145.019 344.216 140.753 344.544L138.202 344.037C137.516 344.38 137.009 344.544 136.666 344.544L134.622 344.037L132.071 344.544C129.684 344.037 128.491 343.353 128.491 342.504L132.071 326.16C132.071 324.716 132.414 321.143 133.1 315.442V312.376C133.1 311.869 132.593 311.348 131.564 310.842H125.94C124.15 310.842 122.957 310.158 122.36 308.803V308.297C123.046 304.977 123.389 303.102 123.389 302.685V302.179C123.389 301.42 123.225 300.735 122.882 300.139C122.882 298.264 125.776 297.252 131.579 297.073C132.34 295.034 133.369 293.843 134.652 293.5L137.725 294.007C139.261 293.322 140.111 292.652 140.276 291.967C140.276 290.94 138.232 290.27 134.13 289.928C133.444 289.079 133.1 288.573 133.1 288.395V287.889C136.516 271.47 138.217 260.737 138.217 255.72C140.947 243.723 142.304 237.262 142.304 236.324C142.304 236.071 142.125 235.044 141.797 233.258L144.87 218.447L144.363 217.419C144.363 213.936 145.72 210.87 148.45 208.235L152.03 208.741H153.059C153.91 208.741 155.103 204.484 156.64 195.969C156.296 195.284 156.132 194.778 156.132 194.436H151.016C150.509 194.436 149.822 193.751 148.972 192.397V190.863C150.001 189.166 151.195 188.318 152.552 188.318C154.432 188.66 155.789 188.824 156.64 188.824C157.669 187.291 158.176 186.1 158.176 185.251C158.176 184.314 157.326 183.465 155.625 182.691C155.029 183.033 154.342 183.197 153.582 183.197C151.538 182.006 150.509 181.158 150.509 180.652C153.925 162.863 155.625 152.309 155.625 148.99C157.072 147.635 158.445 146.95 159.712 146.95H159.668ZM179.105 213.832L179.612 218.938V219.444C179.612 220.203 179.433 220.888 179.105 221.483C179.105 221.826 179.269 221.989 179.612 221.989C179.269 227.527 178.24 233.987 176.539 241.386L172.959 268.954H171.93C171.079 268.954 170.393 267.599 169.886 264.875L170.393 262.836C170.05 262.151 169.886 261.645 169.886 261.303H169.379C168.693 261.392 168.349 261.734 168.349 262.33V274.075C168.349 274.759 169.036 275.102 170.393 275.102V277.662C170.393 278.347 170.05 278.689 169.364 278.689H168.335L165.769 278.183L165.262 279.21L177.538 281.249C177.792 281.249 178.821 281.086 180.611 280.743C180.954 280.743 181.462 280.922 182.148 281.249C184.027 280.907 185.564 280.743 186.757 280.743H190.844C191.531 280.743 191.874 280.401 191.874 279.716C187.1 249.513 184.191 228.748 183.177 217.419C182.744 217.419 181.894 216.229 180.626 213.847H179.09L179.105 213.832ZM205.717 156.641V158.174L208.283 158.68L208.79 157.653V156.626L207.76 155.093C206.388 155.599 205.717 156.12 205.717 156.626V156.641ZM208.79 172.986L209.819 173.492H210.326V171.958H209.819C209.133 172.048 208.79 172.39 208.79 172.986ZM216.979 217.911V223.523C216.979 225.994 217.486 227.348 218.516 227.601L219.023 226.574V222.496C219.366 221.052 219.53 219.861 219.53 218.923C218.933 218.923 218.083 218.581 216.979 217.896V217.911ZM222.603 307.776V308.282H223.632V307.776H222.603ZM227.212 284.792V286.832H227.719V284.792H227.212ZM227.212 287.859V288.886H227.719V287.859H227.212Z" fill="#E80D0D"/>
<path d="M327.873 150.776L331.453 151.282H357.543C358.304 151.282 358.99 151.461 359.587 151.788C360.183 151.446 360.87 151.282 361.63 151.282L363.167 153.321C361.123 160.214 359.244 165.498 357.543 169.145C356.171 176.811 354.649 181.738 352.934 183.956C352.591 184.552 352.427 185.4 352.427 186.502V189.568C357.2 189.821 359.587 190.327 359.587 191.101V192.129C359.587 192.977 358.393 193.662 356.007 194.168C354.127 193.826 352.77 193.662 351.919 193.662C349.19 198.261 346.803 205.228 344.759 214.591L334.526 246.759C333.84 247.355 333.333 249.915 332.99 254.425L328.902 267.197L324.815 280.981C324.382 280.981 323.875 282.009 323.279 284.048C323.622 290.523 323.965 294.602 324.308 296.299L322.264 297.832C320.892 297.832 320.221 297.668 320.221 297.326C316.805 297.668 314.254 297.832 312.538 297.832H287.985C286.195 297.832 285.165 297.326 284.912 296.299V286.087C284.912 284.896 284.733 283.363 284.405 281.488C285.091 279.954 285.762 279.106 286.448 278.942H312.538C313.045 278.942 313.568 278.436 314.075 277.409C313.732 276.054 312.702 275.37 311.002 275.37H288.492L283.375 275.876C281.406 273.926 280.049 269.832 279.288 263.625C277.916 261.675 276.215 255.705 274.171 245.747C271.442 239.287 268.891 230.936 266.489 220.724C264.102 214.77 261.537 205.913 258.807 194.168L260.851 192.635H264.938V191.608C264.938 190.923 264.431 190.58 263.401 190.58L259.821 191.087C257.524 191.087 255.988 188.02 255.212 181.902C252.228 175.352 250.513 169.398 250.095 164.024C249.409 163.265 248.052 159.678 246.008 153.307V152.8C246.008 152.294 246.515 151.773 247.545 151.267H276.707C278.154 151.267 280.034 151.446 282.331 151.773C282.928 151.431 283.778 151.267 284.882 151.267C286.926 151.267 288.119 153.307 288.462 157.4L287.955 159.439L289.491 163.012L288.984 165.051C291.371 167.939 292.743 171.527 293.071 175.769C293.415 175.769 293.579 175.948 293.579 176.275V179.342L294.086 182.914C292.042 183.346 291.013 183.852 291.013 184.447V186.487C291.013 187.172 291.52 187.514 292.549 187.514L296.129 187.008C296.98 189.047 298.352 190.074 300.217 190.074H303.797C304.304 190.074 304.99 190.759 305.84 192.114V192.62C305.84 193.305 303.618 193.811 299.187 194.153C298.934 198.232 297.905 201.298 296.115 203.337L295.607 205.883C295.95 206.568 296.115 207.074 296.115 207.416H296.622C298.322 206.478 299.187 205.63 299.187 204.856H300.217C301.574 207.148 302.947 212.596 304.304 221.2C304.647 221.2 304.811 221.543 304.811 222.227H305.318C306.944 222.227 308.302 217.464 309.406 207.937C310.345 206.062 311.882 201.298 314.015 193.647L317.595 192.62H321.175C321.861 192.62 322.205 192.277 322.205 191.593C322.205 190.908 320.161 190.402 316.059 190.059L315.552 189.032C321.011 167.508 323.741 155.763 323.741 153.798C323.741 152.518 325.098 151.505 327.828 150.731L327.873 150.776ZM285.911 302.417H321.22C323.264 302.417 324.293 303.102 324.293 304.456C323.607 305.558 323.264 306.421 323.264 307.002C323.264 311.08 324.457 313.135 326.844 313.135C331.11 313.894 334.183 314.579 336.048 315.174C336.391 321.471 336.555 326.07 336.555 328.958V343.248C336.555 346.315 335.361 347.848 332.975 347.848H331.438C331.095 347.848 330.931 347.67 330.931 347.342C329.395 348.027 327.172 348.369 324.278 348.369H323.249C318.132 348.369 312.165 348.19 305.333 347.863C303.961 348.205 302.782 348.369 301.753 348.369L300.724 347.863L299.695 348.369C298.412 348.369 297.218 347.684 296.115 346.33C296.458 342.921 296.622 340.375 296.622 338.679V324.894C296.622 323.703 296.786 322.17 297.129 320.295C297.129 316.558 295.757 314.683 293.042 314.683C287.582 314.683 284.852 313.998 284.852 312.643V307.031L284.345 303.459L285.881 302.432L285.911 302.417ZM286.941 169.16V172.226C287.627 172.226 287.97 171.72 287.97 170.693C287.627 170.008 287.463 169.502 287.463 169.16H286.955H286.941ZM320.713 306.004C320.713 306.689 320.534 307.031 320.206 307.031C320.549 307.716 320.713 308.222 320.713 308.565C321.399 308.565 321.742 308.222 321.742 307.538V307.031C321.742 306.347 321.399 306.004 320.713 306.004ZM330.439 241.668L329.932 245.241L330.439 247.786C331.2 247.786 331.886 246.432 332.482 243.708C331.975 242.353 331.453 241.668 330.946 241.668H330.439ZM330.439 248.813V250.347H330.946V248.813H330.439ZM330.439 321.828V324.894H331.468C331.468 324.552 331.632 324.046 331.975 323.361L331.468 320.801C330.782 320.89 330.439 321.232 330.439 321.828ZM353.471 167.627L355.007 168.654L355.514 167.627V165.081H355.007C354.246 165.081 353.724 165.93 353.471 167.627Z" fill="#E80D0D"/>
<path d="M375.459 153.336H419.464C419.807 153.336 419.971 153.515 419.971 153.842L421.001 153.336H421.508C443.764 153.336 457.92 157.936 463.977 167.12C465.856 167.88 468.243 172.985 471.137 182.438C471.137 184.909 472.33 186.948 474.717 188.571C476.597 188.228 477.954 188.065 478.804 188.065C480.341 188.749 481.191 189.434 481.37 190.104V192.664C481.37 195.046 479.147 196.237 474.717 196.237L473.181 198.276C473.524 199.646 474.538 200.316 476.253 200.316H479.834C480.863 200.316 481.37 201 481.37 202.355C481.37 204.32 481.191 207.029 480.863 210.527L481.37 213.087C481.37 215.216 478.64 216.407 473.181 216.66C472.151 217.762 470.108 223.731 467.035 234.538C466.527 234.538 464.812 236.413 461.918 240.15C460.292 240.745 457.741 242.278 454.236 244.749V246.283C457.995 247.384 462.246 250.108 467.035 254.455C467.035 255.482 466.349 255.988 464.991 255.988C463.962 255.988 462.768 255.824 461.411 255.482C459.621 255.824 457.92 255.988 456.294 255.988H455.265C453.893 255.988 453.221 255.824 453.221 255.482L449.641 255.988H436.335C434.292 255.988 433.262 256.673 433.262 258.027C433.77 259.724 434.963 260.573 436.843 260.573H469.078C471.808 262.538 473.166 264.399 473.166 266.185V271.291C473.166 272.392 472.658 273.583 471.629 274.863V276.903L474.18 276.396C475.03 276.396 475.716 280.475 476.224 288.647C475.881 291.282 475.716 294.185 475.716 297.326V299.365C475.716 299.708 476.06 301.062 476.746 303.444C475.373 304.129 473.509 304.471 471.122 304.471H469.078L468.049 308.044V314.176C468.049 315.546 471.122 316.901 477.253 318.255V318.761L476.746 319.788C477.432 320.89 477.775 321.917 477.775 322.855C476.074 325.147 474.538 328.556 473.166 333.066C472.569 333.066 470.868 334.942 468.049 338.678C466.945 340.048 461.829 340.718 452.699 340.718C447.583 340.718 445.017 340.375 445.017 339.691L438.871 340.718C438.275 340.465 435.888 340.122 431.711 339.691C428.981 340.375 426.087 340.718 423.014 340.718H418.405C416.361 340.896 415.332 341.402 415.332 342.251V343.784L415.839 344.811L424.536 343.784C426.759 344.811 428.28 345.317 429.145 345.317H432.218C432.561 345.317 434.605 344.811 438.364 343.784L445.017 345.823C448.09 344.796 450.134 344.29 451.163 344.29H454.236C454.922 344.38 455.265 344.722 455.265 345.317V345.823C455.265 346.851 453.565 347.699 450.149 348.369C449.716 348.369 448.015 348.19 445.032 347.863C442.302 349.56 440.08 350.408 438.379 350.408C437.35 350.408 434.113 350.23 428.653 349.902C426.609 350.155 425.58 350.498 425.58 350.929C424.476 350.929 423.611 350.751 423.014 350.423C414.139 350.766 407.157 350.929 402.041 350.929H382.082C377.652 350.676 375.429 349.991 375.429 348.89L375.936 346.33C375.936 345.987 375.772 345.823 375.429 345.823L375.936 342.251V333.573L375.429 330C376.786 328.973 378.845 328.467 381.575 328.467C383.529 328.467 386.259 328.645 389.764 328.973C390.793 328.973 391.987 328.809 393.344 328.467C400.161 328.809 406.143 328.973 411.245 328.973H426.594C428.474 328.973 430.861 328.809 433.755 328.467C434.351 328.809 435.202 328.973 436.32 328.973C436.917 328.973 437.931 328.63 439.393 327.946C438.707 325.906 437.35 324.879 435.306 324.879H418.927C417.137 324.879 415.601 325.058 414.318 325.385C412.528 325.043 410.827 324.879 409.201 324.879H381.575L378.502 325.385C376.458 324.537 375.429 323.346 375.429 321.813L375.936 320.786C375.339 318.404 374.653 317.213 373.892 317.213H368.776C366.136 317.213 364.42 316.365 363.659 314.653V309.041L363.152 305.468L365.196 303.935H369.805C373.892 303.935 375.951 302.059 375.951 298.323C375.951 297.817 374.579 296.105 371.864 293.217V250.332C372.207 249.304 373.221 248.798 374.937 248.798H403.592C404.099 248.798 404.622 248.292 405.129 247.265V246.759C404.786 245.732 403.756 245.226 402.056 245.226C400.683 245.226 400.012 245.404 400.012 245.732L394.896 245.226H386.199C384.573 245.226 382.872 245.404 381.082 245.732C379.8 245.389 378.263 245.226 376.473 245.226H373.4C372.371 244.883 371.864 243.871 371.864 242.159V225.815L372.371 222.748C372.028 222.153 371.864 221.304 371.864 220.188V219.161C371.864 216.094 374.415 214.561 379.546 214.561L380.575 207.922C380.575 203.159 379.889 200.777 378.532 200.777C378.189 200.777 377.681 200.613 376.995 200.271L374.444 200.777C372.908 200.092 372.058 199.422 371.894 198.738V197.204C371.894 196.177 373.43 195.329 376.503 194.659H380.083C380.083 194.317 380.247 193.81 380.59 193.126C380.59 190.402 378.711 189.047 374.966 189.047C373.937 188.615 372.744 187.603 371.386 185.981L371.894 183.42C371.894 180.354 372.058 176.96 372.401 173.209C372.058 170.321 371.894 168.103 371.894 166.57L372.401 162.997C372.058 161.211 371.894 159.171 371.894 156.864C371.894 154.557 373.087 153.292 375.474 153.292L375.459 153.336ZM411.275 264.652L411.782 265.679C411.782 267.123 411.439 268.492 410.753 269.757C410.753 269.936 410.917 270.606 411.26 271.797C411.26 272.898 411.081 273.762 410.753 274.357C411.096 277.245 411.26 279.627 411.26 281.502V288.647C411.26 290.865 411.081 293.068 410.753 295.286L411.782 303.459C410.678 304.143 409.649 304.486 408.709 304.486H405.129C404.875 304.486 403.682 305.677 401.549 308.058H398.476L397.969 310.098L399.505 311.125C400.863 310.44 401.892 310.098 402.578 310.098C404.025 313.581 405.218 315.635 406.158 316.231L409.738 317.258H410.245L413.318 316.752C415.019 316.752 416.048 318.121 416.391 320.83L418.942 321.336H420.986C430.876 321.336 435.828 320.309 435.828 318.27C435.828 317.243 433.949 316.737 430.204 316.737C429.861 316.737 429.354 316.915 428.668 317.243C427.131 316.558 426.281 315.888 426.117 315.204L428.668 307.537C428.325 306.853 428.161 306.347 428.161 306.004C429.787 304.307 432.338 303.459 435.843 303.459L436.35 302.432V279.969C436.35 271.975 432.934 266.527 426.117 263.625C424.327 263.625 421.09 263.282 416.391 262.597H413.318C412.975 262.597 412.289 263.282 411.275 264.637V264.652ZM411.782 183.986V186.025C411.782 187.305 414.169 188.154 418.942 188.571L419.449 189.598V192.143C419.449 194.614 418.942 195.969 417.913 196.222H417.406C416.555 196.222 415.869 194.689 415.362 191.622L414.333 191.116H413.825L413.318 193.676L415.362 195.716C412.543 197.755 410.156 198.782 408.202 198.782C406.501 198.782 405.651 199.809 405.651 201.849V202.876C405.651 203.814 408.545 204.662 414.348 205.436C416.227 205.094 417.764 204.93 418.957 204.93L419.464 205.957V214.636C419.464 215.142 418.957 215.663 417.928 216.169H416.391C415.63 216.169 414.944 216.005 414.348 215.663C412.304 215.663 411.275 219.235 411.275 226.38V227.914C411.275 230.801 411.961 232.677 413.318 233.526C423.208 232.245 428.161 230.891 428.161 229.447C428.161 228.688 429.354 226.976 431.741 224.341L433.277 219.741C432.934 219.057 432.77 218.551 432.77 218.208C434.307 215.826 437.036 214.636 440.96 214.636L441.989 207.49C441.989 202.727 440.96 200.345 438.916 200.345H438.409L434.829 200.851L433.292 197.785C433.292 197.443 433.978 196.43 435.336 194.718L437.887 195.225H438.916C439.423 195.225 439.945 194.718 440.452 193.691V192.664C439.005 190.283 437.976 189.092 437.38 189.092H433.799C432.86 189.092 429.787 187.216 424.596 183.48L422.03 182.974H418.45C417.256 182.974 415.72 182.81 413.84 182.468C412.468 182.974 411.797 183.495 411.797 184.001L411.782 183.986ZM462.44 308.058V309.086H463.469C463.469 308.401 463.126 308.058 462.44 308.058ZM469.093 270.278L469.6 272.824H470.63L470.123 270.278H469.093Z" fill="#E80D0D"/>
<path d="M528.836 145.417C541.799 145.417 551.689 146.444 558.506 148.483C562.519 150.18 566.949 152.905 571.812 156.656C571.812 157.683 573.513 159.38 576.929 161.762C578.033 167.21 580.598 169.934 584.596 169.934C588.266 169.934 590.817 171.809 592.278 175.546V176.052C591.085 177.243 588.862 178.091 585.625 178.612C585.625 180.994 583.403 182.185 578.972 182.185H569.769C569.261 182.185 568.739 182.691 568.232 183.718V185.251C568.232 186.278 568.918 186.784 570.276 186.784C572.916 186.784 577.69 186.963 584.596 187.291C585.193 187.797 585.7 190.015 586.133 193.93L585.103 204.141C585.446 207.624 585.954 210.527 586.64 212.82C586.64 216.571 585.267 218.431 582.553 218.431H560.043C559.535 218.431 559.013 218.938 558.506 219.965V221.498L559.535 223.031L562.086 222.525H570.276C581.195 222.525 586.655 223.374 586.655 225.071C586.312 226.098 585.969 226.604 585.625 226.604C585.625 229.239 588.355 231.114 593.815 232.216V233.243L593.308 234.27C593.994 235.371 594.337 236.235 594.337 236.83C593.054 237.857 592.04 238.363 591.264 238.363L589.22 237.857C586.834 239.048 585.64 240.403 585.64 241.936C585.64 242.278 585.804 242.785 586.148 243.469C585.804 246.357 585.64 248.754 585.64 250.614V252.148C585.64 254.023 585.804 256.405 586.148 259.293C586.148 259.635 585.969 259.799 585.64 259.799C585.983 261.585 586.148 262.612 586.148 262.865C586.148 265.247 585.969 269.847 585.64 276.65C585.983 279.031 586.148 280.401 586.148 280.728C585.804 282.008 585.64 283.363 585.64 284.807C585.64 285.566 585.804 286.251 586.148 286.846C585.804 288.722 585.64 290.255 585.64 291.446V297.579C585.64 300.303 585.461 303.533 585.133 307.284C585.133 309.249 587.013 310.44 590.757 310.857H595.366C595.873 310.857 596.396 311.363 596.903 312.39C594.934 318.865 593.576 322.096 592.815 322.096C591.369 322.096 585.402 322.438 574.915 323.123C574.572 323.123 574.408 322.959 574.408 322.617L571.857 323.123H562.131C559.908 323.123 556.507 322.959 551.898 322.617L550.361 324.656C550.361 324.998 551.048 325.683 552.405 326.695L554.971 326.189H558.044C562.4 326.189 567.173 326.368 572.364 326.695L574.915 326.189L577.466 326.695L581.046 326.189L584.119 327.723H586.162L587.699 326.695H589.235C590.265 327.038 590.772 328.065 590.772 329.762C587.788 332.397 584.894 334.615 582.075 336.401C582.075 338.946 576.615 341.849 565.696 345.079C557.85 346.434 551.54 347.119 546.766 347.119H538.577C526.464 345.928 518.961 343.888 516.067 340.986C512.308 339.452 507.713 335.031 502.254 327.708L495.601 310.857H487.933C485.204 310.857 483.846 309.83 483.846 307.791C483.503 304.56 483.339 300.988 483.339 297.073V252.654C483.339 250.778 483.16 248.396 482.832 245.509C483.175 244.824 483.339 244.318 483.339 243.975L482.832 240.909C482.996 238.959 485.562 237.768 490.514 237.336C491.111 236.488 491.618 235.118 492.051 233.258C491.543 231.903 491.021 231.218 490.514 231.218H486.934C485.054 231.218 483.697 230.37 482.847 228.658C482.847 226.782 483.876 225.428 485.92 224.579L489.5 225.085H491.543C492.647 225.085 493.497 224.922 494.094 224.579L496.66 225.085C504.924 224.743 510.22 224.579 512.517 224.579L519.17 226.113C519.856 225.77 520.363 225.606 520.706 225.606L525.316 231.218H529.925C530.432 231.218 530.954 231.724 531.461 232.752V236.83C531.282 237.515 530.432 238.2 528.911 238.87C527.031 238.527 525.495 238.363 524.301 238.363C523.272 239.465 522.765 240.328 522.765 240.924C523.108 243.306 523.272 244.675 523.272 245.003C522.929 246.03 522.586 246.536 522.243 246.536L522.75 249.081V254.187C522.75 254.946 522.571 255.631 522.243 256.226L522.75 257.253C522.407 260.141 522.243 262.538 522.243 264.399C522.586 267.376 522.75 269.088 522.75 269.504H522.243L522.75 270.532V275.637C522.75 275.98 522.571 276.143 522.243 276.143L522.75 277.171V298.621C522.75 306.451 524.973 310.366 529.403 310.366C530.089 310.366 531.282 310.708 532.983 311.393L536.056 310.887H537.085C540.069 315.308 542.977 317.526 545.782 317.526H547.318C548.079 317.436 549.451 316.424 551.406 314.459C553.285 314.459 554.479 313.775 554.986 312.42V311.914C554.986 311.229 554.643 310.887 553.956 310.887H546.289C545.782 310.887 545.26 310.381 544.753 309.354V308.847C545.782 307.999 546.289 303.399 546.289 295.063V239.926C546.289 239.167 549.019 238.14 554.479 236.86V231.754C549.198 231.754 546.289 230.563 545.782 228.182L546.289 223.076L545.782 220.009C546.125 218.655 546.289 217.464 546.289 216.437C546.289 214.904 546.11 213.876 545.782 213.37C546.125 211.078 546.289 209.202 546.289 207.758V195.507C546.289 194.064 546.11 192.188 545.782 189.896C546.125 189.211 546.289 188.705 546.289 188.362C546.289 185.043 545.096 182.319 542.709 180.19V179.163C542.709 178.821 543.902 177.808 546.289 176.096L542.709 175.069C540.829 175.069 538.1 176.096 534.519 178.136C534.176 178.136 534.012 177.972 534.012 177.63C527.195 177.63 523.779 181.545 523.779 189.375L522.243 194.48C522.243 196.862 522.407 200.613 522.75 205.719C522.407 209.798 521.721 211.852 520.706 211.852H519.677L518.648 211.346L518.141 212.373V213.4L518.648 214.427L519.677 213.921H520.706C522.407 214.77 523.257 216.139 523.257 218C523.257 220.039 518.305 221.066 508.415 221.066H484.875L482.832 219.533L483.339 216.973C483.339 216.288 483.16 215.946 482.832 215.946L483.339 212.373V190.417C484.1 181.902 485.472 177.645 487.426 177.645C492.2 177.645 494.586 176.111 494.586 173.045V172.539C494.586 172.033 492.707 171.348 488.963 170.499L488.456 169.472C488.456 168.118 491.349 163.682 497.152 156.194C498.002 156.194 500.225 154.497 503.805 151.088C510.712 147.337 519.065 145.477 528.881 145.477L528.836 145.417ZM518.603 250.6C518.603 250.942 518.424 251.448 518.096 252.133C518.439 253.755 518.603 255.958 518.603 258.772H519.11C519.11 257.923 519.274 255.363 519.617 251.106L518.588 250.6H518.603ZM518.603 184.224V184.73C518.692 185.415 519.036 185.757 519.632 185.757H520.139C520.826 185.757 521.169 185.415 521.169 184.73V183.197H519.632C518.946 183.286 518.603 183.629 518.603 184.224Z" fill="#E80D0D"/>
<path d="M597.261 150.776C597.604 150.776 597.768 150.954 597.768 151.282L598.798 150.776H615.684C620.8 150.776 624.888 151.118 627.961 151.803C628.468 151.46 629.497 151.297 631.033 151.297L633.584 152.83C633.405 155.896 633.077 157.43 632.555 157.43L633.062 158.457V162.535C633.062 163.295 632.883 163.979 632.555 164.575C633.241 166.272 633.584 167.463 633.584 168.147C633.241 169.428 633.077 170.782 633.077 172.226C634.435 172.911 635.121 173.417 635.121 173.759L636.15 173.253C639.566 173.685 641.267 174.355 641.267 175.293V178.865C641.267 179.371 640.58 180.056 639.223 180.904C637.09 180.904 631.287 181.247 621.83 181.932C617.996 181.589 614.416 181.425 611.089 181.425C606.823 181.768 604.272 181.932 603.422 181.932C602.318 180.577 601.289 178.18 600.349 174.786C599.663 174.444 599.156 174.28 598.813 174.28L595.74 174.786C594.039 173.253 593.189 170.023 593.189 165.081C593.189 164.828 593.353 163.801 593.696 162.014C593.353 157.936 593.189 154.869 593.189 152.83C594.636 151.475 596.008 150.791 597.276 150.791L597.261 150.776ZM596.232 179.877C597.172 179.877 597.843 181.574 598.276 184.983L599.305 185.489H621.815C622.322 185.489 625.052 185.832 630.004 186.516H632.048C632.555 186.516 633.077 187.022 633.584 188.05C633.584 190.431 633.241 191.622 632.555 191.622L633.062 194.168V212.045L633.569 215.112L632.033 217.657L628.453 217.151C625.216 218.178 622.65 218.684 620.77 218.684H609.508C608.315 218.684 606.778 218.521 604.899 218.178C604.213 218.521 603.705 218.684 603.362 218.684C600.379 218.342 598.499 218.178 597.738 218.178L595.188 218.684C593.815 217.241 593.144 215.871 593.144 214.606V209.5C593.144 208.473 593.308 207.967 593.651 207.967L593.144 205.421V193.17C593.144 191.726 593.308 189.851 593.651 187.558C593.308 186.963 593.144 186.114 593.144 185.013C593.144 182.795 594.173 181.098 596.217 179.907L596.232 179.877ZM595.203 221.751L598.276 222.257C599.469 222.257 601.005 222.093 602.885 221.751C608.419 222.093 613.372 222.257 617.727 222.257L622.337 221.751C629.154 223.031 632.57 223.88 632.57 224.296C632.913 224.296 633.256 224.802 633.599 225.83C633.256 228.211 633.092 230.251 633.092 231.962C633.092 233.749 635.643 234.94 640.759 235.535V236.562L640.252 237.589C640.595 238.185 640.759 238.869 640.759 239.629V240.135C640.759 241.073 638.537 241.757 634.106 242.174C633.42 243.276 633.077 244.303 633.077 245.241C633.077 246.268 633.241 246.774 633.584 246.774L633.077 251.88V309.071C633.077 311.884 635.807 313.923 641.267 315.203L641.774 316.231V316.737C641.774 317.079 641.595 317.243 641.267 317.243C641.61 317.928 641.774 318.434 641.774 318.776H642.281C642.967 318.776 643.31 318.434 643.31 317.749V317.243L642.803 316.216L643.832 315.71C644.339 318.091 645.19 319.282 646.383 319.282L649.963 318.776L655.08 319.803C661.047 319.461 664.806 319.297 666.342 319.297C669.072 319.297 672.652 319.476 677.082 319.803L684.243 319.297C688.763 319.639 692.507 319.803 695.505 319.803L696.012 320.83C696.012 326.874 695.669 330.789 694.983 332.575C695.669 334.451 696.176 338.023 696.519 343.293C696.519 346.359 694.819 347.893 691.403 347.893C689.106 348.235 685.526 348.399 680.663 348.399H649.456C648.695 348.399 648.009 348.22 647.412 347.893C646.816 348.235 646.129 348.399 645.369 348.399H644.339C643.236 348.399 642.37 348.22 641.789 347.893L638.716 348.399C635.046 348.399 631.123 348.056 626.946 347.372C621.83 348.056 618.07 348.399 615.684 348.399C615.341 348.399 615.177 348.22 615.177 347.893L612.626 348.399H609.046C607.256 348.399 606.062 347.55 605.466 345.853C605.809 341.254 605.973 337.86 605.973 335.642V317.779C605.973 315.829 604.943 314.638 602.9 314.206L600.349 314.712C595.576 314.206 593.189 313.521 593.189 312.673V269.266C593.189 263.907 593.353 255.05 593.696 242.71C594.203 242.71 594.889 242.025 595.74 240.671L598.305 241.177H600.349C601.035 241.177 601.378 240.834 601.378 240.15V236.071C601.378 235.044 599.156 234.374 594.725 234.032C593.696 232.751 593.189 231.397 593.189 229.953C593.189 225.785 593.875 223.061 595.232 221.781L595.203 221.751ZM626.931 192.143L627.438 194.704C629.482 194.704 630.511 193.676 630.511 191.637L629.482 191.131H627.946C627.259 191.22 626.916 191.563 626.916 192.158L626.931 192.143ZM627.438 159.469V159.975C627.528 160.66 627.871 161.002 628.468 161.002L628.975 159.975V158.442H628.468C627.782 158.531 627.438 158.874 627.438 159.469ZM690.881 328.467V330.506C690.97 331.191 691.313 331.533 691.91 331.533V328.467H690.881ZM690.881 334.079V335.106H691.91V333.066C691.224 333.156 690.881 333.498 690.881 334.093V334.079Z" fill="#E80D0D"/>
<path d="M731.963 146.95H767.271L770.344 147.457L771.374 146.95C774.864 147.293 777.594 147.457 779.563 147.457H780.592C782.039 147.457 782.89 150.865 783.158 157.668C784.441 161.077 785.291 166.004 785.709 172.479C786.738 172.479 787.409 175.025 787.753 180.146C788.782 180.905 791.676 181.768 796.449 182.691C796.449 184.388 796.792 185.758 797.479 186.77C797.479 188.467 795.092 189.494 790.318 189.836C789.632 190.938 789.289 191.801 789.289 192.382C790.572 193.409 791.765 193.915 792.869 193.915H796.449C798.15 194.763 799 196.133 799 197.994C798.493 199.363 797.121 200.033 794.913 200.033V201.06C798.329 201.06 800.029 202.43 800.029 205.139V208.711C800.029 209.396 797.807 209.902 793.376 210.245L792.347 212.284C792.347 213.728 793.376 218.149 795.42 225.562C795.763 231.516 795.927 235.089 795.927 236.28C796.867 236.28 797.881 240.358 799 248.531C797.717 249.215 796.36 249.558 794.913 249.558H778.534C778.027 249.558 777.505 250.064 776.997 251.091V252.624C776.997 253.13 777.505 253.651 778.534 254.157H791.333C797.479 254.157 800.537 255.348 800.537 257.73C800.537 266.498 802.073 275.861 805.146 285.819C805.146 286.162 804.967 286.326 804.639 286.326L805.146 288.871V291.431L804.639 293.977C805.146 293.977 805.832 294.662 806.682 296.016V296.522C806.339 297.549 805.31 298.055 803.609 298.055H800.029C798.06 300.437 796.703 301.628 795.942 301.628C795.256 301.286 794.749 301.122 794.406 301.122L793.898 302.149V303.176C794.152 305.216 794.659 306.243 795.435 306.243C795.435 305.737 796.285 305.052 797.986 304.203H798.493C800.447 307.954 802.327 309.815 804.117 309.815C808.89 310.5 811.277 311.691 811.277 313.388C812.977 315.353 813.828 316.871 813.828 317.987C814.588 323.436 815.275 327.172 815.871 329.226C815.364 332.293 814.678 333.826 813.828 333.826L811.277 332.799C809.054 333.826 806.667 334.332 804.117 334.332H791.84C791.333 334.332 790.811 334.838 790.303 335.865C790.811 337.235 791.333 337.905 791.84 337.905H807.697C808.129 337.905 809.994 338.247 813.32 338.932L815.871 338.426C817.572 340.212 818.422 341.581 818.422 342.504C817.318 343.1 813.559 343.784 807.16 344.544L803.58 344.037L801.029 344.544C799.239 344.201 798.209 344.037 797.956 344.037L794.376 344.544C791.392 344.201 789.513 344.037 788.752 344.037L782.606 344.544V344.037L781.577 344.544H781.07C779.19 344.544 777.833 343.695 776.982 341.998L777.49 337.398C776.46 333.573 775.103 326.085 773.402 314.936V311.869C773.402 311.616 772.895 311.11 771.866 310.336C771.18 310.679 770.673 310.842 770.329 310.842C767.943 310.842 760.783 309.994 748.834 308.282C743.717 308.624 739.451 308.788 736.035 308.788L735.528 309.815C735.871 311.855 736.378 312.882 737.064 312.882H738.094L739.63 311.855H741.167C741.674 311.855 742.196 312.361 742.703 313.388L738.616 335.344V341.983C738.616 342.832 737.422 343.516 735.036 344.023L734.006 343.516C729.651 344.201 727.1 344.544 726.324 344.544C726.145 344.544 723.937 344.38 719.671 344.037C719.492 344.037 717.284 344.216 713.018 344.544L710.467 344.037C709.781 344.38 709.274 344.544 708.931 344.544L706.887 344.037L704.336 344.544C701.95 344.037 700.756 343.353 700.756 342.504L704.336 326.16C704.336 324.716 704.679 321.143 705.366 315.442V312.376C705.366 311.869 704.858 311.348 703.829 310.842H698.205C696.415 310.842 695.222 310.158 694.625 308.803V308.297C695.311 304.977 695.655 303.102 695.655 302.685V302.179C695.655 301.42 695.49 300.735 695.147 300.139C695.147 298.264 698.041 297.252 703.844 297.073C704.605 295.034 705.634 293.843 706.917 293.5L709.99 294.007C711.526 293.322 712.377 292.652 712.541 291.967C712.541 290.94 710.497 290.27 706.395 289.928C705.709 289.079 705.366 288.573 705.366 288.395V287.889C708.782 271.47 710.482 260.737 710.482 255.72C713.212 243.723 714.569 237.262 714.569 236.324C714.569 236.071 714.39 235.044 714.062 233.258L717.135 218.447L716.628 217.419C716.628 213.936 717.985 210.87 720.715 208.235L724.295 208.741H725.325C726.175 208.741 727.368 204.484 728.905 195.969C728.562 195.284 728.398 194.778 728.398 194.436H723.281C722.774 194.436 722.088 193.751 721.237 192.397V190.863C722.267 189.166 723.46 188.318 724.817 188.318C726.697 188.66 728.054 188.824 728.905 188.824C729.934 187.291 730.441 186.1 730.441 185.251C730.441 184.314 729.591 183.465 727.89 182.691C727.294 183.033 726.607 183.197 725.847 183.197C723.803 182.006 722.774 181.158 722.774 180.652C726.19 162.863 727.89 152.309 727.89 148.99C729.337 147.635 730.71 146.95 731.978 146.95H731.963ZM751.4 213.832L751.907 218.938V219.444C751.907 220.203 751.728 220.888 751.4 221.483C751.4 221.826 751.564 221.989 751.907 221.989C751.564 227.527 750.534 233.987 748.834 241.386L745.254 268.954H744.225C743.374 268.954 742.688 267.599 742.181 264.875L742.688 262.836C742.345 262.151 742.181 261.645 742.181 261.303H741.674C740.988 261.392 740.644 261.734 740.644 262.33V274.075C740.644 274.759 741.331 275.102 742.688 275.102V277.662C742.688 278.347 742.345 278.689 741.659 278.689H740.63L738.079 278.183L737.572 279.21L749.848 281.249C750.102 281.249 751.131 281.086 752.921 280.743C753.264 280.743 753.771 280.922 754.458 281.249C756.337 280.907 757.874 280.743 759.067 280.743H763.154C763.841 280.743 764.184 280.401 764.184 279.716C759.41 249.513 756.501 228.748 755.487 217.419C755.054 217.419 754.204 216.229 752.921 213.847H751.385L751.4 213.832ZM778.012 156.641V158.174L780.563 158.68L781.07 157.653V156.626L780.04 155.093C778.668 155.599 777.997 156.12 777.997 156.626L778.012 156.641ZM781.085 172.986L782.114 173.492H782.621V171.958H782.114C781.428 172.048 781.085 172.39 781.085 172.986ZM789.274 217.911V223.523C789.274 225.994 789.781 227.348 790.811 227.601L791.318 226.574V222.496C791.661 221.052 791.825 219.861 791.825 218.923C791.228 218.923 790.378 218.581 789.259 217.896L789.274 217.911ZM794.898 307.776V308.282H795.927V307.776H794.898ZM799.507 284.792V286.832H800.014V284.792H799.507ZM799.507 287.859V288.886H800.014V287.859H799.507Z" fill="#E80D0D"/>
<path d="M824.955 157.162H850.03C863.68 157.162 870.497 158.859 870.497 162.268C870.497 167.716 871.526 171.973 873.57 175.04C873.57 178.791 876.642 180.651 882.773 180.651C883.803 182.944 884.31 184.819 884.31 186.263V186.769C884.31 187.454 883.967 187.797 883.281 187.797C881.401 187.454 880.044 187.29 879.193 187.29C878.164 188.734 877.657 190.104 877.657 191.369C878.686 194.093 879.193 195.79 879.193 196.475L878.686 197.502C882.43 207.892 884.31 214.516 884.31 217.419C887.04 224.311 888.74 230.444 889.426 235.803L890.456 236.309H891.485L891.992 233.764V233.258C891.992 227.556 891.649 222.287 890.963 217.434C891.306 209.693 891.47 202.37 891.47 195.478V189.345C891.47 188.154 894.364 186.963 900.167 185.772V184.745C899.913 182.021 898.72 180.666 896.587 180.666L895.557 181.172C894.797 181.172 893.26 180.145 890.948 178.106L891.455 174.533V164.322L891.962 161.255C891.619 160.66 891.455 159.811 891.455 158.695C892.738 157.668 894.275 157.162 896.065 157.162L899.645 157.668C900.927 157.325 902.464 157.162 904.254 157.162V157.668L905.283 157.162H906.313C908.446 157.162 910.997 157.34 913.98 157.668L916.546 157.162C921.662 157.846 924.213 158.353 924.213 158.695L925.242 158.189H926.779C927.286 158.189 927.972 158.874 928.822 160.228V162.268C927.45 163.801 926.779 164.649 926.779 164.828L928.822 168.4L928.315 170.961L928.822 174.027L926.272 175.561L923.721 175.054C917.247 175.903 913.995 176.751 913.995 177.615V178.642C914.084 179.327 914.427 179.669 915.024 179.669H917.575C921.155 179.669 926.615 179.848 933.954 180.175C935.654 182.467 936.505 184.343 936.505 185.787C934.804 187.156 933.775 187.826 933.432 187.826C932.746 187.484 932.238 187.32 931.895 187.32C929.166 187.826 927.808 190.387 927.808 194.986C927.808 196.609 927.972 198.306 928.315 200.092C927.972 202.98 927.808 205.362 927.808 207.237C927.808 208.934 927.972 211.495 928.315 214.904C927.972 216.779 927.808 218.134 927.808 218.982C928.151 220.768 928.315 221.796 928.315 222.049L927.808 225.621C928.151 228.598 928.315 230.474 928.315 231.233L927.808 235.833C927.808 239.584 930.359 241.445 935.475 241.445C935.819 242.04 936.162 243.737 936.505 246.551C935.908 247.146 933.342 247.994 928.822 249.096L928.315 250.123V253.19C928.315 255.155 928.136 256.345 927.808 256.762C928.151 258.638 928.315 259.992 928.315 260.841C928.315 265.009 928.136 270.115 927.808 276.158C928.151 280.163 928.315 283.05 928.315 284.837C927.972 289.094 927.808 291.639 927.808 292.503C928.151 294.795 928.315 296.671 928.315 298.115C927.972 298.799 927.808 299.306 927.808 299.648C928.151 300.243 928.315 301.092 928.315 302.208C928.136 302.893 927.286 303.578 925.764 304.248C923.885 303.905 922.527 303.742 921.677 303.742C920.305 303.831 919.634 304.173 919.634 304.769L916.053 304.263H912.98C910.937 304.263 909.908 305.29 909.908 307.329C911.19 308.356 912.384 308.862 913.488 308.862C915.278 308.862 916.814 308.698 918.097 308.356C920.32 308.698 922.527 308.862 924.75 308.862H926.794C927.301 308.862 927.823 309.368 928.33 310.395C928.33 311.155 928.151 313.03 927.823 316.007C927.823 319.074 930.374 320.607 935.49 320.607C938.906 320.607 940.607 321.113 940.607 322.14V322.646C940.607 323.837 936.848 324.522 929.345 324.686C929.001 324.686 928.494 324.522 927.808 324.18C925.511 324.522 923.631 324.686 922.184 324.686H916.038C915.531 324.686 915.009 325.192 914.502 326.219V326.725C914.845 327.752 915.86 328.258 917.575 328.258H928.315C932.403 328.348 934.461 328.69 934.461 329.285L935.49 328.779H937.534C938.474 328.779 939.488 329.122 940.607 329.806C939.921 333.468 939.578 335.85 939.578 336.952C939.921 344.945 940.085 350.393 940.085 353.296C939.399 353.385 939.056 353.728 939.056 354.323C931.716 354.666 926.257 354.829 922.677 354.829H907.327C906.566 354.829 905.88 354.651 905.283 354.323C904.687 354.666 904 354.829 903.24 354.829C899.824 354.829 898.123 352.79 898.123 348.696C897.094 346.225 896.587 344.692 896.587 344.097V343.591C896.587 342.653 898.63 341.804 902.732 341.03L903.24 340.003V339.497C903.24 338.991 902.732 338.47 901.703 337.964H898.123C894.961 337.964 893.096 334.555 892.499 327.752C891.306 323.748 890.277 321.545 889.426 321.113C889.083 321.113 888.919 321.292 888.919 321.619C881.073 321.619 877.15 319.744 877.15 316.007C876.464 311.586 873.391 300.348 867.946 282.306C863.859 268.522 861.8 260.007 861.8 256.777C861.8 254.827 860.607 252.267 858.22 249.111L856.683 251.671C857.37 254.901 857.713 256.941 857.713 257.804C857.37 266.066 857.206 272.362 857.206 276.694H856.698C857.041 278.734 857.385 279.761 857.728 279.761L857.22 282.306V285.879C857.22 287.754 857.385 290.136 857.728 293.024L855.177 300.69C853.476 301.285 852.626 302.655 852.626 304.769L853.133 306.808H854.162L855.699 305.781H856.728C857.489 305.781 858.011 306.629 858.265 308.326L857.758 312.926C857.758 317.689 859.294 320.071 862.367 320.071C864.754 320.324 865.947 320.667 865.947 321.098L866.976 320.592H868.006L870.049 322.125L869.542 327.231V333.364C869.542 334.123 869.706 334.808 870.049 335.403C869.363 336.773 869.02 337.949 869.02 338.976C869.02 339.825 869.363 344.424 870.049 352.76L868.006 354.293H867.498C865.529 354.293 862.814 354.457 859.309 354.8C858.966 354.8 858.802 354.621 858.802 354.293L856.251 354.8H849.091C848.33 354.8 847.644 354.621 847.047 354.293C846.45 354.636 845.764 354.8 845.003 354.8L839.887 354.293C838.007 354.636 836.65 354.8 835.8 354.8C834.263 354.115 833.413 353.43 833.249 352.76V345.094C833.249 341.864 833.07 338.634 832.742 335.389C833.085 333.096 833.428 328.66 833.771 322.111C832.398 321.426 831.727 320.92 831.727 320.577L826.611 321.083H825.581C822.941 321.083 821.405 320.399 820.972 319.044V296.581C820.972 288.915 821.136 279.909 821.479 269.519C821.136 267.301 820.972 265.098 820.972 262.88C821.315 258.802 821.479 254.202 821.479 249.096C826.596 247.563 829.146 246.03 829.146 244.496V241.43C824.03 241.43 821.479 240.075 821.479 237.351L820.972 235.312C821.315 233.094 821.479 230.891 821.479 228.673C821.479 228.33 821.3 227.824 820.972 227.14C820.972 226.797 821.136 226.633 821.479 226.633C821.136 222.034 820.972 218.64 820.972 216.422C820.972 211.227 821.136 203.233 821.479 192.426C821.136 191.741 820.972 191.235 820.972 190.893C820.972 188.511 823.702 186.814 829.161 185.787C829.504 184.596 829.669 183.911 829.669 183.748C829.579 182.988 828.565 181.798 826.596 180.175L824.552 181.202C823.016 180.607 821.822 179.58 820.972 178.136L821.479 175.069L820.972 171.497L821.479 168.951L820.972 166.391C821.315 163.414 821.479 161.538 821.479 160.779C821.136 160.094 820.972 159.588 820.972 159.246C822.419 157.891 823.791 157.206 825.059 157.206L824.955 157.162ZM839.797 329.226V330.759C840.483 332.129 841.498 332.798 842.87 332.798C844.317 332.798 846.197 332.635 848.494 332.292C852.074 332.635 855.997 332.798 860.264 332.798C861.8 332.114 862.65 331.444 862.814 330.759V329.226C860.428 328.541 858.384 328.199 856.668 328.199H840.812C840.125 328.288 839.782 328.63 839.782 329.226H839.797ZM922.692 276.635V277.662H923.199V276.635H922.692Z" fill="#E80D0D"/>
<path d="M88.1876 23.7761C84.8611 23.9845 81.3407 22.8681 78.3125 24.178C78.6109 27.4975 79.2224 30.3109 79.2224 33.035C79.3269 50.4364 79.4164 67.7337 79.3269 85.1351C79.2225 89.8687 80.2368 94.8852 78.0142 99.7231C82.0418 100.825 95.1539 100.527 97.6749 99.4254C97.4809 97.0139 97.0633 94.6024 97.0633 92.1909C96.9588 81.8304 96.8544 71.3658 97.0633 61.0053C97.1677 48.8288 96.2578 36.6671 97.9732 24.4013C94.7511 23.1956 91.4246 23.5975 88.2025 23.791L88.1876 23.7761Z" fill="white"/>
<path d="M157.434 53.25C152.6 50.3324 147.752 47.3106 143.218 43.9911C141.099 42.3835 139.085 40.4781 137.668 38.1559C134.64 33.2287 136.758 28.5993 142.412 27.3935C149.871 25.7859 156.524 27.6912 162.475 32.023C164.698 33.5264 166.712 35.2383 169.233 37.1586C169.636 35.7444 169.934 34.8513 169.934 34.0474C170.038 32.2314 169.934 30.5344 169.934 28.7184C169.83 25.3988 169.531 25.1011 166.309 24.2973C156.628 21.7816 146.753 20.9778 136.773 21.99C135.356 22.0942 134.058 22.3919 132.641 22.6896C115.904 25.6072 115.009 41.0884 120.036 50.4515C122.856 55.4829 127.197 59.2043 131.925 62.4196C136.057 65.3372 140.294 67.8529 144.321 70.8747C148.856 74.1943 152.884 78.0199 154.808 83.4532C156.016 86.9662 155.211 89.3926 152.287 91.5957C149.468 93.6052 146.246 94.6175 142.815 94.6175C132.328 94.8259 122.751 91.6999 114.592 85.0608C113.786 84.3612 112.981 83.8551 111.668 83.0513C110.862 89.1842 112.279 92.3995 117.113 95.2278C125.586 100.363 134.953 102.269 144.829 102.373C154.599 102.566 162.461 98.4431 169.024 91.5064C175.274 84.7631 176.184 73.8072 170.844 66.4686C167.219 61.333 162.878 56.7184 157.434 53.2947V53.25Z" fill="white"/>
<path d="M182.031 24.4759C182.538 27.3935 182.836 30.4153 184.447 32.3207C192.308 32.2165 199.469 32.023 206.614 32.023C209.538 32.023 210.239 32.8268 210.239 35.8486C210.239 43.485 210.134 51.2405 210.134 58.9811C210.134 72.5568 210.746 86.1326 209.732 100.11H228.378V85.6265C228.274 76.1741 228.169 66.7216 228.169 57.165C228.169 50.124 228.169 43.0831 228.274 35.938C228.274 32.3207 228.781 32.023 232.406 32.023C239.461 32.023 246.517 32.2165 253.871 32.3207C255.378 30.2069 255.989 27.4977 256.183 24.5801C252.961 23.5679 186.133 23.4786 182.001 24.4759H182.031Z" fill="white"/>
<path d="M325.34 81.6072C320.909 70.6513 316.464 59.7848 311.929 48.814C309.005 41.773 306.186 34.7321 303.158 27.7953C302.546 26.4854 301.04 24.8777 299.727 24.4758C295.192 23.2701 290.657 23.2701 286.719 23.9697C285.407 28.7034 284.601 32.8267 283.095 36.7416C278.053 50.3174 272.817 63.8932 267.566 77.469C265.149 83.8103 263.135 90.3452 258.899 95.8678C257.989 97.0735 257.079 98.2792 256.184 99.3808C256.587 99.7827 256.796 100.08 256.885 100.08C261.017 100.185 265.149 100.289 269.177 100.08C269.788 100.08 270.594 99.0682 270.892 98.3686C272.503 94.2452 274.01 90.1219 275.427 85.9985C279.857 73.822 284.303 61.6604 288.629 49.3945C289.136 48.1888 289.539 47.0872 291.448 46.5811C292.462 48.9926 293.357 51.4041 294.372 53.7263C296.281 58.4599 298.206 63.2829 300.115 68.0017C301.622 71.7231 301.323 72.2292 298.206 74.8342C293.969 78.3473 289.434 81.0713 283.796 81.5775C283.497 81.6817 283.184 81.9794 282.781 82.1878C286.003 87.0107 291.552 88.7226 296.997 86.6088C298.713 85.9092 300.518 85.1054 302.233 84.3015C305.261 82.8874 305.962 83.0958 307.066 86.2069C308.573 90.1219 310.184 94.0517 311.705 98.0708C312.213 99.3808 312.914 100.289 314.42 100.289C319.656 100.289 324.997 100.393 330.247 100.393C330.859 100.393 331.456 99.9911 332.157 99.6934C331.963 98.7854 331.963 97.9815 331.65 97.3861C329.531 92.057 327.518 86.8321 325.295 81.5923L325.34 81.6072Z" fill="white"/>
<path d="M412.619 24.1784C412.619 31.6212 412.724 38.8557 412.619 46.0008C412.515 53.146 413.321 60.2763 412.008 67.8233C410.695 67.1237 409.785 66.9153 409.293 66.3199C404.863 61.9881 400.626 57.567 396.285 53.146C387.41 44.1997 378.549 35.2385 369.778 26.1879C367.868 24.2826 365.75 23.568 363.229 23.568C359.798 23.6722 356.472 23.6722 353.145 23.6722H344.985C345.09 24.9822 345.09 25.6818 345.194 26.4857C345.493 29.0013 346.104 31.517 346.104 34.0327V79.5979C346 86.237 345.91 92.876 345.91 100.021C348.625 100.125 351.862 100.631 354.98 99.9169C354.98 90.1668 354.875 80.6101 354.98 71.1577C355.189 61.7053 354.577 52.357 355.591 41.8924C357.307 43.2023 358.515 43.902 359.321 44.81C365.362 50.9429 371.314 57.2842 377.266 63.5213C383.113 69.6543 388.857 75.7872 394.808 81.9201C400.044 87.4576 405.295 92.876 410.635 98.3093C411.545 99.2173 412.948 100.125 414.156 100.215C416.677 100.512 419.302 100.215 421.719 100.11V81.7117C421.719 67.3321 421.614 52.9525 421.719 38.558C421.823 34.2262 422.33 29.9094 422.629 25.5776C422.733 25.1757 422.524 24.7738 422.42 24.2677C419.093 23.1661 415.662 23.4638 412.649 24.1635L412.619 24.1784Z" fill="white"/>
<path d="M501.316 54.8579C501.018 54.6495 501.018 54.1583 500.705 53.6522C501.406 52.7441 502.017 51.8361 502.823 51.0323C509.58 43.9913 507.656 31.8297 499.094 27.2002C494.261 24.491 488.92 23.583 483.476 23.583C478.031 23.6872 472.586 23.7914 467.246 23.7914C458.176 23.6872 449.211 23.6872 440.231 23.6872C439.127 23.6872 438.113 23.9849 437.412 24.0891C437.71 27.5128 438.023 30.4304 438.023 33.348C438.128 42.6963 438.232 52.1487 438.023 61.5118C437.919 74.1796 438.724 86.8622 437.62 100.14C438.635 100.14 439.634 100.245 440.649 100.245C449.614 100.349 458.683 100.349 467.663 100.245C475.331 100.245 482.879 100.245 490.442 99.7384C496.394 99.4407 501.734 97.0292 505.657 92.3997C510.998 86.0584 512.713 78.7197 511.206 70.6814C509.998 64.1466 507.268 58.5049 501.331 54.8877L501.316 54.8579ZM455.864 44.7059V35.045C455.76 33.0354 456.669 31.7255 458.683 31.7255C465.739 31.9339 472.899 30.8175 479.851 32.827C484.684 34.137 487.011 37.8584 485.997 42.3837C485.489 45.0036 483.774 46.7154 481.656 48.0105C480.552 48.8143 479.239 49.4246 477.926 49.9159C471.885 52.3274 465.933 54.6495 459.892 56.8526C456.774 57.9542 455.968 57.2545 455.864 53.935C455.76 50.9132 455.864 47.8021 455.864 44.6761V44.7059ZM484.281 87.7554C481.163 89.6608 477.732 90.0627 474.197 90.1669H467.35C464.635 90.1669 461.905 90.2711 459.191 90.1669C456.565 90.0627 455.968 89.5565 455.864 87.0557C455.76 81.5183 455.864 75.9957 455.864 70.4582C455.864 68.7463 456.565 67.5406 458.176 66.9451C464.128 64.7272 469.976 62.5241 475.913 60.4103C482.968 57.9988 488.816 62.2264 490.934 68.657C493.351 76.0999 490.636 84.0488 484.281 87.7703V87.7554Z" fill="white"/>
<path d="M574.784 23.9846C575.082 27.0957 575.589 30.1175 575.693 33.1394C575.798 36.8608 575.589 40.5822 575.589 44.3036C575.589 53.0565 575.783 61.8093 575.589 70.5472C575.485 73.8667 574.679 77.1862 573.769 80.2973C572.77 83.7211 570.249 85.8348 566.922 87.2341C562.984 88.8417 558.956 88.8417 554.824 88.2463C549.589 87.4425 545.859 84.8226 544.338 79.7912C543.532 76.9778 542.831 74.0602 542.831 71.1426C542.637 60.5886 542.637 50.0198 542.727 39.4658C542.727 34.2409 543.025 29.1053 543.234 23.4785C536.984 23.2701 530.629 23.0766 524.483 23.3743C524.677 27.3935 524.99 31.0256 525.095 34.5386C525.095 43.083 524.99 51.7316 525.095 60.3802C525.095 66.6174 524.796 72.9587 525.706 79.1809C527.213 90.0475 532.867 97.9965 543.95 101.301C552.423 103.817 560.985 103.608 569.443 101.197C577.812 98.8896 583.048 93.5456 585.375 85.1054C586.687 80.2825 586.792 75.4446 586.792 70.5174C587.195 54.9321 585.882 39.2425 587.806 23.7465C584.077 22.9426 577.126 23.0468 574.798 23.9549L574.784 23.9846Z" fill="white"/>
<path d="M656.021 89.1544C654.514 89.4521 652.993 89.854 651.486 89.854C643.013 89.9582 634.451 89.7498 625.993 90.0624C622.666 90.1666 621.861 89.2586 621.861 85.7306C621.861 79.3 621.861 72.8545 621.965 66.4239C622.07 52.5504 621.264 38.5578 622.666 24.2824C619.444 22.8682 616.013 23.8804 612.583 23.7762C609.152 23.5678 605.825 23.672 602.499 23.9846C604.005 37.0543 603.513 49.6328 603.304 62.1963C603.2 74.7747 604.408 87.3383 602.499 100.214C622.353 100.408 642.103 100.512 662.868 100.214C661.764 96.7907 661.048 94.1857 660.243 91.67C659.437 89.0502 658.736 88.6482 656.006 89.1544H656.021Z" fill="white"/>
<path d="M684.334 24.0742C679.993 24.2826 675.965 27.7957 675.16 32.1274C674.056 37.5607 677.472 41.8776 683.633 42.7856C687.257 43.2917 687.765 44.0955 686.556 47.415C685.05 51.3449 682.827 54.7537 679.292 57.2694C678.784 57.6713 678.277 58.2816 677.785 58.7729C677.889 58.9813 677.994 59.1748 678.083 59.3832C678.993 59.1748 680.097 59.279 680.798 58.7729C683.319 56.8675 686.243 55.1556 688.152 52.7441C693.299 46.507 695.611 39.2726 693.597 31.2194C692.389 26.4857 688.66 23.7765 684.319 24.0742H684.334Z" fill="white"/>
<path d="M757.503 23.9846C757.801 27.0957 758.308 30.1175 758.413 33.1394C758.517 36.8608 758.308 40.5822 758.308 44.3036C758.308 53.0565 758.502 61.8093 758.308 70.5472C758.204 73.8667 757.398 77.1862 756.488 80.2973C755.489 83.7211 752.968 85.8348 749.641 87.2341C745.703 88.8417 741.675 88.8417 737.543 88.2463C732.308 87.4425 728.578 84.8226 727.057 79.7912C726.251 76.9778 725.55 74.0602 725.55 71.1426C725.356 60.5886 725.356 50.0198 725.446 39.4658C725.446 34.2409 725.744 29.1053 725.953 23.4785C719.703 23.2701 713.348 23.0766 707.202 23.3743C707.396 27.3935 707.709 31.0256 707.814 34.5386C707.814 43.083 707.709 51.7316 707.814 60.3802C707.814 66.6174 707.515 72.9587 708.425 79.1809C709.932 90.0475 715.586 97.9965 726.669 101.301C735.142 103.817 743.704 103.608 752.162 101.197C760.531 98.8896 765.767 93.5456 768.094 85.1054C769.406 80.2825 769.511 75.4446 769.511 70.5174C769.914 54.9321 768.601 39.2425 770.525 23.7465C766.796 22.9426 759.845 23.0468 757.517 23.9549L757.503 23.9846Z" fill="white"/>
<path d="M862.624 24.2823C859.297 23.1808 855.866 23.4785 852.853 24.1781C852.853 31.621 852.957 38.8555 852.853 46.0006C852.748 53.1458 853.554 60.276 852.241 67.8231C850.928 67.1235 850.019 66.9151 849.526 66.3196C845.096 61.9879 840.859 57.5668 836.519 53.1458C827.643 44.1994 818.782 35.2382 810.011 26.1877C808.102 24.2823 805.983 23.5678 803.462 23.5678C800.031 23.672 796.705 23.672 793.378 23.672H785.219C785.323 24.982 785.323 25.6816 785.413 26.4854C785.711 29.0011 786.323 31.5168 786.323 34.0325V79.5977C786.218 86.2367 786.114 92.8758 786.114 100.021C788.829 100.125 792.066 100.631 795.183 99.9167C795.183 90.1666 795.079 80.6099 795.183 71.1575C795.392 61.705 794.781 52.3568 795.795 41.8921C797.51 43.2021 798.719 43.9017 799.524 44.8097C805.566 50.9427 811.518 57.284 817.469 63.5211C823.317 69.654 829.06 75.7869 835.012 81.9199C840.248 87.4574 845.499 92.8758 850.839 98.3091C851.749 99.2171 853.151 100.125 854.359 100.214C856.88 100.512 859.506 100.214 861.922 100.11V81.7115C861.922 67.3319 861.818 52.9522 861.922 38.5577C862.027 34.226 862.534 29.9091 862.832 25.5774C862.937 25.1755 862.728 24.7736 862.638 24.2674L862.624 24.2823Z" fill="white"/>
<path d="M88.1274 18.1496C93.0293 18.1496 97.0031 14.1841 97.0031 9.29255C97.0031 4.40096 93.0293 0.435547 88.1274 0.435547C83.2255 0.435547 79.2517 4.40096 79.2517 9.29255C79.2517 14.1841 83.2255 18.1496 88.1274 18.1496Z" fill="white"/>
<path d="M214.935 400.681L218.515 401.187H244.605C245.366 401.187 246.052 401.366 246.648 401.693C247.245 401.351 247.931 401.187 248.692 401.187L250.229 403.227C248.185 410.119 246.305 415.403 244.605 419.05C243.232 426.716 241.711 431.643 239.995 433.861C239.652 434.457 239.488 435.305 239.488 436.407V439.473C244.262 439.726 246.648 440.233 246.648 441.007V442.034C246.648 442.882 245.455 443.567 243.068 444.073C241.189 443.731 239.831 443.567 238.981 443.567C236.251 448.167 233.865 455.148 231.821 464.496L221.588 496.664C220.902 497.26 220.394 499.82 220.051 504.33L215.964 517.102L211.877 530.887C211.444 530.887 210.937 531.914 210.34 533.953C210.683 540.428 211.027 544.507 211.37 546.204L209.326 547.737C207.954 547.737 207.282 547.574 207.282 547.231C203.866 547.574 201.315 547.737 199.6 547.737H175.046C173.256 547.737 172.227 547.231 171.974 546.204V535.992C171.974 534.802 171.795 533.268 171.466 531.393C172.153 529.86 172.824 529.011 173.51 528.847H199.6C200.107 528.847 200.629 528.341 201.136 527.314C200.793 525.959 199.764 525.275 198.063 525.275H175.554L170.437 525.781C168.468 523.831 167.111 519.737 166.35 513.53C164.977 511.58 163.277 505.611 161.233 495.667C158.503 489.207 155.953 480.856 153.551 470.644C151.164 464.69 148.598 455.833 145.869 444.088L147.912 442.555H152V441.528C152 440.843 151.492 440.5 150.463 440.5L146.883 441.007C144.586 441.007 143.049 437.94 142.274 431.822C139.29 425.272 137.575 419.318 137.157 413.959C136.471 413.2 135.113 409.613 133.07 403.241V402.735C133.07 402.229 133.577 401.708 134.606 401.202H163.769C165.216 401.202 167.096 401.381 169.393 401.708C169.99 401.366 170.84 401.202 171.944 401.202C173.987 401.202 175.181 403.241 175.524 407.335L175.017 409.374L176.553 412.947L176.046 414.986C178.433 417.874 179.805 421.462 180.133 425.704C180.476 425.704 180.64 425.883 180.64 426.21V429.277L181.148 432.849C179.104 433.281 178.075 433.787 178.075 434.382V436.422C178.075 437.107 178.582 437.449 179.611 437.449L183.191 436.943C184.041 438.982 185.414 440.009 187.278 440.009H190.859C191.366 440.009 192.052 440.694 192.902 442.049V442.555C192.902 443.239 190.68 443.746 186.249 444.088C185.996 448.167 184.966 451.233 183.176 453.272L182.669 455.818C183.012 456.503 183.176 457.009 183.176 457.351H183.683C185.384 456.413 186.249 455.565 186.249 454.806H187.278C188.636 457.098 190.008 462.546 191.366 471.15C191.709 471.15 191.873 471.493 191.873 472.177H192.38C194.006 472.177 195.364 467.414 196.467 457.887C197.407 456.011 198.944 451.248 201.077 443.597L204.657 442.57H208.237C208.923 442.57 209.266 442.227 209.266 441.542C209.266 440.858 207.223 440.352 203.12 440.009L202.613 438.982C208.073 417.457 210.803 405.713 210.803 403.748C210.803 402.467 212.16 401.455 214.89 400.681H214.935ZM172.973 552.322H208.282C210.325 552.322 211.355 553.007 211.355 554.361C210.668 555.463 210.325 556.326 210.325 556.907C210.325 560.986 211.519 563.04 213.906 563.04C218.172 563.799 221.245 564.484 223.109 565.079C223.452 571.376 223.616 575.976 223.616 578.863V593.154C223.616 596.22 222.423 597.753 220.036 597.753H218.5C218.157 597.753 217.993 597.575 217.993 597.247C216.456 597.932 214.234 598.274 211.34 598.274H210.31C205.194 598.274 199.227 598.096 192.395 597.768C191.023 598.111 189.844 598.274 188.815 598.274L187.786 597.768L186.756 598.274C185.474 598.274 184.28 597.59 183.176 596.235C183.519 592.826 183.683 590.281 183.683 588.584V574.8C183.683 573.609 183.848 572.075 184.191 570.2C184.191 566.464 182.818 564.588 180.103 564.588C174.644 564.588 171.914 563.903 171.914 562.549V556.937L171.407 553.364L172.943 552.337L172.973 552.322ZM174.002 419.065V422.131C174.688 422.131 175.032 421.625 175.032 420.598C174.688 419.914 174.524 419.407 174.524 419.065H174.017H174.002ZM207.775 555.91C207.775 556.594 207.596 556.937 207.267 556.937C207.61 557.621 207.775 558.128 207.775 558.47C208.461 558.47 208.804 558.128 208.804 557.443V556.937C208.804 556.252 208.461 555.91 207.775 555.91ZM217.5 491.573L216.993 495.146L217.5 497.706C218.261 497.706 218.947 496.352 219.544 493.628C219.037 492.273 218.515 491.588 218.008 491.588H217.5V491.573ZM217.5 498.719V500.252H218.008V498.719H217.5ZM217.5 571.733V574.8H218.53C218.53 574.457 218.694 573.951 219.037 573.266L218.53 570.706C217.844 570.795 217.5 571.138 217.5 571.733ZM240.532 417.532L242.069 418.559L242.576 417.532V414.986H242.069C241.308 414.986 240.786 415.835 240.532 417.532Z" fill="#E80D0D"/>
<path d="M258.925 396.841C260.029 396.841 260.879 397.019 261.476 397.347C265.235 397.004 268.472 396.841 271.202 396.841H274.782C279.809 396.841 286.641 397.019 295.248 397.347C295.338 398.032 295.681 398.374 296.278 398.374C295.935 402.453 295.427 405.519 294.741 407.558C295.427 408.839 295.77 410.193 295.77 411.637V412.664C295.77 413.602 295.427 414.629 294.741 415.731L291.668 415.225C290.221 415.225 288.685 415.567 287.059 416.252C285.866 415.909 285.179 415.746 285.015 415.746C281.525 416.088 279.466 416.252 278.869 416.252L272.724 415.746L271.694 417.279V418.306C271.694 418.559 272.201 419.065 273.231 419.839L279.377 419.333H285C292.161 419.928 295.741 420.777 295.741 421.878V428.011C295.741 430.735 298.291 432.09 303.423 432.09C303.766 432.775 304.109 434.308 304.452 436.69C304.02 438.059 303.169 439.072 301.901 439.756H297.292C296.785 439.756 296.263 440.262 295.756 441.289V441.796C295.756 443.076 298.306 443.924 303.438 444.341C303.781 445.026 303.945 445.532 303.945 445.874C303.602 450.132 303.438 452.335 303.438 452.513C303.438 453.198 303.781 454.389 304.467 456.086C304.124 458.81 302.767 460.165 300.38 460.165C299.619 460.165 298.933 460.001 298.336 459.658C296.8 460.343 295.949 461.028 295.785 461.698V465.27C295.785 466.64 295.606 467.994 295.278 469.349C295.621 470.629 295.785 471.984 295.785 473.428V477.506C295.785 478.013 295.099 478.697 293.742 479.546H290.162C289.058 479.546 288.193 479.724 287.596 480.052L284.523 479.546H275.319C274.633 479.635 274.29 479.977 274.29 480.573V482.612C274.29 483.118 274.976 483.639 276.334 484.145C276.677 484.145 276.841 483.982 276.841 483.639C277.184 483.639 277.691 483.818 278.377 484.145C281.868 483.803 284.598 483.639 286.567 483.639L290.147 484.667L293.727 484.16C294.234 484.16 295.084 484.845 296.278 486.2L295.77 489.772V530.113L296.278 533.179C295.935 533.775 295.77 534.623 295.77 535.725V542.87L296.278 546.442L294.234 547.976H292.698L290.147 547.469C289.117 548.66 288.267 550.193 287.581 552.069L288.088 554.615C287.745 556.996 287.581 558.366 287.581 558.693C292.698 560.39 296.785 561.417 299.858 561.76V562.266C299.858 565.154 300.022 569.411 300.365 575.038C300.022 580.144 299.858 583.716 299.858 585.755L300.365 589.328C300.022 590.013 299.858 590.519 299.858 590.861C300.201 591.546 300.365 592.052 300.365 592.395C300.365 593.154 295.756 593.838 286.552 594.434H273.246C271.277 594.434 268.562 594.27 265.056 593.928C264.37 594.27 263.863 594.434 263.52 594.434C262.147 594.091 260.969 593.585 259.94 592.901C259.94 592.141 260.104 591.457 260.447 590.861C260.104 584.565 259.94 579.295 259.94 575.038V569.426C259.94 567.729 260.104 565.169 260.447 561.775C259.343 561.09 258.314 560.747 257.374 560.747H251.75C250.557 560.747 249.199 560.063 247.663 558.708L248.692 553.602C248.349 552.248 248.185 550.878 248.185 549.524C248.185 549.017 249.214 548.169 251.258 546.978H254.331L255.36 547.484L256.897 544.939C256.553 538.731 256.389 534.817 256.389 533.194C256.389 531.244 256.553 530.038 256.897 529.621C256.553 526.138 256.389 523.414 256.389 521.449V498.466C256.389 493.449 256.553 486.631 256.897 478.042C256.553 476.688 256.389 475.318 256.389 473.964C257.076 472.43 257.747 471.582 258.433 471.418H263.55C264.057 471.418 264.743 470.733 265.593 469.379V468.873C265.593 468.188 265.25 467.846 264.564 467.846H258.418C257.911 467.846 257.225 467.161 256.374 465.806V462.74C256.374 460.864 257.404 459.331 259.447 458.14L262.52 458.646C263.624 458.646 264.31 455.922 264.564 450.474C264.221 446.738 263.714 444.52 263.028 443.835L260.477 444.341H258.433C258 444.341 257.15 443.493 255.882 441.796C256.568 439.414 257.926 438.223 259.969 438.223C261.759 438.565 262.789 438.729 263.042 438.729L264.072 437.196V435.157C264.072 434.219 263.729 433.207 263.042 432.09C262.356 432.09 261.163 432.432 259.462 433.117C258.955 433.117 257.926 432.269 256.389 430.572C256.732 423.769 256.897 418.663 256.897 415.254V409.121C256.897 407.678 257.061 405.802 257.404 403.509C256.971 401.559 256.464 400.19 255.867 399.431V398.925C255.867 398.24 256.897 397.57 258.94 396.885L258.925 396.841ZM290.132 405.013V408.586C290.221 409.27 290.564 409.613 291.161 409.613L291.668 407.067L291.161 405.028H290.132V405.013ZM295.248 565.332V568.905H296.278C296.278 568.562 296.442 568.056 296.785 567.372C296.442 566.776 296.278 566.091 296.278 565.332H295.248Z" fill="#E80D0D"/>
<path d="M315.223 400.681C315.566 400.681 315.73 400.86 315.73 401.187L316.759 400.681H333.645C338.762 400.681 342.849 401.024 345.922 401.708C346.429 401.366 347.459 401.202 348.995 401.202L351.546 402.735C351.367 405.802 351.039 407.335 350.517 407.335L351.024 408.362V412.441C351.024 413.2 350.845 413.885 350.517 414.48C351.203 416.177 351.546 417.368 351.546 418.053C351.203 419.333 351.039 420.688 351.039 422.131C352.396 422.816 353.082 423.322 353.082 423.665L354.112 423.159C357.528 423.59 359.228 424.26 359.228 425.198V428.771C359.228 429.277 358.542 429.961 357.185 430.81C355.052 430.81 349.249 431.152 339.791 431.837C335.958 431.495 332.377 431.331 329.051 431.331C324.785 431.673 322.234 431.837 321.369 431.837C320.265 430.482 319.236 428.101 318.296 424.692C317.61 424.349 317.102 424.186 316.759 424.186L313.686 424.692C311.986 423.159 311.121 419.928 311.121 414.986C311.121 414.733 311.285 413.706 311.628 411.92C311.285 407.841 311.121 404.775 311.121 402.735C312.568 401.381 313.94 400.696 315.208 400.696L315.223 400.681ZM314.194 429.783C315.133 429.783 315.82 431.48 316.237 434.889L317.267 435.395H339.776C340.284 435.395 343.013 435.737 347.966 436.422H350.01C350.517 436.422 351.039 436.928 351.546 437.955C351.546 440.337 351.203 441.528 350.517 441.528L351.024 444.088V461.951L351.531 465.017L349.995 467.578L346.414 467.071C343.177 468.099 340.612 468.605 338.732 468.605H327.47C326.276 468.605 324.74 468.441 322.86 468.099C322.174 468.441 321.667 468.605 321.324 468.605C318.341 468.262 316.461 468.099 315.7 468.099L313.134 468.605C311.762 467.161 311.091 465.791 311.091 464.526V459.42C311.091 458.393 311.255 457.887 311.598 457.887L311.091 455.342V443.091C311.091 441.647 311.255 439.771 311.598 437.479C311.255 436.883 311.091 436.035 311.091 434.933C311.091 432.715 312.12 431.018 314.164 429.827L314.194 429.783ZM313.164 471.656L316.237 472.162C317.431 472.162 318.967 471.999 320.847 471.656C326.396 471.999 331.333 472.162 335.689 472.162L340.299 471.656C347.116 472.936 350.532 473.785 350.532 474.217C350.875 474.217 351.218 474.723 351.561 475.75C351.218 478.132 351.054 480.171 351.054 481.883C351.054 483.669 353.619 484.86 358.736 485.455V486.482L358.229 487.51C358.572 488.105 358.736 488.79 358.736 489.549V490.055C358.736 490.993 356.513 491.678 352.083 492.094C351.397 493.196 351.054 494.223 351.054 495.161C351.054 496.188 351.218 496.694 351.561 496.694L351.054 501.8V558.991C351.054 561.804 353.784 563.844 359.243 565.124L359.75 566.151V566.657C359.75 566.999 359.586 567.163 359.243 567.163C359.586 567.848 359.75 568.354 359.75 568.696H360.258C360.944 568.696 361.287 568.354 361.287 567.669V567.163L360.78 566.136L361.809 565.63C362.316 568.012 363.166 569.202 364.375 569.202L367.955 568.696L373.071 569.723C379.038 569.381 382.797 569.217 384.334 569.217C387.064 569.217 390.644 569.396 395.074 569.723L402.234 569.217C406.754 569.56 410.498 569.723 413.497 569.723L414.004 570.751C414.004 576.794 413.661 580.709 412.975 582.495C413.661 584.371 414.168 587.944 414.511 593.213C414.511 596.28 412.81 597.813 409.394 597.813C407.097 598.155 403.517 598.319 398.654 598.319H367.448C366.687 598.319 366.001 598.14 365.404 597.813C364.807 598.155 364.121 598.319 363.36 598.319H362.331C361.227 598.319 360.362 598.14 359.765 597.813L356.692 598.319C353.023 598.319 349.1 597.977 344.923 597.292C339.806 597.977 336.047 598.319 333.66 598.319C333.317 598.319 333.153 598.14 333.153 597.813L330.587 598.319H327.007C325.217 598.319 324.024 597.47 323.427 595.773C323.77 591.174 323.934 587.78 323.934 585.562V567.699C323.934 565.749 322.905 564.558 320.861 564.126L318.311 564.633C313.537 564.126 311.15 563.442 311.15 562.593V519.186C311.15 513.828 311.315 504.971 311.658 492.63C312.165 492.63 312.851 491.946 313.701 490.591L316.252 491.097H318.296C318.982 491.097 319.325 490.755 319.325 490.07V485.991C319.325 484.964 317.102 484.294 312.672 483.952C311.643 482.672 311.136 481.317 311.136 479.873C311.136 475.705 311.822 472.981 313.179 471.701L313.164 471.656ZM344.893 442.049L345.4 444.594C347.444 444.594 348.473 443.567 348.473 441.528L347.444 441.021H345.907C345.221 441.111 344.878 441.453 344.878 442.049H344.893ZM345.4 409.374V409.881C345.49 410.565 345.833 410.908 346.429 410.908L346.937 409.881V408.347H346.429C345.743 408.437 345.4 408.779 345.4 409.374ZM408.843 578.387V580.426C408.932 581.111 409.275 581.453 409.872 581.453V578.387H408.843ZM408.843 583.999V585.026H409.872V582.987C409.186 583.076 408.843 583.418 408.843 584.014V583.999Z" fill="#E80D0D"/>
<path d="M424.207 400.681C424.55 400.681 424.714 400.86 424.714 401.187L425.744 400.681H442.63C447.746 400.681 451.834 401.024 454.907 401.708C455.414 401.366 456.443 401.202 457.98 401.202L460.53 402.735C460.351 405.802 460.023 407.335 459.501 407.335L460.008 408.362V412.441C460.008 413.2 459.829 413.885 459.501 414.48C460.187 416.177 460.53 417.368 460.53 418.053C460.187 419.333 460.023 420.688 460.023 422.131C461.381 422.816 462.067 423.322 462.067 423.665L463.096 423.159C466.512 423.59 468.213 424.26 468.213 425.198V428.771C468.213 429.277 467.526 429.961 466.169 430.81C464.036 430.81 458.233 431.152 448.776 431.837C444.942 431.495 441.362 431.331 438.035 431.331C433.769 431.673 431.218 431.837 430.353 431.837C429.249 430.482 428.22 428.101 427.28 424.692C426.594 424.349 426.087 424.186 425.744 424.186L422.671 424.692C420.97 423.159 420.105 419.928 420.105 414.986C420.105 414.733 420.269 413.706 420.612 411.92C420.269 407.841 420.105 404.775 420.105 402.735C421.552 401.381 422.924 400.696 424.192 400.696L424.207 400.681ZM423.178 429.783C424.118 429.783 424.804 431.48 425.222 434.889L426.251 435.395H448.761C449.268 435.395 451.998 435.737 456.95 436.422H458.994C459.501 436.422 460.023 436.928 460.53 437.955C460.53 440.337 460.187 441.528 459.501 441.528L460.008 444.088V461.951L460.515 465.017L458.979 467.578L455.399 467.071C452.162 468.099 449.596 468.605 447.717 468.605H436.454C435.261 468.605 433.724 468.441 431.845 468.099C431.159 468.441 430.651 468.605 430.308 468.605C427.325 468.262 425.445 468.099 424.685 468.099L422.119 468.605C420.746 467.161 420.075 465.791 420.075 464.526V459.42C420.075 458.393 420.239 457.887 420.582 457.887L420.075 455.342V443.091C420.075 441.647 420.239 439.771 420.582 437.479C420.239 436.883 420.075 436.035 420.075 434.933C420.075 432.715 421.104 431.018 423.148 429.827L423.178 429.783ZM422.149 471.656L425.222 472.162C426.415 472.162 427.951 471.999 429.831 471.656C435.38 471.999 440.318 472.162 444.673 472.162L449.283 471.656C456.1 472.936 459.516 473.785 459.516 474.217C459.859 474.217 460.202 474.723 460.545 475.75C460.202 478.132 460.038 480.171 460.038 481.883C460.038 483.669 462.604 484.86 467.72 485.455V486.482L467.213 487.51C467.556 488.105 467.72 488.79 467.72 489.549V490.055C467.72 490.993 465.498 491.678 461.067 492.094C460.381 493.196 460.038 494.223 460.038 495.161C460.038 496.188 460.202 496.694 460.545 496.694L460.038 501.8V558.991C460.038 561.804 462.768 563.844 468.228 565.124L468.735 566.151V566.657C468.735 566.999 468.571 567.163 468.228 567.163C468.571 567.848 468.735 568.354 468.735 568.696H469.242C469.928 568.696 470.271 568.354 470.271 567.669V567.163L469.764 566.136L470.793 565.63C471.3 568.012 472.151 569.202 473.359 569.202L476.939 568.696L482.056 569.723C488.023 569.381 491.782 569.217 493.318 569.217C496.048 569.217 499.628 569.396 504.058 569.723L511.219 569.217C515.739 569.56 519.483 569.723 522.481 569.723L522.988 570.751C522.988 576.794 522.645 580.709 521.959 582.495C522.645 584.371 523.152 587.944 523.495 593.213C523.495 596.28 521.795 597.813 518.379 597.813C516.082 598.155 512.501 598.319 507.639 598.319H476.432C475.671 598.319 474.985 598.14 474.388 597.813C473.792 598.155 473.105 598.319 472.345 598.319H471.315C470.212 598.319 469.346 598.14 468.75 597.813L465.677 598.319C462.007 598.319 458.084 597.977 453.907 597.292C448.791 597.977 445.031 598.319 442.645 598.319C442.302 598.319 442.138 598.14 442.138 597.813L439.572 598.319H435.992C434.202 598.319 433.008 597.47 432.412 595.773C432.755 591.174 432.919 587.78 432.919 585.562V567.699C432.919 565.749 431.89 564.558 429.846 564.126L427.295 564.633C422.522 564.126 420.135 563.442 420.135 562.593V519.186C420.135 513.828 420.299 504.971 420.642 492.63C421.149 492.63 421.835 491.946 422.686 490.591L425.237 491.097H427.28C427.966 491.097 428.309 490.755 428.309 490.07V485.991C428.309 484.964 426.087 484.294 421.656 483.952C420.627 482.672 420.12 481.317 420.12 479.873C420.12 475.705 420.806 472.981 422.164 471.701L422.149 471.656ZM453.877 442.049L454.384 444.594C456.428 444.594 457.457 443.567 457.457 441.528L456.428 441.021H454.892C454.206 441.111 453.862 441.453 453.862 442.049H453.877ZM454.384 409.374V409.881C454.474 410.565 454.817 410.908 455.414 410.908L455.921 409.881V408.347H455.414C454.728 408.437 454.384 408.779 454.384 409.374ZM517.827 578.387V580.426C517.901 581.111 518.26 581.453 518.856 581.453V578.387H517.827ZM517.827 583.999V585.026H518.856V582.987C518.17 583.076 517.827 583.418 517.827 584.014V583.999Z" fill="#E80D0D"/>
<path d="M558.894 396.841H594.202L597.275 397.347L598.304 396.841C601.795 397.183 604.525 397.347 606.494 397.347H607.523C608.97 397.347 609.821 400.756 610.089 407.558C611.372 410.967 612.222 415.894 612.64 422.37C613.669 422.37 614.34 424.915 614.684 430.036C615.713 430.795 618.607 431.658 623.38 432.581C623.38 434.278 623.723 435.648 624.409 436.66C624.409 438.357 622.023 439.384 617.249 439.726C616.563 440.828 616.22 441.691 616.22 442.272C617.503 443.299 618.696 443.805 619.8 443.805H623.38C625.081 444.654 625.931 446.023 625.931 447.884C625.424 449.253 624.051 449.923 621.844 449.923V450.95C625.26 450.95 626.96 452.32 626.96 455.029V458.602C626.96 459.286 624.738 459.792 620.307 460.135L619.278 462.174C619.278 463.618 620.307 468.039 622.351 475.452C622.694 481.407 622.858 484.979 622.858 486.17C623.798 486.17 624.812 490.249 625.931 498.421C624.648 499.106 623.291 499.448 621.844 499.448H605.465C604.958 499.448 604.435 499.954 603.928 500.981V502.514C603.928 503.021 604.435 503.542 605.465 504.048H618.264C624.409 504.048 627.467 505.239 627.467 507.62C627.467 516.388 629.004 525.751 632.077 535.71C632.077 536.052 631.898 536.216 631.57 536.216L632.077 538.761V541.307L631.57 543.852C632.077 543.852 632.763 544.537 633.613 545.892V546.398C633.27 547.425 632.241 547.931 630.54 547.931H626.96C624.991 550.313 623.634 551.503 622.873 551.503C622.187 551.161 621.68 550.997 621.336 550.997L620.829 552.024V553.052C621.083 555.091 621.59 556.118 622.366 556.118C622.366 555.612 623.216 554.927 624.917 554.079H625.424C627.378 557.83 629.257 559.691 631.048 559.691C635.821 560.375 638.208 561.566 638.208 563.263C639.908 565.228 640.759 566.746 640.759 567.863C641.519 573.311 642.205 577.047 642.802 579.102C642.295 582.168 641.609 583.701 640.759 583.701L638.208 582.674C635.985 583.701 633.598 584.207 631.048 584.207H618.771C618.264 584.207 617.741 584.713 617.234 585.741C617.741 587.11 618.264 587.78 618.771 587.78H634.628C635.06 587.78 636.925 588.122 640.251 588.807L642.802 588.301C644.503 590.087 645.353 591.457 645.353 592.38C644.249 592.975 640.49 593.66 634.091 594.419L630.511 593.913L627.96 594.419C626.17 594.077 625.14 593.913 624.887 593.913L621.307 594.419C618.323 594.077 616.444 593.913 615.683 593.913L609.537 594.419V593.913L608.508 594.419H608.001C606.121 594.419 604.764 593.571 603.913 591.874L604.421 587.274C603.391 583.448 602.034 575.961 600.333 564.811V561.745C600.333 561.492 599.826 560.986 598.797 560.212C598.111 560.554 597.603 560.718 597.26 560.718C594.874 560.718 587.713 559.869 575.765 558.172C570.648 558.515 566.382 558.678 562.966 558.678L562.459 559.705C562.802 561.745 563.309 562.772 563.995 562.772H565.024L566.561 561.745H568.097C568.605 561.745 569.127 562.251 569.634 563.278L565.547 585.234V591.874C565.547 592.722 564.353 593.407 561.966 593.913L560.937 593.407C556.581 594.092 554.031 594.434 553.255 594.434C553.076 594.434 550.868 594.27 546.602 593.928C546.423 593.928 544.215 594.106 539.949 594.434L537.398 593.928C536.712 594.27 536.205 594.434 535.862 594.434L533.818 593.928L531.267 594.434C528.88 593.928 527.687 593.243 527.687 592.395L531.267 576.05C531.267 574.606 531.61 571.034 532.296 565.332V562.266C532.296 561.76 531.789 561.239 530.76 560.733H525.136C523.346 560.733 522.153 560.048 521.556 558.693V558.187C522.242 554.868 522.585 552.992 522.585 552.575V552.069C522.585 551.31 522.421 550.625 522.078 550.03C522.078 548.154 524.972 547.142 530.775 546.963C531.536 544.924 532.565 543.733 533.848 543.391L536.921 543.897C538.457 543.212 539.307 542.542 539.472 541.857C539.472 540.83 537.428 540.161 533.326 539.818C532.639 538.97 532.296 538.464 532.296 538.285V537.779C535.712 521.36 537.413 510.627 537.413 505.611C540.143 493.613 541.5 487.152 541.5 486.215C541.5 485.962 541.321 484.934 540.993 483.148L544.066 468.337L543.559 467.31C543.559 463.826 544.916 460.76 547.646 458.125L551.226 458.631H552.255C553.106 458.631 554.299 454.374 555.836 445.859C555.492 445.175 555.328 444.669 555.328 444.326H550.212C549.705 444.326 549.018 443.641 548.168 442.287V440.754C549.197 439.057 550.391 438.193 551.748 438.193C553.628 438.536 554.985 438.699 555.836 438.699C556.865 437.166 557.372 435.975 557.372 435.127C557.372 434.189 556.522 433.34 554.821 432.581C554.225 432.924 553.538 433.087 552.778 433.087C550.734 431.897 549.705 431.048 549.705 430.542C553.121 412.754 554.821 402.2 554.821 398.88C556.268 397.525 557.641 396.841 558.909 396.841H558.894ZM578.331 463.722L578.838 468.828V469.334C578.838 470.093 578.659 470.778 578.331 471.374C578.331 471.716 578.495 471.88 578.838 471.88C578.495 477.417 577.465 483.878 575.765 491.276L572.185 518.844H571.155C570.305 518.844 569.619 517.49 569.112 514.765L569.619 512.726C569.276 512.041 569.112 511.535 569.112 511.193H568.605C567.918 511.282 567.575 511.625 567.575 512.22V523.965C567.575 524.65 568.262 524.992 569.619 524.992V527.537C569.619 528.222 569.276 528.565 568.59 528.565H567.56L565.01 528.058L564.502 529.086L576.779 531.125C577.033 531.125 578.062 530.961 579.852 530.619C580.195 530.619 580.702 530.797 581.389 531.125C583.268 530.782 584.805 530.619 585.998 530.619H590.085C590.771 530.619 591.115 530.276 591.115 529.592C586.341 499.388 583.432 478.623 582.418 467.295C581.985 467.295 581.135 466.104 579.852 463.722H578.316H578.331ZM604.943 406.531V408.065L607.493 408.571L608.001 407.544V406.516L606.971 404.983C605.599 405.489 604.928 406.01 604.928 406.516L604.943 406.531ZM608.016 422.876L609.045 423.382H609.552V421.849H609.045C608.359 421.938 608.016 422.28 608.016 422.876ZM616.205 467.801V473.413C616.205 475.884 616.712 477.239 617.741 477.492L618.249 476.464V472.386C618.592 470.942 618.756 469.751 618.756 468.813C618.159 468.813 617.309 468.471 616.19 467.786L616.205 467.801ZM621.829 557.666V558.172H622.858V557.666H621.829ZM626.438 534.683V536.722H626.945V534.683H626.438ZM626.438 537.749V538.776H626.945V537.749H626.438Z" fill="#E80D0D"/>
<path d="M649.589 396.841C650.275 396.841 650.618 397.019 650.618 397.347C655.227 397.004 658.628 396.841 660.851 396.841H693.087C717.044 396.841 732.05 401.098 738.106 409.613C738.614 409.613 739.136 410.119 739.643 411.146L739.136 415.746L740.165 416.252C740.851 415.909 741.358 415.746 741.702 415.746C744.342 419.154 747.922 420.851 752.442 420.851L752.949 421.878V422.385L752.442 423.412C743.835 423.754 737.003 423.918 731.976 423.918H716.626C716.119 423.918 715.597 424.424 715.089 425.451C715.686 426.821 716.88 427.49 718.67 427.49H738.106C738.793 427.49 740.15 427.997 742.194 429.024C742.447 429.024 743.477 428.86 745.267 428.518C747.057 428.518 748.086 430.899 748.34 435.663C747.997 436.347 747.832 436.854 747.832 437.196C747.832 438.223 747.997 438.729 748.34 438.729L747.832 444.862V458.14C747.832 464.526 746.982 471.329 745.282 478.563C746.639 479.59 748.862 480.26 751.935 480.603V481.63C751.935 482.657 748.862 483.327 742.731 483.669C742.731 484.012 742.388 484.175 741.702 484.175C740.672 484.175 739.479 484.012 738.121 483.669C735.138 484.012 733.259 484.175 732.498 484.175L724.308 483.669C722.264 484.354 721.235 485.039 721.235 485.708V486.736C721.235 487.242 721.921 487.763 723.279 488.269C723.622 488.269 724.979 488.105 727.366 487.763C731.797 488.105 735.377 488.269 738.106 488.269L739.136 489.802V490.308L729.932 496.947V498.987C734.705 500.014 739.822 505.283 745.282 514.81L744.252 516.849C732.483 517.192 723.95 517.356 718.67 517.356H702.813C698.039 515.316 693.43 514.289 689 514.289C687.299 514.974 686.449 515.48 686.449 515.822C686.449 516.328 686.613 518.383 686.956 521.955C685.166 523.325 680.213 523.995 672.113 523.995H671.606C670.92 524.084 670.577 524.426 670.577 525.022V526.049C672.277 528.862 673.143 530.723 673.143 531.661H677.23C678.513 531.661 680.049 532.345 681.839 533.7C682.436 532.345 683.629 531.661 685.419 531.661C686.449 531.661 686.956 532.345 686.956 533.7C686.956 534.042 686.777 534.206 686.449 534.206C686.449 534.385 686.613 535.055 686.956 536.246C686.956 537.436 686.777 538.97 686.449 540.845C686.449 541.098 686.613 542.468 686.956 544.924C686.956 546.457 686.613 550.193 685.926 556.163C685.926 557.949 688.313 559.482 693.087 560.762L694.116 560.256H697.696C698.203 560.256 698.725 560.762 699.233 561.789C699.233 562.043 699.054 563.07 698.725 564.856C699.069 565.541 699.233 566.047 699.233 566.389C698.546 567.491 698.203 568.518 698.203 569.456V578.134C698.203 578.476 698.024 578.64 697.696 578.64L698.203 579.667V582.734C698.203 583.493 698.024 584.178 697.696 584.773C698.382 586.306 698.725 588.524 698.725 591.412V592.439C698.725 593.466 698.039 593.972 696.682 593.972C694.802 593.972 691.565 594.151 686.956 594.479C686.613 594.479 686.449 594.315 686.449 593.972L682.869 594.479H666.49C665.729 594.479 665.043 594.315 664.446 593.972C663.849 594.315 663.163 594.479 662.402 594.479C661.298 594.479 660.105 593.972 658.822 592.945C659.165 588.941 659.329 586.053 659.329 584.267V579.161C659.329 577.553 659.15 575.842 658.822 574.055C659.165 572.775 659.329 571.242 659.329 569.456V568.949L658.822 562.817H659.329C659.329 561.12 655.913 560.271 649.096 560.271H648.067C647.217 559.586 646.695 559.244 646.531 559.244L647.038 555.671V527.582C647.038 524.947 647.202 522.566 647.545 520.437C647.202 518.74 647.038 516.522 647.038 513.798V503.08C647.038 502.321 646.859 501.636 646.531 501.041L647.56 498.48C647.306 497.126 646.963 496.441 646.531 496.441L647.038 493.896L646.531 490.829C646.531 489.296 647.724 487.941 650.111 486.75L653.184 487.257H653.691C654.198 487.257 654.72 486.75 655.227 485.723V481.645C655.227 480.96 654.884 480.618 654.198 480.618H650.618C648.231 480.618 647.038 479.427 647.038 477.045V440.277C647.038 439.935 647.202 439.771 647.545 439.771L647.038 438.744V432.611C647.038 431.852 646.859 431.167 646.531 430.572C646.531 428.443 648.41 426.91 652.154 425.972C652.751 426.314 653.437 426.478 654.198 426.478L655.227 424.945V423.412C655.227 421.03 654.198 419.839 652.154 419.839C651.05 420.524 650.021 420.866 649.081 420.866C647.709 419.169 647.038 418.142 647.038 417.8C647.038 417.457 647.202 416.951 647.545 416.267L647.038 411.667L647.545 408.094L647.038 405.549L647.545 401.976L647.038 398.404C648.738 397.719 649.603 397.213 649.603 396.87L649.589 396.841ZM690.521 427.982C689.835 427.639 689.328 427.476 688.985 427.476C687.612 427.818 686.941 428.845 686.941 430.542V436.154C686.941 442.034 686.762 449.685 686.434 459.137L686.941 462.204C686.941 465.955 685.061 467.816 681.317 467.816L680.288 469.855L681.824 472.401C682.167 472.401 682.332 472.237 682.332 471.895C685.405 472.326 686.941 472.996 686.941 473.934V474.44C686.941 475.199 686.762 475.884 686.434 476.479C687.284 479.546 688.134 481.079 688.985 481.079C689.671 481.079 690.864 480.737 692.565 480.052C693.922 480.394 694.608 481.079 694.608 482.091C694.265 482.776 694.101 483.282 694.101 483.624C695.637 484.652 696.831 485.158 697.681 485.158C704.334 485.158 708.601 483.967 710.48 481.585V480.558H707.407C706.9 480.558 706.378 480.052 705.871 479.025V478.519C706.9 473.755 708.422 471.374 710.48 471.374C712.017 471.374 713.031 471.552 713.553 471.88L727.366 470.853C727.873 471.195 728.903 471.359 730.439 471.359C731.797 470.853 732.483 470.332 732.483 469.825V469.319C732.14 468.292 731.11 467.786 729.41 467.786H716.104C715.761 467.786 715.597 467.622 715.597 467.28L714.567 467.786H710.48C709.973 467.786 709.451 467.28 708.944 466.253V462.68C708.944 460.045 708.765 457.664 708.437 455.535C708.78 453.749 708.944 452.052 708.944 450.429L708.437 444.296C708.78 442.51 708.944 440.813 708.944 439.191C707.661 434.844 705.96 431.614 703.827 429.485C704.17 428.8 704.334 428.294 704.334 427.952C702.112 426.597 700.068 425.913 698.188 425.913L690.521 427.952V427.982ZM681.824 553.587L680.795 556.133L681.824 556.639H683.361C684.047 556.639 684.39 556.297 684.39 555.612V555.106C683.793 555.106 682.943 554.6 681.839 553.573L681.824 553.587ZM708.437 520.913L713.046 521.419C713.389 521.419 713.896 521.256 714.582 520.913L717.133 521.419L720.206 520.913L723.786 521.419C729.753 521.077 733.333 520.913 734.526 520.913C743.059 521.345 747.325 522.015 747.325 522.953C748.011 531.214 748.355 535.799 748.355 536.737V537.764C748.355 538.27 747.847 538.791 746.818 539.297H743.238C742.805 539.297 740.941 539.639 737.614 540.324H735.063C734.303 540.324 733.617 540.16 733.02 539.818C732.513 539.818 731.826 540.503 730.976 541.857C731.319 543.227 732.334 543.897 734.049 543.897H737.122C739.076 543.897 741.806 544.075 745.312 544.403L746.341 543.897C748.041 544.403 748.907 545.594 748.907 547.469C748.907 547.812 748.727 548.318 748.399 549.003C748.742 550.372 748.907 551.548 748.907 552.575C748.22 554.704 747.877 555.895 747.877 556.148C749.16 558.872 752.233 560.226 757.081 560.226C758.618 560.226 759.975 560.733 761.168 561.76C760.736 565.585 760.408 567.967 760.139 568.905L760.646 571.971V572.477C760.646 573.847 760.467 575.201 760.139 576.556C760.482 580.635 761.675 585.919 763.719 592.38L761.676 593.913H760.646C757.916 593.913 754.679 594.091 750.92 594.419C750.577 594.419 750.413 594.255 750.413 593.913L746.833 594.419H726.367C723.816 594.419 722.101 591.531 721.25 585.741V570.423C721.25 563.963 720.564 560.718 719.207 560.718H716.134C711.36 560.718 708.974 560.033 708.974 558.678V532.122C708.974 530.247 707.78 527.016 705.393 522.417C706.751 521.39 707.78 520.883 708.466 520.883L708.437 520.913Z" fill="#E80D0D"/>
<path d="M763.437 396.841C764.541 396.841 765.391 397.019 765.988 397.347C769.732 397.004 772.984 396.841 775.713 396.841H779.294C784.321 396.841 791.153 397.019 799.76 397.347C799.849 398.032 800.192 398.374 800.789 398.374C800.446 402.453 799.939 405.519 799.253 407.558C799.939 408.839 800.282 410.193 800.282 411.637V412.664C800.282 413.602 799.939 414.629 799.253 415.731L796.18 415.225C794.733 415.225 793.196 415.567 791.57 416.252C790.377 415.909 789.691 415.746 789.527 415.746C786.036 416.088 783.978 416.252 783.381 416.252L777.235 415.746L776.206 417.279V418.306C776.206 418.559 776.713 419.065 777.742 419.839L783.888 419.333H789.512C796.672 419.928 800.252 420.777 800.252 421.878V428.011C800.252 430.735 802.803 432.09 807.934 432.09C808.277 432.775 808.62 434.308 808.964 436.69C808.531 438.059 807.681 439.072 806.413 439.756H801.803C801.296 439.756 800.774 440.262 800.267 441.289V441.796C800.267 443.076 802.818 443.924 807.949 444.341C808.292 445.026 808.456 445.532 808.456 445.874C808.113 450.132 807.949 452.335 807.949 452.513C807.949 453.198 808.292 454.389 808.978 456.086C808.635 458.81 807.278 460.165 804.891 460.165C804.13 460.165 803.444 460.001 802.848 459.658C801.311 460.343 800.461 461.028 800.297 461.698V465.27C800.297 466.64 800.118 467.994 799.79 469.349C800.133 470.629 800.297 471.984 800.297 473.428V477.506C800.297 478.013 799.611 478.697 798.253 479.546H794.673C793.569 479.546 792.704 479.724 792.122 480.052L789.049 479.546H779.846C779.159 479.635 778.816 479.977 778.816 480.573V482.612C778.816 483.118 779.502 483.639 780.86 484.145C781.203 484.145 781.367 483.982 781.367 483.639C781.71 483.639 782.217 483.818 782.903 484.145C786.394 483.803 789.124 483.639 791.093 483.639L794.673 484.667L798.253 484.16C798.76 484.16 799.611 484.845 800.804 486.2L800.297 489.772V530.113L800.804 533.179C800.461 533.775 800.297 534.623 800.297 535.725V542.87L800.804 546.442L798.76 547.976H797.224L794.658 547.469C793.629 548.66 792.779 550.193 792.107 552.069L792.614 554.615C792.271 556.996 792.107 558.366 792.107 558.693C797.224 560.39 801.311 561.417 804.384 561.76V562.266C804.384 565.154 804.548 569.411 804.891 575.038C804.548 580.144 804.384 583.716 804.384 585.755L804.891 589.328C804.548 590.013 804.384 590.519 804.384 590.861C804.727 591.546 804.891 592.052 804.891 592.395C804.891 593.154 800.282 593.838 791.078 594.434H777.772C775.803 594.434 773.088 594.27 769.583 593.928C768.896 594.27 768.389 594.434 768.046 594.434C766.674 594.091 765.495 593.585 764.466 592.901C764.466 592.141 764.63 591.457 764.973 590.861C764.63 584.565 764.466 579.295 764.466 575.038V569.426C764.466 567.729 764.63 565.169 764.973 561.775C763.869 561.09 762.84 560.747 761.9 560.747H756.276C755.083 560.747 753.711 560.063 752.189 558.708L753.218 553.602C752.875 552.248 752.711 550.878 752.711 549.524C752.711 549.017 753.741 548.169 755.784 546.978H758.857L759.886 547.484L761.423 544.939C761.08 538.731 760.916 534.817 760.916 533.194C760.916 531.244 761.08 530.038 761.423 529.621C761.08 526.138 760.916 523.414 760.916 521.449V498.466C760.916 493.449 761.08 486.631 761.423 478.042C761.08 476.688 760.916 475.318 760.916 473.964C761.602 472.43 762.273 471.582 762.959 471.418H768.076C768.583 471.418 769.269 470.733 770.12 469.379V468.873C770.12 468.188 769.776 467.846 769.09 467.846H762.944C762.437 467.846 761.751 467.161 760.901 465.806V462.74C760.901 460.864 761.93 459.331 763.974 458.14L767.047 458.646C768.15 458.646 768.837 455.922 769.09 450.474C768.747 446.738 768.24 444.52 767.554 443.835L765.003 444.341H762.959C762.527 444.341 761.676 443.493 760.394 441.796C761.08 439.414 762.437 438.223 764.481 438.223C766.271 438.565 767.3 438.729 767.554 438.729L768.583 437.196V435.157C768.583 434.219 768.24 433.207 767.554 432.09C766.868 432.09 765.674 432.432 763.974 433.117C763.467 433.117 762.437 432.269 760.901 430.572C761.244 423.769 761.408 418.663 761.408 415.254V409.121C761.408 407.678 761.572 405.802 761.915 403.509C761.483 401.559 760.975 400.19 760.379 399.431V398.925C760.379 398.24 761.408 397.57 763.452 396.885L763.437 396.841ZM794.643 405.013V408.586C794.733 409.27 795.076 409.613 795.673 409.613L796.18 407.067L795.673 405.028H794.643V405.013ZM799.76 565.332V568.905H800.789C800.789 568.562 800.953 568.056 801.296 567.372C800.953 566.776 800.789 566.091 800.789 565.332H799.76Z" fill="#E80D0D"/>
</svg>
