<svg xmlns="http://www.w3.org/2000/svg" xmlns:xlink="http://www.w3.org/1999/xlink" viewBox="0 0 107.2 42.7"><defs><style>.cls-1,.cls-5{fill:none;}.cls-1{clip-rule:evenodd;}.cls-2,.cls-7{fill:#fff;}.cls-3{fill:#af1917;}.cls-3,.cls-7{fill-rule:evenodd;}.cls-4{clip-path:url(#clip-path);}.cls-5{stroke:#80151a;stroke-linecap:round;stroke-linejoin:round;stroke-width:0.49px;}.cls-6{clip-path:url(#clip-path-2);}.cls-8{clip-path:url(#clip-path-3);}</style><clipPath id="clip-path"><path class="cls-1" d="M21.6.3A21.2,21.2,0,1,1,.4,21.4,21.1,21.1,0,0,1,21.6.3"/></clipPath><clipPath id="clip-path-2"><path class="cls-1" d="M34.6,16.4a15.1,15.1,0,0,1,.8,4.8,13.8,13.8,0,0,1-13.6,14,13.7,13.7,0,0,1-13.5-14,15.1,15.1,0,0,1,.8-4.8c.6,7.1,6.1,12.7,12.7,12.7S34,23.5,34.6,16.4"/></clipPath><clipPath id="clip-path-3"><polygon class="cls-1" points="23.4 8.1 24 14 29.6 15.1 24.4 17.6 25 23.6 21.2 19.2 16 21.8 18.9 16.5 15 12.2 20.6 13.3 23.4 8.1"/></clipPath></defs><title>header-logo</title><g id="Layer_2" data-name="Layer 2"><g id="Layer_1-2" data-name="Layer 1"><path class="cls-2" d="M49.6,10.3h.9V9.5h-.9Zm2.1-3.4c0,.9-.3,1.3-.8,1.3H49.4c-.5,0-.8-.4-.8-1.3v-4c0-.9.3-1.3.8-1.3h1.5c.5,0,.8.4.8,1.3h1.5c0-1.8-.8-2.6-2.3-2.6H49.4c-1.5,0-2.3.8-2.3,2.6v4c0,1.7.8,2.6,2.3,2.6h1.5c1.5,0,2.3-.9,2.3-2.6ZM57,3.4l-.9,3.5h1.8ZM55.8,8.2l-.3,1.3H54L56.3.3h1.5l2.3,9.2H58.5l-.3-1.3ZM65,9.5h1.9V.3H65.4V6.7L62.7.3H60.8V9.5h1.5V3.1Zm5.7-6.1-.9,3.5h1.8ZM69.5,8.2l-.3,1.3H67.7L69.9.3h1.6l2.2,9.2H72.2l-.3-1.3ZM76,5.9V9.5H74.5V.3H76V3.9L78.8.3h1.8L77.1,4.9l3.5,4.6H78.8Zm6.9,0V9.5H81.4V.3h1.5V3.9L85.6.3h1.8L83.9,4.9l3.5,4.6H85.6Zm8.3-2.5-.8,3.5h1.7ZM90.1,8.2l-.4,1.3H88.2L90.5.3H92l2.3,9.2H92.8l-.4-1.3Zm5-7.9V9.5h5.3V8.2H96.6V.3Zm6,0V9.5h6.1V8.2h-4.5V5.6h3V4.2h-3V1.6h4.5V.3Z"/><path class="cls-2" d="M76.4,22.9h1.3v.9H76.4ZM47.8,15.3q0-3,2.4-3h1.7c1.7,0,2.5,1,2.5,3H52.7c0-1-.2-1.5-.8-1.5H50.2c-.5,0-.8.5-.8,1.5s.3,1.5.8,1.5h1.7c1.7,0,2.5,1.1,2.5,3.1s-.8,3-2.5,3H50.2q-2.4,0-2.4-3h1.6c0,1,.3,1.5.8,1.5h1.7c.6,0,.8-.5.8-1.5s-.2-1.5-.8-1.5H50.2C48.6,18.4,47.8,17.3,47.8,15.3Zm10.7.5-1,4.1h1.9Zm-1.3,5.6-.4,1.5H55.2l2.5-10.6h1.6l2.5,10.6H60.1l-.3-1.5Zm8.5-9.1h1.7L64.9,22.9H63.2L60.7,12.3h1.7l1.7,7.1Zm3.9,3.5-.9,4.1h1.9Zm-1.3,5.6L68,22.9H66.3l2.5-10.6h1.7L73,22.9H71.3l-.4-1.5Zm5.4-6.1c0-2,.9-3,2.5-3h1.7c1.6,0,2.5,1,2.5,3H78.7c0-1-.3-1.5-.8-1.5H76.2c-.5,0-.8.5-.8,1.5s.3,1.5.8,1.5h1.7c1.6,0,2.5,1.1,2.5,3.1s-.9,3-2.5,3H76.2c-1.6,0-2.5-1-2.5-3h1.7c0,1,.3,1.5.8,1.5h1.7c.5,0,.8-.5.8-1.5s-.3-1.5-.8-1.5H76.2C74.6,18.4,73.7,17.3,73.7,15.3Zm8.1-3V22.9h5.8V21.4H83.4V12.3Zm10.5,3.5-.9,4.1h1.8ZM91,21.4l-.4,1.5H89l2.5-10.6h1.6l2.5,10.6H94l-.4-1.5Zm7.7-7.6v3h2.5c.5,0,.8-.5.8-1.5s-.3-1.5-.8-1.5Zm0,4.6v4.5H97V12.3h4.2c1.6,0,2.5,1,2.5,3a3.7,3.7,0,0,1-.7,2.3,3.7,3.7,0,0,1,.7,2.3v3H102v-3c0-1-.3-1.5-.8-1.5Zm8-6.1V22.9h-1.6V12.3Z"/><path class="cls-2" d="M107,27.3v5.3h-1.1V27.3Zm0-1.4v.7h-1.1v-.7Zm-4.9,3.8v2.9H101V25.9h1.1v2.8h2.2V25.9h1.1v6.7h-1.1V29.7Zm-1.6-2.4v5.3H99.4V27.3Zm0-1.4v.7H99.4v-.7Zm-5,3.8v2.9h-1V25.9h2.7c1.1,0,1.6.6,1.6,1.9a2,2,0,0,1-.4,1.4,2.1,2.1,0,0,1,.4,1.5v1.9H97.7V30.7c0-.7-.2-1-.5-1Zm0-2.9v1.9h1.7c.3,0,.5-.3.5-.9s-.2-1-.5-1Zm-4.6,4.8-.3,1H89.5l1.7-6.7h1.1l1.6,6.7H92.8l-.2-1Zm.8-3.5-.6,2.6h1.2Zm-5.5-2.2h4.4v.9H89v5.8H87.9V26.8H86.2Zm-9.1,0v4.8c0,1.3.6,1.9,1.7,1.9h1c1.1,0,1.7-.6,1.7-1.9V25.9H80.4v4.8q0,.9-.6.9h-1q-.6,0-.6-.9V25.9Zm-4.4,0v6.7h3.9v-1H73.8V25.9Zm-3.8,1.9c0-.7.2-1,.6-1h1.1c.3,0,.5.3.5,1v2.9c0,.6-.2.9-.5.9H69.5q-.6,0-.6-.9Zm1.7-1.9H69.5c-1.1,0-1.7.6-1.7,1.9v2.9c0,1.3.6,1.9,1.7,1.9h1.1c1.1,0,1.6-.6,1.6-1.9V27.8C72.2,26.5,71.7,25.9,70.6,25.9Zm-7.7,6.7V25.9h2.8c1,0,1.6.6,1.6,1.9a2,2,0,0,1-.4,1.4,2.1,2.1,0,0,1,.4,1.5c0,1.3-.6,1.9-1.6,1.9ZM64,29.7v1.9h1.7c.3,0,.5-.3.5-.9s-.2-1-.5-1Zm0-2.9v1.9h1.7c.3,0,.5-.3.5-.9s-.2-1-.5-1Zm-1.6.5v5.3H61.3V27.3Zm0-1.4v.7H61.3v-.7Zm-5.5,0v6.7h3.8v-1H58V25.9Zm-4.9,0v6.7h4.4v-1H53.1V29.7h2.2v-1H53.1V26.8h3.3v-.9Zm-.5,2.8H49.3v1h1.1v1q0,.9-.6.9H48.7c-.3,0-.5-.3-.5-.9V27.8c0-.7.2-1,.5-1h1.1c.4,0,.6.3.6,1h1.1c0-1.3-.6-1.9-1.7-1.9H48.7c-1.1,0-1.6.6-1.6,1.9v2.9c0,1.3.5,1.9,1.6,1.9h1.1c1.1,0,1.7-.6,1.7-1.9Z"/><path class="cls-2" d="M106.9,35.8V42h-1V35.8Zm-1.5,2.6h-2.1v.9h1v.9c0,.6-.1.9-.5.9h-1c-.3,0-.5-.3-.5-.9V37.5c0-.6.2-.9.5-.9h1c.4,0,.5.3.5.9h1.1c0-1.1-.5-1.7-1.6-1.7h-1a1.5,1.5,0,0,0-1.6,1.7v2.7c0,1.2.6,1.8,1.6,1.8h1c1.1,0,1.6-.6,1.6-1.8Zm-4.7-2.6V42h-1V35.8Zm-5.2,0V42h3.7v-.9H96.6V35.8ZM93.8,42H95V35.8H94v4.3l-1.9-4.3H90.9V42h1V37.7Zm-6.3-.9-.2.9H86.2l1.6-6.2h1L90.4,42H89.3l-.2-.9Zm.8-3.3-.6,2.4h1.2Zm-5.7,1.8V42h-1V35.8h1v2.4l1.9-2.4h1.2l-2.4,3.1L85.7,42H84.5Zm-5.7-2.1c0-1.1.5-1.7,1.5-1.7h1.1c1,0,1.5.6,1.5,1.7H80c0-.6-.2-.9-.5-.9H78.4c-.3,0-.5.3-.5.9s.2.9.5.9h1.1q1.5,0,1.5,1.8T79.5,42H78.4q-1.5,0-1.5-1.8h1c0,.6.2.9.5.9h1.1c.3,0,.5-.3.5-.9s-.2-.9-.5-.9H78.4Q76.9,39.3,76.9,37.5Zm-3,3.6-.2.9H72.6l1.6-6.2h1L76.8,42H75.7l-.2-.9Zm.8-3.3-.6,2.4h1.2ZM68.3,42V35.8h2.6c1.1,0,1.6.6,1.6,1.7a2,2,0,0,1-.4,1.4,1.7,1.7,0,0,1,.4,1.3c0,1.2-.5,1.8-1.6,1.8Zm1.1-2.7v1.8h1.5q.6,0,.6-.9t-.6-.9Zm0-2.7v1.8h1.5q.6,0,.6-.9t-.6-.9ZM63.3,42h1.2V35.8h-.9v4.3l-1.8-4.3H60.6V42h1V37.7Zm-6-.9-.2.9h-1l1.5-6.2h1L60.1,42h-1l-.3-.9Zm.8-3.3-.6,2.4h1.1Zm-6-2V42h3.5v-.9H53.1V35.8Zm-3.3,5.3-.2.9h-1l1.5-6.2h1L51.6,42h-1l-.2-.9Zm.8-3.3L49,40.2h1.2ZM78.5,42h1v.6h-1Zm23.8-6.9h2v.4h-2Z"/><path class="cls-3" d="M21.6.3A21.2,21.2,0,1,1,.4,21.4,21.1,21.1,0,0,1,21.6.3"/><g class="cls-4"><path class="cls-5" d="M12.6,1.8C25.1.3,28.7,3.8,36,5M6.9,5.7C19.7-.6,33.1,7.2,38.1,7.3M3.2,9.9c13.5-10,26.3-1.3,37.5-.8M2,13c11.7-11.7,27.5-2.5,38.4-2.4M1.1,15.3C13.6,3.2,28.3,12.9,41,11.8M.7,17.6C13.1,4,31.6,15.9,41.5,12.9M.3,19.5C12.2,6.1,32.1,18.6,41.8,14M.2,21c10.9-12.8,33.5,0,41.9-6M.3,22.4c10.8-12.3,34.7,1,42.1-6.5M.5,23.9c9.6-11.8,33.4,1.8,42.1-7.1M.6,25.1c9-10.8,33.9,2.9,42.1-7.2M.8,26.3c7.6-9.1,36.1,3.6,42.1-7.8M1.1,27.3C11.9,19.2,34,32.5,43,19.5M1.5,28.4c7.7-6.5,34.8,5.7,41.6-7.9M1.7,29.3c8.7-5.1,33.2,6.9,41.3-7.7M2.3,30.5c7.2-4.2,30.6,8.6,40.7-7.7M2.7,31.3c10.2-2,29.8,9.5,40.3-7.5M3.3,32.2c12.7.8,29.5,9.2,39.5-6.9M4,33.5c6.1,0,27.5,11.5,38.4-6.5M5,35.1c8.3,2,26.1,9.6,36.4-5.1M6.8,37.1c11.7,4.8,21.9,5,29.7.1M10.9,39.8a25.8,25.8,0,0,0,17,2M23.2.2a24.9,24.9,0,0,1,7.9,2.2"/></g><g class="cls-6"><path class="cls-7" d="M34.6,16.4a3.3,3.3,0,0,1,.6,2.6l-2.1,2.7a19,19,0,0,0,1.5-5.3m-3.5,8.4,4.2-5.3V20A20.1,20.1,0,0,1,31.1,24.8Zm-3.2,2.6a20.7,20.7,0,0,0,7.7-5.9V20.3A20.3,20.3,0,0,1,27.9,27.4Zm-2.4,1.1a14.4,14.4,0,0,0,9.9-5.4V21.9C33.5,25.1,29.9,27.4,25.5,28.5Zm-1.6.4A11.5,11.5,0,0,0,35.1,25l.3-1.5C32.4,27.5,28.4,28.8,23.9,28.9Zm-1.5.2c4.8,1.9,12,.4,12.3-3.3C31.8,29.2,27.5,29.9,22.4,29.1Zm-1.8,0c4.6,2.1,8.6,2.3,12.1.7l1.1-1.6C30.2,30.7,25.8,30.9,20.6,29.1Zm-1.5-.4a19.9,19.9,0,0,0,11.5,3.2l1.7-1.7C29.1,31.9,23.5,31.3,19.1,28.7ZM18,28.5a33.3,33.3,0,0,0,11,4.7,5.3,5.3,0,0,0,1.1-.9A22.6,22.6,0,0,1,18,28.5Zm-5.7-4.1c3.1,5.3,10.2,7.9,16.1,9C21.6,31.7,16,28.7,12.3,24.4Zm-4-4C6,29.2,14.8,36.5,21.8,35.2A17.6,17.6,0,0,1,8.3,20.4Zm.3-2.3C8.3,27,14.9,34,26.4,35.9l.6-.6C16.6,33.7,9.6,28.6,8.6,18.1ZM9,16.8c-.5,7.8,5.2,16,17.5,18.2l.6-.6C16.5,32.9,8.9,25.5,9,16.8Zm.1-.2c.6,8.7,6.8,15.5,18.3,17.6l1.6-.4C16.1,31.6,10.5,25.7,9.1,16.6Z"/></g><g class="cls-8"><path class="cls-7" d="M15,12.1l.6.7.6-.5Zm.6,1.1,1.2-.8h.9l-1.6,1.1Zm.7.8,7.3-5.9v.7l-6.9,5.6Zm1.1,1.1,6.4-5V9L17,14.7Zm6.9,7.8.8,1.2.3-2.2Zm-.8-.8.6.6,1.1-1.1v-1Zm-.8-.9L29.2,15h.9l-6.8,6.8Zm-.7-.9,5.9-5.6,1,.2-6.3,5.9Zm4.5-5.8h1l-5.8,5.6-.7-.6Zm-9.5,7,8.2-7.4,1.1.2-5.5,5.1Zm-.1-1.6L24.1,14l.5.2-8.5,7.3Zm.2-.5,7.1-5.8v-.9l-5.9,4.8Zm.8-2.9.4.5L24,12.4v-.9Zm.1-.6,5.9-4.7v-.8l-6.2,5.2Z"/></g></g></g></svg>
