<svg width="60" height="61" viewBox="0 0 60 61" fill="none" xmlns="http://www.w3.org/2000/svg">
<path d="M58.8038 0.736109L59.1719 1.44391L59.9929 2.32158L60.0778 2.57638V3.19924L59.8513 3.53899L58.917 4.5299L58.2659 4.84133L56.7087 6.28524L54.6136 8.72006L53.4245 9.79591L51.9523 10.8151L50.7632 11.891L48.2718 14.8354L47.111 15.9396L45.1858 17.5817L42.8925 20.4978L41.392 22.055L39.8065 23.3007L39.665 23.329L38.7024 24.2916L37.0603 26.2168L35.7296 27.5475L33.5213 29.1896L32.1623 30.5485L32.1057 30.4919L31.8792 30.6052L31.7376 30.8033L31.6244 31.2563L31.3696 31.3979L30.9166 31.3413L30.0106 32.4737L28.9064 33.5213L27.236 34.9086V35.1917L27.2927 35.2483L27.1794 35.7013L25.9337 37.0603L24.8578 38.5891L24.1784 39.3252L24.3199 39.8065L24.235 40.0047L24.0085 40.0613L23.6121 39.8915L21.4604 41.5335L20.0448 43.0058L18.9407 44.393L18.3178 45.0159L17.8365 45.2141L17.2703 45.9502L16.5341 46.3466L14.2409 48.47L11.6079 51.4993L9.54111 53.283L8.35201 54.5287L6.79485 56.6521L4.78471 58.6622L4.47328 58.8038L3.25587 59.7381L2.63301 59.908L2.09508 59.8797L1.16079 59.2851L0.0566238 58.1809L0 58.0111L0.0283119 57.4165L0.169871 57.0485L1.98183 54.9534L3.5673 53.651L5.37926 51.8391L5.52082 51.5843L6.05874 50.9897L6.51173 50.2536L7.6159 48.9796L8.46526 48.1868L10.2489 46.8562L11.5229 45.5821L13.0801 43.6286L14.0427 42.7226L15.8263 41.4486L16.7606 40.6276L19.5352 37.4566L20.9225 36.126L21.1773 35.9844L23.5555 33.6628L24.8295 32.0491L25.141 31.5111L26.5566 30.0955L28.3968 28.7083L29.8974 27.2077H30.407L30.4919 26.9529L30.3787 26.6698L30.5485 26.3301L31.0298 25.6789L31.1997 25.5656L31.6527 25.4524L33.7478 23.4139L34.5688 22.7628L35.1917 22.1399L38.306 18.6292L39.4951 17.6666L41.3637 15.8547L41.9299 15.1752L42.2413 14.6372L42.4962 14.4391L43.4304 13.165L44.5629 12.1458L44.7045 11.8344L45.3273 11.1549H45.7803L45.8936 10.985L45.8653 10.6736L47.8754 8.60682L48.3001 8.5785L48.385 8.49357V8.0972L48.6965 7.78577L49.0928 7.72915L49.4043 7.30447L50.2819 6.48342L51.7541 5.4642L53.2264 4.16185L53.5661 3.70886L55.8877 1.27404L56.4539 1.21741L56.9069 0.651174L58.0677 0L58.8038 0.736109Z" fill="#E80D0D"/>
<path d="M59.6248 58.8321L58.917 59.2002L58.0394 60.0212L57.7846 60.1062H57.1617L56.822 59.8797L55.831 58.9454L55.5196 58.2942L54.0757 56.737L51.6409 54.642L50.565 53.4529L49.5458 51.9806L48.47 50.7915L45.5255 48.3001L44.4214 47.1393L42.7793 45.2141L39.8631 42.9208L38.306 41.4203L37.0603 39.8348L37.032 39.6933L36.0693 38.7307L34.1441 37.0886L32.8135 35.7579L31.1714 33.5496L29.8124 32.1906L29.869 32.134L29.7558 31.9075L29.5576 31.7659L29.1046 31.6527L28.9631 31.3979L29.0197 30.9449L27.8872 30.0389L26.8397 28.9348L25.4524 27.2644H25.1693L25.1126 27.321L24.6597 27.2077L23.3007 25.962L21.7718 24.8862L21.0357 24.2067L20.5544 24.3482L20.3562 24.2633L20.2996 24.0368L20.4695 23.6404L18.8274 21.4887L17.3552 20.0731L15.9679 18.969L15.345 18.3461L15.1469 17.8648L14.4108 17.2986L14.0144 16.5625L11.891 14.2692L8.86162 11.6362L7.07797 9.56942L5.83225 8.38032L3.70886 6.82317L1.69871 4.81302L1.55715 4.50159L0.62286 3.28418L0.452989 2.66132L0.481301 2.12339L1.07585 1.1891L2.18001 0.0849364L2.34989 0.0283126L2.94444 0.0566245L3.31249 0.198184L5.40757 2.01015L6.70992 3.59561L8.52188 5.40757L8.77668 5.54913L9.37123 6.08706L10.1073 6.54005L11.3814 7.64421L12.1741 8.49357L13.5048 10.2772L14.7788 11.5513L16.7323 13.1084L17.6383 14.071L18.9123 15.8547L19.7334 16.789L22.9043 19.5635L24.235 20.9508L24.3765 21.2056L26.6981 23.5838L28.3119 24.8578L28.8498 25.1693L30.2654 26.5849L31.6527 28.4251L33.1532 29.9257V30.4353L33.408 30.5202L33.6911 30.407L34.0309 30.5768L34.6821 31.0581L34.7953 31.228L34.9086 31.681L36.947 33.7761L37.5982 34.5971L38.2211 35.22L41.7317 38.3343L42.6943 39.5234L44.5063 41.392L45.1858 41.9582L45.7237 42.2697L45.9219 42.5245L47.1959 43.4588L48.2151 44.5912L48.5266 44.7328L49.2061 45.3557V45.8086L49.3759 45.9219L49.6874 45.8936L51.7541 47.9037L51.7824 48.3284L51.8674 48.4133H52.2637L52.5752 48.7248L52.6318 49.1211L53.0565 49.4326L53.8775 50.3102L54.8968 51.7825L56.1991 53.2547L56.6521 53.5944L59.0869 55.916L59.1435 56.4822L59.7098 56.9352L60.3609 58.096L59.6248 58.8321Z" fill="#E80D0D"/>
</svg>
