<svg width="25" height="25" viewBox="0 0 25 25" fill="none" xmlns="http://www.w3.org/2000/svg">
<path d="M2.26123 8.50002C2.26123 6.29088 4.05209 4.50002 6.26123 4.50002H13.2612C15.4704 4.50002 17.2612 6.29088 17.2612 8.50002V16.5C17.2612 18.7092 15.4704 20.5 13.2612 20.5H6.26123C4.05209 20.5 2.26123 18.7092 2.26123 16.5V8.50002Z" stroke="white" stroke-width="1.5"/>
<path d="M17.2612 9.83335L18.8022 8.18969C20.0422 6.86699 22.2612 7.7445 22.2612 9.55758V15.4425C22.2612 17.2555 20.0422 18.133 18.8022 16.8103L17.2612 15.1667V9.83335Z" stroke="white" stroke-width="1.5"/>
<path d="M13.2612 10.5C13.2612 11.6046 12.3658 12.5 11.2612 12.5C10.1567 12.5 9.26123 11.6046 9.26123 10.5C9.26123 9.39545 10.1567 8.50002 11.2612 8.50002C12.3658 8.50002 13.2612 9.39545 13.2612 10.5Z" stroke="white" stroke-width="1.5"/>
</svg>
