<svg width="144" height="92" viewBox="0 0 144 92" fill="none" xmlns="http://www.w3.org/2000/svg">
<path d="M2.41723 23.9254H5.44566C5.96397 23.9254 6.74032 23.9525 7.77469 24.0021C7.77469 24.0789 7.85165 24.158 8.00783 24.2348L7.85165 25.1653L7.92861 26.2495C7.87655 27.2049 7.85165 28.0564 7.85165 28.8063H7.77469C7.77469 29.0909 8.24096 29.2445 9.17121 29.2716C9.17121 29.3235 9.19611 29.3484 9.24817 29.3484C9.24817 29.3755 9.22101 29.4771 9.17121 29.6578C9.22327 29.9288 9.24817 30.0847 9.24817 30.1231C9.18253 30.3806 9.10558 30.5116 9.01504 30.5116H8.628C8.49898 30.4077 8.39487 30.3557 8.31791 30.3557C8.10968 30.4077 8.00783 30.5635 8.00783 30.821C8.05988 30.9768 8.2138 31.0536 8.47409 31.0536H9.0173L9.25043 31.2095C9.19837 31.5573 9.14632 31.7899 9.09426 31.9074L9.17121 32.2959L9.09426 32.9938C9.19837 33.2264 9.30023 33.3552 9.40434 33.38C9.61031 33.38 9.94756 32.7092 10.4138 31.3653C10.4138 31.2501 10.1558 31.1462 9.63747 31.0559L9.56052 30.9V30.6674C9.63747 30.3828 10.1037 30.2021 10.957 30.1253C11.1517 29.983 11.2807 29.7504 11.3463 29.4274C11.2422 29.4274 11.1902 29.3755 11.1902 29.2716L11.034 29.3484H10.7239C10.647 29.3484 10.5428 29.2445 10.4138 29.0389V28.8831C11.2422 27.0107 11.7854 26.0304 12.0435 25.9401H16.3145L17.0909 26.1727L17.5571 26.0959L17.6341 26.2518V26.4076C16.8441 27.9706 16.405 28.7972 16.3145 28.8876V29.0434C16.3145 29.1202 16.4435 29.2241 16.7015 29.3529L16.8577 29.2761H17.1678C17.2448 29.2761 17.324 29.3529 17.4009 29.5087C17.4009 29.8182 17.1678 30.1027 16.7015 30.3602H16.1583C15.8731 30.3602 15.6672 30.489 15.5382 30.7465V30.8232C15.5382 30.952 15.8482 31.0559 16.4707 31.1327V31.3653C16.1719 31.7132 15.941 32.1265 15.7713 32.6053C15.4725 33.1745 15.2914 33.4568 15.2281 33.4568H14.9949C14.8795 33.4568 14.7754 33.432 14.6849 33.38C14.2978 33.38 13.9334 33.7934 13.5984 34.62C13.3902 34.8143 12.9262 35.7426 12.2019 37.4094C12.6682 38.1842 13.2883 39.7336 14.0647 42.0577C14.2322 42.2655 14.5423 43.0402 14.9972 44.3819C15.2688 45.0527 15.6061 45.7755 16.0067 46.5502V46.627C16.0067 46.7693 15.6694 46.8732 14.9972 46.9364C14.9451 47.0403 14.9203 47.1171 14.9203 47.169C15.167 48.0996 15.425 48.5626 15.6966 48.5626C16.9392 48.6665 17.5594 48.8472 17.5594 49.1047C17.5594 49.247 17.8174 49.9178 18.3357 51.1194C18.6843 51.8173 19.0215 52.644 19.3452 53.5994C19.3452 53.8049 18.2837 53.9088 16.1629 53.9088H16.0859C15.5042 53.9088 14.7528 53.8817 13.8338 53.832C13.7433 53.884 13.6392 53.9088 13.5237 53.9088C13.2657 53.9088 12.7474 52.7208 11.971 50.3447C11.6089 49.3125 11.2988 48.7953 11.0385 48.7953C9.79591 48.7953 9.17574 48.5626 9.17574 48.0973C9.12368 47.7608 8.99467 47.4265 8.7887 47.09C8.7887 46.8709 9.04673 46.7422 9.56505 46.7038V46.7806C9.66916 46.7286 9.74612 46.7038 9.79818 46.7038V46.627C9.60352 45.71 9.37039 45.0391 9.09878 44.6123C8.90413 43.8895 8.69816 43.5281 8.47861 43.5281C8.06441 44.1876 7.85844 44.7546 7.85844 45.2334V46.0849C7.96256 46.4463 8.01462 46.6541 8.01462 46.7038C8.01462 46.8077 7.96256 46.8596 7.85844 46.8596H7.23827C6.92818 46.8596 6.77201 47.0155 6.77201 47.3249V47.867C6.56378 48.1764 6.3827 48.3322 6.22879 48.3322V48.4881H6.30575C6.73353 48.4881 7.22469 48.592 7.78149 48.7975H7.85844L8.40166 48.6417L8.55783 48.8743C8.55783 49.0302 8.53067 49.2108 8.48088 49.4164C8.53293 50.1911 8.55783 50.8371 8.55783 51.3543C8.55783 51.483 8.53067 51.6908 8.48088 51.9732C8.53293 52.1674 8.55783 52.4001 8.55783 52.6711C8.50577 53.0325 8.48088 53.238 8.48088 53.29C8.58499 53.4571 8.63705 53.5858 8.63705 53.6762L8.48088 53.753H8.01462C7.26317 53.8569 6.87613 53.9088 6.84896 53.9088C6.5502 53.9088 6.36912 53.8817 6.30575 53.832C5.86665 53.884 5.50224 53.9088 5.21932 53.9088H3.11662C2.93554 53.9088 2.72958 53.8049 2.49645 53.5994C2.5485 53.0822 2.5734 52.6959 2.5734 52.4362V51.1194C2.5734 50.6812 2.54624 50.2159 2.49645 49.7258V48.8743C1.25384 48.8224 0.633667 48.6688 0.633667 48.409C0.633667 48.2803 0.685725 48.0228 0.789842 47.6343C0.737783 47.4288 0.712886 47.221 0.712886 47.0155C0.880378 46.8212 1.24252 46.6925 1.79932 46.627C1.90343 46.4214 1.95549 46.2407 1.95549 46.0849C1.95549 46.0329 1.92833 46.0081 1.87854 46.0081L1.95549 45.5428C1.95549 45.1814 1.92833 45.0007 1.87854 45.0007C1.9306 44.4835 1.95549 44.0973 1.95549 43.8375V40.8155C1.95549 39.2909 1.92833 37.6127 1.87854 35.7787C1.9306 35.4173 1.95549 34.9001 1.95549 34.2293L1.87854 33.764C1.87854 33.4546 2.29274 33.2739 3.12114 33.2219C3.12114 33.17 3.14604 33.1451 3.1981 33.1451L3.12114 32.6799C3.1732 32.1378 3.1981 31.6996 3.1981 31.3631C3.05551 31.1959 2.69336 31.092 2.11167 31.0536L1.87854 30.7442C2.03471 30.3828 2.26558 30.2021 2.57793 30.2021C2.62999 30.2021 2.65488 30.2292 2.65488 30.2789C2.96497 30.2134 3.12114 30.1366 3.12114 30.0463V29.5042C3.12114 29.4003 3.06909 29.3484 2.96497 29.3484L2.49871 29.4251C2.26558 29.3348 2.05961 29.1541 1.87854 28.8831V27.7199C1.87854 27.4737 1.90343 27.2162 1.95549 26.9452C1.90343 26.7509 1.87854 26.5183 1.87854 26.2472L1.95549 25.3167L1.87854 24.9304L1.95549 24.542C1.85138 24.3748 1.79932 24.2461 1.79932 24.1557C2.05735 23.9999 2.26558 23.9231 2.41949 23.9231L2.41723 23.9254ZM4.90244 32.1378L4.66931 32.4472V32.7566L5.05635 32.8334H5.59957C5.67652 32.8334 5.75574 32.7566 5.8327 32.6008C5.8327 32.4066 5.52261 32.253 4.90018 32.1355L4.90244 32.1378ZM8.39713 31.8283L8.32018 31.9842V32.061C8.33376 32.1649 8.38581 32.2168 8.47635 32.2168C8.58047 32.1649 8.65742 32.14 8.70948 32.14V31.9074L8.39939 31.8306L8.39713 31.8283ZM12.0457 35.7787V35.9346C12.1227 35.9346 12.2019 35.8578 12.2789 35.7019V35.6251H12.2019C12.0978 35.6387 12.0457 35.6906 12.0457 35.781V35.7787ZM13.3653 23.9254V24.0021L13.5215 23.9254H13.7546C13.8067 23.9254 13.8316 23.9525 13.8316 24.0021L13.9877 23.9254H14.841C14.8931 23.9254 14.918 23.9525 14.918 24.0021L15.0742 23.9254H16.3168C16.3688 23.9254 16.3937 23.9525 16.3937 24.0021C16.4978 23.9502 16.5748 23.9254 16.6269 23.9254C16.7559 23.9254 17.4281 23.9525 18.6458 24.0021L18.802 24.2348C18.4263 25.0095 18.0392 25.398 17.6363 25.398H12.512C12.3038 25.2941 12.2019 25.1653 12.2019 25.0118L12.7451 24.0812C12.9398 23.9773 13.1457 23.9254 13.3653 23.9254ZM12.7451 40.6596V40.9691H12.9013V40.8132C12.9013 40.7093 12.8492 40.6574 12.7451 40.6574V40.6596Z" fill="#E80D0D"/>
<path d="M24.7185 22.7644H30.076L30.5422 22.8412L30.6984 22.7644C31.228 22.8164 31.6422 22.8412 31.941 22.8412H32.0972C32.3167 22.8412 32.4458 23.3584 32.4842 24.3906C32.6789 24.9079 32.8079 25.6555 32.8713 26.638C33.0274 26.638 33.1293 27.0242 33.1814 27.8012C33.3375 27.9164 33.7766 28.0474 34.5009 28.1874C34.5009 28.4449 34.553 28.6527 34.6571 28.8063C34.6571 29.0638 34.295 29.2196 33.5707 29.2716C33.4665 29.4387 33.4145 29.5697 33.4145 29.6578C33.6091 29.8136 33.7902 29.8904 33.9577 29.8904H34.5009C34.7589 30.0192 34.8902 30.227 34.8902 30.5093C34.8133 30.7171 34.605 30.8187 34.2701 30.8187V30.9746C34.7884 30.9746 35.0464 31.1824 35.0464 31.5934V32.1355C35.0464 32.2394 34.7092 32.3162 34.0369 32.3682L33.8807 32.6776C33.8807 32.8967 34.0369 33.5675 34.347 34.6923C34.3991 35.5958 34.424 36.1378 34.424 36.3185C34.5666 36.3185 34.7205 36.9374 34.8902 38.1774C34.6956 38.2813 34.4896 38.3332 34.2701 38.3332H31.7848C31.7079 38.3332 31.6287 38.41 31.5517 38.5659V38.7985C31.5517 38.8753 31.6287 38.9544 31.7848 39.0311H33.7268C34.6594 39.0311 35.1234 39.2118 35.1234 39.5732C35.1234 40.9036 35.3565 42.3242 35.8227 43.8353C35.8227 43.8872 35.7956 43.9121 35.7458 43.9121L35.8227 44.2983V44.6868L35.7458 45.073C35.8227 45.073 35.9269 45.1769 36.0559 45.3825V45.4592C36.0038 45.6151 35.8476 45.6919 35.5896 45.6919H35.0464C34.7476 46.0533 34.5417 46.234 34.4262 46.234C34.3221 46.182 34.2452 46.1572 34.1931 46.1572L34.1161 46.313V46.4689C34.1546 46.7783 34.2316 46.9341 34.3493 46.9341C34.3493 46.8573 34.4783 46.7534 34.7386 46.6247H34.8155C35.112 47.1939 35.3972 47.4762 35.6688 47.4762C36.3931 47.5801 36.7553 47.7608 36.7553 48.0183C37.0133 48.3164 37.1446 48.5468 37.1446 48.7162C37.26 49.5429 37.3641 50.1098 37.4547 50.4215C37.3777 50.8868 37.2736 51.1194 37.1446 51.1194L36.7553 50.9636C36.418 51.1194 36.0559 51.1962 35.6688 51.1962H33.8061C33.7291 51.1962 33.6499 51.273 33.5729 51.4288C33.6499 51.6366 33.7291 51.7383 33.8061 51.7383H36.2121C36.2777 51.7383 36.5606 51.7902 37.0654 51.8941L37.4524 51.8173C37.7104 52.0884 37.8417 52.2962 37.8417 52.4362C37.6742 52.5265 37.1038 52.6304 36.1328 52.7456L35.5896 52.6688L35.2026 52.7456C34.931 52.6937 34.7748 52.6688 34.7363 52.6688L34.1931 52.7456C33.7404 52.6937 33.4552 52.6688 33.3398 52.6688L32.4073 52.7456V52.6688L32.2511 52.7456H32.1741C31.889 52.7456 31.683 52.6169 31.554 52.3594L31.6309 51.6615C31.4748 51.081 31.2688 49.9449 31.0108 48.2532V47.7879C31.0108 47.7495 30.9338 47.6727 30.7776 47.5553C30.6735 47.6072 30.5966 47.6321 30.5445 47.6321C30.1824 47.6321 29.0959 47.5033 27.2829 47.2436C26.5066 47.2955 25.8593 47.3204 25.3409 47.3204L25.264 47.4762C25.316 47.7856 25.393 47.9415 25.4971 47.9415H25.6533L25.8864 47.7856H26.1195C26.1965 47.7856 26.2757 47.8624 26.3527 48.0183L25.7325 51.3498V52.3571C25.7325 52.4859 25.5514 52.5898 25.1893 52.6666L25.0331 52.5898C24.3722 52.6937 23.9852 52.7456 23.8675 52.7456C23.8403 52.7456 23.5053 52.7208 22.858 52.6688C22.8308 52.6688 22.4958 52.6959 21.8485 52.7456L21.4615 52.6688C21.3574 52.7208 21.2804 52.7456 21.2283 52.7456L20.9183 52.6688L20.5312 52.7456C20.1691 52.6688 19.988 52.5649 19.988 52.4362L20.5312 49.9562C20.5312 49.7371 20.5833 49.195 20.6874 48.33V47.8647C20.6874 47.7879 20.6104 47.7089 20.4543 47.6321H19.601C19.3293 47.6321 19.1483 47.5282 19.0577 47.3226V47.2458C19.1619 46.7422 19.2139 46.4576 19.2139 46.3943V46.3175C19.2139 46.2023 19.189 46.0984 19.137 46.0081C19.137 45.7235 19.5761 45.5699 20.4565 45.5428C20.572 45.2334 20.7281 45.0527 20.9228 45.0007L21.389 45.0775C21.6222 44.9736 21.7512 44.872 21.7761 44.7681C21.7761 44.6123 21.466 44.5106 20.8436 44.4587C20.7394 44.3299 20.6874 44.2531 20.6874 44.226V44.1492C21.2057 41.6579 21.4637 40.0295 21.4637 39.2683C21.8779 37.4478 22.0839 36.4676 22.0839 36.3253C22.0839 36.2869 22.0567 36.1311 22.0069 35.86L22.4732 33.6127L22.3963 33.4568C22.3963 32.9283 22.6022 32.463 23.0164 32.0632L23.5596 32.14H23.7158C23.8448 32.14 24.0259 31.4941 24.259 30.2021C24.207 30.0982 24.1821 30.0214 24.1821 29.9695H23.4057C23.3288 29.9695 23.2247 29.8656 23.0956 29.66V29.4274C23.2518 29.1699 23.4329 29.0412 23.6389 29.0412C23.924 29.0931 24.13 29.118 24.259 29.118C24.4152 28.8853 24.4922 28.7046 24.4922 28.5759C24.4922 28.4336 24.3631 28.3049 24.1051 28.1874C24.0146 28.2394 23.9105 28.2642 23.795 28.2642C23.4849 28.0835 23.3288 27.9548 23.3288 27.878C23.8471 25.1789 24.1051 23.5775 24.1051 23.0738C24.3247 22.8683 24.5329 22.7644 24.7253 22.7644H24.7185ZM27.6677 32.9125L27.7447 33.6872V33.764C27.7447 33.8792 27.7175 33.9831 27.6677 34.0734C27.6677 34.1254 27.6926 34.1502 27.7447 34.1502C27.6926 34.9904 27.5364 35.9707 27.2784 37.0932L26.7352 41.2762H26.579C26.45 41.2762 26.3459 41.0707 26.2689 40.6574L26.3459 40.3479C26.2938 40.244 26.2689 40.1672 26.2689 40.1153H26.192C26.0879 40.1288 26.0358 40.1808 26.0358 40.2711V42.0532C26.0358 42.1571 26.1399 42.2091 26.3459 42.2091V42.5975C26.3459 42.7014 26.2938 42.7534 26.1897 42.7534H26.0335L25.6442 42.6766L25.5673 42.8324L27.4301 43.1419C27.4685 43.1419 27.6247 43.117 27.8963 43.0651C27.9484 43.0651 28.0253 43.0922 28.1294 43.1419C28.4146 43.0899 28.6478 43.0651 28.8288 43.0651H29.449C29.5531 43.0651 29.6052 43.0131 29.6052 42.9092C28.8809 38.3265 28.4395 35.1756 28.2856 33.4568C28.22 33.4568 28.091 33.2761 27.8986 32.9147H27.6655L27.6677 32.9125ZM31.7056 24.2348V24.4674L32.0949 24.5442L32.1719 24.3884V24.2325L32.0157 23.9999C31.8075 24.0767 31.7056 24.1557 31.7056 24.2325V24.2348ZM32.1719 26.7148L32.3281 26.7916H32.405V26.5589H32.3281C32.2239 26.5725 32.1719 26.6244 32.1719 26.7148ZM33.4145 33.5314V34.3829C33.4145 34.7578 33.4914 34.9633 33.6476 35.0017L33.7246 34.8459V34.227C33.7766 34.0079 33.8015 33.8272 33.8015 33.6849C33.711 33.6849 33.582 33.633 33.4145 33.5291V33.5314ZM34.2678 47.1668V47.2436H34.424V47.1668H34.2678ZM34.9672 43.6794V43.9889H35.0441V43.6794H34.9672ZM34.9672 44.1447V44.3006H35.0441V44.1447H34.9672Z" fill="#E80D0D"/>
<path d="M50.2405 23.3449L50.7837 23.4217H54.7424C54.8578 23.4217 54.962 23.4488 55.0525 23.4985C55.143 23.4465 55.2471 23.4217 55.3626 23.4217L55.5957 23.7311C55.2856 24.7769 55.0004 25.5787 54.7424 26.132C54.5342 27.2952 54.3033 28.0429 54.043 28.3794C53.991 28.4697 53.9661 28.5985 53.9661 28.7656V29.2309C54.6904 29.2693 55.0525 29.3461 55.0525 29.4635V29.6194C55.0525 29.7481 54.8714 29.852 54.5093 29.9288C54.2241 29.8769 54.0181 29.852 53.8891 29.852C53.4749 30.55 53.1128 31.607 52.8027 33.0277L51.25 37.9086C51.1459 37.999 51.0689 38.3874 51.0169 39.0718L50.3967 41.0097L49.7765 43.1012C49.7109 43.1012 49.6339 43.2571 49.5434 43.5665C49.5954 44.549 49.6475 45.1679 49.6996 45.4254L49.3895 45.658C49.1812 45.658 49.0794 45.6332 49.0794 45.5812C48.5611 45.6332 48.174 45.658 47.9137 45.658H44.1882C43.9166 45.658 43.7604 45.5812 43.7219 45.4254V43.8759C43.7219 43.6952 43.6948 43.4626 43.645 43.178C43.7491 42.9454 43.8509 42.8166 43.955 42.7918H47.9137C47.9907 42.7918 48.0699 42.715 48.1469 42.5592C48.0948 42.3536 47.9386 42.2497 47.6806 42.2497H44.2651L43.4888 42.3265C43.19 42.0306 42.984 41.4095 42.8686 40.4676C42.6604 40.1718 42.4024 39.2661 42.0923 37.755C41.6781 36.7748 41.291 35.5077 40.9266 33.9582C40.5645 33.0548 40.1752 31.7109 39.761 29.9288L40.0711 29.6962H40.6912V29.5403C40.6912 29.4364 40.6143 29.3845 40.4581 29.3845L39.9149 29.4613C39.5663 29.4613 39.3332 28.996 39.2155 28.0677C38.7628 27.0739 38.5025 26.1704 38.4391 25.3551C38.335 25.2399 38.1291 24.6955 37.819 23.7289V23.6521C37.819 23.5753 37.8959 23.4962 38.0521 23.4194H42.477C42.6966 23.4194 42.9818 23.4465 43.3303 23.4962C43.4209 23.4443 43.5499 23.4194 43.7174 23.4194C44.0275 23.4194 44.2085 23.7289 44.2606 24.35L44.1836 24.6594L44.4168 25.2015L44.3398 25.5109C44.702 25.9491 44.9102 26.4934 44.96 27.1371C45.0121 27.1371 45.037 27.1642 45.037 27.2139V27.6792L45.1139 28.2213C44.8038 28.2868 44.6476 28.3636 44.6476 28.4539V28.7634C44.6476 28.8673 44.7246 28.9192 44.8808 28.9192L45.424 28.8424C45.553 29.1519 45.7612 29.3077 46.0442 29.3077H46.5874C46.6643 29.3077 46.7685 29.4116 46.8975 29.6171V29.6939C46.8975 29.7978 46.5602 29.8746 45.888 29.9266C45.8495 30.5454 45.6933 31.0107 45.4217 31.3201L45.3448 31.7064C45.3968 31.8103 45.4217 31.8871 45.4217 31.939H45.4987C45.7567 31.7967 45.888 31.668 45.888 31.5505H46.0442C46.2501 31.8984 46.4584 32.725 46.6643 34.0305C46.7164 34.0305 46.7413 34.0825 46.7413 34.1864H46.8182C47.065 34.1864 47.2709 33.4636 47.4384 32.0181C47.581 31.7335 47.8141 31.0107 48.1378 29.8498L48.681 29.6939H49.2242C49.3284 29.6939 49.3804 29.642 49.3804 29.5381C49.3804 29.4342 49.0703 29.3574 48.4479 29.3054L48.3709 29.1496C49.1993 25.8836 49.6135 24.1015 49.6135 23.8034C49.6135 23.6091 49.8195 23.4556 50.2337 23.3381L50.2405 23.3449ZM43.8736 46.3537H49.231C49.5411 46.3537 49.6973 46.4576 49.6973 46.6631C49.5932 46.8302 49.5411 46.9612 49.5411 47.0493C49.5411 47.6682 49.7222 47.9799 50.0843 47.9799C50.7317 48.0951 51.1979 48.199 51.4809 48.2893C51.5329 49.2447 51.5578 49.9427 51.5578 50.3808V52.5491C51.5578 53.0144 51.3767 53.2471 51.0146 53.2471H50.7815C50.7294 53.2471 50.7045 53.2199 50.7045 53.1703C50.4714 53.2742 50.1341 53.3261 49.695 53.3261H49.5389C48.7625 53.3261 47.8572 53.299 46.8205 53.2493C46.6123 53.3013 46.4335 53.3261 46.2773 53.3261L46.1211 53.2493L45.9649 53.3261C45.7703 53.3261 45.5892 53.2222 45.4217 53.0167C45.4738 52.4994 45.4987 52.1132 45.4987 51.8557V49.7642C45.4987 49.5835 45.5236 49.3509 45.5756 49.0663C45.5756 48.4994 45.3674 48.2148 44.9555 48.2148C44.1271 48.2148 43.7129 48.1109 43.7129 47.9054V47.0539L43.6359 46.5118L43.869 46.3559L43.8736 46.3537ZM44.0297 26.1343V26.5996C44.1339 26.5996 44.1859 26.5228 44.1859 26.3669C44.1339 26.263 44.109 26.1863 44.109 26.1343H44.032H44.0297ZM49.1541 46.898C49.1541 47.0019 49.1269 47.0539 49.0771 47.0539C49.1292 47.1577 49.1541 47.2345 49.1541 47.2865C49.2582 47.2865 49.3103 47.2345 49.3103 47.1306V47.0539C49.3103 46.95 49.2582 46.898 49.1541 46.898ZM50.6298 37.1362L50.5529 37.6782L50.6298 38.0645C50.7452 38.0645 50.8494 37.8589 50.9399 37.4456C50.8629 37.24 50.7837 37.1362 50.7068 37.1362H50.6298ZM50.6298 38.2203V38.4529H50.7068V38.2203H50.6298ZM50.6298 49.2989V49.7642H50.786C50.786 49.7123 50.8109 49.6355 50.8629 49.5316L50.786 49.1431C50.6819 49.1566 50.6298 49.2086 50.6298 49.2989ZM54.1245 25.9017L54.3576 26.0575L54.4346 25.9017V25.5154H54.3576C54.2422 25.5154 54.163 25.6442 54.1245 25.9017Z" fill="#E80D0D"/>
<path d="M57.4609 23.7334H64.138C64.19 23.7334 64.2149 23.7605 64.2149 23.8102L64.3711 23.7334H64.4481C67.825 23.7334 69.973 24.4313 70.892 25.8249C71.1771 25.9401 71.5393 26.7148 71.9784 28.149C71.9784 28.524 72.1595 28.8334 72.5216 29.0796C72.8068 29.0276 73.0128 29.0028 73.1418 29.0028C73.3749 29.1067 73.5039 29.2106 73.5311 29.3122V29.7007C73.5311 30.0621 73.1938 30.2428 72.5216 30.2428L72.2885 30.5522C72.3405 30.76 72.4944 30.8616 72.7547 30.8616H73.2979C73.4541 30.8616 73.5311 30.9655 73.5311 31.1711C73.5311 31.4692 73.5039 31.8803 73.4541 32.4111L73.5311 32.7996C73.5311 33.1225 73.1169 33.3032 72.2885 33.3416C72.1323 33.5088 71.8222 34.4145 71.3559 36.0543C71.279 36.0543 71.0187 36.3389 70.5796 36.9058C70.3329 36.9961 69.9459 37.2288 69.414 37.6037V37.8363C69.9843 38.0035 70.6294 38.4168 71.3559 39.0763C71.3559 39.2322 71.2518 39.309 71.0459 39.309C70.8897 39.309 70.7086 39.2841 70.5026 39.2322C70.231 39.2841 69.973 39.309 69.7263 39.309H69.5701C69.3619 39.309 69.26 39.2841 69.26 39.2322L68.7168 39.309H66.6979C66.3878 39.309 66.2316 39.4129 66.2316 39.6184C66.3086 39.8759 66.4896 40.0046 66.7748 40.0046H71.666C72.0802 40.3028 72.2862 40.5851 72.2862 40.8561V41.6309C72.2862 41.798 72.2092 41.9787 72.0531 42.1729V42.4824L72.4401 42.4056C72.5691 42.4056 72.6732 43.0244 72.7502 44.2644C72.6981 44.6642 72.6732 45.1046 72.6732 45.5812V45.8907C72.6732 45.9426 72.7253 46.1481 72.8294 46.5095C72.6212 46.6134 72.3383 46.6654 71.9761 46.6654H71.666L71.5099 47.2074V48.138C71.5099 48.3458 71.9761 48.5513 72.9064 48.7569V48.8337L72.8294 48.9895C72.9335 49.1566 72.9856 49.3125 72.9856 49.4548C72.7276 49.8026 72.4944 50.3198 72.2862 51.0042C72.1957 51.0042 71.9376 51.2888 71.5099 51.8557C71.3424 52.0635 70.566 52.1652 69.1808 52.1652C68.4045 52.1652 68.0152 52.1132 68.0152 52.0093L67.0826 52.1652C66.9921 52.1268 66.63 52.0748 65.9962 52.0093C65.582 52.1132 65.1429 52.1652 64.6767 52.1652H63.9773C63.6672 52.1923 63.511 52.2691 63.511 52.3978V52.6304L63.588 52.7863L64.9075 52.6304C65.2448 52.7863 65.4756 52.8631 65.6069 52.8631H66.0732C66.1252 52.8631 66.4353 52.7863 67.0057 52.6304L68.0152 52.9399C68.4814 52.784 68.7915 52.7072 68.9477 52.7072H69.414C69.5181 52.7208 69.5701 52.7727 69.5701 52.8631V52.9399C69.5701 53.0957 69.3121 53.2245 68.7938 53.3261C68.7281 53.3261 68.4701 53.299 68.0174 53.2493C67.6032 53.5068 67.266 53.6355 67.008 53.6355C66.8518 53.6355 66.3606 53.6084 65.5322 53.5587C65.2221 53.5971 65.066 53.6491 65.066 53.7146C64.8985 53.7146 64.7672 53.6875 64.6767 53.6378C63.3299 53.6897 62.2707 53.7146 61.4943 53.7146H58.4659C57.7937 53.6762 57.4564 53.5723 57.4564 53.4052L57.5334 53.0167C57.5334 52.9647 57.5085 52.9399 57.4564 52.9399L57.5334 52.3978V51.081L57.4564 50.5389C57.6624 50.3831 57.9747 50.3063 58.3889 50.3063C58.6854 50.3063 59.0996 50.3334 59.6315 50.3831C59.7877 50.3831 59.9688 50.3582 60.1748 50.3063C61.2091 50.3582 62.1167 50.3831 62.8908 50.3831H65.2199C65.5051 50.3831 65.8672 50.3582 66.3063 50.3063C66.3968 50.3582 66.5259 50.3831 66.6956 50.3831C66.7861 50.3831 66.9401 50.3311 67.1619 50.2272C67.0578 49.9178 66.8518 49.762 66.5417 49.762H64.0565C63.7849 49.762 63.5517 49.7891 63.3571 49.8388C63.0855 49.7868 62.8275 49.762 62.5807 49.762H58.3889L57.9227 49.8388C57.6126 49.71 57.4564 49.5293 57.4564 49.2967L57.5334 49.1408C57.4428 48.7795 57.3387 48.5988 57.2233 48.5988H56.4469C56.0463 48.5988 55.786 48.47 55.6706 48.2103V47.3588L55.5936 46.8167L55.9037 46.5841H56.6031C57.2233 46.5841 57.5356 46.2995 57.5356 45.7325C57.5356 45.6558 57.3274 45.396 56.9155 44.9578V38.4507C56.9675 38.2948 57.1214 38.218 57.3817 38.218H61.7297C61.8067 38.218 61.8859 38.1412 61.9628 37.9854V37.9086C61.9108 37.7528 61.7546 37.676 61.4966 37.676C61.2883 37.676 61.1865 37.7031 61.1865 37.7528L60.4101 37.676H59.0906C58.8439 37.676 58.5858 37.7031 58.3142 37.7528C58.1196 37.7008 57.8865 37.676 57.6148 37.676H57.1486C56.9924 37.624 56.9155 37.4704 56.9155 37.2107V34.7307L56.9924 34.2654C56.9403 34.1751 56.9155 34.0463 56.9155 33.8769V33.7211C56.9155 33.2558 57.3025 33.0232 58.0811 33.0232L58.2373 32.0158C58.2373 31.293 58.1332 30.9317 57.9272 30.9317C57.8751 30.9317 57.7982 30.9068 57.6941 30.8549L57.307 30.9317C57.0739 30.8278 56.9449 30.7261 56.92 30.6222V30.3896C56.92 30.2337 57.1531 30.105 57.6194 30.0034H58.1626C58.1626 29.9514 58.1875 29.8746 58.2395 29.7707C58.2395 29.3574 57.9544 29.1519 57.3862 29.1519C57.2301 29.0864 57.049 28.9328 56.843 28.6866L56.92 28.2981C56.92 27.8328 56.9449 27.3178 56.9969 26.7487C56.9449 26.3105 56.92 25.9739 56.92 25.7413L56.9969 25.1992C56.9449 24.9282 56.92 24.6188 56.92 24.2687C56.92 23.9186 57.1011 23.7266 57.4632 23.7266L57.4609 23.7334ZM62.8954 40.6235L62.9723 40.7793C62.9723 40.9984 62.9203 41.2062 62.8161 41.3982C62.8161 41.4253 62.841 41.527 62.8931 41.7076C62.8931 41.8748 62.8659 42.0058 62.8161 42.0961C62.8682 42.5343 62.8931 42.8957 62.8931 43.1803V44.2644C62.8931 44.601 62.8659 44.9352 62.8161 45.2718L62.9723 46.5118C62.8048 46.6157 62.6486 46.6676 62.5061 46.6676H61.9628C61.9244 46.6676 61.7433 46.8483 61.4196 47.2097H60.9534L60.8764 47.5191L61.1095 47.675C61.3155 47.5711 61.4717 47.5191 61.5758 47.5191C61.7953 48.0477 61.9764 48.3593 62.119 48.4497L62.6622 48.6055H62.7392L63.2054 48.5287C63.4635 48.5287 63.6196 48.7365 63.6717 49.1476L64.0587 49.2244H64.3688C65.8695 49.2244 66.6209 49.0686 66.6209 48.7591C66.6209 48.6033 66.3357 48.5265 65.7676 48.5265C65.7156 48.5265 65.6386 48.5536 65.5345 48.6033C65.3014 48.4994 65.1723 48.3977 65.1474 48.2938L65.5345 47.1306C65.4824 47.0267 65.4575 46.95 65.4575 46.898C65.7042 46.6405 66.0913 46.5118 66.6232 46.5118L66.7001 46.3559V42.9476C66.7001 41.7347 66.1818 40.9081 65.1474 40.4677C64.8758 40.4677 64.3847 40.4157 63.6717 40.3118H63.2054C63.1534 40.3118 63.0493 40.4157 62.8954 40.6212V40.6235ZM62.9723 28.3839V28.6933C62.9723 28.8876 63.3345 29.0163 64.0587 29.0796L64.1357 29.2354V29.6216C64.1357 29.9966 64.0587 30.2021 63.9026 30.2405H63.8256C63.6966 30.2405 63.5925 30.0079 63.5155 29.5426L63.3594 29.4658H63.2824L63.2054 29.8543L63.5155 30.1637C63.0877 30.4732 62.7256 30.629 62.4291 30.629C62.1711 30.629 62.0421 30.7849 62.0421 31.0943V31.2501C62.0421 31.3924 62.4812 31.5212 63.3616 31.6386C63.6468 31.5867 63.8799 31.5618 64.061 31.5618L64.138 31.7177V33.0345C64.138 33.1113 64.061 33.1903 63.9048 33.2671H63.6717C63.5563 33.2671 63.4522 33.2423 63.3616 33.1903C63.0515 33.1903 62.8954 33.7324 62.8954 34.8165V35.0492C62.8954 35.4873 62.9995 35.7719 63.2054 35.9007C64.7061 35.7064 65.4575 35.5009 65.4575 35.2818C65.4575 35.1666 65.6386 34.9069 66.0007 34.5071L66.2339 33.8092C66.1818 33.7053 66.1569 33.6285 66.1569 33.5765C66.39 33.2152 66.8042 33.0345 67.3995 33.0345L67.5557 31.9503C67.5557 31.2275 67.3995 30.8662 67.0894 30.8662H67.0125L66.4693 30.943L66.2361 30.4777C66.2361 30.4257 66.3403 30.2721 66.5462 30.0124L66.9333 30.0892H67.0894C67.1664 30.0892 67.2456 30.0124 67.3226 29.8565V29.7007C67.103 29.3393 66.9468 29.1586 66.8563 29.1586H66.3131C66.1705 29.1586 65.7042 28.874 64.9166 28.3071L64.5273 28.2303H63.9841C63.803 28.2303 63.5698 28.2055 63.2847 28.1535C63.0764 28.2303 62.9746 28.3094 62.9746 28.3862L62.9723 28.3839ZM70.6588 47.2097V47.3655H70.815C70.815 47.2616 70.7629 47.2097 70.6588 47.2097ZM71.6683 41.4773L71.7453 41.8635H71.9014L71.8245 41.4773H71.6683Z" fill="#E80D0D"/>
<path d="M80.7331 22.5318C82.7 22.5318 84.2007 22.6876 85.235 22.997C85.8439 23.2545 86.5161 23.6679 87.254 24.237C87.254 24.3929 87.512 24.6504 88.0303 25.0117C88.1978 25.8384 88.5871 26.2517 89.1937 26.2517C89.7505 26.2517 90.1376 26.5363 90.3594 27.1032V27.18C90.1783 27.3607 89.8411 27.4895 89.3499 27.5685C89.3499 27.9299 89.0127 28.1106 88.3404 28.1106H86.9439C86.8669 28.1106 86.7877 28.1874 86.7108 28.3432V28.5759C86.7108 28.7317 86.8149 28.8085 87.0209 28.8085C87.4215 28.8085 88.1458 28.8356 89.1937 28.8853C89.2843 28.9621 89.3612 29.2986 89.4269 29.8927L89.2707 31.4421C89.3227 31.9706 89.3997 32.4111 89.5038 32.7589C89.5038 33.3281 89.2956 33.6104 88.8836 33.6104H85.4682C85.3912 33.6104 85.312 33.6872 85.235 33.843V34.0757L85.3912 34.3083L85.7783 34.2315H87.0209C88.6777 34.2315 89.5061 34.3603 89.5061 34.6178C89.454 34.7736 89.402 34.8504 89.3499 34.8504C89.3499 35.2502 89.7641 35.5348 90.5925 35.7019V35.8577L90.5156 36.0136C90.6197 36.1807 90.6717 36.3117 90.6717 36.4021C90.4771 36.5579 90.3232 36.6347 90.2055 36.6347L89.8954 36.5579C89.5332 36.7386 89.3522 36.9441 89.3522 37.1768C89.3522 37.2287 89.3771 37.3055 89.4291 37.4094C89.3771 37.8476 89.3522 38.2112 89.3522 38.4936V38.7262C89.3522 39.0108 89.3771 39.3722 89.4291 39.8104C89.4291 39.8623 89.402 39.8872 89.3522 39.8872C89.4042 40.1582 89.4291 40.314 89.4291 40.3524C89.4291 40.7138 89.402 41.4117 89.3522 42.4439C89.4042 42.8053 89.4291 43.0131 89.4291 43.0628C89.3771 43.2571 89.3522 43.4626 89.3522 43.6817C89.3522 43.7969 89.3771 43.9008 89.4291 43.9911C89.3771 44.2757 89.3522 44.5083 89.3522 44.689V45.6196C89.3522 46.0329 89.325 46.5231 89.2752 47.0922C89.2752 47.3904 89.5604 47.5711 90.1285 47.6343H90.8279C90.9049 47.6343 90.9841 47.7111 91.061 47.8669C90.7623 48.8495 90.5563 49.3396 90.4409 49.3396C90.2213 49.3396 89.316 49.3915 87.7248 49.4954C87.6727 49.4954 87.6478 49.4706 87.6478 49.4186L87.2608 49.4954H85.785C85.4478 49.4954 84.9317 49.4706 84.2323 49.4186L83.9992 49.7281C83.9992 49.78 84.1033 49.8839 84.3093 50.0375L84.6986 49.9607H85.1649C85.8258 49.9607 86.5501 49.9878 87.3377 50.0375L87.7248 49.9607L88.1118 50.0375L88.655 49.9607L89.1213 50.1933H89.4314L89.6645 50.0375H89.8976C90.0538 50.0895 90.1308 50.2453 90.1308 50.5028C89.6781 50.9026 89.239 51.2391 88.8112 51.5101C88.8112 51.8964 87.9828 52.3368 86.326 52.8269C85.1354 53.0325 84.178 53.1364 83.4537 53.1364H82.2111C80.3733 52.9557 79.2348 52.6462 78.7957 52.2058C78.2253 51.9732 77.5282 51.3023 76.6998 50.1911L75.6903 47.6343H74.5269C74.1127 47.6343 73.9067 47.4785 73.9067 47.169C73.8547 46.6789 73.8298 46.1368 73.8298 45.5428V38.803C73.8298 38.5184 73.8026 38.157 73.7528 37.7189C73.8049 37.615 73.8298 37.5382 73.8298 37.4862L73.7528 37.0209C73.7777 36.7251 74.167 36.5444 74.9185 36.4789C75.009 36.3501 75.0859 36.1423 75.1516 35.86C75.0746 35.6545 74.9954 35.5506 74.9185 35.5506H74.3752C74.0901 35.5506 73.8841 35.4218 73.7551 35.1621C73.7551 34.8775 73.9112 34.672 74.2213 34.5432L74.7645 34.62H75.0746C75.2421 34.62 75.3711 34.5952 75.4617 34.5432L75.851 34.62C77.1049 34.5681 77.9084 34.5432 78.257 34.5432L79.2665 34.7759C79.3706 34.7239 79.4475 34.6991 79.4996 34.6991L80.199 35.5506H80.8984C80.9753 35.5506 81.0545 35.6274 81.1315 35.7832V36.4021C81.1043 36.506 80.9753 36.6099 80.7445 36.7115C80.4593 36.6596 80.2261 36.6347 80.0451 36.6347C79.8889 36.8019 79.8119 36.9329 79.8119 37.0232C79.864 37.3846 79.8889 37.5924 79.8889 37.6421C79.8368 37.7979 79.7848 37.8747 79.7327 37.8747L79.8097 38.2609V39.0357C79.8097 39.1508 79.7825 39.2547 79.7327 39.3451L79.8097 39.5009C79.7576 39.9391 79.7327 40.3028 79.7327 40.5851C79.7848 41.0368 79.8097 41.2966 79.8097 41.3598H79.7327L79.8097 41.5156V42.2904C79.8097 42.3423 79.7825 42.3672 79.7327 42.3672L79.8097 42.523V45.7777C79.8097 46.9657 80.1469 47.5598 80.8191 47.5598C80.9233 47.5598 81.1043 47.6117 81.3624 47.7156L81.8286 47.6388H81.9848C82.4375 48.3096 82.8788 48.6462 83.3044 48.6462H83.5375C83.6529 48.6326 83.8612 48.479 84.1577 48.1809C84.4428 48.1809 84.6239 48.077 84.7009 47.8715V47.7947C84.7009 47.6908 84.6488 47.6388 84.5447 47.6388H83.3813C83.3044 47.6388 83.2251 47.562 83.1482 47.4062V47.3294C83.3044 47.2006 83.3813 46.5027 83.3813 45.2379V36.8719C83.3813 36.7567 83.7955 36.6008 84.6239 36.4066V35.6319C83.8227 35.6319 83.3813 35.4512 83.3044 35.0898L83.3813 34.3151L83.3044 33.8498C83.3564 33.6443 83.3813 33.4636 83.3813 33.3077C83.3813 33.0751 83.3542 32.9193 83.3044 32.8425C83.3564 32.4946 83.3813 32.21 83.3813 31.9909V30.1321C83.3813 29.913 83.3542 29.6284 83.3044 29.2806C83.3564 29.1767 83.3813 29.0999 83.3813 29.0479C83.3813 28.5443 83.2002 28.1309 82.8381 27.8079V27.6521C82.8381 27.6001 83.0192 27.4466 83.3813 27.1868L82.8381 27.031C82.5529 27.031 82.1387 27.1868 81.5955 27.4963C81.5434 27.4963 81.5185 27.4714 81.5185 27.4195C80.4842 27.4195 79.9658 28.0135 79.9658 29.2015L79.7327 29.9762C79.7327 30.3376 79.7576 30.9068 79.8097 31.6815C79.7576 32.3004 79.6535 32.6121 79.4996 32.6121H79.3434L79.1872 32.5353L79.1103 32.6911V32.847L79.1872 33.0028L79.3434 32.926H79.4996C79.7576 33.0548 79.8866 33.2626 79.8866 33.5449C79.8866 33.8543 79.1352 34.0102 77.6345 34.0102H74.0629L73.7528 33.7775L73.8298 33.389C73.8298 33.2852 73.8026 33.2332 73.7528 33.2332L73.8298 32.6911V29.3596C73.9452 28.0677 74.1534 27.4217 74.4499 27.4217C75.1742 27.4217 75.5364 27.1891 75.5364 26.7238V26.647C75.5364 26.5702 75.2512 26.4663 74.6831 26.3376L74.6061 26.1817C74.6061 25.9762 75.0452 25.3031 75.9257 24.167C76.0547 24.167 76.3919 23.9095 76.9351 23.3923C77.9831 22.8231 79.2506 22.5408 80.7399 22.5408L80.7331 22.5318ZM79.1804 38.4913C79.1804 38.5433 79.1533 38.6201 79.1035 38.724C79.1555 38.9702 79.1804 39.3044 79.1804 39.7313H79.2574C79.2574 39.6026 79.2823 39.2141 79.3344 38.5681L79.1782 38.4913H79.1804ZM79.1804 28.42V28.4968C79.194 28.6007 79.2461 28.6527 79.3366 28.6527H79.4136C79.5177 28.6527 79.5697 28.6007 79.5697 28.4968V28.2642H79.3366C79.2325 28.2777 79.1804 28.3297 79.1804 28.42Z" fill="#E80D0D"/>
<path d="M91.1154 23.3449C91.1675 23.3449 91.1924 23.372 91.1924 23.4217L91.3485 23.3449H93.9107C94.6871 23.3449 95.3072 23.3968 95.7735 23.5007C95.8505 23.4488 96.0066 23.4239 96.2398 23.4239L96.6268 23.6566C96.5996 24.1219 96.5498 24.3545 96.4706 24.3545L96.5476 24.5103V25.1292C96.5476 25.2444 96.5204 25.3483 96.4706 25.4386C96.5747 25.6961 96.6268 25.8768 96.6268 25.9807C96.5747 26.175 96.5498 26.3805 96.5498 26.5996C96.7558 26.7035 96.8599 26.7803 96.8599 26.8322L97.0161 26.7554C97.5344 26.8209 97.7924 26.9226 97.7924 27.0649V27.6069C97.7924 27.6837 97.6883 27.7876 97.4824 27.9164C97.1587 27.9164 96.2782 27.9683 94.8432 28.0722C94.2615 28.0203 93.7183 27.9954 93.2136 27.9954C92.5663 28.0474 92.1792 28.0722 92.0502 28.0722C91.8827 27.8667 91.7265 27.503 91.5839 26.9881C91.4798 26.9361 91.4029 26.9113 91.3508 26.9113L90.8846 26.9881C90.6265 26.7554 90.4975 26.2653 90.4975 25.5154C90.4975 25.477 90.5224 25.3212 90.5745 25.0502C90.5224 24.4313 90.4975 23.966 90.4975 23.6566C90.7171 23.451 90.9253 23.3471 91.1177 23.3471L91.1154 23.3449ZM90.9592 27.7605C91.1018 27.7605 91.2037 28.018 91.2693 28.5352L91.4255 28.612H94.841C94.9179 28.612 95.3321 28.664 96.0836 28.7679H96.3937C96.4706 28.7679 96.5498 28.8447 96.6268 29.0005C96.6268 29.3619 96.5747 29.5426 96.4706 29.5426L96.5476 29.9288V32.6415L96.6245 33.1067L96.3914 33.493L95.8482 33.4162C95.357 33.572 94.9677 33.6488 94.6825 33.6488H92.9737C92.7926 33.6488 92.5595 33.624 92.2743 33.572C92.1702 33.624 92.0932 33.6488 92.0411 33.6488C91.5885 33.5969 91.3033 33.572 91.1878 33.572L90.8008 33.6488C90.5926 33.4297 90.4907 33.2219 90.4907 33.0299V32.2552C90.4907 32.0994 90.5156 32.0226 90.5677 32.0226L90.4907 31.6364V29.7775C90.4907 29.5584 90.5156 29.2738 90.5677 28.926C90.5156 28.8356 90.4907 28.7069 90.4907 28.5398C90.4907 28.2032 90.6469 27.9457 90.957 27.765L90.9592 27.7605ZM90.8031 34.1141L91.2693 34.1909C91.4504 34.1909 91.6835 34.166 91.9687 34.1141C92.8084 34.166 93.5599 34.1909 94.2208 34.1909L94.9202 34.1141C95.9546 34.3083 96.4729 34.4371 96.4729 34.5003C96.5249 34.5003 96.577 34.5771 96.6291 34.733C96.577 35.0943 96.5521 35.4038 96.5521 35.6635C96.5521 35.9345 96.9391 36.1152 97.7155 36.2056V36.3614L97.6385 36.5173C97.6906 36.6076 97.7155 36.7115 97.7155 36.8267V36.9035C97.7155 37.0458 97.3782 37.1497 96.706 37.2129C96.6019 37.3801 96.5498 37.5359 96.5498 37.6782C96.5498 37.8341 96.5747 37.9109 96.6268 37.9109L96.5498 38.6856V47.3633C96.5498 47.7902 96.964 48.0996 97.7924 48.2938L97.8694 48.4497V48.5265C97.8694 48.5784 97.8422 48.6033 97.7924 48.6033C97.8445 48.7072 97.8694 48.784 97.8694 48.8359H97.9464C98.0505 48.8359 98.1025 48.784 98.1025 48.6801V48.6033L98.0256 48.4474L98.1818 48.3706C98.2587 48.732 98.3877 48.9127 98.5688 48.9127L99.112 48.8359L99.8884 48.9918C100.794 48.9398 101.364 48.915 101.597 48.915C102.011 48.915 102.555 48.9421 103.227 48.9918L104.313 48.915C104.999 48.9669 105.567 48.9918 106.022 48.9918L106.099 49.1476C106.099 50.0646 106.047 50.6586 105.943 50.9297C106.047 51.2143 106.124 51.7563 106.176 52.5559C106.176 53.0212 105.918 53.2538 105.4 53.2538C105.051 53.3058 104.508 53.3306 103.77 53.3306H99.0351C98.9196 53.3306 98.8155 53.3035 98.725 53.2538C98.6344 53.3058 98.5303 53.3306 98.4149 53.3306H98.2587C98.0912 53.3306 97.9599 53.3035 97.8717 53.2538L97.4054 53.3306C96.8486 53.3306 96.2533 53.2787 95.6196 53.1748C94.8432 53.2787 94.2729 53.3306 93.9107 53.3306C93.8587 53.3306 93.8338 53.3035 93.8338 53.2538L93.4467 53.3306H92.9035C92.6319 53.3306 92.4508 53.2019 92.3603 52.9444C92.4123 52.2465 92.4372 51.7315 92.4372 51.395V48.6846C92.4372 48.3887 92.2811 48.208 91.971 48.1425L91.5839 48.2193C90.8597 48.1425 90.4975 48.0386 90.4975 47.9099V41.3237C90.4975 40.5106 90.5224 39.1667 90.5745 37.2943C90.6514 37.2943 90.7555 37.1904 90.8846 36.9848L91.2739 37.0616H91.5839C91.6881 37.0616 91.7401 37.0097 91.7401 36.9058V36.2869C91.7401 36.1311 91.4029 36.0294 90.7306 35.9775C90.5745 35.7832 90.4975 35.5777 90.4975 35.3586C90.4975 34.7262 90.6016 34.3128 90.8076 34.1186L90.8031 34.1141ZM95.6173 29.6216L95.6943 30.0101C96.0044 30.0101 96.1605 29.8543 96.1605 29.5449L96.0044 29.4681H95.7712C95.6671 29.4816 95.6151 29.5336 95.6151 29.6239L95.6173 29.6216ZM95.6943 24.6639V24.7407C95.7079 24.8446 95.7599 24.8966 95.8505 24.8966L95.9274 24.7407V24.5081H95.8505C95.7463 24.5216 95.6943 24.5736 95.6943 24.6639ZM105.321 50.3063V50.6157C105.334 50.7196 105.386 50.7716 105.477 50.7716V50.3063H105.321ZM105.321 51.1578V51.3136H105.477V51.0042C105.373 51.0178 105.321 51.0697 105.321 51.1601V51.1578Z" fill="#E80D0D"/>
<path d="M111.554 22.7644H116.911L117.378 22.8412L117.534 22.7644C118.063 22.8164 118.478 22.8412 118.776 22.8412H118.933C119.152 22.8412 119.281 23.3584 119.322 24.3906C119.517 24.9079 119.646 25.6555 119.709 26.638C119.865 26.638 119.967 27.0242 120.019 27.8012C120.175 27.9164 120.614 28.0474 121.339 28.1874C121.339 28.4449 121.391 28.6527 121.495 28.8063C121.495 29.0638 121.133 29.2196 120.408 29.2716C120.304 29.4387 120.252 29.5697 120.252 29.6578C120.447 29.8136 120.628 29.8904 120.795 29.8904H121.339C121.597 30.0192 121.726 30.227 121.726 30.5093C121.649 30.7171 121.44 30.8187 121.106 30.8187V30.9746C121.624 30.9746 121.882 31.1824 121.882 31.5934V32.1355C121.882 32.2394 121.545 32.3162 120.872 32.3682L120.716 32.6776C120.716 32.8967 120.872 33.5675 121.182 34.6923C121.235 35.5958 121.259 36.1378 121.259 36.3185C121.402 36.3185 121.556 36.9374 121.726 38.1774C121.531 38.2813 121.325 38.3332 121.106 38.3332H118.62C118.543 38.3332 118.464 38.41 118.387 38.5659V38.7985C118.387 38.8753 118.464 38.9544 118.62 39.0311H120.562C121.495 39.0311 121.959 39.2118 121.959 39.5732C121.959 40.9036 122.192 42.3242 122.658 43.8353C122.658 43.8872 122.631 43.9121 122.581 43.9121L122.658 44.2983V44.6868L122.581 45.073C122.658 45.073 122.762 45.1769 122.891 45.3825V45.4592C122.839 45.6151 122.683 45.6919 122.425 45.6919H121.882C121.583 46.0533 121.377 46.234 121.262 46.234C121.158 46.182 121.081 46.1572 121.029 46.1572L120.952 46.313V46.4689C120.99 46.7783 121.067 46.9341 121.185 46.9341C121.185 46.8573 121.314 46.7534 121.572 46.6247H121.649C121.945 47.1939 122.23 47.4762 122.502 47.4762C123.226 47.5801 123.588 47.7608 123.588 48.0183C123.846 48.3164 123.976 48.5468 123.976 48.7162C124.091 49.5429 124.195 50.1098 124.286 50.4215C124.209 50.8868 124.105 51.1194 123.976 51.1194L123.588 50.9636C123.251 51.1194 122.889 51.1962 122.502 51.1962H120.639C120.562 51.1962 120.483 51.273 120.406 51.4288C120.483 51.6366 120.562 51.7383 120.639 51.7383H123.045C123.111 51.7383 123.394 51.7902 123.899 51.8941L124.286 51.8173C124.544 52.0884 124.673 52.2962 124.673 52.4362C124.505 52.5265 123.935 52.6304 122.964 52.7456L122.421 52.6688L122.034 52.7456C121.762 52.6937 121.606 52.6688 121.567 52.6688L121.024 52.7456C120.571 52.6937 120.286 52.6688 120.171 52.6688L119.238 52.7456V52.6688L119.082 52.7456H119.005C118.72 52.7456 118.514 52.6169 118.385 52.3594L118.462 51.6615C118.306 51.081 118.1 49.9449 117.842 48.2532V47.7879C117.842 47.7495 117.765 47.6727 117.609 47.5553C117.504 47.6072 117.427 47.6321 117.375 47.6321C117.013 47.6321 115.927 47.5033 114.114 47.2436C113.338 47.2955 112.69 47.3204 112.172 47.3204L112.095 47.4762C112.147 47.7856 112.224 47.9415 112.328 47.9415H112.484L112.717 47.7856H112.95C113.027 47.7856 113.107 47.8624 113.184 48.0183L112.563 51.3498V52.3571C112.563 52.4859 112.382 52.5898 112.02 52.6666L111.864 52.5898C111.203 52.6937 110.816 52.7456 110.698 52.7456C110.671 52.7456 110.336 52.7208 109.689 52.6688C109.662 52.6688 109.327 52.6959 108.679 52.7456L108.292 52.6688C108.188 52.7208 108.111 52.7456 108.059 52.7456L107.749 52.6688L107.362 52.7456C107 52.6688 106.819 52.5649 106.819 52.4362L107.362 49.9562C107.362 49.7371 107.414 49.195 107.518 48.33V47.8647C107.518 47.7879 107.441 47.7089 107.285 47.6321H106.432C106.16 47.6321 105.979 47.5282 105.889 47.3226V47.2458C105.993 46.7422 106.045 46.4576 106.045 46.3943V46.3175C106.045 46.2023 106.02 46.0984 105.968 46.0081C105.968 45.7235 106.407 45.5699 107.287 45.5428C107.403 45.2334 107.559 45.0527 107.754 45.0007L108.22 45.0775C108.453 44.9736 108.582 44.872 108.607 44.7681C108.607 44.6123 108.297 44.5106 107.674 44.4587C107.57 44.3299 107.518 44.2531 107.518 44.226V44.1492C108.037 41.6579 108.295 40.0295 108.295 39.2683C108.709 37.4478 108.915 36.4676 108.915 36.3253C108.915 36.2869 108.888 36.1311 108.838 35.86L109.304 33.6127L109.227 33.4568C109.227 32.9283 109.433 32.463 109.847 32.0632L110.391 32.14H110.547C110.676 32.14 110.857 31.4941 111.09 30.2021C111.038 30.0982 111.013 30.0214 111.013 29.9695H110.237C110.16 29.9695 110.056 29.8656 109.927 29.66V29.4274C110.083 29.1699 110.264 29.0412 110.47 29.0412C110.755 29.0931 110.961 29.118 111.09 29.118C111.246 28.8853 111.323 28.7046 111.323 28.5759C111.323 28.4336 111.194 28.3049 110.936 28.1874C110.846 28.2394 110.741 28.2642 110.626 28.2642C110.316 28.0835 110.16 27.9548 110.16 27.878C110.678 25.1789 110.936 23.5775 110.936 23.0738C111.156 22.8683 111.364 22.7644 111.556 22.7644H111.554ZM114.503 32.9125L114.58 33.6872V33.764C114.58 33.8792 114.553 33.9831 114.503 34.0734C114.503 34.1254 114.528 34.1502 114.58 34.1502C114.528 34.9904 114.372 35.9707 114.114 37.0932L113.571 41.2762H113.414C113.285 41.2762 113.181 41.0707 113.104 40.6574L113.181 40.3479C113.129 40.244 113.104 40.1672 113.104 40.1153H113.027C112.923 40.1288 112.871 40.1808 112.871 40.2711V42.0532C112.871 42.1571 112.975 42.2091 113.181 42.2091V42.5975C113.181 42.7014 113.129 42.7534 113.025 42.7534H112.869L112.482 42.6766L112.405 42.8324L114.268 43.1419C114.306 43.1419 114.462 43.117 114.734 43.0651C114.786 43.0651 114.863 43.0922 114.967 43.1419C115.252 43.0899 115.485 43.0651 115.667 43.0651H116.287C116.391 43.0651 116.443 43.0131 116.443 42.9092C115.719 38.3265 115.277 35.1756 115.123 33.4568C115.058 33.4568 114.929 33.2761 114.734 32.9147H114.501L114.503 32.9125ZM118.541 24.2348V24.4674L118.928 24.5442L119.005 24.3884V24.2325L118.849 23.9999C118.641 24.0767 118.539 24.1557 118.539 24.2325L118.541 24.2348ZM119.007 26.7148L119.164 26.7916H119.24V26.5589H119.164C119.059 26.5725 119.007 26.6244 119.007 26.7148ZM120.25 33.5314V34.3829C120.25 34.7578 120.327 34.9633 120.483 35.0017L120.56 34.8459V34.227C120.612 34.0079 120.637 33.8272 120.637 33.6849C120.546 33.6849 120.417 33.633 120.248 33.5291L120.25 33.5314ZM121.103 47.1668V47.2436H121.259V47.1668H121.103ZM121.803 43.6794V43.9889H121.88V43.6794H121.803ZM121.803 44.1447V44.3006H121.88V44.1447H121.803Z" fill="#E80D0D"/>
<path d="M125.664 24.3138H129.469C131.54 24.3138 132.574 24.5713 132.574 25.0885C132.574 25.9152 132.73 26.5612 133.04 27.0265C133.04 27.5956 133.507 27.878 134.437 27.878C134.593 28.2258 134.67 28.5104 134.67 28.7295V28.8063C134.67 28.9102 134.618 28.9621 134.514 28.9621C134.229 28.9102 134.023 28.8853 133.894 28.8853C133.737 29.1044 133.66 29.3122 133.66 29.5042C133.817 29.9175 133.894 30.175 133.894 30.2789L133.817 30.4348C134.385 32.0113 134.67 33.0164 134.67 33.4568C135.084 34.5026 135.342 35.4331 135.446 36.2462L135.602 36.323H135.759L135.836 35.9368V35.86C135.836 34.995 135.784 34.1954 135.679 33.4591C135.731 32.2846 135.756 31.1733 135.756 30.1276V29.197C135.756 29.0163 136.196 28.8356 137.076 28.6549V28.4991C137.037 28.0858 136.856 27.8802 136.533 27.8802L136.377 27.957C136.261 27.957 136.028 27.8012 135.677 27.4917L135.754 26.9497V25.4002L135.831 24.935C135.779 24.8446 135.754 24.7159 135.754 24.5465C135.949 24.3906 136.182 24.3138 136.454 24.3138L136.997 24.3906C137.191 24.3387 137.425 24.3138 137.696 24.3138V24.3906L137.852 24.3138H138.008C138.332 24.3138 138.719 24.3409 139.172 24.3906L139.561 24.3138C140.338 24.4177 140.725 24.4945 140.725 24.5465L140.881 24.4697H141.114C141.191 24.4697 141.295 24.5736 141.424 24.7791V25.0885C141.216 25.3212 141.114 25.4499 141.114 25.477L141.424 26.0191L141.347 26.4076L141.424 26.8729L141.037 27.1055L140.65 27.0287C139.668 27.1575 139.174 27.2862 139.174 27.4172V27.573C139.188 27.6769 139.24 27.7289 139.33 27.7289H139.717C140.261 27.7289 141.089 27.756 142.203 27.8057C142.461 28.1535 142.59 28.4381 142.59 28.6572C142.332 28.865 142.175 28.9666 142.123 28.9666C142.019 28.9147 141.942 28.8898 141.89 28.8898C141.476 28.9666 141.27 29.3551 141.27 30.053C141.27 30.2992 141.295 30.5567 141.347 30.8278C141.295 31.2659 141.27 31.6273 141.27 31.9119C141.27 32.1694 141.295 32.5579 141.347 33.0751C141.295 33.3597 141.27 33.5652 141.27 33.694C141.322 33.965 141.347 34.1209 141.347 34.1593L141.27 34.7013C141.322 35.1531 141.347 35.4376 141.347 35.5528L141.27 36.2508C141.27 36.8199 141.657 37.1023 142.433 37.1023C142.485 37.1926 142.538 37.4501 142.59 37.877C142.499 37.9673 142.11 38.0961 141.424 38.2632L141.347 38.4191V38.8843C141.347 39.1825 141.32 39.3632 141.27 39.4264C141.322 39.711 141.347 39.9165 141.347 40.0453C141.347 40.6777 141.32 41.4524 141.27 42.3694C141.322 42.977 141.347 43.4152 141.347 43.6862C141.295 44.3322 141.27 44.7184 141.27 44.8494C141.322 45.1972 141.347 45.4818 141.347 45.7009C141.295 45.8048 141.27 45.8816 141.27 45.9336C141.322 46.0239 141.347 46.1526 141.347 46.322C141.32 46.4259 141.191 46.5298 140.96 46.6315C140.675 46.5795 140.469 46.5547 140.34 46.5547C140.132 46.5682 140.03 46.6202 140.03 46.7105L139.486 46.6337H139.02C138.71 46.6337 138.554 46.7896 138.554 47.099C138.749 47.2549 138.93 47.3317 139.097 47.3317C139.369 47.3317 139.602 47.3068 139.797 47.2549C140.134 47.3068 140.469 47.3317 140.806 47.3317H141.116C141.193 47.3317 141.272 47.4084 141.349 47.5643C141.349 47.6795 141.322 47.9641 141.272 48.4158C141.272 48.8811 141.659 49.1137 142.436 49.1137C142.954 49.1137 143.212 49.1905 143.212 49.3464V49.4232C143.212 49.6038 142.642 49.7077 141.503 49.7326C141.451 49.7326 141.374 49.7077 141.27 49.6558C140.921 49.7077 140.636 49.7326 140.417 49.7326H139.484C139.407 49.7326 139.328 49.8094 139.251 49.9652V50.042C139.303 50.1979 139.457 50.2747 139.717 50.2747H141.347C141.967 50.2882 142.28 50.3402 142.28 50.4305L142.436 50.3537H142.746C142.888 50.3537 143.042 50.4057 143.212 50.5096C143.108 51.0652 143.056 51.4266 143.056 51.5937C143.108 52.8066 143.133 53.6333 143.133 54.0737C143.029 54.0873 142.977 54.1392 142.977 54.2295C141.863 54.2815 141.035 54.3063 140.491 54.3063H138.162C138.047 54.3063 137.943 54.2792 137.852 54.2295C137.762 54.2815 137.658 54.3063 137.542 54.3063C137.024 54.3063 136.766 53.9969 136.766 53.3758C136.61 53.0008 136.533 52.7682 136.533 52.6779V52.6011C136.533 52.4588 136.843 52.33 137.465 52.2126L137.542 52.0567V51.9799C137.542 51.9031 137.465 51.8241 137.309 51.7473H136.766C136.286 51.7473 136.003 51.2301 135.913 50.1979C135.732 49.5903 135.575 49.256 135.446 49.1905C135.394 49.1905 135.369 49.2176 135.369 49.2673C134.179 49.2673 133.584 48.9827 133.584 48.4158C133.479 47.745 133.013 46.0397 132.187 43.3022C131.567 41.2107 131.254 39.9188 131.254 39.4287C131.254 39.1328 131.073 38.7443 130.711 38.2655L130.478 38.654C130.582 39.1441 130.634 39.4535 130.634 39.5845C130.582 40.8381 130.557 41.7935 130.557 42.4507H130.48C130.532 42.7602 130.585 42.916 130.637 42.916L130.56 43.3022V43.8443C130.56 44.1289 130.585 44.4903 130.637 44.9285L130.25 46.0917C129.992 46.182 129.863 46.3898 129.863 46.7105L129.939 47.02H130.096L130.329 46.8641H130.485C130.6 46.8641 130.68 46.9929 130.718 47.2503L130.641 47.9483C130.641 48.671 130.874 49.0324 131.341 49.0324C131.703 49.0708 131.884 49.1228 131.884 49.1883L132.04 49.1115H132.196L132.506 49.3441L132.429 50.1188V51.0494C132.429 51.1646 132.454 51.2685 132.506 51.3588C132.402 51.5666 132.35 51.745 132.35 51.9009C132.35 52.0296 132.402 52.7276 132.506 53.9924L132.196 54.225H132.119C131.82 54.225 131.408 54.2499 130.877 54.3018C130.824 54.3018 130.8 54.2747 130.8 54.225L130.413 54.3018H129.326C129.211 54.3018 129.107 54.2747 129.016 54.225C128.925 54.277 128.821 54.3018 128.706 54.3018L127.93 54.225C127.644 54.277 127.438 54.3018 127.309 54.3018C127.076 54.1979 126.947 54.094 126.922 53.9924V52.8292C126.922 52.3391 126.895 51.8489 126.845 51.3566C126.897 51.0087 126.95 50.3356 127.002 49.3418C126.793 49.2379 126.691 49.1612 126.691 49.1092L125.915 49.186H125.759C125.358 49.186 125.125 49.0821 125.06 48.8766V45.4683C125.06 44.3051 125.084 42.9386 125.137 41.3621C125.084 41.0255 125.06 40.6912 125.06 40.3547C125.112 39.7358 125.137 39.0379 125.137 38.2632C125.913 38.0306 126.3 37.7979 126.3 37.5653V37.1C125.524 37.1 125.137 36.8945 125.137 36.4811L125.06 36.1717C125.112 35.8352 125.137 35.5009 125.137 35.1643C125.137 35.1124 125.109 35.0356 125.06 34.9317C125.06 34.8798 125.084 34.8549 125.137 34.8549C125.084 34.157 125.06 33.642 125.06 33.3055C125.06 32.5172 125.084 31.3043 125.137 29.6646C125.084 29.5607 125.06 29.4839 125.06 29.4319C125.06 29.0705 125.474 28.813 126.302 28.6572C126.354 28.4765 126.379 28.3726 126.379 28.3478C126.366 28.2326 126.212 28.0519 125.913 27.8057L125.603 27.9615C125.37 27.8712 125.189 27.7153 125.06 27.4963L125.137 27.031L125.06 26.4889L125.137 26.1027L125.06 25.7142C125.112 25.2625 125.137 24.9779 125.137 24.8627C125.084 24.7588 125.06 24.682 125.06 24.63C125.279 24.4245 125.487 24.3206 125.68 24.3206L125.664 24.3138ZM127.916 50.4215V50.6541C128.02 50.8619 128.174 50.9636 128.382 50.9636C128.602 50.9636 128.887 50.9387 129.236 50.8868C129.779 50.9387 130.374 50.9636 131.021 50.9636C131.255 50.8597 131.384 50.758 131.408 50.6541V50.4215C131.046 50.3176 130.736 50.2656 130.476 50.2656H128.07C127.966 50.2792 127.914 50.3311 127.914 50.4215H127.916ZM140.494 42.4417V42.5975H140.571V42.4417H140.494Z" fill="#E80D0D"/>
<path d="M2.17731 4.07495C1.67257 4.10657 1.13841 3.93718 0.678938 4.13594C0.724206 4.63961 0.817002 5.0665 0.817002 5.47983C0.832846 8.12018 0.846428 10.7447 0.832847 13.3851C0.817004 14.1033 0.970914 14.8645 0.633667 15.5985C1.24479 15.7657 3.23431 15.7205 3.61683 15.5534C3.5874 15.1875 3.52403 14.8216 3.52403 14.4557C3.50818 12.8837 3.49234 11.2958 3.52403 9.72382C3.53987 7.87625 3.40181 6.03094 3.6621 4.16982C3.1732 3.98687 2.66846 4.04785 2.17957 4.07721L2.17731 4.07495Z" fill="white"/>
<path d="M12.684 8.54708C11.9506 8.10439 11.215 7.64588 10.5269 7.1422C10.2055 6.89827 9.89999 6.60916 9.68496 6.25682C9.22549 5.50921 9.5469 4.80677 10.4047 4.62382C11.5364 4.37988 12.5459 4.66899 13.449 5.32626C13.7862 5.55438 14.0918 5.81412 14.4743 6.10549C14.5354 5.89092 14.5807 5.7554 14.5807 5.63343C14.5965 5.35788 14.5807 5.10039 14.5807 4.82484C14.5649 4.32116 14.5196 4.27599 14.0307 4.15402C12.5617 3.77231 11.0634 3.65034 9.54917 3.80393C9.33414 3.81974 9.13722 3.86491 8.9222 3.91009C6.38266 4.35278 6.24686 6.70177 7.00963 8.12245C7.43741 8.88588 8.09606 9.45054 8.81356 9.9384C9.44052 10.3811 10.0833 10.7628 10.6944 11.2213C11.3825 11.725 11.9936 12.3055 12.2856 13.1299C12.469 13.6629 12.3467 14.0311 11.9031 14.3653C11.4753 14.6703 10.9864 14.8238 10.4658 14.8238C8.87467 14.8555 7.42156 14.3812 6.18348 13.3738C6.06126 13.2676 5.93904 13.1908 5.73986 13.0689C5.61763 13.9994 5.83266 14.4873 6.566 14.9165C7.85161 15.6957 9.27303 15.9848 10.7714 16.0006C12.2539 16.03 13.4467 15.4043 14.4426 14.3518C15.391 13.3286 15.5291 11.6663 14.7188 10.5528C14.1688 9.77352 13.5101 9.07334 12.684 8.55386V8.54708Z" fill="white"/>
<path d="M16.4165 4.18112C16.4935 4.62381 16.5387 5.08232 16.7832 5.37142C17.976 5.35561 19.0624 5.32625 20.1466 5.32625C20.5902 5.32625 20.6966 5.44822 20.6966 5.90672C20.6966 7.06541 20.6808 8.24216 20.6808 9.41665C20.6808 11.4765 20.7736 13.5364 20.6196 15.6573H23.4489V13.4596C23.4331 12.0254 23.4172 10.5911 23.4172 9.1411C23.4172 8.07276 23.4172 7.00442 23.4331 5.92028C23.4331 5.37143 23.51 5.32625 24.06 5.32625C25.1306 5.32625 26.2012 5.35561 27.3171 5.37142C27.5457 5.0507 27.6385 4.63962 27.6679 4.19693C27.179 4.04334 17.0389 4.02979 16.412 4.18112H16.4165Z" fill="white"/>
<path d="M38.1608 12.8498C37.4886 11.1874 36.8141 9.53861 36.126 7.87399C35.6824 6.80565 35.2546 5.73732 34.7952 4.68479C34.7024 4.48603 34.4738 4.24209 34.2746 4.18111C33.5865 3.99816 32.8984 3.99816 32.3009 4.10432C32.1017 4.82257 31.9795 5.44821 31.7509 6.04223C30.9859 8.10211 30.1914 10.162 29.3947 12.2219C29.028 13.1841 28.7225 14.1756 28.0797 15.0136C27.9416 15.1965 27.8035 15.3795 27.6677 15.5466C27.7288 15.6076 27.7605 15.6528 27.7741 15.6528C28.4011 15.6686 29.028 15.6844 29.6391 15.6528C29.7319 15.6528 29.8542 15.4992 29.8994 15.393C30.1439 14.7674 30.3725 14.1417 30.5875 13.5161C31.2597 11.6685 31.9342 9.8232 32.5906 7.96208C32.6676 7.77913 32.7287 7.61199 33.0184 7.53519C33.1723 7.90109 33.3081 8.26699 33.462 8.61934C33.7517 9.33759 34.0437 10.0694 34.3334 10.7854C34.562 11.35 34.5168 11.4268 34.0437 11.8221C33.4009 12.3551 32.7128 12.7685 31.8573 12.8453C31.812 12.8611 31.7645 12.9062 31.7034 12.9379C32.1923 13.6697 33.0342 13.9294 33.8604 13.6087C34.1207 13.5025 34.3945 13.3806 34.6548 13.2586C35.1143 13.044 35.2207 13.0756 35.3882 13.5477C35.6168 14.1417 35.8612 14.738 36.0921 15.3478C36.1691 15.5466 36.2754 15.6844 36.504 15.6844C37.2985 15.6844 38.1088 15.7002 38.9055 15.7002C38.9983 15.7002 39.0888 15.6392 39.1952 15.594C39.1658 15.4563 39.1658 15.3343 39.1183 15.2439C38.7969 14.4353 38.4913 13.6426 38.1541 12.8475L38.1608 12.8498Z" fill="white"/>
<path d="M51.404 4.13595C51.404 5.26527 51.4198 6.36297 51.404 7.44712C51.3881 8.53127 51.5104 9.61316 51.3112 10.7583C51.112 10.6521 50.9739 10.6205 50.8992 10.5302C50.227 9.8729 49.5842 9.20209 48.9256 8.53127C47.5788 7.17382 46.2344 5.81412 44.9035 4.44087C44.6138 4.15176 44.2924 4.04335 43.9099 4.04335C43.3893 4.05916 42.8845 4.05916 42.3798 4.05916H41.1417C41.1576 4.25792 41.1576 4.36407 41.1734 4.48604C41.2187 4.86775 41.3115 5.24946 41.3115 5.63117V12.5449C41.2956 13.5522 41.2821 14.5596 41.2821 15.6437C41.694 15.6595 42.1852 15.7363 42.6582 15.6279C42.6582 14.1485 42.6424 12.6985 42.6582 11.2642C42.6899 9.82999 42.5971 8.41156 42.751 6.82373C43.0113 7.0225 43.1946 7.12865 43.3168 7.26643C44.2335 8.19699 45.1366 9.15917 46.0397 10.1055C46.927 11.0361 47.7984 11.9667 48.7015 12.8972C49.4959 13.7374 50.2927 14.5596 51.103 15.384C51.241 15.5218 51.4538 15.6595 51.6371 15.6731C52.0196 15.7183 52.418 15.6731 52.7847 15.6573V12.8656C52.7847 10.6838 52.7688 8.50191 52.7847 6.3178C52.8005 5.66053 52.8775 5.00553 52.9227 4.34826C52.9386 4.28728 52.9069 4.2263 52.891 4.1495C52.3863 3.98236 51.8657 4.02754 51.4085 4.13369L51.404 4.13595Z" fill="white"/>
<path d="M64.8623 8.791C64.817 8.75938 64.817 8.68484 64.7695 8.60805C64.8759 8.47027 64.9687 8.3325 65.0909 8.21053C66.1162 7.14219 65.8242 5.29688 64.525 4.59444C63.7917 4.18337 62.9814 4.04559 62.1553 4.04559C61.3291 4.0614 60.503 4.07721 59.6927 4.07721C58.3165 4.0614 56.9562 4.0614 55.5937 4.0614C55.4262 4.0614 55.2723 4.10658 55.1659 4.12239C55.2112 4.64187 55.2587 5.08457 55.2587 5.52726C55.2745 6.94569 55.2904 8.37993 55.2587 9.80061C55.2428 11.7227 55.3651 13.6471 55.1976 15.6618C55.3515 15.6618 55.5031 15.6776 55.657 15.6776C57.0174 15.6934 58.3935 15.6934 59.7561 15.6776C60.9194 15.6776 62.0647 15.6776 63.2123 15.6008C64.1154 15.5556 64.9257 15.1897 65.5209 14.4873C66.3312 13.5251 66.5915 12.4116 66.3629 11.1919C66.1796 10.2004 65.7654 9.34437 64.8646 8.79552L64.8623 8.791ZM57.9657 7.25061V5.78475C57.9499 5.47983 58.0879 5.28107 58.3935 5.28107C59.4641 5.31269 60.5505 5.14329 61.6053 5.44821C62.3386 5.64697 62.6917 6.21163 62.5378 6.89826C62.4608 7.29578 62.2005 7.55552 61.8791 7.75203C61.7116 7.87399 61.5125 7.9666 61.3133 8.04113C60.3966 8.40703 59.4935 8.75938 58.5768 9.09366C58.1038 9.2608 57.9816 9.15464 57.9657 8.65096C57.9499 8.19246 57.9657 7.7204 57.9657 7.24609V7.25061ZM62.2775 13.7826C61.8044 14.0717 61.2839 14.1327 60.7474 14.1485H59.7085C59.2966 14.1485 58.8824 14.1643 58.4705 14.1485C58.0721 14.1327 57.9816 14.0559 57.9657 13.6764C57.9499 12.8362 57.9657 11.9983 57.9657 11.1581C57.9657 10.8983 58.0721 10.7154 58.3165 10.625C59.2196 10.2885 60.1069 9.9542 61.0077 9.63347C62.0783 9.26757 62.9656 9.90903 63.287 10.8848C63.6536 12.0141 63.2417 13.2202 62.2775 13.7849V13.7826Z" fill="white"/>
<path d="M76.0094 4.10659C76.0546 4.57865 76.1316 5.03716 76.1474 5.49566C76.1633 6.06032 76.1316 6.62498 76.1316 7.18964C76.1316 8.51772 76.161 9.8458 76.1316 11.1716C76.1158 11.6753 75.9935 12.179 75.8555 12.651C75.7038 13.1705 75.3213 13.4913 74.8166 13.7036C74.219 13.9475 73.6079 13.9475 72.9809 13.8572C72.1865 13.7352 71.6206 13.3377 71.3898 12.5742C71.2676 12.1474 71.1612 11.7047 71.1612 11.262C71.1318 9.6606 71.1318 8.05696 71.1453 6.45558C71.1453 5.6628 71.1906 4.88357 71.2223 4.0298C70.2739 3.99818 69.3097 3.96882 68.3772 4.01399C68.4066 4.62382 68.4541 5.17493 68.47 5.70797C68.47 7.00443 68.4541 8.3167 68.47 9.62897C68.47 10.5753 68.4247 11.5375 68.5628 12.4816C68.7914 14.1304 69.6492 15.3366 71.3309 15.838C72.6165 16.2197 73.9157 16.1881 75.1991 15.8222C76.4688 15.4721 77.2633 14.6612 77.6164 13.3806C77.8156 12.6488 77.8314 11.9147 77.8314 11.1671C77.8925 8.80231 77.6934 6.4217 77.9853 4.07046C77.4195 3.94849 76.3647 3.9643 76.0116 4.10208L76.0094 4.10659Z" fill="white"/>
<path d="M88.3359 13.9949C88.1073 14.0401 87.8764 14.1011 87.6478 14.1011C86.3622 14.1169 85.063 14.0853 83.7797 14.1327C83.275 14.1485 83.1527 14.0107 83.1527 13.4754C83.1527 12.4997 83.1527 11.5217 83.1686 10.546C83.1844 8.44091 83.0622 6.31779 83.275 4.15175C82.7861 3.93718 82.2655 4.09077 81.7449 4.07495C81.2243 4.04333 80.7196 4.05914 80.2148 4.10658C80.4434 6.08966 80.3688 7.99822 80.3371 9.90451C80.3212 11.8131 80.5046 13.7194 80.2148 15.6731C83.2274 15.7024 86.2242 15.7183 89.3748 15.6731C89.2073 15.1536 89.0987 14.7583 88.9765 14.3766C88.8542 13.9791 88.7479 13.9181 88.3337 13.9949H88.3359Z" fill="white"/>
<path d="M92.6319 4.12015C91.9733 4.15177 91.3622 4.68481 91.2399 5.34207C91.0724 6.16648 91.5908 6.82148 92.5255 6.95926C93.0755 7.03606 93.1525 7.15802 92.9692 7.6617C92.7406 8.25798 92.4033 8.77521 91.8669 9.15692C91.7899 9.2179 91.713 9.31051 91.6383 9.38504C91.6541 9.41666 91.67 9.44603 91.6835 9.47765C91.8216 9.44603 91.9891 9.46184 92.0955 9.38504C92.478 9.09594 92.9216 8.83619 93.2113 8.47029C93.9922 7.52392 94.343 6.42622 94.0375 5.2043C93.8542 4.48605 93.2883 4.07498 92.6296 4.12015H92.6319Z" fill="white"/>
<path d="M103.734 4.10659C103.779 4.57865 103.856 5.03716 103.872 5.49566C103.888 6.06032 103.856 6.62498 103.856 7.18964C103.856 8.51772 103.886 9.8458 103.856 11.1716C103.84 11.6753 103.718 12.179 103.58 12.651C103.428 13.1705 103.046 13.4913 102.541 13.7036C101.944 13.9475 101.332 13.9475 100.705 13.8572C99.911 13.7352 99.3451 13.3377 99.1143 12.5742C98.992 12.1474 98.8857 11.7047 98.8857 11.262C98.8562 9.6606 98.8562 8.05696 98.8698 6.45558C98.8698 5.6628 98.9151 4.88357 98.9468 4.0298C97.9984 3.99818 97.0342 3.96882 96.1017 4.01399C96.1311 4.62382 96.1786 5.17493 96.1945 5.70797C96.1945 7.00443 96.1786 8.3167 96.1945 9.62897C96.1945 10.5753 96.1492 11.5375 96.2873 12.4816C96.5159 14.1304 97.3737 15.3366 99.0554 15.838C100.341 16.2197 101.64 16.1881 102.924 15.8222C104.193 15.4721 104.988 14.6612 105.341 13.3806C105.54 12.6488 105.556 11.9147 105.556 11.1671C105.617 8.80231 105.418 6.4217 105.71 4.07046C105.144 3.94849 104.089 3.9643 103.736 4.10208L103.734 4.10659Z" fill="white"/>
<path d="M119.684 4.15176C119.179 3.98462 118.659 4.02979 118.201 4.13595C118.201 5.26527 118.217 6.36297 118.201 7.44712C118.186 8.53127 118.308 9.61316 118.109 10.7583C117.909 10.6521 117.771 10.6205 117.697 10.5302C117.024 9.8729 116.382 9.20209 115.723 8.53127C114.376 7.17382 113.032 5.81412 111.701 4.44087C111.411 4.15176 111.09 4.04335 110.707 4.04335C110.187 4.05916 109.682 4.05916 109.177 4.05916H107.939C107.955 4.25792 107.955 4.36407 107.969 4.48604C108.014 4.86775 108.107 5.24946 108.107 5.63117V12.5449C108.091 13.5522 108.075 14.5596 108.075 15.6437C108.487 15.6595 108.978 15.7363 109.451 15.6279C109.451 14.1485 109.435 12.6985 109.451 11.2642C109.483 9.82999 109.39 8.41156 109.544 6.82373C109.804 7.0225 109.988 7.12865 110.11 7.26643C111.026 8.19699 111.93 9.15917 112.833 10.1055C113.72 11.0361 114.591 11.9667 115.494 12.8972C116.289 13.7374 117.086 14.5596 117.896 15.384C118.034 15.5218 118.247 15.6595 118.43 15.6731C118.813 15.7183 119.211 15.6731 119.578 15.6573V12.8656C119.578 10.6838 119.562 8.50191 119.578 6.3178C119.593 5.66053 119.67 5.00553 119.716 4.34826C119.732 4.28728 119.7 4.2263 119.686 4.1495L119.684 4.15176Z" fill="white"/>
<path d="M2.16838 3.2212C2.91216 3.2212 3.51511 2.61952 3.51511 1.87731C3.51511 1.1351 2.91216 0.533417 2.16838 0.533417C1.42461 0.533417 0.821655 1.1351 0.821655 1.87731C0.821655 2.61952 1.42461 3.2212 2.16838 3.2212Z" fill="white"/>
<path d="M13.0552 61.2635L13.5984 61.3403H17.5571C17.6725 61.3403 17.7767 61.3674 17.8672 61.4171C17.9577 61.3651 18.0618 61.3403 18.1773 61.3403L18.4104 61.6497C18.1003 62.6955 17.8151 63.4973 17.5571 64.0507C17.3489 65.2139 17.118 65.9615 16.8577 66.298C16.8057 66.3884 16.7808 66.5171 16.7808 66.6842V67.1495C17.505 67.1879 17.8672 67.2647 17.8672 67.3822V67.538C17.8672 67.6668 17.6861 67.7707 17.324 67.8474C17.0388 67.7955 16.8328 67.7707 16.7038 67.7707C16.2896 68.4686 15.9275 69.5279 15.6174 70.9463L14.0647 75.8272C13.9606 75.9176 13.8836 76.3061 13.8316 76.9904L13.2114 78.9283L12.5912 81.0199C12.5256 81.0199 12.4486 81.1757 12.3581 81.4851C12.4101 82.4676 12.4622 83.0865 12.5143 83.344L12.2042 83.5766C11.9959 83.5766 11.8941 83.5518 11.8941 83.4998C11.3758 83.5518 10.9887 83.5766 10.7284 83.5766H7.00287C6.73126 83.5766 6.57508 83.4998 6.53661 83.344V81.7946C6.53661 81.6139 6.50945 81.3812 6.45966 81.0966C6.56377 80.864 6.66563 80.7353 6.76974 80.7104H10.7284C10.8054 80.7104 10.8846 80.6336 10.9616 80.4778C10.9095 80.2722 10.7533 80.1683 10.4953 80.1683H7.07983L6.30348 80.2451C6.00471 79.9493 5.79875 79.3281 5.68331 78.3863C5.47508 78.0904 5.21704 77.1847 4.90695 75.6759C4.49275 74.6957 4.10572 73.4286 3.74131 71.8791C3.37917 70.9757 2.98986 69.6318 2.57565 67.8497L2.88574 67.6171H3.50592V67.4612C3.50592 67.3573 3.42896 67.3054 3.27279 67.3054L2.72956 67.3822C2.381 67.3822 2.14788 66.9169 2.03018 65.9886C1.5775 64.9948 1.31721 64.0913 1.25384 63.2782C1.14972 63.163 0.943753 62.6187 0.633667 61.652V61.5752C0.633667 61.4984 0.710615 61.4194 0.86679 61.3426H5.29174C5.51129 61.3426 5.79648 61.3697 6.14504 61.4194C6.23558 61.3674 6.3646 61.3426 6.53209 61.3426C6.84217 61.3426 7.02324 61.652 7.0753 62.2731L6.99835 62.5826L7.23147 63.1246L7.15452 63.4341C7.51667 63.8722 7.7249 64.4166 7.77469 65.0603C7.82675 65.0603 7.85164 65.0874 7.85164 65.1371V65.6024L7.9286 66.1444C7.61852 66.2099 7.46234 66.2867 7.46234 66.3771V66.6865C7.46234 66.7904 7.53929 66.8424 7.69547 66.8424L8.23869 66.7656C8.3677 67.075 8.57593 67.2308 8.85886 67.2308H9.40208C9.47903 67.2308 9.58315 67.3347 9.71216 67.5403V67.6171C9.71216 67.721 9.37491 67.7978 8.70268 67.8497C8.6642 68.4686 8.50803 68.9339 8.23642 69.2433L8.15947 69.6295C8.21153 69.7334 8.23642 69.8102 8.23642 69.8622H8.31338C8.57141 69.7199 8.70268 69.5911 8.70268 69.4759H8.85886C9.06483 69.8238 9.27306 70.6504 9.47903 71.9559C9.53109 71.9559 9.55599 72.0079 9.55599 72.1118H9.63294C9.87965 72.1118 10.0856 71.389 10.2531 69.9435C10.3957 69.6589 10.6288 68.9361 10.9525 67.7752L11.4957 67.6193H12.0389C12.143 67.6193 12.1951 67.5674 12.1951 67.4635C12.1951 67.3596 11.885 67.2828 11.2626 67.2308L11.1856 67.075C12.014 63.809 12.4282 62.0269 12.4282 61.7288C12.4282 61.5345 12.6342 61.381 13.0484 61.2635H13.0552ZM6.68826 84.2723H12.0457C12.3558 84.2723 12.512 84.3762 12.512 84.5817C12.4079 84.7489 12.3558 84.8799 12.3558 84.968C12.3558 85.5868 12.5369 85.8985 12.899 85.8985C13.5464 86.0137 14.0126 86.1176 14.2955 86.208C14.3476 87.1634 14.3725 87.8613 14.3725 88.2995V90.4678C14.3725 90.933 14.1914 91.1657 13.8293 91.1657H13.5962C13.5441 91.1657 13.5192 91.1386 13.5192 91.0889C13.2861 91.1928 12.9488 91.2447 12.5097 91.2447H12.3535C11.5772 91.2447 10.6718 91.2176 9.6352 91.1679C9.42697 91.2199 9.24817 91.2447 9.09199 91.2447L8.93582 91.1679L8.77964 91.2447C8.58499 91.2447 8.40391 91.1408 8.23642 90.9353C8.28848 90.4181 8.31338 90.0318 8.31338 89.7744V87.6828C8.31338 87.5022 8.33827 87.2695 8.39033 86.9849C8.39033 86.418 8.1821 86.1334 7.77016 86.1334C6.94176 86.1334 6.52756 86.0295 6.52756 85.824V84.9725L6.4506 84.4304L6.68373 84.2746L6.68826 84.2723ZM6.84444 64.0529V64.5182C6.94855 64.5182 7.0006 64.4414 7.0006 64.2856C6.94854 64.1817 6.92365 64.1049 6.92365 64.0529H6.84669H6.84444ZM11.9688 84.8166C11.9688 84.9205 11.9416 84.9725 11.8918 84.9725C11.9439 85.0764 11.9688 85.1532 11.9688 85.2051C12.0729 85.2051 12.1249 85.1532 12.1249 85.0493V84.9725C12.1249 84.8686 12.0729 84.8166 11.9688 84.8166ZM13.4445 75.0548L13.3675 75.5968L13.4445 75.9853C13.5599 75.9853 13.6641 75.7798 13.7546 75.3665C13.6776 75.1609 13.5984 75.057 13.5215 75.057H13.4445V75.0548ZM13.4445 76.1389V76.3716H13.5215V76.1389H13.4445ZM13.4445 87.2176V87.6828H13.6007C13.6007 87.6309 13.6256 87.5541 13.6776 87.4502L13.6007 87.0617C13.4966 87.0753 13.4445 87.1272 13.4445 87.2176ZM16.9392 63.8203L17.1723 63.9761L17.2493 63.8203V63.4341H17.1723C17.0569 63.4341 16.9777 63.5628 16.9392 63.8203Z" fill="#E80D0D"/>
<path d="M19.73 60.6808C19.8975 60.6808 20.0265 60.7079 20.117 60.7576C20.6874 60.7056 21.1786 60.6808 21.5928 60.6808H22.136C22.8988 60.6808 23.9354 60.7079 25.2414 60.7576C25.255 60.8615 25.307 60.9134 25.3975 60.9134C25.3455 61.5323 25.2685 61.9976 25.1644 62.307C25.2685 62.5012 25.3206 62.7068 25.3206 62.9259V63.0817C25.3206 63.224 25.2685 63.3798 25.1644 63.547L24.6981 63.4702C24.4786 63.4702 24.2455 63.5221 23.9988 63.626C23.8177 63.5741 23.7136 63.5492 23.6887 63.5492C23.159 63.6012 22.8467 63.626 22.7562 63.626L21.8236 63.5492L21.6675 63.7819V63.9377C21.6675 63.9761 21.7444 64.0529 21.9006 64.1704L22.8331 64.0936H23.6864C24.7728 64.1839 25.3161 64.3127 25.3161 64.4798V65.4104C25.3161 65.8237 25.7031 66.0292 26.4817 66.0292C26.5338 66.1331 26.5858 66.3658 26.6379 66.7272C26.5722 66.935 26.4432 67.0885 26.2509 67.1924H25.5515C25.4745 67.1924 25.3953 67.2692 25.3183 67.4251V67.5019C25.3183 67.6961 25.7054 67.8249 26.484 67.8881C26.536 67.992 26.5609 68.0688 26.5609 68.1207C26.5089 68.7667 26.484 69.101 26.484 69.1281C26.484 69.232 26.536 69.4127 26.6402 69.6702C26.5881 70.0835 26.3821 70.289 26.02 70.289C25.9045 70.289 25.8004 70.2642 25.7099 70.2122C25.4768 70.3161 25.3477 70.42 25.3228 70.5217V71.0638C25.3228 71.2715 25.2957 71.4771 25.2459 71.6826C25.298 71.8769 25.3228 72.0824 25.3228 72.3015V72.9204C25.3228 72.9971 25.2187 73.101 25.0128 73.2298H24.4696C24.3021 73.2298 24.1708 73.2569 24.0802 73.3066L23.614 73.2298H22.2175C22.1134 73.2433 22.0613 73.2953 22.0613 73.3856V73.6951C22.0613 73.7719 22.1654 73.8509 22.3714 73.9277C22.4234 73.9277 22.4483 73.9029 22.4483 73.8509C22.5004 73.8509 22.5773 73.878 22.6815 73.9277C23.2111 73.8758 23.6253 73.8509 23.9241 73.8509L24.4673 74.0068L25.0105 73.93C25.0875 73.93 25.2165 74.0339 25.3975 74.2394L25.3206 74.7815V80.9024L25.3975 81.3677C25.3455 81.458 25.3206 81.5868 25.3206 81.7539V82.8381L25.3975 83.3801L25.0875 83.6128H24.8543L24.4673 83.536C24.3111 83.7167 24.1821 83.9493 24.078 84.2339L24.1549 84.6201C24.1029 84.9815 24.078 85.1893 24.078 85.239C24.8543 85.4965 25.4745 85.6523 25.9408 85.7043V85.7811C25.9408 86.2192 25.9657 86.8652 26.0177 87.719C25.9657 88.4937 25.9408 89.0358 25.9408 89.3452L26.0177 89.8873C25.9657 89.9912 25.9408 90.068 25.9408 90.1199C25.9928 90.2238 26.0177 90.3006 26.0177 90.3526C26.0177 90.4677 25.3183 90.5716 23.9218 90.662H21.9029C21.6041 90.662 21.1921 90.6371 20.6603 90.5852C20.5561 90.6371 20.4792 90.662 20.4271 90.662C20.2189 90.61 20.0401 90.5332 19.8839 90.4293C19.8839 90.3142 19.9088 90.2103 19.9609 90.1199C19.9088 89.1645 19.8839 88.365 19.8839 87.719V86.8675C19.8839 86.61 19.9088 86.2215 19.9609 85.7065C19.7934 85.6026 19.6372 85.5507 19.4946 85.5507H18.6413C18.4602 85.5507 18.2542 85.4468 18.0211 85.2412L18.1773 84.4665C18.1252 84.261 18.1003 84.0532 18.1003 83.8477C18.1003 83.7709 18.2565 83.6421 18.5666 83.4614H19.0329L19.189 83.5382L19.4222 83.152C19.3701 82.2101 19.3452 81.6161 19.3452 81.3699C19.3452 81.0741 19.3701 80.8911 19.4222 80.8279C19.3701 80.2993 19.3452 79.886 19.3452 79.5879V76.1005C19.3452 75.3394 19.3701 74.3049 19.4222 73.0017C19.3701 72.7961 19.3452 72.5883 19.3452 72.3828C19.4493 72.1502 19.5512 72.0214 19.6553 71.9966H20.4316C20.5086 71.9966 20.6127 71.8927 20.7417 71.6871V71.6103C20.7417 71.5064 20.6897 71.4545 20.5856 71.4545H19.653C19.5761 71.4545 19.472 71.3506 19.3429 71.1451V70.6798C19.3429 70.3952 19.4991 70.1626 19.8092 69.9819L20.2755 70.0587C20.443 70.0587 20.5471 69.6453 20.5856 68.8187C20.5335 68.2517 20.4565 67.9152 20.3524 67.8113L19.9654 67.8881H19.6553C19.5897 67.8881 19.4606 67.7594 19.2683 67.5019C19.3724 67.1405 19.5783 66.9598 19.8884 66.9598C20.16 67.0117 20.3162 67.0366 20.3547 67.0366L20.5109 66.804V66.4945C20.5109 66.3522 20.4588 66.1986 20.3547 66.0292C20.2506 66.0292 20.0695 66.0812 19.8115 66.1851C19.7345 66.1851 19.5783 66.0563 19.3452 65.7989C19.3973 64.7667 19.4222 63.9919 19.4222 63.4747V62.5442C19.4222 62.3251 19.4471 62.0405 19.4991 61.6926C19.4335 61.3968 19.3565 61.189 19.266 61.0738V60.997C19.266 60.8931 19.4222 60.7914 19.7322 60.6875L19.73 60.6808ZM24.465 61.9208V62.4628C24.4786 62.5667 24.5307 62.6187 24.6212 62.6187L24.6981 62.2325L24.6212 61.923H24.465V61.9208ZM25.2414 86.2463V86.7884H25.3975C25.3975 86.7365 25.4224 86.6597 25.4745 86.5558C25.4224 86.4654 25.3975 86.3615 25.3975 86.2463H25.2414Z" fill="#E80D0D"/>
<path d="M28.272 61.2635C28.324 61.2635 28.3489 61.2906 28.3489 61.3403L28.5051 61.2635H31.0673C31.8436 61.2635 32.4638 61.3155 32.9301 61.4194C33.007 61.3674 33.1632 61.3426 33.3963 61.3426L33.7834 61.5752C33.7562 62.0405 33.7064 62.2731 33.6272 62.2731L33.7041 62.429V63.0478C33.7041 63.163 33.677 63.2669 33.6272 63.3573C33.7313 63.6148 33.7834 63.7954 33.7834 63.8993C33.7313 64.0936 33.7064 64.2991 33.7064 64.5182C33.9124 64.6221 34.0165 64.6989 34.0165 64.7508L34.1727 64.6741C34.691 64.7396 34.949 64.8412 34.949 64.9835V65.5256C34.949 65.6024 34.8449 65.7063 34.6389 65.835C34.3153 65.835 33.4348 65.8869 31.9998 65.9908C31.4181 65.9389 30.8749 65.914 30.3701 65.914C29.7228 65.966 29.3358 65.9908 29.2045 65.9908C29.037 65.7853 28.8808 65.4239 28.7382 64.9067C28.6341 64.8547 28.5572 64.8299 28.5051 64.8299L28.0388 64.9067C27.7808 64.6741 27.6496 64.1839 27.6496 63.4341C27.6496 63.3957 27.6744 63.2398 27.7265 62.9688C27.6744 62.3499 27.6496 61.8846 27.6496 61.5752C27.8691 61.3697 28.0773 61.2658 28.2697 61.2658L28.272 61.2635ZM28.1158 65.6792C28.2584 65.6792 28.3625 65.9366 28.4259 66.4539L28.5821 66.5307H31.9975C32.0745 66.5307 32.4887 66.5826 33.2402 66.6865H33.5502C33.6272 66.6865 33.7064 66.7633 33.7834 66.9191C33.7834 67.2805 33.7313 67.4612 33.6272 67.4612L33.7041 67.8497V70.5601L33.7811 71.0254L33.548 71.4138L33.0048 71.337C32.5136 71.4929 32.1243 71.5697 31.8391 71.5697H30.1302C29.9492 71.5697 29.716 71.5448 29.4308 71.4929C29.3267 71.5448 29.2498 71.5697 29.1977 71.5697C28.745 71.5177 28.4598 71.4929 28.3444 71.4929L27.9551 71.5697C27.7469 71.3506 27.645 71.1428 27.645 70.9508V70.1761C27.645 70.0203 27.6699 69.9435 27.722 69.9435L27.645 69.5572V67.6984C27.645 67.4793 27.6699 67.1947 27.722 66.8469C27.6699 66.7565 27.645 66.6278 27.645 66.4606C27.645 66.1241 27.8012 65.8666 28.1113 65.6859L28.1158 65.6792ZM27.9596 72.0327L28.4259 72.1095C28.607 72.1095 28.8401 72.0847 29.1253 72.0327C29.9673 72.0847 30.7165 72.1095 31.3774 72.1095L32.0768 72.0327C33.1111 72.227 33.6295 72.3557 33.6295 72.4212C33.6815 72.4212 33.7336 72.498 33.7856 72.6538C33.7336 73.0152 33.7087 73.3247 33.7087 73.5844C33.7087 73.8554 34.098 74.0361 34.8743 74.1265V74.2823L34.7974 74.4382C34.8494 74.5285 34.8743 74.6324 34.8743 74.7476V74.8244C34.8743 74.9667 34.5371 75.0706 33.8648 75.1338C33.7607 75.301 33.7087 75.4568 33.7087 75.5991C33.7087 75.755 33.7336 75.8317 33.7856 75.8317L33.7087 76.6065V85.2842C33.7087 85.7111 34.1229 86.0205 34.9513 86.2147L35.0282 86.3706V86.4474C35.0282 86.4993 35.0033 86.5242 34.9513 86.5242C35.0033 86.6281 35.0282 86.7049 35.0282 86.7568H35.1052C35.2093 86.7568 35.2614 86.7049 35.2614 86.601V86.5242L35.1844 86.3683L35.3406 86.2915C35.4175 86.6529 35.5466 86.8336 35.7299 86.8336L36.2731 86.7568L37.0494 86.9126C37.9548 86.8607 38.5252 86.8359 38.7583 86.8359C39.1725 86.8359 39.7157 86.863 40.388 86.9126L41.4744 86.8359C42.1602 86.8878 42.7283 86.9126 43.1833 86.9126L43.2602 87.0685C43.2602 87.9855 43.2082 88.5795 43.104 88.8506C43.2082 89.1352 43.2851 89.6772 43.3372 90.4768C43.3372 90.9421 43.0792 91.1747 42.5608 91.1747C42.2123 91.2267 41.6691 91.2515 40.9312 91.2515H36.1962C36.0807 91.2515 35.9766 91.2244 35.8861 91.1747C35.7955 91.2267 35.6914 91.2515 35.576 91.2515H35.4198C35.2523 91.2515 35.121 91.2244 35.0305 91.1747L34.5642 91.2515C34.0074 91.2515 33.4122 91.1996 32.7784 91.0957C32.0021 91.1996 31.4317 91.2515 31.0695 91.2515C31.0175 91.2515 30.9926 91.2244 30.9926 91.1747L30.6033 91.2515H30.0601C29.7885 91.2515 29.6074 91.1228 29.5169 90.8653C29.5689 90.1674 29.5938 89.6524 29.5938 89.3158V86.6055C29.5938 86.3096 29.4376 86.1289 29.1275 86.0634L28.7405 86.1402C28.0162 86.0634 27.6541 85.9595 27.6541 85.8308V79.2446C27.6541 78.4314 27.679 77.0876 27.731 75.2151C27.808 75.2151 27.9121 75.1112 28.0411 74.9057L28.4282 74.9825H28.7382C28.8424 74.9825 28.8944 74.9306 28.8944 74.8267V74.2078C28.8944 74.0519 28.5572 73.9503 27.8849 73.8984C27.7288 73.7041 27.6518 73.4986 27.6518 73.2795C27.6518 72.6471 27.7559 72.2337 27.9619 72.0395L27.9596 72.0327ZM32.7739 67.5403L32.8508 67.9265C33.1609 67.9265 33.3171 67.7707 33.3171 67.4612L33.1609 67.3844H32.9278C32.8237 67.398 32.7716 67.4499 32.7716 67.5403H32.7739ZM32.8508 62.5826V62.6593C32.8644 62.7632 32.9165 62.8152 33.007 62.8152L33.084 62.6593V62.4267H33.007C32.9029 62.4403 32.8508 62.4922 32.8508 62.5826ZM42.4771 88.2272V88.5366C42.4907 88.6405 42.5427 88.6925 42.6333 88.6925V88.2272H42.4771ZM42.4771 89.0787V89.2345H42.6333V88.9251C42.5291 88.9387 42.4771 88.9906 42.4771 89.0809V89.0787Z" fill="#E80D0D"/>
<path d="M44.8084 61.2635C44.8604 61.2635 44.8853 61.2906 44.8853 61.3403L45.0415 61.2635H47.6037C48.38 61.2635 49.0002 61.3155 49.4664 61.4194C49.5434 61.3674 49.6996 61.3426 49.9327 61.3426L50.3197 61.5752C50.2926 62.0405 50.2428 62.2731 50.1636 62.2731L50.2405 62.429V63.0478C50.2405 63.163 50.2134 63.2669 50.1636 63.3573C50.2677 63.6148 50.3197 63.7954 50.3197 63.8993C50.2677 64.0936 50.2428 64.2991 50.2428 64.5182C50.4488 64.6221 50.5529 64.6989 50.5529 64.7508L50.709 64.6741C51.2274 64.7396 51.4854 64.8412 51.4854 64.9835V65.5256C51.4854 65.6024 51.3813 65.7063 51.1753 65.835C50.8516 65.835 49.9712 65.8869 48.5362 65.9908C47.9545 65.9389 47.4113 65.914 46.9065 65.914C46.2592 65.966 45.8722 65.9908 45.7409 65.9908C45.5734 65.7853 45.4172 65.4239 45.2746 64.9067C45.1705 64.8547 45.0935 64.8299 45.0415 64.8299L44.5752 64.9067C44.3172 64.6741 44.1859 64.1839 44.1859 63.4341C44.1859 63.3957 44.2108 63.2398 44.2629 62.9688C44.2108 62.3499 44.1859 61.8846 44.1859 61.5752C44.4055 61.3697 44.6137 61.2658 44.8061 61.2658L44.8084 61.2635ZM44.6522 65.6792C44.7948 65.6792 44.8989 65.9366 44.9623 66.4539L45.1184 66.5307H48.5339C48.6109 66.5307 49.0251 66.5826 49.7765 66.6865H50.0866C50.1636 66.6865 50.2428 66.7633 50.3197 66.9191C50.3197 67.2805 50.2677 67.4612 50.1636 67.4612L50.2405 67.8497V70.5601L50.3175 71.0254L50.0843 71.4138L49.5411 71.337C49.05 71.4929 48.6607 71.5697 48.3755 71.5697H46.6666C46.4855 71.5697 46.2524 71.5448 45.9672 71.4929C45.8631 71.5448 45.7861 71.5697 45.7341 71.5697C45.2814 71.5177 44.9962 71.4929 44.8808 71.4929L44.4915 71.5697C44.2832 71.3506 44.1814 71.1428 44.1814 70.9508V70.1761C44.1814 70.0203 44.2063 69.9435 44.2584 69.9435L44.1814 69.5572V67.6984C44.1814 67.4793 44.2063 67.1947 44.2584 66.8469C44.2063 66.7565 44.1814 66.6278 44.1814 66.4606C44.1814 66.1241 44.3376 65.8666 44.6477 65.6859L44.6522 65.6792ZM44.496 72.0327L44.9623 72.1095C45.1433 72.1095 45.3765 72.0847 45.6617 72.0327C46.5037 72.0847 47.2528 72.1095 47.9137 72.1095L48.6131 72.0327C49.6475 72.227 50.1658 72.3557 50.1658 72.4212C50.2179 72.4212 50.2699 72.498 50.322 72.6538C50.2699 73.0152 50.2451 73.3247 50.2451 73.5844C50.2451 73.8554 50.6344 74.0361 51.4107 74.1265V74.2823L51.3338 74.4382C51.3858 74.5285 51.4107 74.6324 51.4107 74.7476V74.8244C51.4107 74.9667 51.0734 75.0706 50.4012 75.1338C50.2971 75.301 50.2451 75.4568 50.2451 75.5991C50.2451 75.755 50.2699 75.8317 50.322 75.8317L50.2451 76.6065V85.2842C50.2451 85.7111 50.6593 86.0205 51.4877 86.2147L51.5646 86.3706V86.4474C51.5646 86.4993 51.5397 86.5242 51.4877 86.5242C51.5397 86.6281 51.5646 86.7049 51.5646 86.7568H51.6416C51.7457 86.7568 51.7977 86.7049 51.7977 86.601V86.5242L51.7208 86.3683L51.877 86.2915C51.9539 86.6529 52.0829 86.8336 52.2663 86.8336L52.8095 86.7568L53.5858 86.9126C54.4912 86.8607 55.0616 86.8359 55.2947 86.8359C55.7089 86.8359 56.2521 86.863 56.9243 86.9126L58.0108 86.8359C58.6966 86.8878 59.2647 86.9126 59.7196 86.9126L59.7966 87.0685C59.7966 87.9855 59.7445 88.5795 59.6404 88.8506C59.7445 89.1352 59.8215 89.6772 59.8736 90.4768C59.8736 90.9421 59.6155 91.1747 59.0972 91.1747C58.7486 91.2267 58.2054 91.2515 57.4676 91.2515H52.7325C52.6171 91.2515 52.513 91.2244 52.4224 91.1747C52.3319 91.2267 52.2278 91.2515 52.1124 91.2515H51.9562C51.7887 91.2515 51.6574 91.2244 51.5669 91.1747L51.1006 91.2515C50.5438 91.2515 49.9485 91.1996 49.3148 91.0957C48.5384 91.1996 47.9681 91.2515 47.6059 91.2515C47.5539 91.2515 47.529 91.2244 47.529 91.1747L47.1397 91.2515H46.5964C46.3248 91.2515 46.1438 91.1228 46.0532 90.8653C46.1053 90.1674 46.1302 89.6524 46.1302 89.3158V86.6055C46.1302 86.3096 45.974 86.1289 45.6639 86.0634L45.2769 86.1402C44.5526 86.0634 44.1905 85.9595 44.1905 85.8308V79.2446C44.1905 78.4314 44.2153 77.0876 44.2674 75.2151C44.3444 75.2151 44.4485 75.1112 44.5775 74.9057L44.9645 74.9825H45.2746C45.3787 74.9825 45.4308 74.9306 45.4308 74.8267V74.2078C45.4308 74.0519 45.0935 73.9503 44.4213 73.8984C44.2651 73.7041 44.1882 73.4986 44.1882 73.2795C44.1882 72.6471 44.2923 72.2337 44.4983 72.0395L44.496 72.0327ZM49.3103 67.5403L49.3872 67.9265C49.6973 67.9265 49.8535 67.7707 49.8535 67.4612L49.6973 67.3844H49.4642C49.3601 67.398 49.308 67.4499 49.308 67.5403H49.3103ZM49.3872 62.5826V62.6593C49.4008 62.7632 49.4529 62.8152 49.5434 62.8152L49.6204 62.6593V62.4267H49.5434C49.4393 62.4403 49.3872 62.4922 49.3872 62.5826ZM59.0135 88.2272V88.5366C59.0248 88.6405 59.0791 88.6925 59.1696 88.6925V88.2272H59.0135ZM59.0135 89.0787V89.2345H59.1696V88.9251C59.0655 88.9387 59.0135 88.9906 59.0135 89.0809V89.0787Z" fill="#E80D0D"/>
<path d="M65.2446 60.6808H70.6021L71.0684 60.7576L71.2245 60.6808C71.7542 60.7327 72.1684 60.7576 72.4671 60.7576H72.6233C72.8429 60.7576 72.9719 61.2748 73.0126 62.307C73.2073 62.8242 73.3363 63.5718 73.3997 64.5543C73.5558 64.5543 73.6577 64.9406 73.7098 65.7175C73.8659 65.8327 74.305 65.9637 75.0293 66.1038C75.0293 66.3613 75.0814 66.5691 75.1855 66.7226C75.1855 66.9801 74.8233 67.136 74.0991 67.1879C73.9949 67.3551 73.9429 67.4861 73.9429 67.5741C74.1375 67.73 74.3186 67.8068 74.4861 67.8068H75.0293C75.2873 67.9355 75.4164 68.1433 75.4164 68.4257C75.3394 68.6335 75.1312 68.7351 74.7962 68.7351V68.8909C75.3145 68.8909 75.5725 69.0987 75.5725 69.5098V70.0519C75.5725 70.1558 75.2353 70.2326 74.563 70.2845L74.4069 70.594C74.4069 70.813 74.5631 71.4839 74.8731 72.6087C74.9252 73.5121 74.9501 74.0542 74.9501 74.2349C75.0927 74.2349 75.2466 74.8538 75.4164 76.0937C75.2217 76.1976 75.0157 76.2496 74.7962 76.2496H72.311C72.234 76.2496 72.1548 76.3264 72.0778 76.4822V76.7149C72.0778 76.7917 72.1548 76.8707 72.311 76.9475H74.253C75.1855 76.9475 75.6495 77.1282 75.6495 77.4896C75.6495 78.8199 75.8826 80.2406 76.3489 81.7516C76.3489 81.8036 76.3217 81.8284 76.2719 81.8284L76.3489 82.2147V82.6009L76.2719 82.9871C76.3489 82.9871 76.453 83.091 76.582 83.2966V83.3734C76.53 83.5292 76.3738 83.606 76.1157 83.606H75.5725C75.2738 83.9674 75.0678 84.1481 74.9524 84.1481C74.8482 84.0961 74.7713 84.0713 74.7192 84.0713L74.6423 84.2271V84.383C74.6808 84.6924 74.7577 84.8482 74.8754 84.8482C74.8754 84.7715 75.0044 84.6676 75.2624 84.5388H75.3394C75.6359 85.108 75.9211 85.3903 76.1927 85.3903C76.917 85.4942 77.2791 85.6749 77.2791 85.9324C77.5372 86.2305 77.6662 86.4609 77.6662 86.6303C77.7816 87.457 77.8857 88.0239 77.9763 88.3356C77.8993 88.8009 77.7952 89.0335 77.6662 89.0335L77.2791 88.8777C76.9419 89.0335 76.5797 89.1103 76.1927 89.1103H74.3299C74.253 89.1103 74.1737 89.1871 74.0968 89.3429C74.1737 89.5507 74.253 89.6524 74.3299 89.6524H76.7359C76.8016 89.6524 77.0845 89.7043 77.5892 89.8082L77.9763 89.7314C78.2343 90.0025 78.3633 90.2103 78.3633 90.3503C78.1958 90.4406 77.6254 90.5445 76.6544 90.6597L76.1112 90.5829L75.7242 90.6597C75.4526 90.6078 75.2964 90.5829 75.2579 90.5829L74.7147 90.6597C74.262 90.6078 73.9768 90.5829 73.8614 90.5829L72.9289 90.6597V90.5829L72.7727 90.6597H72.6957C72.4106 90.6597 72.2046 90.531 72.0756 90.2735L72.1525 89.5756C71.9964 88.9951 71.7904 87.859 71.5324 86.1673V85.702C71.5324 85.6636 71.4554 85.5868 71.2992 85.4694C71.1951 85.5213 71.1182 85.5462 71.0661 85.5462C70.704 85.5462 69.6175 85.4174 67.8045 85.1599C67.0282 85.2119 66.3809 85.2367 65.8625 85.2367L65.7856 85.3926C65.8376 85.702 65.9146 85.8579 66.0187 85.8579H66.1749L66.408 85.702H66.6411C66.7181 85.702 66.7973 85.7788 66.8743 85.9347L66.2541 89.2662V90.2735C66.2541 90.4023 66.073 90.5061 65.7109 90.5829L65.5547 90.5061C64.8938 90.61 64.5068 90.662 64.3891 90.662C64.3619 90.662 64.0269 90.6371 63.3796 90.5852C63.3524 90.5852 63.0174 90.6123 62.3701 90.662L61.9831 90.5852C61.879 90.6371 61.802 90.662 61.7499 90.662L61.4399 90.5852L61.0528 90.662C60.6907 90.5852 60.5096 90.4813 60.5096 90.3526L61.0528 87.8726C61.0528 87.6535 61.1049 87.1114 61.209 86.2463V85.7811C61.209 85.7043 61.132 85.6252 60.9759 85.5484H60.1226C59.8509 85.5484 59.6699 85.4445 59.5793 85.239V85.1622C59.6835 84.6585 59.7355 84.3739 59.7355 84.3107V84.2339C59.7355 84.1187 59.7106 84.0148 59.6586 83.9245C59.6586 83.6399 60.0977 83.4863 60.9781 83.4592C61.0936 83.1497 61.2497 82.9691 61.4444 82.9171L61.9106 82.9939C62.1438 82.89 62.2728 82.7884 62.2977 82.6845C62.2977 82.5286 61.9876 82.427 61.3652 82.375C61.261 82.2463 61.209 82.1695 61.209 82.1424V82.0656C61.7273 79.5743 61.9853 77.9458 61.9853 77.1847C62.3995 75.3642 62.6055 74.384 62.6055 74.2417C62.6055 74.2033 62.5783 74.0474 62.5285 73.7764L62.9948 71.529L62.9179 71.3732C62.9179 70.8447 63.1238 70.3794 63.538 69.9796L64.0812 70.0564H64.2374C64.3664 70.0564 64.5475 69.4104 64.7806 68.1185C64.7286 68.0146 64.7037 67.9378 64.7037 67.8858H63.9273C63.8504 67.8858 63.7463 67.7819 63.6172 67.5764V67.3438C63.7734 67.0863 63.9545 66.9553 64.1605 66.9553C64.4457 67.0072 64.6516 67.0321 64.7806 67.0321C64.9368 66.7994 65.0138 66.6187 65.0138 66.49C65.0138 66.3477 64.8848 66.219 64.6267 66.1038C64.5362 66.1557 64.4321 66.1806 64.3166 66.1806C64.0066 65.9999 63.8504 65.8711 63.8504 65.7943C64.3687 63.0953 64.6267 61.4939 64.6267 60.9902C64.8463 60.7847 65.0545 60.6808 65.2469 60.6808H65.2446ZM68.1938 70.8289L68.2708 71.6036V71.6804C68.2708 71.7956 68.2436 71.8994 68.1938 71.9898C68.1938 72.0417 68.2187 72.0666 68.2708 72.0666C68.2187 72.9068 68.0626 73.8871 67.8045 75.0096L67.2613 79.1926H67.1052C66.9761 79.1926 66.872 78.9871 66.7951 78.5737L66.872 78.2643C66.82 78.1604 66.7951 78.0836 66.7951 78.0317H66.7181C66.614 78.0452 66.5619 78.0972 66.5619 78.1875V79.9696C66.5619 80.0735 66.666 80.1254 66.872 80.1254V80.5117C66.872 80.6156 66.82 80.6675 66.7158 80.6675H66.5597L66.1726 80.5907L66.0957 80.7466L67.9584 81.056C67.9969 81.056 68.1531 81.0311 68.4247 80.9792C68.4768 80.9792 68.5537 81.0063 68.6578 81.056C68.943 81.004 69.1762 80.9792 69.3572 80.9792H69.9774C70.0815 80.9792 70.1336 80.9272 70.1336 80.8233C69.4093 76.2406 68.9679 73.0898 68.814 71.3709C68.7484 71.3709 68.6194 71.1902 68.4247 70.8289H68.1916H68.1938ZM72.2317 62.1511V62.3838L72.6188 62.4606L72.6957 62.3047V62.1489L72.5396 61.9162C72.3313 61.993 72.2295 62.0721 72.2295 62.1489L72.2317 62.1511ZM72.698 64.6311L72.8542 64.7079H72.9311V64.4753H72.8542C72.7501 64.4888 72.698 64.5408 72.698 64.6311ZM73.9406 71.4477V72.2992C73.9406 72.6742 74.0176 72.8797 74.1737 72.9181L74.2507 72.7622V72.1434C74.3028 71.9243 74.3277 71.7436 74.3277 71.6013C74.2371 71.6013 74.1081 71.5494 73.9384 71.4455L73.9406 71.4477ZM74.7939 85.0831V85.1599H74.9501V85.0831H74.7939ZM75.4933 81.5958V81.9052H75.5703V81.5958H75.4933ZM75.4933 82.0611V82.2169H75.5703V82.0611H75.4933Z" fill="#E80D0D"/>
<path d="M79.0061 60.6808C79.1102 60.6808 79.1623 60.7079 79.1623 60.7576C79.8617 60.7056 80.3777 60.6808 80.715 60.6808H85.6062C89.2412 60.6808 91.5182 61.3267 92.4371 62.6187C92.5141 62.6187 92.5933 62.6955 92.6703 62.8513L92.5933 63.5492L92.7495 63.626C92.8536 63.5741 92.9305 63.5492 92.9826 63.5492C93.3832 64.0665 93.9265 64.324 94.6123 64.324L94.6892 64.4798V64.5566L94.6123 64.7124C93.3063 64.7644 92.2696 64.7892 91.5069 64.7892H89.1778C89.1009 64.7892 89.0217 64.866 88.9447 65.0219C89.0352 65.2297 89.2163 65.3313 89.4879 65.3313H92.4371C92.5412 65.3313 92.7472 65.4081 93.0573 65.564C93.0958 65.564 93.252 65.5391 93.5236 65.4872C93.7952 65.4872 93.9514 65.8485 93.9898 66.5713C93.9378 66.6752 93.9129 66.752 93.9129 66.804C93.9129 66.9598 93.9378 67.0366 93.9898 67.0366L93.9129 67.9671V69.9819C93.9129 70.9508 93.7839 71.983 93.5258 73.0807C93.7318 73.2366 94.069 73.3382 94.5353 73.3902V73.546C94.5353 73.7018 94.0691 73.8035 93.1388 73.8554C93.1388 73.9074 93.0867 73.9322 92.9826 73.9322C92.8264 73.9322 92.6454 73.9074 92.4394 73.8554C91.9867 73.9074 91.7015 73.9322 91.5861 73.9322L90.3435 73.8554C90.0334 73.9593 89.8772 74.0632 89.8772 74.1649V74.3207C89.8772 74.3975 89.9813 74.4766 90.1873 74.5534C90.2394 74.5534 90.4453 74.5285 90.8075 74.4766C91.4797 74.5285 92.0229 74.5534 92.4371 74.5534L92.5933 74.786V74.8628L91.1968 75.8701V76.1796C91.9211 76.3354 92.6974 77.135 93.5258 78.5805L93.3697 78.8899C91.5838 78.9419 90.2892 78.9667 89.4879 78.9667H87.0819C86.3576 78.6573 85.6583 78.5015 84.986 78.5015C84.728 78.6054 84.599 78.6821 84.599 78.7341C84.599 78.8109 84.6239 79.1226 84.6759 79.6647C84.4043 79.8725 83.6529 79.9741 82.4238 79.9741H82.3469C82.2428 79.9876 82.1907 80.0396 82.1907 80.1299V80.2858C82.4488 80.7127 82.58 80.995 82.58 81.1373H83.2002C83.3948 81.1373 83.628 81.2412 83.8996 81.4467C83.9901 81.2412 84.1712 81.1373 84.4428 81.1373C84.599 81.1373 84.6759 81.2412 84.6759 81.4467C84.6759 81.4987 84.6488 81.5235 84.599 81.5235C84.599 81.5506 84.6239 81.6523 84.6759 81.833C84.6759 82.0136 84.6488 82.2463 84.599 82.5309C84.599 82.5693 84.6239 82.7771 84.6759 83.1497C84.6759 83.3824 84.6239 83.9493 84.5197 84.855C84.5197 85.1261 84.8819 85.3587 85.6062 85.5529L85.7624 85.4761H86.3056C86.3825 85.4761 86.4618 85.5529 86.5387 85.7088C86.5387 85.7472 86.5116 85.903 86.4618 86.1741C86.5138 86.278 86.5387 86.3548 86.5387 86.4067C86.4346 86.5738 86.3825 86.7297 86.3825 86.872V88.1888C86.3825 88.2407 86.3554 88.2656 86.3056 88.2656L86.3825 88.4214V88.8867C86.3825 89.0019 86.3554 89.1058 86.3056 89.1961C86.4097 89.4288 86.4618 89.7653 86.4618 90.2035V90.3593C86.4618 90.5152 86.3576 90.592 86.1517 90.592C85.8665 90.592 85.3753 90.6191 84.6759 90.6688C84.6239 90.6688 84.599 90.6439 84.599 90.592L84.0558 90.6688H81.5706C81.4551 90.6688 81.351 90.6439 81.2605 90.592C81.1699 90.6439 81.0658 90.6688 80.9504 90.6688C80.7829 90.6688 80.6018 90.592 80.4072 90.4361C80.4592 89.8285 80.4841 89.3904 80.4841 89.1193V88.3446C80.4841 88.1007 80.457 87.8409 80.4072 87.5699C80.4592 87.3757 80.4841 87.143 80.4841 86.872V86.7952L80.4072 85.8646H80.4841C80.4841 85.6071 79.9658 85.4784 78.9314 85.4784H78.7753C78.6462 85.3745 78.567 85.3226 78.5421 85.3226L78.6191 84.7805V80.5184C78.6191 80.1186 78.644 79.7573 78.696 79.4343C78.644 79.1768 78.6191 78.8403 78.6191 78.4269V76.8007C78.6191 76.6855 78.5919 76.5816 78.5421 76.4913L78.6983 76.1028C78.6598 75.8972 78.6078 75.7933 78.5421 75.7933L78.6191 75.4071L78.5421 74.9418C78.5421 74.7092 78.7232 74.5037 79.0853 74.323L79.5516 74.3998H79.6285C79.7055 74.3998 79.7847 74.323 79.8617 74.1671V73.5483C79.8617 73.4444 79.8096 73.3924 79.7055 73.3924H79.1623C78.8001 73.3924 78.6191 73.2117 78.6191 72.8503V67.2715C78.6191 67.2195 78.644 67.1947 78.696 67.1947L78.6191 67.0388V66.1083C78.6191 65.9931 78.5919 65.8892 78.5421 65.7989C78.5421 65.4759 78.8273 65.2432 79.3954 65.1009C79.486 65.1529 79.5901 65.1777 79.7055 65.1777L79.8617 64.9451V64.7124C79.8617 64.3511 79.7055 64.1704 79.3954 64.1704C79.2279 64.2743 79.0718 64.3262 78.9292 64.3262C78.7209 64.0687 78.6191 63.9129 78.6191 63.8609C78.6191 63.809 78.644 63.7322 78.696 63.6283L78.6191 62.9304L78.696 62.3883L78.6191 62.0021L78.696 61.46L78.6191 60.9179C78.8771 60.814 79.0084 60.7372 79.0084 60.6853L79.0061 60.6808ZM85.2169 65.4059C85.1128 65.3539 85.0358 65.3291 84.9838 65.3291C84.7755 65.381 84.6737 65.5369 84.6737 65.7943V66.6458C84.6737 67.538 84.6465 68.6989 84.5967 70.1332L84.6737 70.5985C84.6737 71.1676 84.3885 71.45 83.8204 71.45L83.6642 71.7594L83.8973 72.1456C83.9494 72.1456 83.9743 72.1208 83.9743 72.0688C84.4405 72.1343 84.6737 72.236 84.6737 72.3783V72.4551C84.6737 72.5703 84.6465 72.6742 84.5967 72.7645C84.7257 73.2298 84.8547 73.4624 84.9838 73.4624C85.0879 73.4624 85.269 73.4105 85.527 73.3066C85.7329 73.3585 85.8371 73.4624 85.8371 73.616C85.785 73.7199 85.7601 73.7967 85.7601 73.8487C85.9932 74.0045 86.1743 74.0813 86.3033 74.0813C87.3128 74.0813 87.9601 73.9006 88.2453 73.5392V73.3834H87.7791C87.7021 73.3834 87.6229 73.3066 87.5459 73.1507V73.0739C87.7021 72.3512 87.933 71.9898 88.2453 71.9898C88.4785 71.9898 88.6324 72.0169 88.7116 72.0666L90.8075 71.9107C90.8844 71.9627 91.0406 71.9875 91.2738 71.9875C91.4797 71.9107 91.5838 71.8317 91.5838 71.7549V71.6781C91.5318 71.5223 91.3756 71.4455 91.1176 71.4455H89.0986C89.0465 71.4455 89.0217 71.4206 89.0217 71.3687L88.8655 71.4455H88.2453C88.1684 71.4455 88.0891 71.3687 88.0122 71.2128V70.6707C88.0122 70.271 87.985 69.9096 87.9352 69.5866C87.9873 69.3156 88.0122 69.0581 88.0122 68.8119L87.9352 67.8813C87.9873 67.6103 88.0122 67.3528 88.0122 67.1066C87.8175 66.4471 87.5595 65.957 87.2358 65.634C87.2879 65.5301 87.3128 65.4533 87.3128 65.4013C86.9756 65.1958 86.6655 65.0919 86.3803 65.0919L85.2169 65.4013V65.4059ZM83.8973 84.4643L83.7412 84.8505L83.8973 84.9273H84.1305C84.2346 84.9273 84.2866 84.8753 84.2866 84.7715V84.6947C84.1961 84.6947 84.0671 84.6179 83.8996 84.462L83.8973 84.4643ZM87.9352 79.5066L88.6346 79.5833C88.6867 79.5833 88.7636 79.5585 88.8678 79.5066L89.2548 79.5833L89.721 79.5066L90.2643 79.5833C91.1696 79.5314 91.7129 79.5066 91.8939 79.5066C93.1886 79.5721 93.8359 79.6737 93.8359 79.816C93.94 81.0695 93.9921 81.7652 93.9921 81.9075V82.0633C93.9921 82.1401 93.9151 82.2192 93.759 82.296H93.2157C93.1501 82.296 92.8672 82.3479 92.3624 82.4518H91.9754C91.86 82.4518 91.7559 82.427 91.6653 82.375C91.5884 82.375 91.4842 82.4789 91.3552 82.6845C91.4073 82.8923 91.5612 82.9939 91.8215 82.9939H92.2878C92.5843 82.9939 92.9985 83.021 93.5304 83.0707L93.6865 82.9939C93.9445 83.0707 94.0758 83.2514 94.0758 83.536C94.0758 83.5879 94.0487 83.6647 93.9989 83.7686C94.0509 83.9764 94.0758 84.1548 94.0758 84.3107C93.9717 84.6337 93.9197 84.8144 93.9197 84.8528C94.1143 85.2661 94.5806 85.4716 95.3162 85.4716C95.5493 85.4716 95.7553 85.5484 95.9364 85.7043C95.8707 86.2847 95.8209 86.6461 95.7802 86.7884L95.8571 87.2537V87.3305C95.8571 87.5383 95.83 87.7438 95.7802 87.9494C95.8322 88.5682 96.0133 89.37 96.3234 90.3503L96.0133 90.5829H95.8571C95.4429 90.5829 94.9518 90.61 94.3814 90.6597C94.3293 90.6597 94.3044 90.6349 94.3044 90.5829L93.7612 90.6597H90.6558C90.2688 90.6597 90.0085 90.2216 89.8795 89.3429V87.0188C89.8795 86.0385 89.7754 85.5462 89.5694 85.5462H89.1031C88.3788 85.5462 88.0167 85.4423 88.0167 85.2367V81.2073C88.0167 80.9227 87.8356 80.4326 87.4735 79.7347C87.6795 79.5788 87.8356 79.502 87.9397 79.502L87.9352 79.5066Z" fill="#E80D0D"/>
<path d="M96.2805 60.6808C96.448 60.6808 96.577 60.7079 96.6675 60.7576C97.2356 60.7056 97.729 60.6808 98.1432 60.6808H98.6865C99.4492 60.6808 100.486 60.7079 101.792 60.7576C101.805 60.8615 101.857 60.9134 101.948 60.9134C101.896 61.5323 101.819 61.9976 101.715 62.307C101.819 62.5012 101.871 62.7068 101.871 62.9259V63.0817C101.871 63.224 101.819 63.3798 101.715 63.547L101.249 63.4702C101.029 63.4702 100.796 63.5221 100.549 63.626C100.368 63.5741 100.264 63.5492 100.239 63.5492C99.7095 63.6012 99.3972 63.626 99.3066 63.626L98.3741 63.5492L98.2179 63.7819V63.9377C98.2179 63.9761 98.2949 64.0529 98.4511 64.1704L99.3836 64.0936H100.237C101.323 64.1839 101.867 64.3127 101.867 64.4798V65.4104C101.867 65.8237 102.254 66.0292 103.032 66.0292C103.084 66.1331 103.136 66.3658 103.188 66.7272C103.123 66.935 102.994 67.0885 102.801 67.1924H102.102C102.025 67.1924 101.946 67.2692 101.869 67.4251V67.5019C101.869 67.6961 102.256 67.8249 103.034 67.8881C103.087 67.992 103.111 68.0688 103.111 68.1207C103.059 68.7667 103.034 69.101 103.034 69.1281C103.034 69.232 103.086 69.4127 103.191 69.6702C103.139 70.0835 102.933 70.289 102.57 70.289C102.455 70.289 102.351 70.2642 102.26 70.2122C102.027 70.3161 101.898 70.42 101.873 70.5217V71.0638C101.873 71.2715 101.846 71.4771 101.796 71.6826C101.848 71.8769 101.873 72.0824 101.873 72.3015V72.9204C101.873 72.9971 101.769 73.101 101.563 73.2298H101.02C100.853 73.2298 100.721 73.2569 100.633 73.3066L100.167 73.2298H98.7702C98.6661 73.2433 98.614 73.2953 98.614 73.3856V73.6951C98.614 73.7719 98.7181 73.8509 98.9241 73.9277C98.9762 73.9277 99.001 73.9029 99.001 73.8509C99.0531 73.8509 99.1301 73.878 99.2342 73.9277C99.7638 73.8758 100.178 73.8509 100.477 73.8509L101.02 74.0068L101.563 73.93C101.64 73.93 101.769 74.0339 101.95 74.2394L101.873 74.7815V80.9024L101.95 81.3677C101.898 81.458 101.873 81.5868 101.873 81.7539V82.8381L101.95 83.3801L101.64 83.6128H101.407L101.018 83.536C100.862 83.7167 100.733 83.9493 100.631 84.2339L100.708 84.6201C100.656 84.9815 100.631 85.1893 100.631 85.239C101.407 85.4965 102.027 85.6523 102.493 85.7043V85.7811C102.493 86.2192 102.518 86.8652 102.57 87.719C102.518 88.4937 102.493 89.0358 102.493 89.3452L102.57 89.8873C102.518 89.9912 102.493 90.068 102.493 90.1199C102.546 90.2238 102.57 90.3006 102.57 90.3526C102.57 90.4677 101.871 90.5716 100.475 90.662H98.4556C98.1568 90.662 97.7449 90.6371 97.213 90.5852C97.1089 90.6371 97.0319 90.662 96.9798 90.662C96.7716 90.61 96.5928 90.5332 96.4366 90.4293C96.4366 90.3142 96.4615 90.2103 96.5136 90.1199C96.4615 89.1645 96.4366 88.365 96.4366 87.719V86.8675C96.4366 86.61 96.4615 86.2215 96.5136 85.7065C96.3461 85.6026 96.1899 85.5507 96.0473 85.5507H95.194C95.013 85.5507 94.8047 85.4468 94.5739 85.2412L94.73 84.4665C94.678 84.261 94.6531 84.0532 94.6531 83.8477C94.6531 83.7709 94.8093 83.6421 95.1193 83.4614H95.5856L95.7418 83.5382L95.9749 83.152C95.9228 82.2101 95.8979 81.6161 95.8979 81.3699C95.8979 81.0741 95.9228 80.8911 95.9749 80.8279C95.9228 80.2993 95.8979 79.886 95.8979 79.5879V76.1005C95.8979 75.3394 95.9228 74.3049 95.9749 73.0017C95.9228 72.7961 95.8979 72.5883 95.8979 72.3828C96.0021 72.1502 96.1039 72.0214 96.208 71.9966H96.9844C97.0613 71.9966 97.1655 71.8927 97.2945 71.6871V71.6103C97.2945 71.5064 97.2424 71.4545 97.1383 71.4545H96.2058C96.1288 71.4545 96.0247 71.3506 95.8957 71.1451V70.6798C95.8957 70.3952 96.0519 70.1626 96.3619 69.9819L96.8282 70.0587C96.9957 70.0587 97.0998 69.6453 97.1383 68.8187C97.0862 68.2517 97.0093 67.9152 96.9052 67.8113L96.5181 67.8881H96.208C96.1424 67.8881 96.0134 67.7594 95.8187 67.5019C95.9228 67.1405 96.1288 66.9598 96.4389 66.9598C96.7105 67.0117 96.8667 67.0366 96.9052 67.0366L97.0613 66.804V66.4945C97.0613 66.3522 97.0093 66.1986 96.9052 66.0292C96.801 66.0292 96.62 66.0812 96.3619 66.1851C96.285 66.1851 96.1288 66.0563 95.8957 65.7989C95.9477 64.7667 95.9726 63.9919 95.9726 63.4747V62.5442C95.9726 62.3251 95.9975 62.0405 96.0496 61.6926C95.984 61.3968 95.907 61.189 95.8165 61.0738V60.997C95.8165 60.8931 95.9726 60.7914 96.2827 60.6875L96.2805 60.6808ZM101.015 61.9208V62.4628C101.029 62.5667 101.081 62.6187 101.172 62.6187L101.249 62.2325L101.172 61.923H101.015V61.9208ZM101.792 86.2463V86.7884H101.948C101.948 86.7365 101.973 86.6597 102.025 86.5558C101.973 86.4654 101.948 86.3615 101.948 86.2463H101.792Z" fill="#E80D0D"/>
</svg>
