<svg width="160" height="102" viewBox="0 0 160 102" fill="none" xmlns="http://www.w3.org/2000/svg">
<path d="M2.00114 26.2455H5.39901C5.98056 26.2455 6.85161 26.276 8.01217 26.3317C8.01217 26.4179 8.09852 26.5066 8.27374 26.5927L8.09851 27.6368L8.18486 28.8532C8.12645 29.9252 8.09851 30.8806 8.09851 31.7219H8.01217C8.01217 32.0412 8.53531 32.2135 9.57905 32.2439C9.57905 32.3022 9.60699 32.3301 9.6654 32.3301C9.6654 32.3605 9.63492 32.4746 9.57905 32.6773C9.63746 32.9814 9.6654 33.1562 9.6654 33.1993C9.59175 33.4882 9.50541 33.6352 9.40383 33.6352H8.96957C8.82482 33.5186 8.708 33.4603 8.62166 33.4603C8.38802 33.5186 8.27374 33.6935 8.27374 33.9824C8.33215 34.1572 8.50484 34.2434 8.79688 34.2434H9.40637L9.66794 34.4183C9.60953 34.8085 9.55112 35.0696 9.49271 35.2013L9.57905 35.6372L9.49271 36.4203C9.60953 36.6813 9.7238 36.8257 9.84062 36.8536C10.0717 36.8536 10.4501 36.101 10.9732 34.5931C10.9732 34.4639 10.6837 34.3473 10.1022 34.2459L10.0159 34.0711V33.8101C10.1022 33.4908 10.6253 33.288 11.5827 33.2019C11.8011 33.0422 11.9459 32.7812 12.0195 32.4188C11.9027 32.4188 11.8443 32.3605 11.8443 32.2439L11.6691 32.3301H11.3212C11.2348 32.3301 11.118 32.2135 10.9732 31.9829V31.8081C11.9027 29.7072 12.5122 28.6074 12.8017 28.506H17.5938L18.4648 28.7671L18.988 28.6809L19.0743 28.8557V29.0306C18.188 30.7843 17.6953 31.7118 17.5938 31.8131V31.988C17.5938 32.0742 17.7385 32.1907 18.028 32.3352L18.2032 32.249H18.5512C18.6375 32.249 18.7264 32.3352 18.8127 32.51C18.8127 32.8572 18.5512 33.1765 18.028 33.4654H17.4185C17.0986 33.4654 16.8675 33.6099 16.7227 33.8988V33.9849C16.7227 34.1294 17.0706 34.2459 17.769 34.3321V34.5931C17.4338 34.9834 17.1747 35.4471 16.9843 35.9844C16.6491 36.623 16.4459 36.9398 16.3748 36.9398H16.1132C15.9837 36.9398 15.8669 36.9119 15.7653 36.8536C15.3311 36.8536 14.9222 37.3174 14.5463 38.2449C14.3127 38.4628 13.7921 39.5044 12.9795 41.3746C13.5026 42.2438 14.1984 43.9822 15.0695 46.5899C15.2574 46.8231 15.6053 47.6923 16.1158 49.1976C16.4205 49.9502 16.7989 50.7612 17.2484 51.6304V51.7166C17.2484 51.8762 16.87 51.9928 16.1158 52.0637C16.0574 52.1803 16.0294 52.2665 16.0294 52.3248C16.3062 53.3688 16.5957 53.8883 16.9005 53.8883C18.2947 54.0049 18.9905 54.2077 18.9905 54.4965C18.9905 54.6562 19.28 55.4089 19.8616 56.757C20.2526 57.5401 20.631 58.4676 20.9942 59.5396C20.9942 59.7702 19.8031 59.8867 17.4236 59.8867H17.3373C16.6846 59.8867 15.8415 59.8563 14.8105 59.8006C14.7089 59.8589 14.5921 59.8867 14.4625 59.8867C14.173 59.8867 13.5915 58.5538 12.7204 55.8878C12.3141 54.7297 11.9662 54.1494 11.6742 54.1494C10.28 54.1494 9.58413 53.8883 9.58413 53.3663C9.52572 52.9887 9.38097 52.6137 9.14987 52.2361C9.14987 51.9902 9.43938 51.8458 10.0209 51.8027V51.8889C10.1377 51.8306 10.2241 51.8027 10.2825 51.8027V51.7166C10.0641 50.6877 9.80253 49.935 9.49779 49.4561C9.27939 48.6451 9.04829 48.2397 8.80196 48.2397C8.33723 48.9796 8.10613 49.6157 8.10613 50.153V51.1084C8.22295 51.5138 8.28136 51.747 8.28136 51.8027C8.28136 51.9193 8.22295 51.9776 8.10613 51.9776H7.41031C7.06239 51.9776 6.88717 52.1524 6.88717 52.4996V53.1078C6.65353 53.455 6.45037 53.6299 6.27768 53.6299V53.8047H6.36403C6.84399 53.8047 7.39507 53.9213 8.01979 54.1519H8.10613L8.71562 53.977L8.89084 54.2381C8.89084 54.4129 8.86037 54.6157 8.8045 54.8463C8.86291 55.7155 8.89084 56.4403 8.89084 57.0206C8.89084 57.165 8.86037 57.3982 8.8045 57.715C8.86291 57.9329 8.89084 58.1939 8.89084 58.498C8.83244 58.9035 8.8045 59.1341 8.8045 59.1924C8.92132 59.3799 8.97973 59.5244 8.97973 59.6257L8.8045 59.7119H8.28136C7.43824 59.8285 7.00398 59.8867 6.97351 59.8867C6.63829 59.8867 6.43513 59.8563 6.36403 59.8006C5.87136 59.8589 5.4625 59.8867 5.14506 59.8867H2.78585C2.58269 59.8867 2.35159 59.7702 2.09002 59.5396C2.14843 58.9592 2.17636 58.5259 2.17636 58.2345V56.757C2.17636 56.2654 2.14589 55.7434 2.09002 55.1934V54.2381C0.695827 54.1798 0 54.0075 0 53.716C0 53.5716 0.0584089 53.2827 0.175227 52.8468C0.116818 52.6162 0.088883 52.383 0.088883 52.1524C0.276807 51.9345 0.68313 51.79 1.30785 51.7166C1.42467 51.4859 1.48308 51.2832 1.48308 51.1084C1.48308 51.0501 1.4526 51.0222 1.39673 51.0222L1.48308 50.5002C1.48308 50.0947 1.4526 49.8919 1.39673 49.8919C1.45514 49.3116 1.48308 48.8783 1.48308 48.5868V45.1961C1.48308 43.4855 1.4526 41.6027 1.39673 39.5449C1.45514 39.1394 1.48308 38.5591 1.48308 37.8065L1.39673 37.2844C1.39673 36.9372 1.86146 36.7345 2.79093 36.6762C2.79093 36.6179 2.81886 36.5901 2.87727 36.5901L2.79093 36.068C2.84934 35.4598 2.87727 34.9682 2.87727 34.5906C2.71728 34.4031 2.31096 34.2865 1.6583 34.2434L1.39673 33.8962C1.57196 33.4908 1.83099 33.288 2.18144 33.288C2.23985 33.288 2.26779 33.3184 2.26779 33.3742C2.6157 33.3007 2.79093 33.2145 2.79093 33.1132V32.505C2.79093 32.3884 2.73252 32.3301 2.6157 32.3301L2.09256 32.4163C1.83099 32.3149 1.59989 32.1122 1.39673 31.8081V30.503C1.39673 30.2267 1.42467 29.9378 1.48308 29.6337C1.42467 29.4158 1.39673 29.1548 1.39673 28.8507L1.48308 27.8066L1.39673 27.3733L1.48308 26.9374C1.36626 26.7498 1.30785 26.6054 1.30785 26.504C1.59736 26.3292 1.83099 26.243 2.00368 26.243L2.00114 26.2455ZM4.78953 35.4598L4.52796 35.807V36.1542L4.96221 36.2403H5.5717C5.65804 36.2403 5.74692 36.1542 5.83327 35.9793C5.83327 35.7614 5.48535 35.5891 4.78699 35.4573L4.78953 35.4598ZM8.71054 35.1126L8.6242 35.2875V35.3736C8.63943 35.4902 8.69784 35.5485 8.79942 35.5485C8.91624 35.4902 9.00258 35.4623 9.06099 35.4623V35.2013L8.71308 35.1152L8.71054 35.1126ZM12.8042 39.5449V39.7198C12.8906 39.7198 12.9795 39.6336 13.0658 39.4587V39.3726H12.9795C12.8626 39.3878 12.8042 39.4461 12.8042 39.5474V39.5449ZM14.2848 26.2455V26.3317L14.46 26.2455H14.7216C14.78 26.2455 14.8079 26.276 14.8079 26.3317L14.9831 26.2455H15.9405C15.9989 26.2455 16.0269 26.276 16.0269 26.3317L16.2021 26.2455H17.5963C17.6547 26.2455 17.6826 26.276 17.6826 26.3317C17.7995 26.2734 17.8858 26.2455 17.9442 26.2455C18.089 26.2455 18.8432 26.276 20.2095 26.3317L20.3847 26.5927C19.9631 27.4619 19.5289 27.8978 19.0768 27.8978H13.3274C13.0937 27.7813 12.9795 27.6368 12.9795 27.4645L13.5889 26.4204C13.8073 26.3038 14.0384 26.2455 14.2848 26.2455ZM13.5889 45.0213V45.3684H13.7642V45.1936C13.7642 45.077 13.7058 45.0187 13.5889 45.0187V45.0213Z" fill="#E80D0D"/>
<path d="M27.023 24.943H33.034L33.5571 25.0291L33.7324 24.943C34.3266 25.0013 34.7913 25.0291 35.1266 25.0291H35.3018C35.5481 25.0291 35.6929 25.6095 35.736 26.7676C35.9544 27.3479 36.0992 28.1867 36.1703 29.2891C36.3455 29.2891 36.4598 29.7224 36.5182 30.5942C36.6934 30.7234 37.1861 30.8704 37.9987 31.0275C37.9987 31.3164 38.0572 31.5496 38.174 31.7219C38.174 32.0108 37.7676 32.1857 36.955 32.2439C36.8382 32.4315 36.7798 32.5785 36.7798 32.6773C36.9982 32.8521 37.2013 32.9383 37.3893 32.9383H37.9987C38.2882 33.0828 38.4355 33.3159 38.4355 33.6327C38.3492 33.8658 38.1156 33.9799 37.7397 33.9799V34.1547C38.3213 34.1547 38.6108 34.3879 38.6108 34.8491V35.4573C38.6108 35.5739 38.2324 35.66 37.4781 35.7183L37.3029 36.0655C37.3029 36.3113 37.4781 37.0639 37.8261 38.326C37.8845 39.3396 37.9124 39.9478 37.9124 40.1506C38.0724 40.1506 38.2451 40.8449 38.4355 42.2362C38.2171 42.3528 37.986 42.4111 37.7397 42.4111H34.9513C34.865 42.4111 34.7761 42.4972 34.6898 42.6721V42.9331C34.6898 43.0193 34.7761 43.108 34.9513 43.1941H37.1302C38.1765 43.1941 38.6971 43.3969 38.6971 43.8023C38.6971 45.295 38.9587 46.889 39.4818 48.5843C39.4818 48.6426 39.4513 48.6705 39.3955 48.6705L39.4818 49.1038V49.5397L39.3955 49.973C39.4818 49.973 39.5986 50.0896 39.7434 50.3202V50.4064C39.685 50.5813 39.5098 50.6674 39.2203 50.6674H38.6108C38.2756 51.0729 38.0445 51.2756 37.9149 51.2756C37.7981 51.2173 37.7118 51.1895 37.6534 51.1895L37.567 51.3643V51.5392C37.6102 51.8863 37.6965 52.0612 37.8286 52.0612C37.8286 51.975 37.9734 51.8585 38.2654 51.714H38.3517C38.6844 52.3526 39.0044 52.6694 39.3091 52.6694C40.1218 52.786 40.5281 52.9887 40.5281 53.2776C40.8176 53.6121 40.9649 53.8706 40.9649 54.0607C41.0944 54.9882 41.2112 55.6243 41.3128 55.974C41.2265 56.496 41.1097 56.757 40.9649 56.757L40.5281 56.5822C40.1497 56.757 39.7434 56.8432 39.3091 56.8432H37.2191C37.1328 56.8432 37.0439 56.9294 36.9575 57.1042C37.0439 57.3374 37.1328 57.4514 37.2191 57.4514H39.9186C39.9923 57.4514 40.3097 57.5097 40.876 57.6263L41.3103 57.5401C41.5998 57.8442 41.7471 58.0773 41.7471 58.2345C41.5591 58.3358 40.9192 58.4524 39.8297 58.5816L39.2203 58.4955L38.786 58.5816C38.4813 58.5234 38.306 58.4955 38.2629 58.4955L37.6534 58.5816C37.1455 58.5234 36.8255 58.4955 36.696 58.4955L35.6497 58.5816V58.4955L35.4745 58.5816H35.3881C35.0681 58.5816 34.837 58.4372 34.6923 58.1483L34.7786 57.3652C34.6034 56.714 34.3723 55.4393 34.0828 53.5412V53.0191C34.0828 52.976 33.9965 52.8899 33.8212 52.7581C33.7044 52.8164 33.6181 52.8443 33.5597 52.8443C33.1533 52.8443 31.9344 52.6998 29.9002 52.4084C29.0292 52.4667 28.3029 52.4946 27.7213 52.4946L27.635 52.6694C27.6934 53.0166 27.7797 53.1915 27.8966 53.1915H28.0718L28.3333 53.0166H28.5949C28.6813 53.0166 28.7701 53.1028 28.8565 53.2776L28.1607 57.0155V58.1458C28.1607 58.2902 27.9575 58.4068 27.5512 58.4929L27.376 58.4068C26.6344 58.5234 26.2002 58.5816 26.0681 58.5816C26.0376 58.5816 25.6618 58.5538 24.9355 58.4955C24.905 58.4955 24.5292 58.5259 23.8029 58.5816L23.3686 58.4955C23.2518 58.5538 23.1654 58.5816 23.107 58.5816L22.7591 58.4955L22.3249 58.5816C21.9185 58.4955 21.7154 58.3789 21.7154 58.2345L22.3249 55.4519C22.3249 55.2061 22.3833 54.5979 22.5001 53.6273V53.1053C22.5001 53.0191 22.4137 52.9304 22.2385 52.8443H21.2811C20.9764 52.8443 20.7732 52.7277 20.6716 52.4971V52.4109C20.7884 51.8458 20.8469 51.5265 20.8469 51.4555V51.3694C20.8469 51.2401 20.8189 51.1236 20.7605 51.0222C20.7605 50.7029 21.2532 50.5306 22.241 50.5002C22.3706 50.153 22.5458 49.9502 22.7642 49.892L23.2873 49.9781C23.5489 49.8615 23.6937 49.7475 23.7216 49.6309C23.7216 49.4561 23.3737 49.342 22.6753 49.2838C22.5585 49.1393 22.5001 49.0531 22.5001 49.0227V48.9366C23.0816 46.1414 23.3711 44.3142 23.3711 43.4602C23.8359 41.4177 24.067 40.3178 24.067 40.1582C24.067 40.1151 24.0365 39.9402 23.9806 39.6361L24.5038 37.1146L24.4174 36.9398C24.4174 36.3468 24.6485 35.8247 25.1132 35.3762L25.7227 35.4623H25.898C26.0427 35.4623 26.2459 34.7376 26.5074 33.288C26.449 33.1715 26.4211 33.0853 26.4211 33.027H25.55C25.4637 33.027 25.3469 32.9104 25.2021 32.6798V32.4188C25.3774 32.1299 25.5805 31.9855 25.8116 31.9855C26.1316 32.0437 26.3627 32.0716 26.5074 32.0716C26.6827 31.8106 26.769 31.6079 26.769 31.4634C26.769 31.3038 26.6243 31.1593 26.3347 31.0275C26.2332 31.0858 26.1164 31.1137 25.9868 31.1137C25.6389 30.911 25.4637 30.7665 25.4637 30.6804C26.0452 27.652 26.3347 25.8553 26.3347 25.2902C26.5811 25.0595 26.8147 24.943 27.0306 24.943H27.023ZM30.3319 36.329L30.4183 37.1983V37.2844C30.4183 37.4137 30.3878 37.5302 30.3319 37.6316C30.3319 37.6899 30.3599 37.7178 30.4183 37.7178C30.3599 38.6605 30.1847 39.7603 29.8952 41.0198L29.2857 45.7131H29.1104C28.9657 45.7131 28.8489 45.4825 28.7625 45.0187L28.8489 44.6715C28.7905 44.555 28.7625 44.4688 28.7625 44.4105H28.6762C28.5594 44.4257 28.501 44.484 28.501 44.5854V46.5849C28.501 46.7014 28.6178 46.7597 28.8489 46.7597V47.1956C28.8489 47.3122 28.7905 47.3704 28.6736 47.3704H28.4984L28.0616 47.2843L27.9753 47.4591L30.0653 47.8063C30.1085 47.8063 30.2837 47.7784 30.5884 47.7202C30.6468 47.7202 30.7332 47.7506 30.85 47.8063C31.17 47.748 31.4316 47.7202 31.6347 47.7202H32.3305C32.4474 47.7202 32.5058 47.6619 32.5058 47.5453C31.6931 42.4035 31.1979 38.8683 31.0252 36.9398C30.9516 36.9398 30.8068 36.737 30.591 36.3316H30.3294L30.3319 36.329ZM34.8624 26.5927V26.8537L35.2992 26.9399L35.3856 26.7651V26.5902L35.2104 26.3292C34.9767 26.4153 34.8624 26.504 34.8624 26.5902V26.5927ZM35.3856 29.3753L35.5608 29.4614H35.6472V29.2004H35.5608C35.444 29.2156 35.3856 29.2739 35.3856 29.3753ZM36.7798 37.0234V37.9788C36.7798 38.3995 36.8661 38.6301 37.0413 38.6732L37.1277 38.4983V37.8039C37.1861 37.5581 37.214 37.3554 37.214 37.1957C37.1125 37.1957 36.9677 37.1374 36.7798 37.0209V37.0234ZM37.7372 52.3222V52.4084H37.9124V52.3222H37.7372ZM38.5219 48.4095V48.7566H38.6082V48.4095H38.5219ZM38.5219 48.9315V49.1064H38.6082V48.9315H38.5219Z" fill="#E80D0D"/>
<path d="M55.6585 25.5943L56.268 25.6804H60.7096C60.8392 25.6804 60.956 25.7108 61.0576 25.7666C61.1591 25.7083 61.2759 25.6804 61.4055 25.6804L61.667 26.0276C61.3191 27.2009 60.9991 28.1006 60.7096 28.7214C60.476 30.0265 60.217 30.8654 59.9249 31.243C59.8665 31.3443 59.8386 31.4888 59.8386 31.6763V32.1983C60.6512 32.2414 61.0576 32.3276 61.0576 32.4594V32.6342C61.0576 32.7787 60.8544 32.8952 60.4481 32.9814C60.1281 32.9231 59.897 32.8952 59.7522 32.8952C59.2875 33.6783 58.8812 34.8643 58.5333 36.4583L56.7912 41.9346C56.6743 42.036 56.588 42.4719 56.5296 43.2397L55.8338 45.4141L55.1379 47.7607C55.0643 47.7607 54.978 47.9356 54.8764 48.2828C54.9348 49.3851 54.9932 50.0795 55.0516 50.3684L54.7037 50.6294C54.47 50.6294 54.3558 50.6015 54.3558 50.5432C53.7742 50.6015 53.34 50.6294 53.0479 50.6294H48.8679C48.5631 50.6294 48.3879 50.5432 48.3447 50.3684V48.6299C48.3447 48.4272 48.3143 48.1662 48.2584 47.8469C48.3752 47.5859 48.4895 47.4414 48.6063 47.4135H53.0479C53.1343 47.4135 53.2231 47.3274 53.3095 47.1525C53.2511 46.9219 53.0759 46.8053 52.7863 46.8053H48.9542L48.0832 46.8915C47.748 46.5595 47.5169 45.8626 47.3873 44.8059C47.1537 44.4739 46.8642 43.4577 46.5163 41.7623C46.0516 40.6625 45.6173 39.2408 45.2084 37.5024C44.8021 36.4887 44.3653 34.9809 43.9006 32.9814L44.2485 32.7204H44.9443V32.5455C44.9443 32.4289 44.858 32.3707 44.6828 32.3707L44.0733 32.4568C43.6822 32.4568 43.4206 31.9348 43.2886 30.8932C42.7807 29.7782 42.4886 28.7645 42.4175 27.8497C42.3007 27.7204 42.0696 27.1097 41.7217 26.0251V25.9389C41.7217 25.8528 41.808 25.7641 41.9832 25.6779H46.948C47.1943 25.6779 47.5143 25.7083 47.9054 25.7641C48.007 25.7058 48.1517 25.6779 48.3397 25.6779C48.6876 25.6779 48.8907 26.0251 48.9491 26.722L48.8628 27.0692L49.1244 27.6774L49.038 28.0245C49.4443 28.5162 49.678 29.1269 49.7339 29.8492C49.7923 29.8492 49.8202 29.8796 49.8202 29.9353V30.4574L49.9065 31.0656C49.5586 31.1391 49.3834 31.2252 49.3834 31.3266V31.6738C49.3834 31.7903 49.4697 31.8486 49.645 31.8486L50.2544 31.7625C50.3992 32.1096 50.6328 32.2845 50.9503 32.2845H51.5598C51.6461 32.2845 51.7629 32.4011 51.9077 32.6317V32.7178C51.9077 32.8344 51.5293 32.9206 50.7751 32.9789C50.7319 33.6732 50.5567 34.1953 50.2519 34.5425L50.1656 34.9758C50.224 35.0924 50.2519 35.1785 50.2519 35.2368H50.3383C50.6278 35.0772 50.7751 34.9327 50.7751 34.8009H50.9503C51.1814 35.1912 51.415 36.1187 51.6461 37.5835C51.7045 37.5835 51.7324 37.6418 51.7324 37.7583H51.8188C52.0956 37.7583 52.3267 36.9474 52.5146 35.3255C52.6746 35.0062 52.9362 34.1953 53.2993 32.8927L53.9088 32.7178H54.5183C54.6351 32.7178 54.6935 32.6596 54.6935 32.543C54.6935 32.4264 54.3456 32.3403 53.6472 32.282L53.5609 32.1071C54.4904 28.4427 54.9551 26.4432 54.9551 26.1087C54.9551 25.8908 55.1862 25.7184 55.6509 25.5867L55.6585 25.5943ZM48.5149 51.4099H54.5259C54.8738 51.4099 55.0491 51.5265 55.0491 51.7571C54.9322 51.9446 54.8738 52.0916 54.8738 52.1905C54.8738 52.8848 55.077 53.2345 55.4833 53.2345C56.2096 53.3638 56.7328 53.4804 57.0502 53.5817C57.1086 54.6537 57.1365 55.4367 57.1365 55.9284V58.3612C57.1365 58.8832 56.9334 59.1442 56.5271 59.1442H56.2655C56.2071 59.1442 56.1791 59.1138 56.1791 59.0581C55.9176 59.1747 55.5392 59.2329 55.0465 59.2329H54.8713C54.0002 59.2329 52.9844 59.2025 51.8213 59.1468C51.5877 59.2051 51.3871 59.2329 51.2118 59.2329L51.0366 59.1468L50.8614 59.2329C50.643 59.2329 50.4398 59.1164 50.2519 58.8858C50.3103 58.3054 50.3383 57.8721 50.3383 57.5832V55.2365C50.3383 55.0338 50.3662 54.7728 50.4246 54.4535C50.4246 53.8174 50.191 53.4981 49.7288 53.4981C48.7993 53.4981 48.3346 53.3815 48.3346 53.1509V52.1955L48.2482 51.5873L48.5098 51.4125L48.5149 51.4099ZM48.6901 28.724V29.246C48.8069 29.246 48.8653 29.1599 48.8653 28.985C48.8069 28.8684 48.779 28.7823 48.779 28.724H48.6926H48.6901ZM54.4396 52.0207C54.4396 52.1372 54.4091 52.1955 54.3532 52.1955C54.4116 52.3121 54.4396 52.3983 54.4396 52.4566C54.5564 52.4566 54.6148 52.3983 54.6148 52.2817V52.1955C54.6148 52.079 54.5564 52.0207 54.4396 52.0207ZM56.0953 41.068L56.009 41.6762L56.0953 42.1095C56.2249 42.1095 56.3417 41.8789 56.4433 41.4151C56.3569 41.1845 56.268 41.068 56.1817 41.068H56.0953ZM56.0953 42.2844V42.5454H56.1817V42.2844H56.0953ZM56.0953 54.7145V55.2365H56.2706C56.2706 55.1783 56.2985 55.0921 56.3569 54.9755L56.2706 54.5396C56.1537 54.5548 56.0953 54.6131 56.0953 54.7145ZM60.0163 28.463L60.2779 28.6378L60.3643 28.463V28.0296H60.2779C60.1484 28.0296 60.0595 28.1741 60.0163 28.463Z" fill="#E80D0D"/>
<path d="M63.7597 26.0302H71.2512C71.3096 26.0302 71.3376 26.0606 71.3376 26.1163L71.5128 26.0302H71.5991C75.3881 26.0302 77.7981 26.8132 78.8291 28.3768C79.1491 28.506 79.5554 29.3753 80.0481 30.9845C80.0481 31.4051 80.2513 31.7523 80.6576 32.0286C80.9776 31.9703 81.2087 31.9424 81.3534 31.9424C81.615 32.059 81.7597 32.1755 81.7902 32.2896V32.7255C81.7902 33.1309 81.4118 33.3337 80.6576 33.3337L80.396 33.6808C80.4544 33.914 80.6271 34.028 80.9192 34.028H81.5286C81.7039 34.028 81.7902 34.1446 81.7902 34.3752C81.7902 34.7097 81.7597 35.1709 81.7039 35.7665L81.7902 36.2023C81.7902 36.5647 81.3255 36.7675 80.396 36.8105C80.2208 36.9981 79.8729 38.0143 79.3497 39.8541C79.2634 39.8541 78.9713 40.1734 78.4787 40.8095C78.2019 40.9108 77.7676 41.1719 77.1708 41.5925V41.8536C77.8108 42.0411 78.5346 42.5048 79.3497 43.2448C79.3497 43.4197 79.2329 43.5058 79.0018 43.5058C78.8266 43.5058 78.6234 43.478 78.3923 43.4197C78.0876 43.478 77.7981 43.5058 77.5213 43.5058H77.3461C77.1124 43.5058 76.9981 43.478 76.9981 43.4197L76.3887 43.5058H74.1234C73.7755 43.5058 73.6003 43.6224 73.6003 43.853C73.6866 44.1419 73.8898 44.2864 74.2098 44.2864H79.6976C80.1624 44.6209 80.3935 44.9377 80.3935 45.2418V46.111C80.3935 46.2985 80.3071 46.5012 80.1319 46.7192V47.0664L80.5662 46.9802C80.7109 46.9802 80.8277 47.6746 80.9141 49.0658C80.8557 49.5144 80.8277 50.0085 80.8277 50.5432V50.8904C80.8277 50.9487 80.8861 51.1793 81.003 51.5848C80.7693 51.7014 80.4519 51.7597 80.0456 51.7597H79.6976L79.5224 52.3679V53.4119C79.5224 53.6451 80.0456 53.8757 81.0893 54.1063V54.1925L81.003 54.3673C81.1198 54.5549 81.1782 54.7297 81.1782 54.8894C80.8887 55.2796 80.6271 55.86 80.3935 56.6278C80.2919 56.6278 80.0024 56.9471 79.5224 57.5832C79.3345 57.8163 78.4634 57.9304 76.9093 57.9304C76.0382 57.9304 75.6014 57.8721 75.6014 57.7555L74.5551 57.9304C74.4535 57.8873 74.0472 57.829 73.3362 57.7555C72.8714 57.8721 72.3788 57.9304 71.8556 57.9304H71.0709C70.723 57.9608 70.5478 58.0469 70.5478 58.1914V58.4524L70.6341 58.6273L72.1147 58.4524C72.493 58.6273 72.7521 58.7134 72.8994 58.7134H73.4225C73.4809 58.7134 73.8288 58.6273 74.4688 58.4524L75.6014 58.7996C76.1245 58.6247 76.4725 58.5386 76.6477 58.5386H77.1708C77.2877 58.5538 77.3461 58.6121 77.3461 58.7134V58.7996C77.3461 58.9745 77.0566 59.1189 76.475 59.2329C76.4014 59.2329 76.1119 59.2025 75.604 59.1468C75.1392 59.4357 74.7608 59.5801 74.4713 59.5801C74.2961 59.5801 73.745 59.5497 72.8156 59.494C72.4676 59.537 72.2924 59.5953 72.2924 59.6688C72.1045 59.6688 71.9572 59.6384 71.8556 59.5827C70.3446 59.6409 69.1561 59.6688 68.2851 59.6688H64.8872C64.133 59.6257 63.7546 59.5092 63.7546 59.3216L63.8409 58.8858C63.8409 58.8275 63.813 58.7996 63.7546 58.7996L63.8409 58.1914V56.714L63.7546 56.1058C63.9857 55.9309 64.3361 55.8447 64.8009 55.8447C65.1335 55.8447 65.5983 55.8752 66.195 55.9309C66.3703 55.9309 66.5734 55.903 66.8045 55.8447C67.9651 55.903 68.9834 55.9309 69.8519 55.9309H72.4651C72.7851 55.9309 73.1914 55.903 73.6841 55.8447C73.7857 55.903 73.9304 55.9309 74.1209 55.9309C74.2225 55.9309 74.3951 55.8726 74.644 55.7561C74.5272 55.4089 74.2961 55.234 73.9482 55.234H71.1598C70.8551 55.234 70.5935 55.2644 70.3751 55.3202C70.0703 55.2619 69.7808 55.234 69.504 55.234H64.8009L64.2777 55.3202C63.9298 55.1757 63.7546 54.973 63.7546 54.712L63.8409 54.5371C63.7393 54.1316 63.6225 53.9289 63.493 53.9289H62.6219C62.1725 53.9289 61.8804 53.7845 61.7509 53.493V52.5376L61.6646 51.9294L62.0125 51.6684H62.7972C63.493 51.6684 63.8435 51.3491 63.8435 50.713C63.8435 50.6269 63.6098 50.3354 63.1476 49.8438V42.5429C63.206 42.368 63.3787 42.2818 63.6708 42.2818H68.5492C68.6355 42.2818 68.7244 42.1957 68.8107 42.0208V41.9347C68.7523 41.7598 68.5771 41.6736 68.2876 41.6736C68.054 41.6736 67.9397 41.704 67.9397 41.7598L67.0686 41.6736H65.5881C65.3113 41.6736 65.0218 41.704 64.717 41.7598C64.4987 41.7015 64.2371 41.6736 63.9323 41.6736H63.4092C63.234 41.6153 63.1476 41.443 63.1476 41.1516V38.3691L63.234 37.847C63.1756 37.7457 63.1476 37.6012 63.1476 37.4111V37.2363C63.1476 36.7142 63.5819 36.4532 64.4555 36.4532L64.6307 35.323C64.6307 34.512 64.5139 34.1066 64.2828 34.1066C64.2244 34.1066 64.138 34.0787 64.0212 34.0204L63.587 34.1066C63.3254 33.99 63.1806 33.876 63.1527 33.7594V33.4984C63.1527 33.3235 63.4143 33.1791 63.9374 33.065H64.5469C64.5469 33.0067 64.5748 32.9206 64.6332 32.804C64.6332 32.3403 64.3133 32.1096 63.6758 32.1096C63.5006 32.0362 63.2975 31.8638 63.0664 31.5876L63.1527 31.1517C63.1527 30.6297 63.1806 30.0519 63.239 29.4133C63.1806 28.9217 63.1527 28.5441 63.1527 28.283L63.239 27.6748C63.1806 27.3707 63.1527 27.0236 63.1527 26.6308C63.1527 26.238 63.3559 26.0226 63.7622 26.0226L63.7597 26.0302ZM69.857 44.9807L69.9434 45.1556C69.9434 45.4014 69.885 45.6345 69.7681 45.85C69.7681 45.8804 69.7961 45.9944 69.8545 46.1971C69.8545 46.3847 69.824 46.5316 69.7681 46.633C69.8266 47.1246 69.8545 47.5301 69.8545 47.8494V49.0658C69.8545 49.4434 69.824 49.8185 69.7681 50.1961L69.9434 51.5873C69.7554 51.7039 69.5802 51.7622 69.4202 51.7622H68.8107C68.7676 51.7622 68.5644 51.9649 68.2013 52.3704H67.6781L67.5918 52.7176L67.8534 52.8924C68.0844 52.7759 68.2597 52.7176 68.3765 52.7176C68.6228 53.3106 68.826 53.6603 68.986 53.7617L69.5955 53.9365H69.6818L70.2049 53.8504C70.4944 53.8504 70.6697 54.0835 70.7281 54.5447L71.1623 54.6309H71.5103C73.194 54.6309 74.0371 54.456 74.0371 54.1088C74.0371 53.934 73.7171 53.8478 73.0797 53.8478C73.0213 53.8478 72.9349 53.8782 72.8181 53.934C72.5565 53.8174 72.4118 53.7034 72.3838 53.5868L72.8181 52.2817C72.7597 52.1651 72.7318 52.079 72.7318 52.0207C73.0086 51.7318 73.4428 51.5873 74.0396 51.5873L74.126 51.4125V47.5884C74.126 46.2275 73.5444 45.3 72.3838 44.8059C72.0791 44.8059 71.528 44.7476 70.7281 44.631H70.2049C70.1465 44.631 70.0297 44.7476 69.857 44.9782V44.9807ZM69.9434 31.248V31.5952C69.9434 31.8131 70.3497 31.9576 71.1623 32.0286L71.2487 32.2034V32.6368C71.2487 33.0574 71.1623 33.288 70.9871 33.3311H70.9008C70.756 33.3311 70.6392 33.0701 70.5529 32.5481L70.3776 32.4619H70.2913L70.2049 32.8978L70.5529 33.245C70.0729 33.5921 69.6666 33.767 69.3339 33.767C69.0444 33.767 68.8996 33.9419 68.8996 34.289V34.4639C68.8996 34.6236 69.3923 34.768 70.3802 34.8998C70.7001 34.8415 70.9617 34.8136 71.1649 34.8136L71.2512 34.9885V36.4659C71.2512 36.5521 71.1649 36.6408 70.9896 36.7269H70.7281C70.5986 36.7269 70.4817 36.699 70.3802 36.6408C70.0323 36.6408 69.857 37.249 69.857 38.4654V38.7264C69.857 39.218 69.9738 39.5373 70.2049 39.6818C71.8886 39.4638 72.7318 39.2332 72.7318 38.9874C72.7318 38.8582 72.9349 38.5667 73.3412 38.1182L73.6028 37.3351C73.5444 37.2185 73.5165 37.1324 73.5165 37.0741C73.778 36.6686 74.2428 36.4659 74.9107 36.4659L75.0859 35.2495C75.0859 34.4386 74.9107 34.0331 74.5627 34.0331H74.4764L73.8669 34.1192L73.6054 33.5972C73.6054 33.5389 73.7222 33.3666 73.9533 33.0752L74.3875 33.1613H74.5627C74.6491 33.1613 74.738 33.0752 74.8243 32.9003V32.7255C74.578 32.32 74.4028 32.1172 74.3012 32.1172H73.6917C73.5317 32.1172 73.0086 31.7979 72.1248 31.1619L71.688 31.0757H71.0785C70.8754 31.0757 70.6138 31.0478 70.2938 30.9895C70.0602 31.0757 69.9459 31.1644 69.9459 31.2506L69.9434 31.248ZM78.5676 52.3704V52.5452H78.7428C78.7428 52.4287 78.6844 52.3704 78.5676 52.3704ZM79.7002 45.9387L79.7865 46.372H79.9618L79.8754 45.9387H79.7002Z" fill="#E80D0D"/>
<path d="M89.8709 24.682C92.0778 24.682 93.7615 24.8568 94.922 25.204C95.6052 25.4929 96.3594 25.9567 97.1873 26.5953C97.1873 26.7701 97.4768 27.059 98.0583 27.4645C98.2463 28.392 98.683 28.8558 99.3636 28.8558C99.9884 28.8558 100.423 29.1751 100.671 29.8111V29.8973C100.468 30.1 100.09 30.2445 99.5389 30.3332C99.5389 30.7386 99.1605 30.9414 98.4062 30.9414H96.8394C96.753 30.9414 96.6641 31.0275 96.5778 31.2024V31.4634C96.5778 31.6383 96.6946 31.7244 96.9257 31.7244C97.3752 31.7244 98.1878 31.7549 99.3636 31.8106C99.4652 31.8968 99.5516 32.2744 99.6252 32.9408L99.45 34.6793C99.5084 35.2723 99.5947 35.7665 99.7115 36.1567C99.7115 36.7953 99.4779 37.1121 99.0157 37.1121H95.1836C95.0973 37.1121 95.0084 37.1983 94.922 37.3731V37.6341L95.0973 37.8952L95.5315 37.809H96.9257C98.7846 37.809 99.7141 37.9534 99.7141 38.2423C99.6557 38.4172 99.5973 38.5034 99.5389 38.5034C99.5389 38.9519 100.004 39.2712 100.933 39.4587V39.6336L100.847 39.8085C100.964 39.996 101.022 40.143 101.022 40.2443C100.804 40.4192 100.631 40.5054 100.499 40.5054L100.151 40.4192C99.7446 40.6219 99.5414 40.8525 99.5414 41.1136C99.5414 41.1719 99.5693 41.258 99.6277 41.3746C99.5693 41.8662 99.5414 42.2742 99.5414 42.591V42.852C99.5414 43.1713 99.5693 43.5768 99.6277 44.0684C99.6277 44.1267 99.5973 44.1546 99.5414 44.1546C99.5998 44.4587 99.6277 44.6335 99.6277 44.6766C99.6277 45.0821 99.5973 45.8651 99.5414 47.0233C99.5998 47.4287 99.6277 47.6619 99.6277 47.7176C99.5693 47.9356 99.5414 48.1662 99.5414 48.412C99.5414 48.5412 99.5693 48.6578 99.6277 48.7592C99.5693 49.0785 99.5414 49.3395 99.5414 49.5422V50.5863C99.5414 51.0501 99.5109 51.6 99.4551 52.2386C99.4551 52.5731 99.775 52.7758 100.412 52.8468H101.197C101.284 52.8468 101.372 52.933 101.459 53.1078C101.124 54.2102 100.892 54.7601 100.763 54.7601C100.517 54.7601 99.5008 54.8184 97.7155 54.935C97.6571 54.935 97.6292 54.9071 97.6292 54.8488L97.1949 54.935H95.5391C95.1607 54.935 94.5817 54.9071 93.797 54.8488L93.5354 55.196C93.5354 55.2543 93.6523 55.3708 93.8834 55.5432L94.3202 55.457H94.8433C95.5848 55.457 96.3975 55.4874 97.2812 55.5432L97.7155 55.457L98.1497 55.5432L98.7592 55.457L99.2824 55.718H99.6303L99.8919 55.5432H100.153C100.329 55.6015 100.415 55.7763 100.415 56.0652C99.9071 56.5138 99.4144 56.8913 98.9345 57.1955C98.9345 57.6288 98.005 58.123 96.1461 58.6729C94.8103 58.9035 93.7361 59.0201 92.9234 59.0201H91.5292C89.4671 58.8173 88.1898 58.4701 87.6971 57.976C87.0571 57.715 86.275 56.9623 85.3455 55.7155L84.2129 52.8468H82.9076C82.4428 52.8468 82.2117 52.6719 82.2117 52.3248C82.1533 51.7748 82.1254 51.1666 82.1254 50.5002V42.9382C82.1254 42.6189 82.0949 42.2134 82.0391 41.7218C82.0975 41.6052 82.1254 41.519 82.1254 41.4607L82.0391 40.9387C82.067 40.6067 82.5038 40.404 83.3469 40.3305C83.4485 40.1861 83.5348 39.9529 83.6085 39.6361C83.5221 39.4055 83.4333 39.289 83.3469 39.289H82.7374C82.4175 39.289 82.1864 39.1445 82.0416 38.8531C82.0416 38.5338 82.2168 38.3032 82.5647 38.1587L83.1742 38.2449H83.5221C83.7101 38.2449 83.8548 38.217 83.9564 38.1587L84.3932 38.2449C85.8001 38.1866 86.7016 38.1587 87.0927 38.1587L88.2253 38.4197C88.3421 38.3615 88.4285 38.3336 88.4869 38.3336L89.2716 39.289H90.0563C90.1427 39.289 90.2315 39.3751 90.3179 39.55V40.2443C90.2874 40.3609 90.1427 40.4775 89.8836 40.5915C89.5637 40.5332 89.3021 40.5054 89.0989 40.5054C88.9237 40.6929 88.8373 40.8399 88.8373 40.9412C88.8958 41.3467 88.9237 41.5799 88.9237 41.6356C88.8653 41.8105 88.8069 41.8966 88.7485 41.8966L88.8348 42.33V43.1992C88.8348 43.3284 88.8043 43.445 88.7485 43.5464L88.8348 43.7212C88.7764 44.2129 88.7485 44.6209 88.7485 44.9376C88.8069 45.4445 88.8348 45.7359 88.8348 45.8069H88.7485L88.8348 45.9817V46.8509C88.8348 46.9092 88.8043 46.9371 88.7485 46.9371L88.8348 47.112V50.7637C88.8348 52.0967 89.2132 52.7632 89.9674 52.7632C90.0842 52.7632 90.2874 52.8215 90.5769 52.938L91.1001 52.8519H91.2753C91.7832 53.6045 92.2784 53.9821 92.7558 53.9821H93.0174C93.1469 53.9669 93.3805 53.7946 93.7132 53.4601C94.0332 53.4601 94.2364 53.3435 94.3227 53.1129V53.0267C94.3227 52.9102 94.2643 52.8519 94.1475 52.8519H92.8422C92.7558 52.8519 92.6669 52.7657 92.5806 52.5909V52.5047C92.7558 52.3602 92.8422 51.5772 92.8422 50.158V40.7715C92.8422 40.6422 93.3069 40.4674 94.2364 40.2494V39.3802C93.3374 39.3802 92.8422 39.1775 92.7558 38.772L92.8422 37.9028L92.7558 37.3807C92.8142 37.1501 92.8422 36.9474 92.8422 36.7725C92.8422 36.5115 92.8117 36.3366 92.7558 36.2505C92.8142 35.8602 92.8422 35.5409 92.8422 35.2951V33.2095C92.8422 32.9637 92.8117 32.6443 92.7558 32.2541C92.8142 32.1375 92.8422 32.0513 92.8422 31.9931C92.8422 31.4279 92.639 30.9642 92.2327 30.6018V30.4269C92.2327 30.3687 92.4358 30.1963 92.8422 29.9049L92.2327 29.73C91.9127 29.73 91.448 29.9049 90.8385 30.2521C90.7801 30.2521 90.7521 30.2242 90.7521 30.1659C89.5916 30.1659 89.01 30.8324 89.01 32.1654L88.7485 33.0346C88.7485 33.4401 88.7764 34.0787 88.8348 34.9479C88.7764 35.6423 88.6596 35.992 88.4869 35.992H88.3117L88.1364 35.9058L88.0501 36.0807V36.2555L88.1364 36.4304L88.3117 36.3442H88.4869C88.7764 36.4887 88.9212 36.7218 88.9212 37.0386C88.9212 37.3858 88.078 37.5607 86.3943 37.5607H82.387L82.0391 37.2996L82.1254 36.8638C82.1254 36.7472 82.0949 36.6889 82.0391 36.6889L82.1254 36.0807V32.3428C82.2549 30.8932 82.4886 30.1685 82.8212 30.1685C83.6339 30.1685 84.0402 29.9074 84.0402 29.3854V29.2992C84.0402 29.2131 83.7202 29.0965 83.0828 28.9521L82.9965 28.7772C82.9965 28.5466 83.4891 27.7914 84.477 26.5167C84.6218 26.5167 85.0001 26.2278 85.6096 25.6475C86.7854 25.0089 88.2075 24.6921 89.8785 24.6921L89.8709 24.682ZM88.1288 42.5885C88.1288 42.6467 88.0984 42.7329 88.0425 42.8495C88.1009 43.1257 88.1288 43.5008 88.1288 43.9797H88.2152C88.2152 43.8353 88.2431 43.3994 88.3015 42.6746L88.1263 42.5885H88.1288ZM88.1288 31.2886V31.3747C88.1441 31.4913 88.2025 31.5496 88.3041 31.5496H88.3904C88.5072 31.5496 88.5656 31.4913 88.5656 31.3747V31.1137H88.3041C88.1872 31.1289 88.1288 31.1872 88.1288 31.2886Z" fill="#E80D0D"/>
<path d="M101.52 25.5943C101.578 25.5943 101.606 25.6247 101.606 25.6804L101.781 25.5943H104.656C105.527 25.5943 106.223 25.6526 106.746 25.7691C106.832 25.7108 107.008 25.683 107.269 25.683L107.703 25.944C107.673 26.466 107.617 26.727 107.528 26.727L107.615 26.9019V27.5963C107.615 27.7255 107.584 27.8421 107.528 27.9434C107.645 28.2323 107.703 28.4351 107.703 28.5517C107.645 28.7696 107.617 29.0002 107.617 29.246C107.848 29.3626 107.965 29.4488 107.965 29.507L108.14 29.4209C108.722 29.4944 109.011 29.6084 109.011 29.7681V30.3763C109.011 30.4624 108.895 30.579 108.663 30.7234C108.3 30.7234 107.312 30.7817 105.702 30.8983C105.05 30.84 104.44 30.8121 103.874 30.8121C103.148 30.8704 102.713 30.8983 102.569 30.8983C102.381 30.6677 102.205 30.2597 102.045 29.6819C101.929 29.6236 101.842 29.5957 101.784 29.5957L101.261 29.6819C100.971 29.4209 100.826 28.871 100.826 28.0296C100.826 27.9865 100.854 27.8117 100.913 27.5076C100.854 26.8132 100.826 26.2912 100.826 25.944C101.073 25.7134 101.306 25.5968 101.522 25.5968L101.52 25.5943ZM101.345 30.5486C101.505 30.5486 101.619 30.8375 101.692 31.4178L101.868 31.504H105.7C105.786 31.504 106.251 31.5623 107.094 31.6788H107.442C107.528 31.6788 107.617 31.765 107.703 31.9398C107.703 32.3453 107.645 32.548 107.528 32.548L107.615 32.9814V36.0249L107.701 36.547L107.439 36.9803L106.83 36.8942C106.279 37.069 105.842 37.1552 105.522 37.1552H103.605C103.402 37.1552 103.14 37.1273 102.82 37.069C102.703 37.1273 102.617 37.1552 102.558 37.1552C102.051 37.0969 101.731 37.069 101.601 37.069L101.167 37.1552C100.933 36.9094 100.819 36.6762 100.819 36.4608V35.5916C100.819 35.4167 100.847 35.3306 100.905 35.3306L100.819 34.8972V32.8116C100.819 32.5658 100.847 32.2465 100.905 31.8562C100.847 31.7549 100.819 31.6104 100.819 31.4229C100.819 31.0453 100.994 30.7564 101.342 30.5537L101.345 30.5486ZM101.169 37.6772L101.692 37.7634C101.896 37.7634 102.157 37.7355 102.477 37.6772C103.419 37.7355 104.262 37.7634 105.004 37.7634L105.789 37.6772C106.949 37.8952 107.531 38.0396 107.531 38.1106C107.589 38.1106 107.648 38.1967 107.706 38.3716C107.648 38.7771 107.62 39.1242 107.62 39.4157C107.62 39.7198 108.054 39.9225 108.925 40.0239V40.1987L108.839 40.3736C108.897 40.475 108.925 40.5915 108.925 40.7208V40.8069C108.925 40.9666 108.547 41.0832 107.792 41.1541C107.676 41.3416 107.617 41.5165 107.617 41.6762C107.617 41.851 107.645 41.9372 107.703 41.9372L107.617 42.8064V52.5427C107.617 53.0217 108.082 53.3688 109.011 53.5868L109.098 53.7616V53.8478C109.098 53.9061 109.067 53.934 109.011 53.934C109.07 54.0505 109.098 54.1367 109.098 54.195H109.184C109.301 54.195 109.359 54.1367 109.359 54.0201V53.934L109.273 53.7591L109.448 53.6729C109.534 54.0784 109.679 54.2811 109.882 54.2811L110.492 54.195L111.363 54.3698C112.379 54.3116 113.019 54.2837 113.28 54.2837C113.745 54.2837 114.354 54.3141 115.109 54.3698L116.328 54.2837C117.097 54.342 117.735 54.3698 118.245 54.3698L118.331 54.5447C118.331 55.5736 118.273 56.2401 118.156 56.5442C118.273 56.8635 118.359 57.4717 118.418 58.3688C118.418 58.8908 118.128 59.1518 117.547 59.1518C117.156 59.2101 116.546 59.238 115.718 59.238H110.406C110.276 59.238 110.159 59.2076 110.058 59.1518C109.956 59.2101 109.839 59.238 109.71 59.238H109.534C109.347 59.238 109.199 59.2076 109.1 59.1518L108.577 59.238C107.952 59.238 107.284 59.1797 106.573 59.0631C105.702 59.1797 105.062 59.238 104.656 59.238C104.598 59.238 104.57 59.2076 104.57 59.1518L104.135 59.238H103.526C103.221 59.238 103.018 59.0936 102.916 58.8047C102.975 58.0216 103.003 57.4438 103.003 57.0662V54.0252C103.003 53.6932 102.828 53.4905 102.48 53.417L102.045 53.5032C101.233 53.417 100.826 53.3004 100.826 53.156V45.7663C100.826 44.854 100.854 43.3462 100.913 41.2453C100.999 41.2453 101.116 41.1288 101.261 40.8982L101.698 40.9843H102.045C102.162 40.9843 102.221 40.926 102.221 40.8095V40.1151C102.221 39.9402 101.842 39.8262 101.088 39.7679C100.913 39.55 100.826 39.3194 100.826 39.0736C100.826 38.364 100.943 37.9002 101.174 37.6823L101.169 37.6772ZM106.571 32.6367L106.657 33.0726C107.005 33.0726 107.18 32.8978 107.18 32.5506L107.005 32.4644H106.744C106.627 32.4796 106.568 32.5379 106.568 32.6393L106.571 32.6367ZM106.657 27.0742V27.1604C106.672 27.277 106.731 27.3352 106.832 27.3352L106.919 27.1604V26.8994H106.832C106.716 26.9146 106.657 26.9729 106.657 27.0742ZM117.458 55.8447V56.1919C117.473 56.3085 117.531 56.3668 117.633 56.3668V55.8447H117.458ZM117.458 56.8001V56.975H117.633V56.6278C117.516 56.643 117.458 56.7013 117.458 56.8027V56.8001Z" fill="#E80D0D"/>
<path d="M124.451 24.943H130.463L130.986 25.0291L131.161 24.943C131.755 25.0013 132.22 25.0291 132.555 25.0291H132.73C132.977 25.0291 133.121 25.6095 133.167 26.7676C133.386 27.3479 133.53 28.1867 133.601 29.2891C133.777 29.2891 133.891 29.7224 133.949 30.5942C134.125 30.7234 134.617 30.8704 135.43 31.0275C135.43 31.3164 135.488 31.5496 135.605 31.7219C135.605 32.0108 135.199 32.1857 134.386 32.2439C134.269 32.4315 134.211 32.5785 134.211 32.6773C134.429 32.8521 134.632 32.9383 134.82 32.9383H135.43C135.719 33.0828 135.864 33.3159 135.864 33.6327C135.778 33.8658 135.544 33.9799 135.168 33.9799V34.1547C135.75 34.1547 136.039 34.3879 136.039 34.8491V35.4573C136.039 35.5739 135.661 35.66 134.907 35.7183L134.731 36.0655C134.731 36.3113 134.907 37.0639 135.255 38.326C135.313 39.3396 135.341 39.9478 135.341 40.1506C135.501 40.1506 135.674 40.8449 135.864 42.2362C135.646 42.3528 135.415 42.4111 135.168 42.4111H132.38C132.294 42.4111 132.205 42.4972 132.118 42.6721V42.9331C132.118 43.0193 132.205 43.108 132.38 43.1941H134.559C135.605 43.1941 136.126 43.3969 136.126 43.8023C136.126 45.295 136.387 46.889 136.91 48.5843C136.91 48.6426 136.88 48.6705 136.824 48.6705L136.91 49.1038V49.5397L136.824 49.973C136.91 49.973 137.027 50.0896 137.172 50.3202V50.4064C137.114 50.5813 136.938 50.6674 136.649 50.6674H136.039C135.704 51.0729 135.473 51.2756 135.343 51.2756C135.227 51.2173 135.14 51.1895 135.082 51.1895L134.996 51.3643V51.5392C135.039 51.8863 135.125 52.0612 135.257 52.0612C135.257 51.975 135.402 51.8585 135.691 51.714H135.778C136.11 52.3526 136.43 52.6694 136.735 52.6694C137.548 52.786 137.954 52.9887 137.954 53.2776C138.244 53.6121 138.388 53.8706 138.388 54.0607C138.518 54.9882 138.635 55.6243 138.736 55.974C138.65 56.496 138.533 56.757 138.388 56.757L137.954 56.5822C137.576 56.757 137.169 56.8432 136.735 56.8432H134.645C134.559 56.8432 134.47 56.9294 134.384 57.1042C134.47 57.3374 134.559 57.4514 134.645 57.4514H137.345C137.418 57.4514 137.736 57.5097 138.302 57.6263L138.736 57.5401C139.026 57.8442 139.171 58.0773 139.171 58.2345C138.983 58.3358 138.343 58.4524 137.253 58.5816L136.644 58.4955L136.209 58.5816C135.905 58.5234 135.729 58.4955 135.686 58.4955L135.077 58.5816C134.569 58.5234 134.249 58.4955 134.119 58.4955L133.073 58.5816V58.4955L132.898 58.5816H132.812C132.492 58.5816 132.261 58.4372 132.116 58.1483L132.202 57.3652C132.027 56.714 131.796 55.4393 131.506 53.5412V53.0191C131.506 52.976 131.42 52.8899 131.245 52.7581C131.128 52.8164 131.042 52.8443 130.983 52.8443C130.577 52.8443 129.358 52.6998 127.324 52.4084C126.453 52.4667 125.726 52.4946 125.145 52.4946L125.058 52.6694C125.117 53.0166 125.203 53.1915 125.32 53.1915H125.495L125.757 53.0166H126.018C126.105 53.0166 126.194 53.1028 126.28 53.2776L125.584 57.0155V58.1458C125.584 58.2902 125.381 58.4068 124.975 58.4929L124.799 58.4068C124.058 58.5234 123.624 58.5816 123.492 58.5816C123.461 58.5816 123.085 58.5538 122.359 58.4955C122.328 58.4955 121.953 58.5259 121.226 58.5816L120.792 58.4955C120.675 58.5538 120.589 58.5816 120.53 58.5816L120.183 58.4955L119.748 58.5816C119.342 58.4955 119.139 58.3789 119.139 58.2345L119.748 55.4519C119.748 55.2061 119.807 54.5979 119.924 53.6273V53.1053C119.924 53.0191 119.837 52.9304 119.662 52.8443H118.705C118.4 52.8443 118.197 52.7277 118.095 52.4971V52.4109C118.212 51.8458 118.27 51.5265 118.27 51.4555V51.3694C118.27 51.2401 118.242 51.1236 118.184 51.0222C118.184 50.7029 118.677 50.5306 119.665 50.5002C119.794 50.153 119.969 49.9502 120.188 49.892L120.711 49.9781C120.972 49.8615 121.117 49.7475 121.145 49.6309C121.145 49.4561 120.797 49.342 120.099 49.2838C119.982 49.1393 119.924 49.0531 119.924 49.0227V48.9366C120.505 46.1414 120.795 44.3142 120.795 43.4602C121.259 41.4177 121.49 40.3178 121.49 40.1582C121.49 40.1151 121.46 39.9402 121.404 39.6361L121.927 37.1146L121.841 36.9398C121.841 36.3468 122.072 35.8247 122.537 35.3762L123.146 35.4623H123.321C123.466 35.4623 123.669 34.7376 123.931 33.288C123.872 33.1715 123.845 33.0853 123.845 33.027H122.973C122.887 33.027 122.77 32.9104 122.626 32.6798V32.4188C122.801 32.1299 123.004 31.9855 123.235 31.9855C123.555 32.0437 123.786 32.0716 123.931 32.0716C124.106 31.8106 124.192 31.6079 124.192 31.4634C124.192 31.3038 124.048 31.1593 123.758 31.0275C123.657 31.0858 123.54 31.1137 123.41 31.1137C123.062 30.911 122.887 30.7665 122.887 30.6804C123.469 27.652 123.758 25.8553 123.758 25.2902C124.005 25.0595 124.238 24.943 124.454 24.943H124.451ZM127.76 36.329L127.847 37.1983V37.2844C127.847 37.4137 127.816 37.5302 127.76 37.6316C127.76 37.6899 127.788 37.7178 127.847 37.7178C127.788 38.6605 127.613 39.7603 127.324 41.0198L126.714 45.7131H126.539C126.394 45.7131 126.277 45.4825 126.191 45.0187L126.277 44.6715C126.219 44.555 126.191 44.4688 126.191 44.4105H126.105C125.988 44.4257 125.929 44.484 125.929 44.5854V46.5849C125.929 46.7014 126.046 46.7597 126.277 46.7597V47.1956C126.277 47.3122 126.219 47.3704 126.102 47.3704H125.927L125.493 47.2843L125.406 47.4591L127.496 47.8063C127.54 47.8063 127.715 47.7784 128.02 47.7202C128.078 47.7202 128.164 47.7506 128.281 47.8063C128.601 47.748 128.863 47.7202 129.066 47.7202H129.762C129.878 47.7202 129.937 47.6619 129.937 47.5453C129.124 42.4035 128.629 38.8683 128.456 36.9398C128.383 36.9398 128.238 36.737 128.02 36.3316H127.758L127.76 36.329ZM132.291 26.5927V26.8537L132.725 26.9399L132.812 26.7651V26.5902L132.636 26.3292C132.403 26.4153 132.288 26.504 132.288 26.5902L132.291 26.5927ZM132.814 29.3753L132.989 29.4614H133.076V29.2004H132.989C132.873 29.2156 132.814 29.2739 132.814 29.3753ZM134.208 37.0234V37.9788C134.208 38.3995 134.295 38.6301 134.47 38.6732L134.556 38.4983V37.8039C134.615 37.5581 134.643 37.3554 134.643 37.1957C134.541 37.1957 134.396 37.1374 134.206 37.0209L134.208 37.0234ZM135.166 52.3222V52.4084H135.341V52.3222H135.166ZM135.95 48.4095V48.7566H136.037V48.4095H135.95ZM135.95 48.9315V49.1064H136.037V48.9315H135.95Z" fill="#E80D0D"/>
<path d="M140.283 26.6814H144.552C146.875 26.6814 148.036 26.9703 148.036 27.5506C148.036 28.4782 148.211 29.2029 148.559 29.725C148.559 30.3636 149.082 30.6804 150.126 30.6804C150.301 31.0706 150.388 31.3899 150.388 31.6357V31.7219C150.388 31.8385 150.329 31.8968 150.212 31.8968C149.892 31.8385 149.661 31.8106 149.516 31.8106C149.341 32.0564 149.255 32.2896 149.255 32.505C149.43 32.9687 149.516 33.2576 149.516 33.3742L149.43 33.549C150.068 35.3179 150.388 36.4456 150.388 36.9398C150.852 38.1131 151.142 39.1572 151.259 40.0695L151.434 40.1556H151.609L151.695 39.7223V39.6361C151.695 38.6656 151.637 37.7685 151.52 36.9423C151.579 35.6245 151.606 34.3777 151.606 33.2044V32.1603C151.606 31.9576 152.099 31.7549 153.087 31.5521V31.3773C153.044 30.9135 152.841 30.6829 152.478 30.6829L152.302 30.7691C152.173 30.7691 151.911 30.5942 151.518 30.247L151.604 29.6388V27.9004L151.69 27.3783C151.632 27.277 151.604 27.1325 151.604 26.9424C151.822 26.7676 152.084 26.6814 152.389 26.6814L152.998 26.7676C153.217 26.7093 153.478 26.6814 153.783 26.6814V26.7676L153.958 26.6814H154.133C154.496 26.6814 154.931 26.7118 155.439 26.7676L155.875 26.6814C156.746 26.798 157.181 26.8842 157.181 26.9424L157.356 26.8563H157.618C157.704 26.8563 157.821 26.9729 157.965 27.2035V27.5506C157.732 27.8117 157.618 27.9561 157.618 27.9865L157.965 28.5947L157.879 29.0306L157.965 29.5527L157.531 29.8137L157.097 29.7275C155.995 29.872 155.441 30.0164 155.441 30.1634V30.3382C155.456 30.4548 155.515 30.5131 155.616 30.5131H156.051C156.66 30.5131 157.59 30.5435 158.839 30.5993C159.129 30.9895 159.273 31.3088 159.273 31.5547C158.984 31.7878 158.809 31.9018 158.75 31.9018C158.633 31.8435 158.547 31.8157 158.489 31.8157C158.024 31.9018 157.793 32.3377 157.793 33.1208C157.793 33.397 157.821 33.6859 157.879 33.99C157.821 34.4816 157.793 34.8871 157.793 35.2064C157.793 35.4953 157.821 35.9312 157.879 36.5115C157.821 36.8308 157.793 37.0614 157.793 37.2059C157.851 37.51 157.879 37.6848 157.879 37.7279L157.793 38.3361C157.851 38.8429 157.879 39.1623 157.879 39.2915L157.793 40.0746C157.793 40.7132 158.227 41.0299 159.098 41.0299C159.156 41.1313 159.215 41.4202 159.273 41.8992C159.172 42.0005 158.735 42.145 157.965 42.3325L157.879 42.5074V43.0294C157.879 43.3639 157.849 43.5667 157.793 43.6376C157.851 43.9569 157.879 44.1875 157.879 44.332C157.879 45.0415 157.849 45.9108 157.793 46.9396C157.851 47.6213 157.879 48.113 157.879 48.4171C157.821 49.1418 157.793 49.5752 157.793 49.7222C157.851 50.1124 157.879 50.4317 157.879 50.6776C157.821 50.7941 157.793 50.8803 157.793 50.9386C157.851 51.0399 157.879 51.1844 157.879 51.3745C157.849 51.491 157.704 51.6076 157.445 51.7216C157.125 51.6633 156.894 51.6355 156.749 51.6355C156.515 51.6507 156.401 51.709 156.401 51.8103L155.792 51.7242H155.268C154.921 51.7242 154.745 51.899 154.745 52.2462C154.964 52.4211 155.167 52.5072 155.355 52.5072C155.66 52.5072 155.921 52.4794 156.14 52.4211C156.518 52.4794 156.894 52.5072 157.272 52.5072H157.62C157.706 52.5072 157.795 52.5934 157.882 52.7682C157.882 52.8975 157.851 53.2168 157.795 53.7236C157.795 54.2457 158.23 54.5067 159.101 54.5067C159.682 54.5067 159.972 54.5929 159.972 54.7677V54.8539C159.972 55.0566 159.332 55.1732 158.054 55.2011C157.996 55.2011 157.91 55.1732 157.793 55.1149C157.402 55.1732 157.082 55.2011 156.835 55.2011H155.789C155.703 55.2011 155.614 55.2872 155.528 55.4621V55.5482C155.586 55.7231 155.759 55.8093 156.051 55.8093H157.879C158.575 55.8245 158.925 55.8828 158.925 55.9841L159.101 55.898H159.449C159.609 55.898 159.781 55.9562 159.972 56.0728C159.855 56.6962 159.796 57.1017 159.796 57.2892C159.855 58.6501 159.883 59.5776 159.883 60.0718C159.766 60.087 159.708 60.1452 159.708 60.2466C158.458 60.3049 157.529 60.3328 156.919 60.3328H154.306C154.176 60.3328 154.06 60.3024 153.958 60.2466C153.857 60.3049 153.74 60.3328 153.61 60.3328C153.029 60.3328 152.739 59.9856 152.739 59.2887C152.564 58.868 152.478 58.607 152.478 58.5056V58.4195C152.478 58.2598 152.825 58.1154 153.524 57.9836L153.61 57.8087V57.7226C153.61 57.6364 153.524 57.5477 153.349 57.4615H152.739C152.201 57.4615 151.883 56.8812 151.782 55.7231C151.579 55.0414 151.403 54.6663 151.259 54.5929C151.2 54.5929 151.172 54.6233 151.172 54.679C149.836 54.679 149.169 54.3597 149.169 53.7236C149.052 52.971 148.529 51.0577 147.602 47.9863C146.906 45.6396 146.555 44.1901 146.555 43.6401C146.555 43.3082 146.352 42.8723 145.946 42.335L145.684 42.7709C145.801 43.3208 145.86 43.668 145.86 43.815C145.801 45.2215 145.773 46.2934 145.773 47.0309H145.687C145.745 47.3781 145.804 47.5529 145.862 47.5529L145.776 47.9863V48.5945C145.776 48.9138 145.804 49.3192 145.862 49.8109L145.428 51.116C145.138 51.2173 144.994 51.4505 144.994 51.8103L145.08 52.1575H145.255L145.517 51.9827H145.692C145.821 51.9827 145.91 52.1271 145.954 52.416L145.867 53.1991C145.867 54.01 146.129 54.4155 146.652 54.4155C147.058 54.4585 147.261 54.5168 147.261 54.5903L147.437 54.5042H147.612L147.96 54.7652L147.873 55.6344V56.6785C147.873 56.8077 147.901 56.9243 147.96 57.0257C147.843 57.2588 147.785 57.459 147.785 57.6339C147.785 57.7783 147.843 58.5614 147.96 59.9805L147.612 60.2415H147.525C147.19 60.2415 146.728 60.2694 146.131 60.3277C146.073 60.3277 146.045 60.2973 146.045 60.2415L145.611 60.3277H144.392C144.262 60.3277 144.145 60.2973 144.044 60.2415C143.942 60.2998 143.825 60.3277 143.696 60.3277L142.825 60.2415C142.505 60.2998 142.274 60.3277 142.129 60.3277C141.867 60.2111 141.723 60.0946 141.695 59.9805V58.6754C141.695 58.1255 141.664 57.5756 141.608 57.0231C141.667 56.6329 141.725 55.8777 141.784 54.7626C141.55 54.6461 141.436 54.5599 141.436 54.5016L140.565 54.5878H140.389C139.94 54.5878 139.678 54.4712 139.605 54.2406V50.4165C139.605 49.1114 139.633 47.5783 139.691 45.8094C139.633 45.4318 139.605 45.0567 139.605 44.6792C139.663 43.9848 139.691 43.2017 139.691 42.3325C140.562 42.0715 140.996 41.8105 140.996 41.5494V41.0274C140.125 41.0274 139.691 40.7968 139.691 40.333L139.605 39.9859C139.663 39.6083 139.691 39.2332 139.691 38.8556C139.691 38.7973 139.661 38.7112 139.605 38.5946C139.605 38.5363 139.633 38.5084 139.691 38.5084C139.633 37.7254 139.605 37.1476 139.605 36.77C139.605 35.8856 139.633 34.5247 139.691 32.6849C139.633 32.5683 139.605 32.4822 139.605 32.4239C139.605 32.0184 140.069 31.7295 140.999 31.5547C141.057 31.3519 141.085 31.2353 141.085 31.2075C141.07 31.0782 140.897 30.8755 140.562 30.5993L140.214 30.7741C139.953 30.6728 139.749 30.4979 139.605 30.2521L139.691 29.73L139.605 29.1218L139.691 28.6885L139.605 28.2526C139.663 27.7458 139.691 27.4265 139.691 27.2972C139.633 27.1807 139.605 27.0945 139.605 27.0362C139.851 26.8056 140.085 26.689 140.301 26.689L140.283 26.6814ZM142.81 55.974V56.235C142.926 56.4681 143.099 56.5822 143.333 56.5822C143.579 56.5822 143.899 56.5543 144.29 56.496C144.9 56.5543 145.568 56.5822 146.294 56.5822C146.555 56.4656 146.7 56.3516 146.728 56.235V55.974C146.322 55.8574 145.974 55.7991 145.682 55.7991H142.982C142.865 55.8143 142.807 55.8726 142.807 55.974H142.81ZM156.922 47.0207V47.1956H157.008V47.0207H156.922Z" fill="#E80D0D"/>
<path d="M14.854 3.97358C14.2877 4.00906 13.6884 3.819 13.1729 4.04201C13.2237 4.60713 13.3278 5.08609 13.3278 5.54984C13.3455 8.51229 13.3608 11.457 13.3455 14.4195C13.3278 15.2253 13.5005 16.0793 13.1221 16.903C13.8077 17.0905 16.04 17.0398 16.4691 16.8523C16.4361 16.4417 16.365 16.0312 16.365 15.6207C16.3473 13.8569 16.3295 12.0753 16.365 10.3116C16.3828 8.2386 16.2279 6.16818 16.5199 4.08002C15.9714 3.87475 15.4051 3.94317 14.8566 3.97612L14.854 3.97358Z" fill="white"/>
<path d="M26.6424 8.99126C25.8196 8.49456 24.9943 7.98012 24.2223 7.415C23.8617 7.14131 23.5188 6.81694 23.2776 6.4216C22.7621 5.58279 23.1227 4.79466 24.0852 4.58939C25.3549 4.3157 26.4875 4.64008 27.5008 5.37752C27.8792 5.63347 28.222 5.9249 28.6512 6.25181C28.7198 6.01107 28.7706 5.85902 28.7706 5.72217C28.7883 5.413 28.7706 5.1241 28.7706 4.81494C28.7528 4.24981 28.702 4.19913 28.1535 4.06228C26.5053 3.63401 24.8242 3.49716 23.1252 3.66949C22.884 3.68723 22.663 3.73791 22.4218 3.78859C19.5724 4.28529 19.4201 6.92084 20.2759 8.51483C20.7559 9.37139 21.4949 10.0049 22.2999 10.5523C23.0033 11.049 23.7245 11.4773 24.4102 11.9917C25.1822 12.5568 25.8679 13.2081 26.1955 14.1331C26.4012 14.7312 26.2641 15.1442 25.7663 15.5193C25.2863 15.8614 24.7378 16.0337 24.1537 16.0337C22.3684 16.0692 20.7381 15.537 19.349 14.4068C19.2118 14.2877 19.0747 14.2015 18.8512 14.0647C18.7141 15.1088 18.9553 15.6561 19.7781 16.1376C21.2206 17.0119 22.8154 17.3363 24.4966 17.354C26.1599 17.387 27.4983 16.685 28.6157 15.5041C29.6797 14.3561 29.8346 12.491 28.9255 11.2416C28.3084 10.3673 27.5694 9.58172 26.6424 8.99886V8.99126Z" fill="white"/>
<path d="M30.8302 4.0927C30.9165 4.5894 30.9673 5.10383 31.2416 5.42821C32.5799 5.41047 33.7988 5.37752 35.0153 5.37752C35.513 5.37752 35.6324 5.51437 35.6324 6.02881C35.6324 7.32884 35.6146 8.64915 35.6146 9.96692C35.6146 12.2781 35.7187 14.5893 35.546 16.9689H38.7204V14.5031C38.7026 12.8939 38.6849 11.2847 38.6849 9.65775C38.6849 8.45908 38.6849 7.26042 38.7027 6.04401C38.7027 5.42821 38.789 5.37752 39.4061 5.37752C40.6073 5.37752 41.8085 5.41047 43.0605 5.42821C43.317 5.06836 43.4211 4.60713 43.4541 4.11044C42.9056 3.93811 31.5285 3.92291 30.8251 4.0927H30.8302Z" fill="white"/>
<path d="M55.2272 13.8189C54.4729 11.9537 53.7162 10.1038 52.9441 8.23607C52.4464 7.0374 51.9664 5.83874 51.4509 4.65781C51.3468 4.4348 51.0903 4.16111 50.8668 4.09269C50.0948 3.88742 49.3228 3.88742 48.6524 4.00653C48.4289 4.8124 48.2918 5.51436 48.0353 6.18085C47.1769 8.49202 46.2855 10.8032 45.3916 13.1144C44.9802 14.1939 44.6374 15.3064 43.9162 16.2466C43.7613 16.4519 43.6064 16.6571 43.454 16.8447C43.5225 16.9131 43.5581 16.9638 43.5733 16.9638C44.2768 16.9815 44.9802 16.9993 45.6659 16.9638C45.77 16.9638 45.9071 16.7915 45.9579 16.6723C46.2322 15.9704 46.4887 15.2684 46.73 14.5664C47.4842 12.4935 48.241 10.4231 48.9774 8.3349C49.0638 8.12963 49.1323 7.9421 49.4574 7.85594C49.6301 8.26648 49.7825 8.67702 49.9551 9.07235C50.2802 9.87822 50.6078 10.6993 50.9329 11.5026C51.1893 12.1362 51.1386 12.2223 50.6078 12.6658C49.8866 13.2639 49.1146 13.7276 48.1546 13.8138C48.1038 13.8315 48.0505 13.8822 47.9819 13.9177C48.5305 14.7388 49.4752 15.0302 50.4021 14.6703C50.6941 14.5512 51.0014 14.4144 51.2935 14.2775C51.809 14.0368 51.9283 14.0723 52.1163 14.6019C52.3728 15.2684 52.647 15.9374 52.9061 16.6217C52.9924 16.8447 53.1118 16.9993 53.3682 16.9993C54.2596 16.9993 55.1688 17.017 56.0627 17.017C56.1668 17.017 56.2684 16.9486 56.3877 16.8979C56.3547 16.7433 56.3547 16.6065 56.3014 16.5051C55.9408 15.5979 55.5979 14.7084 55.2196 13.8163L55.2272 13.8189Z" fill="white"/>
<path d="M70.0859 4.04201C70.0859 5.3091 70.1037 6.54071 70.0859 7.75711C70.0682 8.97352 70.2053 10.1874 69.9818 11.4722C69.7583 11.3531 69.6034 11.3176 69.5196 11.2163C68.7654 10.4788 68.0442 9.72617 67.3052 8.97352C65.7942 7.45048 64.2857 5.9249 62.7925 4.38412C62.4674 4.05975 62.1068 3.93811 61.6776 3.93811C61.0935 3.95585 60.5272 3.95585 59.9609 3.95585H58.5718C58.5896 4.17886 58.5896 4.29796 58.6073 4.43481C58.6581 4.86308 58.7622 5.29136 58.7622 5.71964V13.4768C58.7445 14.607 58.7292 15.7372 58.7292 16.9536C59.1914 16.9714 59.7425 17.0575 60.2733 16.9359C60.2733 15.276 60.2555 13.6491 60.2733 12.0399C60.3088 10.4307 60.2047 8.83921 60.3774 7.05768C60.6694 7.28069 60.8751 7.3998 61.0122 7.55438C62.0408 8.59846 63.054 9.67802 64.0673 10.7398C65.0628 11.7839 66.0405 12.828 67.0538 13.8721C67.9451 14.8148 68.839 15.7372 69.7482 16.6622C69.9031 16.8168 70.1418 16.9714 70.3475 16.9866C70.7767 17.0373 71.2236 16.9866 71.635 16.9688V13.8366C71.635 11.3886 71.6173 8.94058 71.635 6.49003C71.6528 5.75258 71.7392 5.01767 71.79 4.28022C71.8077 4.2118 71.7722 4.14338 71.7544 4.05722C71.1881 3.86969 70.604 3.92037 70.091 4.03948L70.0859 4.04201Z" fill="white"/>
<path d="M85.1859 9.26495C85.1351 9.22947 85.1351 9.14584 85.0818 9.05968C85.2012 8.9051 85.3053 8.75051 85.4424 8.61367C86.5928 7.415 86.2652 5.34458 84.8075 4.55645C83.9847 4.09523 83.0756 3.94064 82.1487 3.94064C81.2217 3.95838 80.2948 3.97612 79.3857 3.97612C77.8416 3.95838 76.3154 3.95838 74.7866 3.95838C74.5987 3.95838 74.426 4.00907 74.3066 4.02681C74.3574 4.60967 74.4108 5.10636 74.4108 5.60306C74.4285 7.19453 74.4463 8.80373 74.4108 10.3977C74.393 12.5543 74.5301 14.7134 74.3422 16.9739C74.5149 16.9739 74.685 16.9917 74.8577 16.9917C76.384 17.0094 77.928 17.0094 79.4568 16.9917C80.7621 16.9917 82.0471 16.9917 83.3346 16.9055C84.3479 16.8548 85.257 16.4443 85.9249 15.6561C86.8341 14.5766 87.1261 13.3272 86.8696 11.9588C86.6639 10.8463 86.1992 9.88582 85.1885 9.27002L85.1859 9.26495ZM77.448 7.53664V5.89196C77.4302 5.54985 77.5851 5.32684 77.928 5.32684C79.1292 5.36232 80.3481 5.17225 81.5315 5.51437C82.3544 5.73737 82.7505 6.37092 82.5778 7.14131C82.4915 7.58732 82.1994 7.87875 81.8388 8.09923C81.6509 8.23607 81.4274 8.33998 81.204 8.4236C80.1755 8.83414 79.1622 9.22947 78.1337 9.60453C77.6029 9.79206 77.4658 9.67295 77.448 9.10783C77.4302 8.59339 77.448 8.06375 77.448 7.53157V7.53664ZM82.2858 14.8655C81.755 15.1899 81.1709 15.2583 80.5691 15.276H79.4035C78.9413 15.276 78.4765 15.2938 78.0143 15.276C77.5674 15.2583 77.4658 15.1721 77.448 14.7464C77.4302 13.8037 77.448 12.8635 77.448 11.9208C77.448 11.6293 77.5674 11.4241 77.8416 11.3227C78.8549 10.9451 79.8504 10.5701 80.8611 10.2102C82.0623 9.79966 83.0578 10.5194 83.4184 11.6141C83.8298 12.8812 83.3676 14.2345 82.2858 14.868V14.8655Z" fill="white"/>
<path d="M97.693 4.00907C97.7438 4.53871 97.8301 5.05315 97.8479 5.56759C97.8657 6.20113 97.8301 6.83468 97.8301 7.46822C97.8301 8.95832 97.8632 10.4484 97.8301 11.936C97.8124 12.5011 97.6752 13.0662 97.5203 13.5959C97.3502 14.1787 96.921 14.5386 96.3547 14.7768C95.6843 15.0505 94.9986 15.0505 94.2951 14.9491C93.4038 14.8123 92.7689 14.3663 92.5099 13.5097C92.3727 13.0307 92.2534 12.534 92.2534 12.0373C92.2203 10.2406 92.2203 8.44135 92.2356 6.64462C92.2356 5.75512 92.2864 4.88083 92.3219 3.92291C91.2579 3.88743 90.176 3.85449 89.1298 3.90517C89.1628 4.5894 89.2161 5.20774 89.2339 5.8058C89.2339 7.26042 89.2161 8.73278 89.2339 10.2051C89.2339 11.267 89.1831 12.3465 89.338 13.4058C89.5945 15.2557 90.557 16.609 92.4438 17.1716C93.8863 17.5999 95.3439 17.5644 96.7838 17.1538C98.2085 16.7611 99.0999 15.8513 99.4961 14.4144C99.7195 13.5933 99.7373 12.7697 99.7373 11.9309C99.8059 9.27763 99.5824 6.6066 99.91 3.96852C99.2751 3.83168 98.0917 3.84942 97.6955 4.004L97.693 4.00907Z" fill="white"/>
<path d="M111.523 15.1037C111.267 15.1544 111.008 15.2228 110.751 15.2228C109.309 15.2405 107.851 15.2051 106.411 15.2583C105.845 15.276 105.708 15.1214 105.708 14.5208C105.708 13.4261 105.708 12.3288 105.725 11.234C105.743 8.87214 105.606 6.49002 105.845 4.05974C105.296 3.819 104.712 3.99132 104.128 3.97358C103.544 3.9381 102.978 3.95584 102.411 4.00906C102.668 6.23407 102.584 8.37545 102.549 10.5143C102.531 12.6557 102.736 14.7945 102.411 16.9866C105.791 17.0195 109.154 17.0373 112.689 16.9866C112.501 16.4037 112.379 15.9602 112.242 15.532C112.105 15.0859 111.985 15.0175 111.521 15.1037H111.523Z" fill="white"/>
<path d="M116.343 4.02428C115.604 4.05976 114.919 4.65782 114.781 5.39527C114.594 6.32024 115.175 7.05515 116.224 7.20974C116.841 7.2959 116.927 7.43274 116.722 7.99787C116.465 8.66689 116.087 9.24722 115.485 9.67549C115.399 9.74391 115.312 9.84782 115.228 9.93144C115.246 9.96692 115.264 9.99987 115.279 10.0353C115.434 9.99987 115.622 10.0176 115.741 9.93144C116.171 9.60707 116.668 9.31564 116.993 8.9051C117.869 7.84328 118.263 6.61167 117.92 5.24068C117.715 4.43481 117.08 3.97359 116.341 4.02428H116.343Z" fill="white"/>
<path d="M128.8 4.00907C128.85 4.53871 128.937 5.05315 128.954 5.56759C128.972 6.20113 128.937 6.83468 128.937 7.46822C128.937 8.95832 128.97 10.4484 128.937 11.936C128.919 12.5011 128.782 13.0662 128.627 13.5959C128.457 14.1787 128.028 14.5386 127.461 14.7768C126.791 15.0505 126.105 15.0505 125.402 14.9491C124.51 14.8123 123.875 14.3663 123.616 13.5097C123.479 13.0307 123.36 12.534 123.36 12.0373C123.327 10.2406 123.327 8.44135 123.342 6.64462C123.342 5.75512 123.393 4.88083 123.429 3.92291C122.364 3.88743 121.283 3.85449 120.236 3.90517C120.269 4.5894 120.323 5.20774 120.34 5.8058C120.34 7.26042 120.323 8.73278 120.34 10.2051C120.34 11.267 120.29 12.3465 120.445 13.4058C120.701 15.2557 121.664 16.609 123.55 17.1716C124.993 17.5999 126.451 17.5644 127.89 17.1538C129.315 16.7611 130.206 15.8513 130.603 14.4144C130.826 13.5933 130.844 12.7697 130.844 11.9309C130.912 9.27763 130.689 6.6066 131.017 3.96852C130.382 3.83168 129.198 3.84942 128.802 4.004L128.8 4.00907Z" fill="white"/>
<path d="M146.695 4.05975C146.129 3.87222 145.545 3.9229 145.032 4.04201C145.032 5.3091 145.05 6.54071 145.032 7.75711C145.014 8.97352 145.151 10.1874 144.928 11.4722C144.705 11.3531 144.55 11.3176 144.466 11.2163C143.712 10.4788 142.99 9.72617 142.251 8.97352C140.74 7.45048 139.232 5.9249 137.739 4.38412C137.414 4.05975 137.053 3.93811 136.624 3.93811C136.04 3.95585 135.473 3.95585 134.907 3.95585H133.518C133.536 4.17885 133.536 4.29796 133.551 4.43481C133.602 4.86308 133.706 5.29136 133.706 5.71963V13.4768C133.688 14.607 133.67 15.7372 133.67 16.9536C134.133 16.9714 134.684 17.0575 135.214 16.9359C135.214 15.276 135.197 13.6491 135.214 12.0399C135.25 10.4307 135.146 8.83921 135.318 7.05768C135.611 7.28069 135.816 7.39979 135.953 7.55438C136.982 8.59846 137.995 9.67802 139.008 10.7398C140.004 11.7839 140.982 12.828 141.995 13.8721C142.886 14.8148 143.78 15.7372 144.689 16.6622C144.844 16.8168 145.083 16.9714 145.289 16.9866C145.718 17.0373 146.165 16.9866 146.576 16.9688V13.8366C146.576 11.3886 146.558 8.94057 146.576 6.49002C146.594 5.75258 146.68 5.01767 146.731 4.28022C146.749 4.2118 146.713 4.14338 146.698 4.05721L146.695 4.05975Z" fill="white"/>
<path d="M14.8439 3.01567C15.6784 3.01567 16.3549 2.34059 16.3549 1.50784C16.3549 0.675081 15.6784 0 14.8439 0C14.0094 0 13.3329 0.675081 13.3329 1.50784C13.3329 2.34059 14.0094 3.01567 14.8439 3.01567Z" fill="white"/>
<path d="M36.4317 68.1386L37.0412 68.2248H41.4828C41.6123 68.2248 41.7292 68.2552 41.8307 68.311C41.9323 68.2527 42.0491 68.2248 42.1786 68.2248L42.4402 68.572C42.0923 69.7453 41.7723 70.6449 41.4828 71.2658C41.2492 72.5709 40.9902 73.4097 40.6981 73.7873C40.6397 73.8887 40.6118 74.0331 40.6118 74.2207V74.7427C41.4244 74.7858 41.8307 74.872 41.8307 75.0037V75.1786C41.8307 75.323 41.6276 75.4396 41.2213 75.5258C40.9013 75.4675 40.6702 75.4396 40.5254 75.4396C40.0607 76.2227 39.6544 77.4112 39.3065 79.0027L37.5644 84.479C37.4475 84.5804 37.3612 85.0163 37.3028 85.7841L36.6069 87.9584L35.9111 90.3051C35.8375 90.3051 35.7511 90.4799 35.6496 90.8271C35.708 91.9295 35.7664 92.6239 35.8248 92.9128L35.4769 93.1738C35.2432 93.1738 35.129 93.1459 35.129 93.0876C34.5474 93.1459 34.1132 93.1738 33.8211 93.1738H29.6411C29.3363 93.1738 29.1611 93.0876 29.1179 92.9128V91.1743C29.1179 90.9716 29.0875 90.7106 29.0316 90.3913C29.1484 90.1302 29.2627 89.9858 29.3795 89.9579H33.8211C33.9075 89.9579 33.9963 89.8717 34.0827 89.6969C34.0243 89.4663 33.849 89.3497 33.5595 89.3497H29.7274L28.8564 89.4359C28.5211 89.1039 28.29 88.407 28.1605 87.3502C27.9269 87.0183 27.6374 86.0021 27.2895 84.3092C26.8247 83.2094 26.3905 81.7877 25.9816 80.0493C25.5753 79.0356 25.1385 77.5278 24.6738 75.5283L25.0217 75.2673H25.7175V75.0924C25.7175 74.9759 25.6312 74.9176 25.4559 74.9176L24.8465 75.0037C24.4554 75.0037 24.1938 74.4817 24.0617 73.4401C23.5538 72.3251 23.2618 71.3114 23.1907 70.3991C23.0739 70.2699 22.8428 69.6591 22.4949 68.5745V68.4884C22.4949 68.4022 22.5812 68.3135 22.7564 68.2273H27.7212C27.9675 68.2273 28.2875 68.2577 28.6786 68.3135C28.7802 68.2552 28.9249 68.2273 29.1129 68.2273C29.4608 68.2273 29.6639 68.5745 29.7223 69.2714L29.636 69.6186L29.8976 70.2268L29.8112 70.574C30.2175 71.0656 30.4512 71.6764 30.507 72.3986C30.5655 72.3986 30.5934 72.429 30.5934 72.4848V73.0068L30.6797 73.615C30.3318 73.6885 30.1566 73.7747 30.1566 73.876V74.2232C30.1566 74.3398 30.2429 74.3981 30.4181 74.3981L31.0276 74.3119C31.1724 74.6591 31.406 74.8339 31.7235 74.8339H32.333C32.4193 74.8339 32.5361 74.9505 32.6809 75.1811V75.2673C32.6809 75.3839 32.3025 75.47 31.5482 75.5283C31.5051 76.2227 31.3298 76.7447 31.0251 77.0919L30.9388 77.5252C30.9972 77.6418 31.0251 77.728 31.0251 77.7863H31.1114C31.401 77.6266 31.5482 77.4822 31.5482 77.3529H31.7235C31.9546 77.7432 32.1882 78.6707 32.4193 80.1354C32.4777 80.1354 32.5056 80.1937 32.5056 80.3103H32.592C32.8688 80.3103 33.0999 79.4994 33.2878 77.8775C33.4478 77.5582 33.7094 76.7472 34.0725 75.4447L34.682 75.2698H35.2915C35.4083 75.2698 35.4667 75.2115 35.4667 75.095C35.4667 74.9784 35.1188 74.8922 34.4204 74.8339L34.3341 74.6591C35.2636 70.9947 35.7283 68.9952 35.7283 68.6607C35.7283 68.4427 35.9594 68.2704 36.4241 68.1386H36.4317ZM29.2881 93.9543H35.2991C35.647 93.9543 35.8222 94.0709 35.8222 94.3015C35.7054 94.489 35.647 94.636 35.647 94.7348C35.647 95.4292 35.8502 95.7789 36.2565 95.7789C36.9828 95.9082 37.5059 96.0247 37.8234 96.1261C37.8818 97.1981 37.9097 97.9811 37.9097 98.4727V100.906C37.9097 101.428 37.7066 101.689 37.3002 101.689H37.0387C36.9803 101.689 36.9523 101.658 36.9523 101.602C36.6908 101.719 36.3124 101.777 35.8197 101.777H35.6445C34.7734 101.777 33.7576 101.747 32.5945 101.691C32.3609 101.749 32.1603 101.777 31.985 101.777L31.8098 101.691L31.6346 101.777C31.4162 101.777 31.213 101.661 31.0251 101.43C31.0835 100.85 31.1114 100.416 31.1114 100.128V97.7809C31.1114 97.5782 31.1394 97.3172 31.1978 96.9979C31.1978 96.3618 30.9642 96.0425 30.502 96.0425C29.5725 96.0425 29.1078 95.9259 29.1078 95.6953V94.7399L29.0214 94.1317L29.283 93.9568L29.2881 93.9543ZM29.4633 71.2684V71.7904C29.5801 71.7904 29.6385 71.7042 29.6385 71.5294C29.5801 71.4128 29.5522 71.3266 29.5522 71.2684H29.4658H29.4633ZM35.2128 94.565C35.2128 94.6816 35.1823 94.7399 35.1264 94.7399C35.1848 94.8565 35.2128 94.9426 35.2128 95.0009C35.3296 95.0009 35.388 94.9426 35.388 94.8261V94.7399C35.388 94.6233 35.3296 94.565 35.2128 94.565ZM36.8685 83.6123L36.7822 84.2205L36.8685 84.6564C36.998 84.6564 37.1149 84.4258 37.2164 83.962C37.1301 83.7314 37.0412 83.6149 36.9549 83.6149H36.8685V83.6123ZM36.8685 84.8287V85.0898H36.9549V84.8287H36.8685ZM36.8685 97.2589V97.7809H37.0438C37.0438 97.7226 37.0717 97.6365 37.1301 97.5199L37.0438 97.084C36.9269 97.0992 36.8685 97.1575 36.8685 97.2589ZM40.7895 71.0073L41.0511 71.1822L41.1375 71.0073V70.574H41.0511C40.9216 70.574 40.8327 70.7184 40.7895 71.0073Z" fill="#E80D0D"/>
<path d="M43.9208 67.4848C44.1087 67.4848 44.2534 67.5152 44.355 67.571C44.995 67.5127 45.546 67.4848 46.0108 67.4848H46.6203C47.4761 67.4848 48.6392 67.5152 50.1045 67.571C50.1197 67.6876 50.1781 67.7459 50.2797 67.7459C50.2213 68.4402 50.1349 68.9623 50.0181 69.3094C50.1349 69.5274 50.1934 69.758 50.1934 70.0038V70.1787C50.1934 70.3383 50.1349 70.5132 50.0181 70.7007L49.495 70.6145C49.2487 70.6145 48.9871 70.6728 48.7103 70.7894C48.5071 70.7311 48.3903 70.7032 48.3624 70.7032C47.7681 70.7615 47.4177 70.7894 47.3161 70.7894L46.2698 70.7032L46.0946 70.9643V71.1391C46.0946 71.1822 46.1809 71.2684 46.3562 71.4001L47.4024 71.314H48.3598C49.5788 71.4153 50.1883 71.5598 50.1883 71.7473V72.7914C50.1883 73.2552 50.6225 73.4858 51.4961 73.4858C51.5545 73.6023 51.6129 73.8634 51.6714 74.2688C51.5977 74.502 51.453 74.6743 51.2371 74.7909H50.4524C50.366 74.7909 50.2772 74.877 50.1908 75.0519V75.138C50.1908 75.356 50.6251 75.5004 51.4987 75.5714C51.5571 75.688 51.585 75.7741 51.585 75.8324C51.5266 76.5572 51.4987 76.9322 51.4987 76.9627C51.4987 77.0792 51.5571 77.282 51.6739 77.5709C51.6155 78.0346 51.3844 78.2652 50.9781 78.2652C50.8486 78.2652 50.7317 78.2373 50.6302 78.1791C50.3686 78.2956 50.2238 78.4122 50.1959 78.5262V79.1344C50.1959 79.3676 50.1654 79.5982 50.1096 79.8288C50.168 80.0467 50.1959 80.2774 50.1959 80.5232V81.2175C50.1959 81.3037 50.0791 81.4203 49.848 81.5647H49.2385C49.0506 81.5647 48.9033 81.5951 48.8017 81.6509L48.2786 81.5647H46.7117C46.5949 81.5799 46.5365 81.6382 46.5365 81.7396V82.0868C46.5365 82.1729 46.6533 82.2616 46.8844 82.3478C46.9428 82.3478 46.9707 82.3199 46.9707 82.2616C47.0291 82.2616 47.1155 82.292 47.2323 82.3478C47.8265 82.2895 48.2913 82.2616 48.6265 82.2616L49.236 82.4365L49.8454 82.3503C49.9318 82.3503 50.0765 82.4669 50.2797 82.6975L50.1934 83.3057V90.1733L50.2797 90.6954C50.2213 90.7967 50.1934 90.9412 50.1934 91.1287V92.3451L50.2797 92.9533L49.9318 93.2143H49.6702L49.236 93.1282C49.0607 93.3309 48.916 93.5919 48.7992 93.9112L48.8855 94.3446C48.8271 94.75 48.7992 94.9832 48.7992 95.0389C49.6702 95.3278 50.3661 95.5027 50.8892 95.561V95.6471C50.8892 96.1388 50.9171 96.8635 50.9755 97.8215C50.9171 98.6907 50.8892 99.2989 50.8892 99.6461L50.9755 100.254C50.9171 100.371 50.8892 100.457 50.8892 100.515C50.9476 100.632 50.9755 100.718 50.9755 100.776C50.9755 100.906 50.1908 101.022 48.6239 101.124H46.3587C46.0235 101.124 45.5613 101.096 44.9645 101.037C44.8477 101.096 44.7613 101.124 44.7029 101.124C44.4693 101.065 44.2687 100.979 44.0934 100.862C44.0934 100.733 44.1214 100.617 44.1798 100.515C44.1214 99.4433 44.0934 98.5462 44.0934 97.8215V96.8661C44.0934 96.5772 44.1214 96.1413 44.1798 95.5635C43.9919 95.4469 43.8166 95.3887 43.6566 95.3887H42.6993C42.4961 95.3887 42.265 95.2721 42.0034 95.0415L42.1786 94.1723C42.1202 93.9416 42.0923 93.7085 42.0923 93.4779C42.0923 93.3917 42.2675 93.2473 42.6154 93.0445H43.1386L43.3138 93.1307L43.5754 92.6974C43.517 91.6406 43.489 90.9741 43.489 90.6979C43.489 90.3659 43.517 90.1607 43.5754 90.0897C43.517 89.4967 43.489 89.0329 43.489 88.6984V84.7857C43.489 83.9316 43.517 82.771 43.5754 81.3088C43.517 81.0782 43.489 80.845 43.489 80.6144C43.6059 80.3534 43.7201 80.2089 43.837 80.1811H44.708C44.7944 80.1811 44.9112 80.0645 45.0559 79.8339V79.7477C45.0559 79.6311 44.9975 79.5729 44.8807 79.5729H43.8344C43.7481 79.5729 43.6313 79.4563 43.4865 79.2257V78.7036C43.4865 78.3843 43.6617 78.1233 44.0096 77.9206L44.5328 78.0067C44.7207 78.0067 44.8375 77.543 44.8807 76.6155C44.8223 75.9794 44.7359 75.6018 44.6191 75.4852L44.1849 75.5714H43.837C43.7633 75.5714 43.6186 75.4269 43.4027 75.138C43.5195 74.7326 43.7506 74.5298 44.0985 74.5298C44.4033 74.5881 44.5785 74.616 44.6217 74.616L44.7969 74.355V74.0078C44.7969 73.8482 44.7385 73.6758 44.6217 73.4858C44.5048 73.4858 44.3017 73.544 44.0122 73.6606C43.9258 73.6606 43.7506 73.5162 43.489 73.2273C43.5475 72.0692 43.5754 71.1999 43.5754 70.6196V69.5755C43.5754 69.3297 43.6033 69.0104 43.6617 68.6201C43.5881 68.2882 43.5017 68.055 43.4002 67.9258V67.8396C43.4002 67.723 43.5754 67.609 43.9233 67.4924L43.9208 67.4848ZM49.2334 68.8761V69.4843C49.2487 69.6009 49.3071 69.6592 49.4087 69.6592L49.495 69.2258L49.4087 68.8786H49.2334V68.8761ZM50.1045 96.1692V96.7774H50.2797C50.2797 96.7191 50.3076 96.6329 50.3661 96.5164C50.3076 96.415 50.2797 96.2984 50.2797 96.1692H50.1045Z" fill="#E80D0D"/>
<path d="M53.5048 68.1386C53.5633 68.1386 53.5912 68.1691 53.5912 68.2248L53.7664 68.1386H56.6411C57.5122 68.1386 58.208 68.1969 58.7312 68.3135C58.8175 68.2552 58.9927 68.2273 59.2543 68.2273L59.6886 68.4884C59.6581 69.0104 59.6022 69.2714 59.5133 69.2714L59.5997 69.4463V70.1406C59.5997 70.2699 59.5692 70.3865 59.5133 70.4878C59.6301 70.7767 59.6886 70.9795 59.6886 71.096C59.6301 71.314 59.6022 71.5446 59.6022 71.7904C59.8333 71.907 59.9501 71.9931 59.9501 72.0514L60.1254 71.9653C60.7069 72.0387 60.9964 72.1528 60.9964 72.3124V72.9206C60.9964 73.0068 60.8796 73.1234 60.6485 73.2678C60.2853 73.2678 59.2975 73.3261 57.6874 73.4427C57.0348 73.3844 56.4253 73.3565 55.859 73.3565C55.1327 73.4148 54.6984 73.4427 54.5511 73.4427C54.3632 73.2121 54.188 72.8066 54.028 72.2263C53.9112 72.168 53.8248 72.1401 53.7664 72.1401L53.2433 72.2263C52.9538 71.9652 52.8065 71.4153 52.8065 70.574C52.8065 70.5309 52.8344 70.356 52.8928 70.0519C52.8344 69.3576 52.8065 68.8355 52.8065 68.4884C53.0528 68.2577 53.2864 68.1412 53.5023 68.1412L53.5048 68.1386ZM53.3296 73.093C53.4896 73.093 53.6064 73.3819 53.6775 73.9622L53.8528 74.0483H57.6849C57.7712 74.0483 58.236 74.1066 59.0791 74.2232H59.427C59.5133 74.2232 59.6022 74.3094 59.6886 74.4842C59.6886 74.8897 59.6301 75.0924 59.5133 75.0924L59.5997 75.5283V78.5693L59.686 79.0914L59.4245 79.5272L58.815 79.4411C58.2639 79.6159 57.8271 79.7021 57.5071 79.7021H55.5898C55.3866 79.7021 55.1251 79.6742 54.8051 79.6159C54.6883 79.6742 54.6019 79.7021 54.5435 79.7021C54.0356 79.6438 53.7156 79.6159 53.5861 79.6159L53.1493 79.7021C52.9157 79.4563 52.8014 79.2231 52.8014 79.0077V78.1385C52.8014 77.9636 52.8293 77.8775 52.8877 77.8775L52.8014 77.4441V75.3585C52.8014 75.1127 52.8293 74.7934 52.8877 74.4031C52.8293 74.3018 52.8014 74.1573 52.8014 73.9698C52.8014 73.5922 52.9766 73.3033 53.3245 73.1006L53.3296 73.093ZM53.1544 80.2216L53.6775 80.3078C53.8807 80.3078 54.1423 80.2799 54.4622 80.2216C55.4069 80.2799 56.2475 80.3078 56.9891 80.3078L57.7738 80.2216C58.9343 80.4395 59.5159 80.584 59.5159 80.6575C59.5743 80.6575 59.6327 80.7436 59.6911 80.9185C59.6327 81.324 59.6047 81.6711 59.6047 81.9626C59.6047 82.2667 60.0416 82.4694 60.9126 82.5708V82.7456L60.8263 82.9205C60.8847 83.0219 60.9126 83.1384 60.9126 83.2677V83.3538C60.9126 83.5135 60.5342 83.6301 59.78 83.701C59.6632 83.8886 59.6047 84.0634 59.6047 84.2231C59.6047 84.3979 59.6327 84.4841 59.6911 84.4841L59.6047 85.3533V95.0896C59.6047 95.5686 60.0695 95.9158 60.999 96.1337L61.0853 96.3086V96.3947C61.0853 96.453 61.0574 96.4809 60.999 96.4809C61.0574 96.5975 61.0853 96.6836 61.0853 96.7419H61.1716C61.2885 96.7419 61.3469 96.6836 61.3469 96.567V96.4809L61.2605 96.306L61.4357 96.2199C61.5221 96.6253 61.6668 96.8281 61.8725 96.8281L62.482 96.7419L63.3531 96.9168C64.3689 96.8585 65.0089 96.8306 65.2704 96.8306C65.7352 96.8306 66.3446 96.861 67.0989 96.9168L68.3178 96.8306C69.0873 96.8889 69.7247 96.9168 70.2352 96.9168L70.3215 97.0916C70.3215 98.1205 70.2631 98.787 70.1463 99.0911C70.2631 99.4104 70.3494 100.019 70.4079 100.916C70.4079 101.438 70.1184 101.699 69.5368 101.699C69.1457 101.757 68.5362 101.785 67.7084 101.785H62.3957C62.2662 101.785 62.1494 101.754 62.0478 101.699C61.9462 101.757 61.8294 101.785 61.6998 101.785H61.5246C61.3367 101.785 61.1894 101.754 61.0878 101.699L60.5647 101.785C59.94 101.785 59.2721 101.727 58.561 101.61C57.69 101.727 57.05 101.785 56.6437 101.785C56.5853 101.785 56.5573 101.754 56.5573 101.699L56.1205 101.785H55.5111C55.2063 101.785 55.0032 101.64 54.9016 101.352C54.96 100.569 54.9879 99.9907 54.9879 99.6131V96.5721C54.9879 96.2401 54.8127 96.0374 54.4648 95.9639L54.0305 96.0501C53.2179 95.9639 52.8115 95.8473 52.8115 95.7029V88.3132C52.8115 87.4009 52.8395 85.8931 52.8979 83.7923C52.9842 83.7923 53.1011 83.6757 53.2458 83.4451L53.6801 83.5312H54.028C54.1448 83.5312 54.2032 83.4729 54.2032 83.3564V82.662C54.2032 82.4872 53.8248 82.3731 53.0706 82.3148C52.8954 82.0969 52.809 81.8663 52.809 81.6205C52.809 80.9109 52.9258 80.4471 53.1569 80.2292L53.1544 80.2216ZM58.5559 75.1811L58.6423 75.6145C58.9902 75.6145 59.1654 75.4396 59.1654 75.0924L58.9902 75.0063H58.7286C58.6118 75.0215 58.5534 75.0798 58.5534 75.1811H58.5559ZM58.6423 69.6186V69.7048C58.6575 69.8213 58.7159 69.8796 58.8175 69.8796L58.9039 69.7048V69.4437H58.8175C58.7007 69.4589 58.6423 69.5172 58.6423 69.6186ZM69.4428 98.3916V98.7388C69.4581 98.8554 69.5165 98.9137 69.6181 98.9137V98.3916H69.4428ZM69.4428 99.347V99.5219H69.6181V99.1747C69.5013 99.1899 69.4428 99.2482 69.4428 99.3496V99.347Z" fill="#E80D0D"/>
<path d="M72.0586 68.1386C72.117 68.1386 72.1449 68.1691 72.1449 68.2248L72.3201 68.1386H75.1948C76.0659 68.1386 76.7617 68.1969 77.2849 68.3135C77.3712 68.2552 77.5465 68.2273 77.808 68.2273L78.2423 68.4884C78.2118 69.0104 78.1559 69.2714 78.067 69.2714L78.1534 69.4463V70.1406C78.1534 70.2699 78.1229 70.3865 78.067 70.4878C78.1839 70.7767 78.2423 70.9795 78.2423 71.096C78.1839 71.314 78.1559 71.5446 78.1559 71.7904C78.387 71.907 78.5038 71.9931 78.5038 72.0514L78.6791 71.9653C79.2606 72.0387 79.5501 72.1528 79.5501 72.3124V72.9206C79.5501 73.0068 79.4333 73.1234 79.2022 73.2678C78.8391 73.2678 77.8512 73.3261 76.2411 73.4427C75.5885 73.3844 74.979 73.3565 74.4127 73.3565C73.6864 73.4148 73.2521 73.4427 73.1048 73.4427C72.9169 73.2121 72.7417 72.8066 72.5817 72.2263C72.4649 72.168 72.3785 72.1401 72.3201 72.1401L71.797 72.2263C71.5075 71.9652 71.3602 71.4153 71.3602 70.574C71.3602 70.5309 71.3881 70.356 71.4465 70.0519C71.3881 69.3576 71.3602 68.8355 71.3602 68.4884C71.6065 68.2577 71.8402 68.1412 72.056 68.1412L72.0586 68.1386ZM71.8833 73.093C72.0433 73.093 72.1601 73.3819 72.2312 73.9622L72.4065 74.0483H76.2386C76.3249 74.0483 76.7897 74.1066 77.6328 74.2232H77.9807C78.067 74.2232 78.1559 74.3094 78.2423 74.4842C78.2423 74.8897 78.1839 75.0924 78.067 75.0924L78.1534 75.5283V78.5693L78.2397 79.0914L77.9782 79.5272L77.3687 79.4411C76.8176 79.6159 76.3808 79.7021 76.0608 79.7021H74.1435C73.9403 79.7021 73.6788 79.6742 73.3588 79.6159C73.242 79.6742 73.1556 79.7021 73.0972 79.7021C72.5893 79.6438 72.2693 79.6159 72.1398 79.6159L71.703 79.7021C71.4694 79.4563 71.3551 79.2231 71.3551 79.0077V78.1385C71.3551 77.9636 71.383 77.8775 71.4415 77.8775L71.3551 77.4441V75.3585C71.3551 75.1127 71.383 74.7934 71.4415 74.4031C71.383 74.3018 71.3551 74.1573 71.3551 73.9698C71.3551 73.5922 71.5303 73.3033 71.8782 73.1006L71.8833 73.093ZM71.7081 80.2216L72.2312 80.3078C72.4344 80.3078 72.696 80.2799 73.016 80.2216C73.9607 80.2799 74.8012 80.3078 75.5428 80.3078L76.3275 80.2216C77.488 80.4395 78.0696 80.584 78.0696 80.6575C78.128 80.6575 78.1864 80.7436 78.2448 80.9185C78.1864 81.324 78.1585 81.6711 78.1585 81.9626C78.1585 82.2667 78.5953 82.4694 79.4663 82.5708V82.7456L79.38 82.9205C79.4384 83.0219 79.4663 83.1384 79.4663 83.2677V83.3538C79.4663 83.5135 79.0879 83.6301 78.3337 83.701C78.2169 83.8886 78.1585 84.0634 78.1585 84.2231C78.1585 84.3979 78.1864 84.4841 78.2448 84.4841L78.1585 85.3533V95.0896C78.1585 95.5686 78.6232 95.9158 79.5527 96.1337L79.639 96.3086V96.3947C79.639 96.453 79.6111 96.4809 79.5527 96.4809C79.6111 96.5975 79.639 96.6836 79.639 96.7419H79.7254C79.8422 96.7419 79.9006 96.6836 79.9006 96.567V96.4809L79.8142 96.306L79.9895 96.2199C80.0758 96.6253 80.2206 96.8281 80.4263 96.8281L81.0357 96.7419L81.9068 96.9168C82.9226 96.8585 83.5626 96.8306 83.8241 96.8306C84.2889 96.8306 84.8983 96.861 85.6526 96.9168L86.8716 96.8306C87.641 96.8889 88.2784 96.9168 88.7889 96.9168L88.8752 97.0916C88.8752 98.1205 88.8168 98.787 88.7 99.0911C88.8168 99.4104 88.9032 100.019 88.9616 100.916C88.9616 101.438 88.6721 101.699 88.0905 101.699C87.6994 101.757 87.0899 101.785 86.2621 101.785H80.9494C80.8199 101.785 80.7031 101.754 80.6015 101.699C80.4999 101.757 80.3831 101.785 80.2536 101.785H80.0783C79.8904 101.785 79.7431 101.754 79.6415 101.699L79.1184 101.785C78.4937 101.785 77.8258 101.727 77.1147 101.61C76.2437 101.727 75.6037 101.785 75.1974 101.785C75.139 101.785 75.1111 101.754 75.1111 101.699L74.6743 101.785H74.0648C73.76 101.785 73.5569 101.64 73.4553 101.352C73.5137 100.569 73.5416 99.9907 73.5416 99.6131V96.5721C73.5416 96.2401 73.3664 96.0374 73.0185 95.9639L72.5842 96.0501C71.7716 95.9639 71.3653 95.8473 71.3653 95.7029V88.3132C71.3653 87.4009 71.3932 85.8931 71.4516 83.7923C71.5379 83.7923 71.6548 83.6757 71.7995 83.4451L72.2338 83.5312H72.5817C72.6985 83.5312 72.7569 83.4729 72.7569 83.3564V82.662C72.7569 82.4872 72.3785 82.3731 71.6243 82.3148C71.4491 82.0969 71.3627 81.8663 71.3627 81.6205C71.3627 80.9109 71.4795 80.4471 71.7106 80.2292L71.7081 80.2216ZM77.1097 75.1811L77.196 75.6145C77.5439 75.6145 77.7191 75.4396 77.7191 75.0924L77.5439 75.0063H77.2823C77.1655 75.0215 77.1071 75.0798 77.1071 75.1811H77.1097ZM77.196 69.6186V69.7048C77.2112 69.8213 77.2696 69.8796 77.3712 69.8796L77.4576 69.7048V69.4437H77.3712C77.2544 69.4589 77.196 69.5172 77.196 69.6186ZM87.9966 98.3916V98.7388C88.0093 98.8554 88.0702 98.9137 88.1718 98.9137V98.3916H87.9966ZM87.9966 99.347V99.5219H88.1718V99.1747C88.055 99.1899 87.9966 99.2482 87.9966 99.3496V99.347Z" fill="#E80D0D"/>
<path d="M94.9879 67.4848H100.999L101.522 67.571L101.697 67.4848C102.292 67.5431 102.756 67.571 103.091 67.571H103.267C103.513 67.571 103.658 68.1513 103.703 69.3094C103.922 69.8898 104.067 70.7286 104.138 71.8309C104.313 71.8309 104.427 72.2643 104.486 73.136C104.661 73.2653 105.154 73.4123 105.966 73.5694C105.966 73.8583 106.025 74.0914 106.141 74.2638C106.141 74.5527 105.735 74.7275 104.922 74.7858C104.806 74.9733 104.747 75.1203 104.747 75.2191C104.966 75.394 105.169 75.4802 105.357 75.4802H105.966C106.256 75.6246 106.4 75.8578 106.4 76.1745C106.314 76.4077 106.08 76.5217 105.705 76.5217V76.6966C106.286 76.6966 106.576 76.9297 106.576 77.3909V77.9991C106.576 78.1157 106.197 78.2019 105.443 78.2602L105.268 78.6073C105.268 78.8532 105.443 79.6058 105.791 80.8678C105.849 81.8815 105.877 82.4897 105.877 82.6924C106.037 82.6924 106.21 83.3868 106.4 84.7781C106.182 84.8946 105.951 84.9529 105.705 84.9529H102.916C102.83 84.9529 102.741 85.0391 102.655 85.2139V85.475C102.655 85.5611 102.741 85.6498 102.916 85.736H105.095C106.141 85.736 106.662 85.9387 106.662 86.3442C106.662 87.8368 106.924 89.4308 107.447 91.1262C107.447 91.1845 107.416 91.2123 107.36 91.2123L107.447 91.6457V92.079L107.36 92.5124C107.447 92.5124 107.564 92.6289 107.708 92.8596V92.9457C107.65 93.1206 107.475 93.2067 107.185 93.2067H106.576C106.24 93.6122 106.009 93.8149 105.88 93.8149C105.763 93.7566 105.677 93.7288 105.618 93.7288L105.532 93.9036V94.0785C105.575 94.4257 105.661 94.6005 105.794 94.6005C105.794 94.5144 105.938 94.3978 106.228 94.2533H106.314C106.647 94.892 106.967 95.2087 107.272 95.2087C108.084 95.3253 108.49 95.528 108.49 95.8169C108.78 96.1514 108.925 96.4099 108.925 96.6C109.054 97.5275 109.171 98.1636 109.273 98.5133C109.186 99.0353 109.069 99.2964 108.925 99.2964L108.49 99.1215C108.112 99.2964 107.706 99.3825 107.272 99.3825H105.181C105.095 99.3825 105.006 99.4687 104.92 99.6435C105.006 99.8767 105.095 99.9907 105.181 99.9907H107.881C107.955 99.9907 108.272 100.049 108.838 100.166L109.273 100.079C109.562 100.384 109.707 100.617 109.707 100.774C109.519 100.875 108.879 100.992 107.79 101.121L107.18 101.035L106.746 101.121C106.441 101.063 106.266 101.035 106.223 101.035L105.613 101.121C105.105 101.063 104.785 101.035 104.656 101.035L103.61 101.121V101.035L103.434 101.121H103.348C103.028 101.121 102.797 100.977 102.652 100.688L102.738 99.9046C102.563 99.2533 102.332 97.9786 102.043 96.0805V95.5584C102.043 95.5154 101.956 95.4292 101.781 95.2974C101.664 95.3557 101.578 95.3836 101.52 95.3836C101.113 95.3836 99.8942 95.2391 97.8601 94.9502C96.989 95.0085 96.2627 95.0364 95.6812 95.0364L95.5948 95.2113C95.6532 95.5585 95.7396 95.7333 95.8564 95.7333H96.0316L96.2932 95.5584H96.5547C96.6411 95.5584 96.73 95.6446 96.8163 95.8195L96.1205 99.5574V100.688C96.1205 100.832 95.9173 100.949 95.511 101.035L95.3358 100.949C94.5942 101.065 94.16 101.124 94.0279 101.124C93.9975 101.124 93.6216 101.096 92.8953 101.037C92.8648 101.037 92.489 101.068 91.7627 101.124L91.3284 101.037C91.2116 101.096 91.1253 101.124 91.0669 101.124L90.7189 101.037L90.2847 101.124C89.8784 101.037 89.6752 100.921 89.6752 100.776L90.2847 97.9938C90.2847 97.748 90.3431 97.1398 90.4599 96.1692V95.6471C90.4599 95.561 90.3736 95.4723 90.1983 95.3861H89.2409C88.9362 95.3861 88.7331 95.2696 88.6315 95.0389V94.9528C88.7483 94.3877 88.8067 94.0684 88.8067 93.9974V93.9112C88.8067 93.782 88.7788 93.6654 88.7203 93.5641C88.7203 93.2447 89.213 93.0724 90.2009 93.042C90.3304 92.6948 90.5056 92.4921 90.724 92.4338L91.2472 92.52C91.5087 92.4034 91.6535 92.2894 91.6814 92.1728C91.6814 91.9979 91.3335 91.8839 90.6351 91.8256C90.5183 91.6812 90.4599 91.595 90.4599 91.5646V91.4784C91.0415 88.6832 91.331 86.8561 91.331 86.0021C91.7957 83.9595 92.0268 82.8597 92.0268 82.7C92.0268 82.657 91.9963 82.4821 91.9405 82.178L92.4636 79.6565L92.3773 79.4816C92.3773 78.8886 92.6083 78.3666 93.0731 77.918L93.6826 78.0042H93.8578C94.0025 78.0042 94.2057 77.2794 94.4673 75.8299C94.4089 75.7133 94.3809 75.6271 94.3809 75.5689H93.5099C93.4235 75.5689 93.3067 75.4523 93.162 75.2217V74.9607C93.3372 74.6718 93.5404 74.5248 93.7714 74.5248C94.0914 74.5831 94.3225 74.6109 94.4673 74.6109C94.6425 74.3499 94.7288 74.1472 94.7288 74.0027C94.7288 73.8431 94.5841 73.6986 94.2946 73.5694C94.193 73.6277 94.0762 73.6556 93.9467 73.6556C93.5988 73.4528 93.4235 73.3084 93.4235 73.2222C94.0051 70.1939 94.2946 68.3971 94.2946 67.832C94.5409 67.6014 94.7746 67.4848 94.9904 67.4848H94.9879ZM98.2969 78.8709L98.3832 79.7401V79.8263C98.3832 79.9555 98.3527 80.0721 98.2969 80.1735C98.2969 80.2317 98.3248 80.2596 98.3832 80.2596C98.3248 81.2023 98.1496 82.3022 97.8601 83.5617L97.2506 88.2549H97.0754C96.9306 88.2549 96.8138 88.0243 96.7274 87.5606L96.8138 87.2134C96.7554 87.0968 96.7274 87.0107 96.7274 86.9524H96.6411C96.5243 86.9676 96.4659 87.0259 96.4659 87.1272V89.1267C96.4659 89.2433 96.5827 89.3016 96.8138 89.3016V89.7349C96.8138 89.8515 96.7554 89.9098 96.6386 89.9098H96.4633L96.0291 89.8236L95.9427 89.9985L98.0327 90.3456C98.0759 90.3456 98.2511 90.3178 98.5559 90.2595C98.6143 90.2595 98.7006 90.2899 98.8175 90.3456C99.1374 90.2874 99.399 90.2595 99.6022 90.2595H100.298C100.415 90.2595 100.473 90.2012 100.473 90.0846C99.6606 84.9428 99.1654 81.4076 98.9927 79.4791C98.919 79.4791 98.7743 79.2764 98.5559 78.8709H98.2943H98.2969ZM102.827 69.1346V69.3956L103.262 69.4818L103.348 69.3069V69.132L103.173 68.871C102.939 68.9572 102.825 69.0459 102.825 69.132L102.827 69.1346ZM103.35 71.9171L103.526 72.0033H103.612V71.7422H103.526C103.409 71.7575 103.35 71.8157 103.35 71.9171ZM104.745 79.5653V80.5206C104.745 80.9413 104.831 81.1719 105.006 81.215L105.093 81.0401V80.3458C105.151 80.1 105.179 79.8972 105.179 79.7376C105.077 79.7376 104.933 79.6793 104.742 79.5627L104.745 79.5653ZM105.702 94.8641V94.9502H105.877V94.8641H105.702ZM106.487 90.9513V91.2985H106.573V90.9513H106.487ZM106.487 91.4734V91.6482H106.573V91.4734H106.487Z" fill="#E80D0D"/>
<path d="M110.428 67.4848C110.545 67.4848 110.603 67.5152 110.603 67.571C111.388 67.5127 111.967 67.4848 112.345 67.4848H117.833C121.912 67.4848 124.467 68.2096 125.498 69.6592C125.584 69.6592 125.673 69.7453 125.759 69.9202L125.673 70.7032L125.848 70.7894C125.965 70.7311 126.051 70.7032 126.11 70.7032C126.559 71.2836 127.169 71.5725 127.938 71.5725L128.024 71.7473V71.8335L127.938 72.0083C126.473 72.0666 125.31 72.0945 124.454 72.0945H121.841C121.754 72.0945 121.665 72.1807 121.579 72.3555C121.681 72.5887 121.884 72.7027 122.189 72.7027H125.498C125.614 72.7027 125.845 72.7889 126.193 72.9637C126.237 72.9637 126.412 72.9358 126.717 72.8776C127.021 72.8776 127.197 73.283 127.24 74.094C127.181 74.2105 127.153 74.2967 127.153 74.355C127.153 74.5298 127.181 74.616 127.24 74.616L127.153 75.6601V77.9206C127.153 79.0077 127.009 80.1659 126.719 81.3975C126.95 81.5723 127.329 81.6864 127.852 81.7446V81.9195C127.852 82.0944 127.329 82.2084 126.285 82.2667C126.285 82.325 126.226 82.3528 126.11 82.3528C125.934 82.3528 125.731 82.325 125.5 82.2667C124.992 82.325 124.672 82.3528 124.543 82.3528L123.148 82.2667C122.801 82.3833 122.625 82.4998 122.625 82.6139V82.7887C122.625 82.8749 122.742 82.9636 122.973 83.0497C123.032 83.0497 123.263 83.0219 123.669 82.9636C124.423 83.0219 125.033 83.0497 125.498 83.0497L125.673 83.3108V83.3969L124.106 84.5272V84.8744C124.919 85.0492 125.79 85.9463 126.719 87.5682L126.544 87.9154C124.54 87.9737 123.088 88.0015 122.189 88.0015H119.489C118.676 87.6543 117.892 87.4795 117.137 87.4795C116.848 87.5961 116.703 87.6822 116.703 87.7405C116.703 87.8267 116.731 88.1764 116.79 88.7846C116.485 89.0177 115.642 89.1318 114.263 89.1318H114.176C114.06 89.147 114.001 89.2053 114.001 89.3066V89.4815C114.291 89.9604 114.438 90.2772 114.438 90.4369H115.134C115.352 90.4369 115.614 90.5534 115.918 90.7841C116.02 90.5534 116.223 90.4369 116.528 90.4369C116.703 90.4369 116.79 90.5534 116.79 90.7841C116.79 90.8423 116.759 90.8702 116.703 90.8702C116.703 90.9006 116.731 91.0147 116.79 91.2174C116.79 91.4201 116.759 91.6812 116.703 92.0005C116.703 92.0435 116.731 92.2767 116.79 92.6948C116.79 92.9558 116.731 93.5919 116.614 94.6081C116.614 94.9122 117.021 95.1733 117.833 95.3912L118.009 95.305H118.618C118.704 95.305 118.793 95.3912 118.88 95.566C118.88 95.6091 118.849 95.784 118.793 96.0881C118.852 96.2047 118.88 96.2908 118.88 96.3491C118.763 96.5366 118.704 96.7115 118.704 96.8711V98.3486C118.704 98.4069 118.674 98.4347 118.618 98.4347L118.704 98.6096V99.1316C118.704 99.2609 118.674 99.3775 118.618 99.4788C118.735 99.7398 118.793 100.117 118.793 100.609V100.784C118.793 100.959 118.676 101.045 118.445 101.045C118.125 101.045 117.574 101.075 116.79 101.131C116.731 101.131 116.703 101.103 116.703 101.045L116.094 101.131H113.305C113.176 101.131 113.059 101.103 112.957 101.045C112.856 101.103 112.739 101.131 112.61 101.131C112.422 101.131 112.218 101.045 112 100.87C112.058 100.188 112.086 99.6968 112.086 99.3927V98.5234C112.086 98.2497 112.056 97.9583 112 97.6542C112.058 97.4363 112.086 97.1752 112.086 96.8711V96.785L112 95.7409H112.086C112.086 95.452 111.505 95.3076 110.344 95.3076H110.169C110.024 95.191 109.935 95.1327 109.907 95.1327L109.994 94.5245V89.7425C109.994 89.294 110.022 88.8885 110.08 88.5261C110.022 88.2372 109.994 87.8596 109.994 87.3959V85.5713C109.994 85.442 109.963 85.3254 109.907 85.2241L110.083 84.7882C110.04 84.5576 109.981 84.441 109.907 84.441L109.994 84.0077L109.907 83.4856C109.907 83.2246 110.111 82.994 110.517 82.7913L111.04 82.8774H111.126C111.213 82.8774 111.302 82.7913 111.388 82.6164V81.922C111.388 81.8055 111.33 81.7472 111.213 81.7472H110.603C110.197 81.7472 109.994 81.5444 109.994 81.139V74.8796C109.994 74.8213 110.022 74.7934 110.08 74.7934L109.994 74.6185V73.5745C109.994 73.4452 109.963 73.3286 109.907 73.2273C109.907 72.8649 110.227 72.6039 110.865 72.4442C110.966 72.5025 111.083 72.5304 111.213 72.5304L111.388 72.2694V72.0083C111.388 71.6029 111.213 71.4001 110.865 71.4001C110.677 71.5167 110.502 71.575 110.342 71.575C110.108 71.2861 109.994 71.1112 109.994 71.053C109.994 70.9947 110.022 70.9085 110.08 70.7919L109.994 70.0089L110.08 69.4007L109.994 68.9673L110.08 68.3591L109.994 67.7509C110.283 67.6343 110.431 67.5482 110.431 67.4899L110.428 67.4848ZM117.397 72.7863C117.28 72.728 117.193 72.7002 117.135 72.7002C116.901 72.7585 116.787 72.9333 116.787 73.2222V74.1776C116.787 75.1786 116.757 76.4812 116.701 78.0904L116.787 78.6124C116.787 79.251 116.467 79.5678 115.83 79.5678L115.654 79.915L115.916 80.3483C115.974 80.3483 116.002 80.3204 116.002 80.2622C116.525 80.3356 116.787 80.4497 116.787 80.6093V80.6955C116.787 80.8247 116.757 80.9413 116.701 81.0427C116.845 81.5647 116.99 81.8257 117.135 81.8257C117.252 81.8257 117.455 81.7675 117.744 81.6509C117.976 81.7092 118.092 81.8257 118.092 81.9981C118.034 82.1146 118.006 82.2008 118.006 82.2591C118.268 82.4339 118.471 82.5201 118.615 82.5201C119.748 82.5201 120.474 82.3174 120.794 81.9119V81.737H120.271C120.185 81.737 120.096 81.6509 120.01 81.476V81.3899C120.185 80.5789 120.444 80.1735 120.794 80.1735C121.056 80.1735 121.229 80.2039 121.318 80.2596L123.669 80.0848C123.755 80.143 123.931 80.1709 124.192 80.1709C124.423 80.0848 124.54 79.9961 124.54 79.9099V79.8237C124.482 79.6489 124.307 79.5627 124.017 79.5627H121.752C121.693 79.5627 121.665 79.5348 121.665 79.4766L121.49 79.5627H120.794C120.708 79.5627 120.619 79.4766 120.533 79.3017V78.6935C120.533 78.2449 120.502 77.8395 120.446 77.4771C120.505 77.173 120.533 76.8841 120.533 76.6079L120.446 75.5638C120.505 75.2597 120.533 74.9708 120.533 74.6946C120.314 73.9546 120.025 73.4047 119.662 73.0423C119.72 72.9257 119.748 72.8395 119.748 72.7813C119.37 72.5507 119.022 72.4341 118.702 72.4341L117.397 72.7813V72.7863ZM115.916 94.1697L115.741 94.6031L115.916 94.6892H116.178C116.294 94.6892 116.353 94.6309 116.353 94.5144V94.4282C116.251 94.4282 116.106 94.342 115.918 94.1672L115.916 94.1697ZM120.446 88.6072L121.231 88.6934C121.29 88.6934 121.376 88.6655 121.493 88.6072L121.927 88.6934L122.45 88.6072L123.06 88.6934C124.075 88.6351 124.685 88.6072 124.888 88.6072C126.341 88.6807 127.067 88.7947 127.067 88.9544C127.184 90.3608 127.242 91.1414 127.242 91.301V91.4759C127.242 91.562 127.156 91.6507 126.981 91.7369H126.371C126.298 91.7369 125.98 91.7952 125.414 91.9118H124.98C124.85 91.9118 124.733 91.8839 124.632 91.8256C124.545 91.8256 124.428 91.9422 124.284 92.1728C124.342 92.4059 124.515 92.52 124.807 92.52H125.33C125.663 92.52 126.127 92.5504 126.724 92.6061L126.899 92.52C127.189 92.6061 127.336 92.8089 127.336 93.1282C127.336 93.1865 127.306 93.2726 127.25 93.3892C127.308 93.6223 127.336 93.8225 127.336 93.9974C127.219 94.3598 127.161 94.5625 127.161 94.6056C127.379 95.0694 127.902 95.3 128.728 95.3C128.989 95.3 129.22 95.3861 129.424 95.561C129.35 96.2123 129.294 96.6177 129.248 96.7774L129.335 97.2994V97.3856C129.335 97.6187 129.304 97.8493 129.248 98.08C129.307 98.7743 129.51 99.674 129.858 100.774L129.51 101.035H129.335C128.87 101.035 128.319 101.065 127.679 101.121C127.621 101.121 127.593 101.093 127.593 101.035L126.983 101.121H123.499C123.065 101.121 122.773 100.629 122.628 99.6435V97.0359C122.628 95.936 122.511 95.3836 122.28 95.3836H121.757C120.944 95.3836 120.538 95.267 120.538 95.0364V90.5154C120.538 90.1961 120.335 89.6462 119.928 88.8631C120.16 88.6883 120.335 88.6021 120.452 88.6021L120.446 88.6072Z" fill="#E80D0D"/>
<path d="M129.81 67.4848C129.998 67.4848 130.142 67.5152 130.244 67.571C130.881 67.5127 131.435 67.4848 131.9 67.4848H132.509C133.365 67.4848 134.528 67.5152 135.993 67.571C136.009 67.6876 136.067 67.7459 136.169 67.7459C136.11 68.4402 136.024 68.9623 135.907 69.3094C136.024 69.5274 136.082 69.758 136.082 70.0038V70.1787C136.082 70.3383 136.024 70.5132 135.907 70.7007L135.384 70.6145C135.138 70.6145 134.876 70.6728 134.599 70.7894C134.396 70.7311 134.279 70.7032 134.251 70.7032C133.657 70.7615 133.307 70.7894 133.205 70.7894L132.159 70.7032L131.984 70.9643V71.1391C131.984 71.1822 132.07 71.2684 132.245 71.4001L133.291 71.314H134.249C135.468 71.4153 136.077 71.5598 136.077 71.7473V72.7914C136.077 73.2552 136.511 73.4858 137.385 73.4858C137.443 73.6023 137.502 73.8634 137.56 74.2688C137.487 74.502 137.342 74.6743 137.126 74.7909H136.341C136.255 74.7909 136.166 74.877 136.08 75.0519V75.138C136.08 75.356 136.514 75.5004 137.388 75.5714C137.446 75.688 137.474 75.7741 137.474 75.8324C137.416 76.5572 137.388 76.9322 137.388 76.9627C137.388 77.0792 137.446 77.282 137.563 77.5709C137.504 78.0346 137.273 78.2652 136.867 78.2652C136.737 78.2652 136.621 78.2373 136.519 78.1791C136.258 78.2956 136.113 78.4122 136.085 78.5262V79.1344C136.085 79.3676 136.054 79.5982 135.999 79.8288C136.057 80.0467 136.085 80.2774 136.085 80.5232V81.2175C136.085 81.3037 135.968 81.4203 135.737 81.5647H135.127C134.94 81.5647 134.792 81.5951 134.693 81.6509L134.17 81.5647H132.603C132.486 81.5799 132.428 81.6382 132.428 81.7396V82.0868C132.428 82.1729 132.545 82.2616 132.776 82.3478C132.834 82.3478 132.862 82.3199 132.862 82.2616C132.921 82.2616 133.007 82.292 133.124 82.3478C133.718 82.2895 134.183 82.2616 134.518 82.2616L135.127 82.4365L135.737 82.3503C135.823 82.3503 135.968 82.4669 136.171 82.6975L136.085 83.3057V90.1733L136.171 90.6954C136.113 90.7967 136.085 90.9412 136.085 91.1287V92.3451L136.171 92.9533L135.823 93.2143H135.562L135.125 93.1282C134.95 93.3309 134.805 93.5919 134.691 93.9112L134.777 94.3446C134.719 94.75 134.691 94.9832 134.691 95.0389C135.562 95.3278 136.258 95.5027 136.781 95.561V95.6471C136.781 96.1388 136.809 96.8635 136.867 97.8215C136.809 98.6907 136.781 99.2989 136.781 99.6461L136.867 100.254C136.809 100.371 136.781 100.457 136.781 100.515C136.839 100.632 136.867 100.718 136.867 100.776C136.867 100.906 136.082 101.022 134.515 101.124H132.25C131.915 101.124 131.453 101.096 130.856 101.037C130.739 101.096 130.653 101.124 130.594 101.124C130.361 101.065 130.16 100.979 129.985 100.862C129.985 100.733 130.013 100.617 130.071 100.515C130.013 99.4433 129.985 98.5462 129.985 97.8215V96.8661C129.985 96.5772 130.013 96.1413 130.071 95.5635C129.883 95.4469 129.708 95.3887 129.548 95.3887H128.591C128.388 95.3887 128.154 95.2721 127.895 95.0415L128.07 94.1723C128.012 93.9416 127.984 93.7085 127.984 93.4779C127.984 93.3917 128.159 93.2473 128.507 93.0445H129.03L129.205 93.1307L129.467 92.6974C129.408 91.6406 129.381 90.9741 129.381 90.6979C129.381 90.3659 129.408 90.1607 129.467 90.0897C129.408 89.4967 129.381 89.0329 129.381 88.6984V84.7857C129.381 83.9316 129.408 82.771 129.467 81.3088C129.408 81.0782 129.381 80.845 129.381 80.6144C129.497 80.3534 129.612 80.2089 129.728 80.1811H130.599C130.686 80.1811 130.803 80.0645 130.947 79.8339V79.7477C130.947 79.6311 130.889 79.5729 130.772 79.5729H129.726C129.64 79.5729 129.523 79.4563 129.378 79.2257V78.7036C129.378 78.3843 129.553 78.1233 129.901 77.9206L130.424 78.0067C130.612 78.0067 130.729 77.543 130.772 76.6155C130.714 75.9794 130.627 75.6018 130.511 75.4852L130.076 75.5714H129.728C129.655 75.5714 129.51 75.4269 129.292 75.138C129.408 74.7326 129.64 74.5298 129.987 74.5298C130.292 74.5881 130.467 74.616 130.511 74.616L130.686 74.355V74.0078C130.686 73.8482 130.627 73.6758 130.511 73.4858C130.394 73.4858 130.191 73.544 129.901 73.6606C129.815 73.6606 129.64 73.5162 129.378 73.2273C129.436 72.0692 129.464 71.1999 129.464 70.6196V69.5755C129.464 69.3297 129.492 69.0104 129.551 68.6201C129.477 68.2882 129.391 68.055 129.289 67.9258V67.8396C129.289 67.723 129.464 67.609 129.812 67.4924L129.81 67.4848ZM135.122 68.8761V69.4843C135.138 69.6009 135.196 69.6592 135.298 69.6592L135.384 69.2258L135.298 68.8786H135.122V68.8761ZM135.993 96.1692V96.7774H136.169C136.169 96.7191 136.197 96.6329 136.255 96.5164C136.197 96.415 136.169 96.2984 136.169 96.1692H135.993Z" fill="#E80D0D"/>
</svg>
