<svg width="915" height="185" viewBox="0 0 915 185" fill="none" xmlns="http://www.w3.org/2000/svg">
<g clip-path="url(#clip0_1_5)">
<path d="M6.41321 75.937H17.2888C19.1502 75.937 21.9382 76.0343 25.6528 76.2127C25.6528 76.4885 25.9292 76.7724 26.4901 77.0482L25.9292 80.39L26.2056 84.2834C26.0186 87.7144 25.9292 90.7723 25.9292 93.4652H25.6528C25.6528 94.4872 27.3273 95.0388 30.668 95.1361C30.668 95.3227 30.7574 95.4119 30.9444 95.4119C30.9444 95.5092 30.8468 95.8743 30.668 96.5231C30.8549 97.4965 30.9444 98.0562 30.9444 98.194C30.7086 99.1187 30.4323 99.5892 30.1071 99.5892H28.7172C28.2539 99.2161 27.88 99.0295 27.6036 99.0295C26.8558 99.2161 26.4901 99.7757 26.4901 100.7C26.677 101.26 27.2297 101.536 28.1645 101.536H30.1153L30.9525 102.096C30.7655 103.345 30.5786 104.18 30.3916 104.602L30.668 105.997L30.3916 108.503C30.7655 109.339 31.1313 109.801 31.5052 109.89C32.2449 109.89 33.456 107.481 35.1304 102.655C35.1304 102.242 34.2038 101.868 32.3424 101.544L32.0661 100.984V100.149C32.3424 99.1268 34.0168 98.4779 37.0812 98.2022C37.7802 97.6912 38.2435 96.8557 38.4793 95.6958C38.1054 95.6958 37.9184 95.5093 37.9184 95.1361L37.3576 95.4119H36.244C35.9676 95.4119 35.5937 95.0388 35.1304 94.3007V93.741C38.1054 87.0168 40.0561 83.4966 40.9828 83.1721H56.3208L59.1088 84.0076L60.7832 83.7318L61.0596 84.2915V84.8511C58.2228 90.4641 56.646 93.4328 56.3208 93.7572V94.3169C56.3208 94.5927 56.7841 94.9658 57.7108 95.4281L58.2716 95.1524H59.3852C59.6615 95.1524 59.946 95.4281 60.2224 95.9878C60.2224 97.099 59.3852 98.1211 57.7108 99.0457H55.76C54.7358 99.0457 53.9961 99.5081 53.5328 100.433V100.709C53.5328 101.171 54.6464 101.544 56.8817 101.82V102.655C55.8087 103.904 54.9797 105.389 54.37 107.108C53.2971 109.152 52.6468 110.166 52.4193 110.166H51.582C51.1675 110.166 50.7936 110.077 50.4685 109.89C49.0785 109.89 47.7699 111.375 46.5669 114.343C45.8191 115.041 44.1528 118.375 41.5518 124.361C43.2262 127.143 45.4533 132.707 48.2413 141.054C48.8428 141.8 49.9564 144.582 51.5902 149.4C52.5656 151.809 53.7767 154.405 55.2154 157.187V157.463C55.2154 157.974 54.0043 158.347 51.5902 158.574C51.4032 158.947 51.3138 159.223 51.3138 159.409C52.1998 162.751 53.1264 164.414 54.1018 164.414C58.5642 164.787 60.7914 165.436 60.7914 166.36C60.7914 166.871 61.718 169.281 63.5794 173.596C64.8311 176.102 66.0422 179.071 67.2046 182.502C67.2046 183.24 63.3924 183.613 55.7762 183.613H55.4999C53.4109 183.613 50.7123 183.516 47.4122 183.337C47.0871 183.524 46.7132 183.613 46.2987 183.613C45.372 183.613 43.5107 179.346 40.7227 170.814C39.4221 167.107 38.3086 165.249 37.3738 165.249C32.9114 165.249 30.6842 164.414 30.6842 162.743C30.4973 161.534 30.034 160.334 29.2943 159.125C29.2943 158.339 30.2209 157.876 32.0823 157.738V158.014C32.4562 157.828 32.7326 157.738 32.9195 157.738V157.463C32.2205 154.169 31.3833 151.76 30.4079 150.227C29.7089 147.632 28.9692 146.334 28.1807 146.334C26.6933 148.702 25.9536 150.738 25.9536 152.458V155.516C26.3275 156.814 26.5144 157.56 26.5144 157.738C26.5144 158.111 26.3275 158.298 25.9536 158.298H23.7264C22.6129 158.298 22.052 158.858 22.052 159.969V161.916C21.3042 163.027 20.654 163.586 20.1012 163.586V164.146H20.3776C21.9138 164.146 23.6777 164.519 25.6772 165.257H25.9536L27.9044 164.698L28.4652 165.533C28.4652 166.093 28.3677 166.742 28.1889 167.48C28.3758 170.262 28.4652 172.582 28.4652 174.439C28.4652 174.902 28.3677 175.648 28.1889 176.662C28.3758 177.359 28.4652 178.195 28.4652 179.168C28.2783 180.466 28.1889 181.204 28.1889 181.391C28.5628 181.991 28.7497 182.453 28.7497 182.778L28.1889 183.053H26.5144C23.8159 183.426 22.4259 183.613 22.3284 183.613C21.2554 183.613 20.6052 183.516 20.3776 183.337C18.8007 183.524 17.4921 183.613 16.476 183.613H8.92485C8.27459 183.613 7.53492 183.24 6.6977 182.502C6.88465 180.644 6.97407 179.257 6.97407 178.324V173.596C6.97407 172.022 6.87653 170.351 6.6977 168.591V165.533C2.23528 165.347 0.00813293 164.795 0.00813293 163.862C0.00813293 163.4 0.195083 162.475 0.568984 161.08C0.382034 160.342 0.292623 159.596 0.292623 158.858C0.894115 158.16 2.19464 157.698 4.19419 157.463C4.5681 156.724 4.75505 156.075 4.75505 155.516C4.75505 155.329 4.65751 155.24 4.47868 155.24L4.75505 153.569C4.75505 152.271 4.65751 151.622 4.47868 151.622C4.66564 149.765 4.75505 148.378 4.75505 147.445V136.592C4.75505 131.117 4.65751 125.091 4.47868 118.504C4.66564 117.207 4.75505 115.349 4.75505 112.94L4.47868 111.269C4.47868 110.158 5.96616 109.509 8.94111 109.323C8.94111 109.136 9.03052 109.047 9.21747 109.047L8.94111 107.376C9.12806 105.429 9.21747 103.856 9.21747 102.647C8.70539 102.047 7.40486 101.674 5.3159 101.536L4.47868 100.425C5.03954 99.1268 5.86862 98.4779 6.99032 98.4779C7.17727 98.4779 7.26668 98.5753 7.26668 98.7537C8.38026 98.5185 8.94111 98.2427 8.94111 97.9183V95.9716C8.94111 95.5985 8.75416 95.4119 8.38026 95.4119L6.70583 95.6877C5.86862 95.3632 5.12895 94.7144 4.47868 93.741V89.5637C4.47868 88.6796 4.5681 87.755 4.75505 86.7816C4.5681 86.084 4.47868 85.2486 4.47868 84.2753L4.75505 80.9334L4.47868 79.5464L4.75505 78.1513C4.38115 77.5511 4.19419 77.0887 4.19419 76.7643C5.12082 76.2046 5.86862 75.9288 6.42134 75.9288L6.41321 75.937ZM15.3381 105.429L14.5008 106.54V107.652L15.8908 107.927H17.8416C18.1179 107.927 18.4024 107.652 18.6788 107.092C18.6788 106.394 17.5652 105.843 15.3299 105.421L15.3381 105.429ZM27.8881 104.318L27.6118 104.878V105.153C27.6605 105.527 27.8475 105.713 28.1726 105.713C28.5465 105.527 28.8229 105.437 29.0098 105.437V104.602L27.8962 104.326L27.8881 104.318ZM40.9909 118.504V119.064C41.2673 119.064 41.5518 118.788 41.8281 118.229V117.953H41.5518C41.1778 118.002 40.9909 118.188 40.9909 118.513V118.504ZM45.7297 75.937V76.2127L46.2905 75.937H47.1278C47.3147 75.937 47.4041 76.0343 47.4041 76.2127L47.965 75.937H51.0293C51.2163 75.937 51.3057 76.0343 51.3057 76.2127L51.8665 75.937H56.329C56.5159 75.937 56.6053 76.0343 56.6053 76.2127C56.9792 76.0262 57.2556 75.937 57.4425 75.937C57.9058 75.937 60.3199 76.0343 64.6929 76.2127L65.2538 77.0482C63.9045 79.8303 62.5146 81.2254 61.0677 81.2254H42.6653C41.9175 80.8523 41.5518 80.39 41.5518 79.8384L43.5025 76.4966C44.2016 76.1235 44.9412 75.937 45.7297 75.937ZM43.5025 136.033V137.144H44.0634V136.584C44.0634 136.211 43.8764 136.025 43.5025 136.025V136.033Z" fill="#E80D0D"/>
<path d="M86.5011 71.7678H105.741L107.415 72.0436L107.976 71.7678C109.878 71.9544 111.366 72.0436 112.438 72.0436H112.999C113.788 72.0436 114.251 73.901 114.389 77.6079C115.088 79.4653 115.552 82.1501 115.779 85.6785C116.34 85.6785 116.706 87.0655 116.893 89.8557C117.454 90.2694 119.03 90.7399 121.632 91.2428C121.632 92.1674 121.818 92.9137 122.192 93.4652C122.192 94.3899 120.892 94.9496 118.291 95.1361C117.917 95.7364 117.73 96.2068 117.73 96.5231C118.429 97.0828 119.079 97.3586 119.681 97.3586H121.632C122.558 97.8209 123.03 98.5672 123.03 99.5811C122.753 100.327 122.005 100.692 120.802 100.692V101.252C122.664 101.252 123.59 101.998 123.59 103.474V105.421C123.59 105.794 122.379 106.07 119.965 106.257L119.404 107.368C119.404 108.155 119.965 110.564 121.079 114.603C121.266 117.847 121.355 119.794 121.355 120.443C121.867 120.443 122.42 122.666 123.03 127.119C122.331 127.492 121.591 127.678 120.802 127.678H111.878C111.601 127.678 111.317 127.954 111.04 128.514V129.349C111.04 129.625 111.317 129.909 111.878 130.185H118.852C122.201 130.185 123.867 130.833 123.867 132.131C123.867 136.909 124.704 142.011 126.378 147.437C126.378 147.624 126.281 147.713 126.102 147.713L126.378 149.1V150.495L126.102 151.882C126.378 151.882 126.752 152.255 127.216 152.993V153.269C127.029 153.829 126.468 154.104 125.541 154.104H123.59C122.518 155.402 121.778 156.051 121.363 156.051C120.989 155.865 120.713 155.775 120.526 155.775L120.25 156.335V156.895C120.388 158.006 120.664 158.566 121.087 158.566C121.087 158.29 121.55 157.917 122.485 157.454H122.761C123.826 159.498 124.85 160.512 125.826 160.512C128.427 160.885 129.727 161.534 129.727 162.459C130.654 163.53 131.125 164.357 131.125 164.965C131.54 167.934 131.914 169.97 132.239 171.089C131.963 172.76 131.589 173.596 131.125 173.596L129.727 173.036C128.516 173.596 127.216 173.871 125.826 173.871H119.136C118.86 173.871 118.575 174.147 118.299 174.707C118.575 175.453 118.86 175.818 119.136 175.818H127.777C128.012 175.818 129.028 176.005 130.841 176.378L132.231 176.102C133.157 177.075 133.629 177.822 133.629 178.324C133.027 178.649 130.979 179.022 127.492 179.436L125.541 179.16L124.151 179.436C123.176 179.249 122.615 179.16 122.477 179.16L120.526 179.436C118.9 179.249 117.876 179.16 117.462 179.16L114.113 179.436V179.16L113.552 179.436H113.276C112.251 179.436 111.512 178.973 111.049 178.049L111.325 175.542C110.764 173.458 110.024 169.378 109.098 163.303V161.632C109.098 161.494 108.821 161.218 108.261 160.796C107.887 160.983 107.61 161.072 107.423 161.072C106.123 161.072 102.221 160.61 95.7105 159.677C92.9225 159.863 90.5978 159.953 88.7364 159.953L88.46 160.512C88.647 161.624 88.9233 162.183 89.2972 162.183H89.8581L90.6953 161.624H91.5325C91.8089 161.624 92.0934 161.899 92.3697 162.459L90.1426 174.423V178.041C90.1426 178.503 89.4923 178.876 88.1918 179.152L87.6309 178.876C85.2575 179.249 83.8676 179.436 83.4449 179.436C83.3474 179.436 82.1444 179.347 79.8197 179.16C79.7221 179.16 78.5191 179.257 76.1945 179.436L74.8045 179.16C74.4306 179.347 74.1543 179.436 73.9673 179.436L72.8537 179.16L71.4638 179.436C70.1633 179.16 69.513 178.787 69.513 178.324L71.4638 169.418C71.4638 168.632 71.6508 166.685 72.0247 163.578V161.907C72.0247 161.632 71.7483 161.348 71.1874 161.072H68.1231C67.1477 161.072 66.4974 160.699 66.1723 159.961V159.685C66.5462 157.876 66.7331 156.854 66.7331 156.627V156.351C66.7331 155.938 66.6437 155.564 66.4568 155.24C66.4568 154.218 68.0337 153.666 71.1956 153.569C71.6101 152.458 72.171 151.809 72.87 151.622L74.5444 151.898C75.3816 151.525 75.8449 151.16 75.9344 150.787C75.9344 150.227 74.8208 149.862 72.5855 149.676C72.2116 149.213 72.0247 148.938 72.0247 148.84V148.565C73.886 139.618 74.8127 133.77 74.8127 131.036C76.3001 124.499 77.0398 120.978 77.0398 120.467C77.0398 120.329 76.9423 119.77 76.7634 118.796L78.4379 110.726L78.1615 110.166C78.1615 108.268 78.9012 106.597 80.3887 105.162L82.3394 105.437H82.9003C83.3636 105.437 84.0139 103.118 84.8511 98.4779C84.6641 98.1048 84.5747 97.829 84.5747 97.6425H81.7867C81.5104 97.6425 81.1365 97.2694 80.6731 96.5313V95.6958C81.234 94.7711 81.8843 94.3088 82.6239 94.3088C83.6481 94.4953 84.3878 94.5846 84.8511 94.5846C85.4119 93.7491 85.6883 93.1002 85.6883 92.6379C85.6883 92.1269 85.225 91.6645 84.2984 91.2428C83.9732 91.4293 83.5993 91.5185 83.1848 91.5185C82.0712 90.8696 81.5104 90.4073 81.5104 90.1315C83.3717 80.4387 84.2984 74.6878 84.2984 72.879C85.0868 72.1409 85.8346 71.7678 86.5255 71.7678H86.5011ZM97.0923 108.211L97.3686 110.994V111.269C97.3686 111.683 97.2711 112.056 97.0923 112.381C97.0923 112.567 97.1817 112.656 97.3686 112.656C97.1817 115.674 96.6208 119.194 95.6942 123.225L93.7434 138.247H93.1826C92.7192 138.247 92.3453 137.509 92.069 136.025L92.3454 134.913C92.1584 134.54 92.069 134.265 92.069 134.078H91.7926C91.4187 134.127 91.2318 134.313 91.2318 134.638V141.037C91.2318 141.41 91.6057 141.597 92.3454 141.597V142.992C92.3454 143.365 92.1584 143.552 91.7845 143.552H91.2236L89.8256 143.276L89.5492 143.836L96.2388 144.947C96.377 144.947 96.9378 144.858 97.9132 144.671C98.1002 144.671 98.3765 144.769 98.7504 144.947C99.7746 144.76 100.612 144.671 101.262 144.671H103.489C103.863 144.671 104.05 144.485 104.05 144.111C101.449 127.654 99.864 116.339 99.3113 110.166C99.0756 110.166 98.6123 109.517 97.9213 108.219H97.0841L97.0923 108.211ZM111.593 77.0482V77.8836L112.991 78.1594L113.268 77.5997V77.0401L112.707 76.2046C111.959 76.4804 111.593 76.7643 111.593 77.0401V77.0482ZM113.268 85.9543L113.828 86.23H114.105V85.3946H113.828C113.454 85.4433 113.268 85.6298 113.268 85.9543ZM117.73 110.434V113.492C117.73 114.838 118.006 115.576 118.567 115.714L118.844 115.155V112.932C119.03 112.145 119.12 111.496 119.12 110.985C118.795 110.985 118.331 110.799 117.73 110.426V110.434ZM120.794 159.401V159.677H121.355V159.401H120.794ZM123.306 146.877V147.989H123.582V146.877H123.306ZM123.306 148.548V149.108H123.582V148.548H123.306Z" fill="#E80D0D"/>
<path d="M178.156 73.8524L180.106 74.1282H194.323C194.737 74.1282 195.111 74.2255 195.436 74.4039C195.761 74.2174 196.135 74.1282 196.55 74.1282L197.387 75.2394C196.274 78.9949 195.249 81.8743 194.323 83.8616C193.575 88.0388 192.746 90.7236 191.811 91.9322C191.624 92.2567 191.535 92.719 191.535 93.3192V94.9901C194.136 95.128 195.436 95.4038 195.436 95.8256V96.3853C195.436 96.8476 194.786 97.2207 193.486 97.4965C192.461 97.3099 191.722 97.2207 191.258 97.2207C189.771 99.7271 188.47 103.523 187.357 108.625L181.781 126.153C181.407 126.478 181.131 127.873 180.944 130.331L178.716 137.29L176.489 144.801C176.254 144.801 175.977 145.361 175.652 146.472C175.839 150 176.026 152.223 176.213 153.147L175.099 153.983C174.352 153.983 173.986 153.894 173.986 153.707C172.124 153.894 170.734 153.983 169.8 153.983H156.421C155.445 153.983 154.884 153.707 154.746 153.147V147.583C154.746 146.934 154.649 146.099 154.47 145.077C154.844 144.241 155.209 143.779 155.583 143.69H169.8C170.076 143.69 170.361 143.414 170.637 142.854C170.45 142.116 169.889 141.743 168.962 141.743H156.697L153.909 142.019C152.836 140.956 152.096 138.726 151.682 135.343C150.934 134.281 150.007 131.028 148.894 125.602C147.406 122.082 146.016 117.531 144.708 111.967C143.407 108.722 142.009 103.896 140.522 97.4965L141.635 96.661H143.862V96.1014C143.862 95.7283 143.586 95.5417 143.025 95.5417L141.074 95.8175C139.823 95.8175 138.985 94.1466 138.563 90.8129C136.937 87.244 136.002 83.9995 135.775 81.0713C135.401 80.6577 134.661 78.7029 133.548 75.2313V74.9555C133.548 74.6797 133.824 74.3958 134.385 74.12H150.276C151.064 74.12 152.088 74.2174 153.34 74.3958C153.665 74.2093 154.128 74.12 154.73 74.12C155.843 74.12 156.494 75.2313 156.681 77.4619L156.404 78.5731L157.242 80.5198L156.965 81.631C158.266 83.2046 159.013 85.1594 159.192 87.4711C159.379 87.4711 159.469 87.5684 159.469 87.7468V89.4177L159.745 91.3644C158.631 91.5997 158.071 91.8754 158.071 92.1999V93.3111C158.071 93.6842 158.347 93.8708 158.908 93.8708L160.859 93.595C161.322 94.7062 162.07 95.2659 163.086 95.2659H165.037C165.313 95.2659 165.687 95.639 166.15 96.3772V96.6529C166.15 97.026 164.939 97.3018 162.525 97.4884C162.387 99.7109 161.826 101.382 160.85 102.493L160.574 103.88C160.761 104.253 160.85 104.529 160.85 104.715H161.127C162.053 104.204 162.525 103.742 162.525 103.32H163.086C163.825 104.569 164.573 107.538 165.313 112.226C165.5 112.226 165.589 112.413 165.589 112.786H165.866C166.752 112.786 167.491 110.191 168.093 104.999C168.605 103.977 169.442 101.382 170.604 97.2126L172.555 96.6529H174.506C174.88 96.6529 175.067 96.4664 175.067 96.0933C175.067 95.7201 173.953 95.4444 171.718 95.2578L171.442 94.6981C174.417 82.9694 175.904 76.5696 175.904 75.499C175.904 74.8014 176.644 74.2498 178.131 73.828L178.156 73.8524ZM155.291 156.481H174.53C175.644 156.481 176.205 156.854 176.205 157.592C175.831 158.193 175.644 158.663 175.644 158.979C175.644 161.202 176.294 162.321 177.595 162.321C179.919 162.735 181.594 163.108 182.61 163.432C182.797 166.863 182.886 169.37 182.886 170.943V178.73C182.886 180.401 182.236 181.236 180.935 181.236H180.098C179.911 181.236 179.822 181.139 179.822 180.961C178.985 181.334 177.774 181.52 176.197 181.52H175.636C172.848 181.52 169.597 181.423 165.874 181.245C165.126 181.431 164.484 181.52 163.923 181.52L163.362 181.245L162.801 181.52C162.102 181.52 161.452 181.147 160.85 180.409C161.037 178.552 161.127 177.165 161.127 176.24V168.729C161.127 168.08 161.216 167.245 161.403 166.223C161.403 164.187 160.655 163.165 159.176 163.165C156.201 163.165 154.714 162.792 154.714 162.053V158.996L154.437 157.049L155.274 156.489L155.291 156.481ZM155.852 83.8697V85.5406C156.225 85.5406 156.412 85.2648 156.412 84.7051C156.225 84.332 156.136 84.0563 156.136 83.8697H155.86H155.852ZM174.254 158.436C174.254 158.809 174.156 158.996 173.978 158.996C174.165 159.369 174.254 159.644 174.254 159.831C174.628 159.831 174.815 159.644 174.815 159.271V158.996C174.815 158.622 174.628 158.436 174.254 158.436ZM179.554 123.379L179.277 125.326L179.554 126.713C179.968 126.713 180.342 125.975 180.667 124.491C180.391 123.752 180.106 123.379 179.83 123.379H179.554ZM179.554 127.273V128.108H179.83V127.273H179.554ZM179.554 167.058V168.729H180.114C180.114 168.542 180.204 168.267 180.391 167.894L180.114 166.498C179.741 166.547 179.554 166.734 179.554 167.058ZM192.104 83.0342L192.941 83.5939L193.217 83.0342V81.6472H192.941C192.526 81.6472 192.242 82.1096 192.104 83.0342Z" fill="#E80D0D"/>
<path d="M204.085 75.2475H228.063C228.25 75.2475 228.34 75.3448 228.34 75.5233L228.9 75.2475H229.177C241.304 75.2475 249.018 77.7539 252.318 82.7585C253.342 83.1721 254.643 85.9543 256.22 91.1049C256.22 92.4513 256.87 93.5626 258.17 94.4467C259.194 94.2601 259.934 94.1709 260.397 94.1709C261.235 94.544 261.698 94.9171 261.796 95.2821V96.6773C261.796 97.9751 260.584 98.6239 258.17 98.6239L257.333 99.7352C257.52 100.481 258.073 100.846 259.008 100.846H260.958C261.519 100.846 261.796 101.22 261.796 101.958C261.796 103.028 261.698 104.505 261.519 106.411L261.796 107.806C261.796 108.966 260.308 109.615 257.333 109.753C256.772 110.353 255.659 113.605 253.984 119.494C253.708 119.494 252.773 120.516 251.196 122.552C250.31 122.876 248.92 123.712 247.01 125.058V125.894C249.059 126.494 251.375 127.978 253.984 130.347C253.984 130.906 253.61 131.182 252.871 131.182C252.31 131.182 251.66 131.093 250.92 130.906C249.945 131.093 249.018 131.182 248.132 131.182H247.571C246.823 131.182 246.457 131.093 246.457 130.906L244.507 131.182H237.256C236.143 131.182 235.582 131.555 235.582 132.294C235.858 133.218 236.508 133.681 237.533 133.681H255.098C256.585 134.751 257.325 135.765 257.325 136.738V139.521C257.325 140.121 257.049 140.77 256.488 141.467V142.578L257.878 142.303C258.341 142.303 258.715 144.525 258.991 148.978C258.804 150.414 258.715 151.996 258.715 153.707V154.818C258.715 155.005 258.902 155.743 259.276 157.041C258.528 157.414 257.512 157.6 256.211 157.6H255.098L254.537 159.547V162.889C254.537 163.635 256.211 164.373 259.552 165.111V165.387L259.276 165.947C259.65 166.547 259.837 167.107 259.837 167.618C258.91 168.867 258.073 170.724 257.325 173.182C257 173.182 256.073 174.204 254.537 176.24C253.936 176.986 251.147 177.351 246.173 177.351C243.385 177.351 241.987 177.165 241.987 176.791L238.638 177.351C238.313 177.213 237.012 177.027 234.737 176.791C233.249 177.165 231.672 177.351 229.998 177.351H227.486C226.373 177.448 225.812 177.724 225.812 178.187V179.022L226.088 179.582L230.827 179.022C232.038 179.582 232.867 179.858 233.338 179.858H235.013C235.2 179.858 236.313 179.582 238.362 179.022L241.987 180.133C243.661 179.574 244.775 179.298 245.336 179.298H247.01C247.384 179.347 247.571 179.533 247.571 179.858V180.133C247.571 180.693 246.644 181.155 244.783 181.52C244.547 181.52 243.621 181.423 241.995 181.245C240.508 182.169 239.296 182.632 238.37 182.632C237.809 182.632 236.045 182.534 233.07 182.356C231.957 182.494 231.396 182.68 231.396 182.915C230.794 182.915 230.323 182.818 229.998 182.64C225.161 182.826 221.357 182.915 218.569 182.915H207.694C205.28 182.778 204.069 182.404 204.069 181.804L204.345 180.409C204.345 180.223 204.255 180.133 204.069 180.133L204.345 178.187V173.458L204.069 171.511C204.808 170.951 205.93 170.676 207.417 170.676C208.482 170.676 209.97 170.773 211.88 170.951C212.441 170.951 213.091 170.862 213.831 170.676C217.545 170.862 220.805 170.951 223.585 170.951H231.949C232.973 170.951 234.273 170.862 235.85 170.676C236.175 170.862 236.639 170.951 237.248 170.951C237.573 170.951 238.126 170.765 238.923 170.392C238.549 169.281 237.809 168.721 236.695 168.721H227.771C226.795 168.721 225.958 168.818 225.259 168.997C224.284 168.81 223.357 168.721 222.471 168.721H207.417L205.743 168.997C204.629 168.534 204.069 167.885 204.069 167.05L204.345 166.49C204.02 165.192 203.646 164.544 203.231 164.544H200.443C199.005 164.544 198.07 164.081 197.655 163.148V160.091L197.379 158.144L198.493 157.308H201.004C203.231 157.308 204.353 156.286 204.353 154.25C204.353 153.975 203.605 153.042 202.126 151.468V128.1C202.313 127.54 202.866 127.265 203.8 127.265H219.415C219.691 127.265 219.976 126.989 220.252 126.429V126.153C220.065 125.594 219.504 125.318 218.578 125.318C217.83 125.318 217.464 125.415 217.464 125.594L214.676 125.318H209.937C209.051 125.318 208.125 125.415 207.149 125.594C206.45 125.407 205.613 125.318 204.638 125.318H202.963C202.402 125.131 202.126 124.58 202.126 123.647V114.741L202.402 113.07C202.215 112.746 202.126 112.283 202.126 111.675V111.115C202.126 109.444 203.516 108.609 206.312 108.609L206.873 104.991C206.873 102.396 206.499 101.098 205.759 101.098C205.572 101.098 205.296 101.009 204.922 100.822L203.532 101.098C202.695 100.725 202.232 100.36 202.142 99.9866V99.1512C202.142 98.5915 202.979 98.1292 204.654 97.7642H206.605C206.605 97.5776 206.694 97.3018 206.881 96.9287C206.881 95.4444 205.857 94.7062 203.817 94.7062C203.256 94.471 202.605 93.9195 201.866 93.0353L202.142 91.6402C202.142 89.9693 202.232 88.12 202.418 86.0759C202.232 84.5024 202.142 83.2938 202.142 82.4584L202.418 80.5117C202.232 79.5383 202.142 78.4271 202.142 77.1699C202.142 75.9126 202.792 75.2232 204.093 75.2232L204.085 75.2475ZM223.601 135.903L223.877 136.463C223.877 137.249 223.69 137.996 223.316 138.685C223.316 138.782 223.406 139.147 223.593 139.796C223.593 140.397 223.495 140.867 223.316 141.191C223.503 142.765 223.593 144.063 223.593 145.085V148.978C223.593 150.187 223.495 151.387 223.316 152.596L223.877 157.049C223.276 157.422 222.715 157.609 222.203 157.609H220.252C220.114 157.609 219.463 158.257 218.301 159.555H216.627L216.35 160.666L217.188 161.226C217.927 160.853 218.488 160.666 218.862 160.666C219.65 162.564 220.301 163.684 220.813 164.008L222.764 164.568H223.04L224.714 164.292C225.641 164.292 226.202 165.038 226.389 166.515L227.779 166.79H228.892C234.281 166.79 236.98 166.231 236.98 165.119C236.98 164.56 235.956 164.284 233.916 164.284C233.729 164.284 233.452 164.381 233.078 164.56C232.241 164.187 231.778 163.822 231.688 163.449L233.078 159.271C232.891 158.898 232.802 158.622 232.802 158.436C233.688 157.511 235.078 157.049 236.988 157.049L237.264 156.489V144.249C237.264 139.894 235.403 136.925 231.688 135.343C230.713 135.343 228.949 135.157 226.389 134.784H224.714C224.527 134.784 224.154 135.157 223.601 135.895V135.903ZM223.877 91.9484V93.0597C223.877 93.7572 225.178 94.2196 227.779 94.4467L228.055 95.0064V96.3934C228.055 97.7398 227.779 98.478 227.218 98.6158H226.942C226.478 98.6158 226.104 97.7804 225.828 96.1095L225.267 95.8337H224.991L224.714 97.2288L225.828 98.3401C224.292 99.4513 222.991 100.011 221.926 100.011C221 100.011 220.536 100.571 220.536 101.682V102.242C220.536 102.753 222.113 103.215 225.275 103.637C226.299 103.45 227.137 103.361 227.787 103.361L228.063 103.921V108.649C228.063 108.925 227.787 109.209 227.226 109.485H226.389C225.974 109.485 225.6 109.396 225.275 109.209C224.162 109.209 223.601 111.156 223.601 115.049V115.885C223.601 117.458 223.975 118.48 224.714 118.942C230.103 118.245 232.802 117.507 232.802 116.72C232.802 116.306 233.452 115.374 234.753 113.938L235.59 111.432C235.403 111.058 235.314 110.783 235.314 110.596C236.151 109.298 237.638 108.649 239.776 108.649L240.337 104.756C240.337 102.16 239.776 100.863 238.662 100.863H238.386L236.435 101.138L235.598 99.4675C235.598 99.281 235.972 98.7294 236.712 97.7966L238.102 98.0724H238.662C238.939 98.0724 239.223 97.7966 239.5 97.2369V96.6773C238.711 95.3795 238.15 94.7306 237.825 94.7306H235.874C235.362 94.7306 233.688 93.7086 230.859 91.6727L229.461 91.3969H227.51C226.86 91.3969 226.023 91.3077 224.999 91.1211C224.251 91.3969 223.885 91.6808 223.885 91.9566L223.877 91.9484ZM251.481 159.555V160.115H252.042C252.042 159.742 251.855 159.555 251.481 159.555ZM255.106 138.969L255.382 140.356H255.943L255.667 138.969H255.106Z" fill="#E80D0D"/>
<path d="M287.66 70.9323C294.723 70.9323 300.112 71.492 303.827 72.6033C306.013 73.5279 308.427 75.0123 311.077 77.0563C311.077 77.616 312.004 78.5406 313.865 79.8384C314.467 82.8071 315.865 84.2915 318.043 84.2915C320.043 84.2915 321.433 85.3135 322.229 87.3494V87.6252C321.579 88.2741 320.368 88.7364 318.604 89.0203C318.604 90.3181 317.393 90.967 314.979 90.967H309.964C309.687 90.967 309.403 91.2428 309.126 91.8024V92.6379C309.126 93.1976 309.5 93.4733 310.24 93.4733C311.679 93.4733 314.28 93.5707 318.043 93.7491C318.368 94.0249 318.645 95.2335 318.88 97.3667L318.32 102.931C318.507 104.829 318.783 106.411 319.157 107.66C319.157 109.704 318.409 110.718 316.93 110.718H304.664C304.388 110.718 304.103 110.994 303.827 111.553V112.389L304.388 113.224L305.778 112.948H310.24C316.19 112.948 319.165 113.411 319.165 114.335C318.978 114.895 318.791 115.171 318.604 115.171C318.604 116.606 320.092 117.628 323.066 118.229V118.788L322.79 119.348C323.164 119.948 323.351 120.419 323.351 120.743C322.652 121.303 322.099 121.579 321.677 121.579L320.563 121.303C319.262 121.952 318.612 122.69 318.612 123.525C318.612 123.712 318.702 123.988 318.889 124.361C318.702 125.934 318.612 127.24 318.612 128.254V129.09C318.612 130.112 318.702 131.409 318.889 132.983C318.889 133.17 318.791 133.259 318.612 133.259C318.799 134.232 318.889 134.792 318.889 134.93C318.889 136.227 318.791 138.734 318.612 142.441C318.799 143.738 318.889 144.485 318.889 144.663C318.702 145.361 318.612 146.099 318.612 146.886C318.612 147.299 318.702 147.672 318.889 147.997C318.702 149.019 318.612 149.854 318.612 150.503V153.845C318.612 155.329 318.515 157.089 318.336 159.133C318.336 160.204 319.36 160.853 321.4 161.08H323.912C324.188 161.08 324.473 161.356 324.749 161.916C323.676 165.444 322.936 167.204 322.522 167.204C321.733 167.204 318.482 167.391 312.768 167.764C312.581 167.764 312.492 167.675 312.492 167.488L311.102 167.764H305.802C304.591 167.764 302.738 167.675 300.226 167.488L299.389 168.599C299.389 168.786 299.763 169.159 300.502 169.71L301.9 169.435H303.575C305.948 169.435 308.549 169.532 311.378 169.71L312.768 169.435L314.158 169.71L316.109 169.435L317.783 170.27H318.897L319.734 169.71H320.571C321.132 169.897 321.408 170.457 321.408 171.381C319.783 172.817 318.206 174.026 316.67 174.999C316.67 176.386 313.695 177.968 307.745 179.728C303.469 180.466 300.031 180.839 297.43 180.839H292.967C286.367 180.19 282.279 179.079 280.702 177.497C278.654 176.662 276.15 174.253 273.175 170.262L269.55 161.08H265.372C263.885 161.08 263.145 160.52 263.145 159.409C262.958 157.649 262.868 155.702 262.868 153.569V129.365C262.868 128.343 262.771 127.046 262.592 125.472C262.779 125.099 262.868 124.823 262.868 124.637L262.592 122.966C262.682 121.903 264.08 121.254 266.778 121.019C267.103 120.557 267.38 119.81 267.615 118.796C267.339 118.058 267.055 117.685 266.778 117.685H264.827C263.803 117.685 263.064 117.223 262.6 116.29C262.6 115.268 263.161 114.53 264.275 114.068L266.225 114.343H267.339C267.941 114.343 268.404 114.254 268.729 114.068L270.127 114.343C274.63 114.157 277.516 114.068 278.767 114.068L282.393 114.903C282.766 114.717 283.043 114.627 283.23 114.627L285.741 117.685H288.253C288.529 117.685 288.814 117.961 289.09 118.521V120.743C288.993 121.116 288.529 121.489 287.7 121.854C286.676 121.668 285.839 121.579 285.189 121.579C284.628 122.179 284.351 122.649 284.351 122.974C284.538 124.272 284.628 125.018 284.628 125.196C284.441 125.756 284.254 126.032 284.067 126.032L284.343 127.419V130.201C284.343 130.614 284.246 130.988 284.067 131.312L284.343 131.872C284.156 133.445 284.067 134.751 284.067 135.765C284.254 137.387 284.343 138.32 284.343 138.547H284.067L284.343 139.107V141.889C284.343 142.076 284.246 142.165 284.067 142.165L284.343 142.724V154.413C284.343 158.679 285.554 160.812 287.969 160.812C288.342 160.812 288.993 160.999 289.919 161.372L291.594 161.096H292.155C293.78 163.505 295.365 164.714 296.893 164.714H297.731C298.145 164.665 298.893 164.114 299.958 163.043C300.982 163.043 301.632 162.67 301.909 161.932V161.656C301.909 161.283 301.722 161.096 301.348 161.096H297.17C296.893 161.096 296.609 160.821 296.333 160.261V159.985C296.893 159.523 297.17 157.016 297.17 152.474V122.43C297.17 122.017 298.657 121.457 301.632 120.759V117.977C298.755 117.977 297.17 117.328 296.893 116.031L297.17 113.248L296.893 111.578C297.08 110.839 297.17 110.191 297.17 109.631C297.17 108.795 297.072 108.236 296.893 107.96C297.08 106.711 297.17 105.689 297.17 104.902V98.2265C297.17 97.4397 297.072 96.4177 296.893 95.1686C297.08 94.7955 297.17 94.5197 297.17 94.3331C297.17 92.5243 296.52 91.04 295.219 89.8801V89.3204C295.219 89.1339 295.869 88.5823 297.17 87.6495L295.219 87.0898C294.195 87.0898 292.707 87.6495 290.757 88.7607C290.57 88.7607 290.48 88.6715 290.48 88.485C286.766 88.485 284.904 90.6182 284.904 94.8847L284.067 97.6668C284.067 98.9646 284.156 101.009 284.343 103.791C284.156 106.013 283.783 107.133 283.23 107.133H282.669L282.108 106.857L281.832 107.416V107.976L282.108 108.536L282.669 108.26H283.23C284.156 108.722 284.62 109.469 284.62 110.483C284.62 111.594 281.921 112.153 276.532 112.153H263.706L262.592 111.318L262.868 109.923C262.868 109.55 262.771 109.363 262.592 109.363L262.868 107.416V95.4525C263.283 90.8129 264.031 88.4931 265.096 88.4931C267.697 88.4931 268.997 87.6576 268.997 85.9867V85.7109C268.997 85.4352 267.973 85.062 265.933 84.5997L265.656 84.04C265.656 83.3019 267.233 80.8848 270.395 76.8048C270.859 76.8048 272.07 75.8802 274.02 74.0227C277.784 71.9787 282.336 70.9648 287.684 70.9648L287.66 70.9323ZM282.084 128.246C282.084 128.433 281.986 128.708 281.807 129.081C281.994 129.966 282.084 131.166 282.084 132.699H282.36C282.36 132.237 282.449 130.842 282.636 128.522L282.076 128.246H282.084ZM282.084 92.0782V92.354C282.132 92.7271 282.319 92.9137 282.645 92.9137H282.921C283.295 92.9137 283.482 92.7271 283.482 92.354V91.5185H282.645C282.271 91.5672 282.084 91.7538 282.084 92.0782Z" fill="#E80D0D"/>
<path d="M324.944 73.8524C325.131 73.8524 325.22 73.9497 325.22 74.1282L325.781 73.8524H334.982C337.77 73.8524 339.998 74.0389 341.672 74.412C341.948 74.2255 342.509 74.1363 343.346 74.1363L344.736 74.9717C344.639 76.6426 344.46 77.4781 344.176 77.4781L344.452 78.0377V80.2602C344.452 80.6739 344.354 81.047 344.176 81.3714C344.549 82.2961 344.736 82.945 344.736 83.3181C344.549 84.0157 344.46 84.7538 344.46 85.5406C345.2 85.9137 345.574 86.1895 345.574 86.376L346.134 86.1003C347.996 86.3355 348.922 86.7005 348.922 87.2115V89.1582C348.922 89.434 348.549 89.8071 347.809 90.2694C346.647 90.2694 343.485 90.456 338.331 90.8291C336.242 90.6425 334.292 90.5533 332.479 90.5533C330.154 90.7399 328.764 90.8291 328.301 90.8291C327.7 90.091 327.139 88.7851 326.627 86.9357C326.253 86.7492 325.976 86.6599 325.789 86.6599L324.115 86.9357C323.188 86.1003 322.725 84.3401 322.725 81.6472C322.725 81.5093 322.814 80.9497 323.001 79.9763C322.814 77.7539 322.725 76.083 322.725 74.9717C323.514 74.2336 324.261 73.8605 324.952 73.8605L324.944 73.8524ZM324.383 89.7097C324.895 89.7097 325.261 90.6344 325.497 92.4919L326.058 92.7677H338.323C338.6 92.7677 340.087 92.9542 342.786 93.3273H343.899C344.176 93.3273 344.46 93.6031 344.736 94.1628C344.736 95.4606 344.549 96.1095 344.176 96.1095L344.452 97.4965V107.238L344.728 108.909L343.891 110.296L341.94 110.02C340.176 110.58 338.778 110.856 337.754 110.856H331.617C330.967 110.856 330.13 110.766 329.106 110.58C328.732 110.766 328.455 110.856 328.269 110.856C326.643 110.669 325.619 110.58 325.204 110.58L323.814 110.856C323.066 110.069 322.701 109.323 322.701 108.633V105.851C322.701 105.291 322.79 105.016 322.977 105.016L322.701 103.629V96.953C322.701 96.1663 322.79 95.1442 322.977 93.8951C322.79 93.5707 322.701 93.1083 322.701 92.5081C322.701 91.2995 323.262 90.3749 324.375 89.726L324.383 89.7097ZM323.822 112.527L325.497 112.802C326.147 112.802 326.984 112.713 328.008 112.527C331.024 112.713 333.723 112.802 336.096 112.802L338.608 112.527C342.322 113.224 344.184 113.686 344.184 113.914C344.371 113.914 344.558 114.189 344.745 114.749C344.558 116.047 344.468 117.158 344.468 118.091C344.468 119.064 345.858 119.713 348.646 120.037V120.597L348.37 121.157C348.557 121.481 348.646 121.854 348.646 122.268V122.544C348.646 123.055 347.435 123.428 345.021 123.655C344.647 124.255 344.46 124.815 344.46 125.326C344.46 125.886 344.549 126.161 344.736 126.161L344.46 128.944V160.107C344.46 161.64 345.948 162.751 348.922 163.449L349.199 164.008V164.284C349.199 164.471 349.101 164.56 348.922 164.56C349.109 164.933 349.199 165.209 349.199 165.395H349.475C349.849 165.395 350.036 165.209 350.036 164.836V164.56L349.76 164L350.321 163.724C350.597 165.022 351.06 165.671 351.711 165.671L353.661 165.395L356.449 165.955C359.701 165.768 361.749 165.679 362.586 165.679C364.074 165.679 366.024 165.776 368.438 165.955L372.34 165.679C374.803 165.866 376.843 165.955 378.477 165.955L378.753 166.515C378.753 169.808 378.566 171.941 378.192 172.914C378.566 173.936 378.843 175.883 379.03 178.754C379.03 180.425 378.103 181.261 376.242 181.261C374.99 181.447 373.039 181.537 370.389 181.537H353.385C352.97 181.537 352.596 181.439 352.271 181.261C351.946 181.447 351.572 181.537 351.158 181.537H350.597C349.995 181.537 349.524 181.439 349.207 181.261L347.533 181.537C345.533 181.537 343.395 181.35 341.119 180.977C338.331 181.35 336.283 181.537 334.982 181.537C334.796 181.537 334.706 181.439 334.706 181.261L333.316 181.537H331.365C330.39 181.537 329.74 181.074 329.415 180.15C329.602 177.643 329.691 175.794 329.691 174.585V164.852C329.691 163.789 329.13 163.14 328.017 162.905L326.627 163.181C324.026 162.905 322.725 162.532 322.725 162.07V138.417C322.725 135.497 322.814 130.671 323.001 123.947C323.278 123.947 323.652 123.574 324.115 122.836L325.513 123.112H326.627C327.001 123.112 327.187 122.925 327.187 122.552V120.329C327.187 119.77 325.976 119.405 323.562 119.218C323.001 118.521 322.725 117.783 322.725 116.996C322.725 114.725 323.099 113.24 323.839 112.543L323.822 112.527ZM341.111 96.3934L341.388 97.7885C342.501 97.7885 343.062 97.2288 343.062 96.1176L342.501 95.8418H341.664C341.29 95.8905 341.103 96.077 341.103 96.4015L341.111 96.3934ZM341.388 78.5893V78.8651C341.436 79.2382 341.623 79.4248 341.948 79.4248L342.225 78.8651V78.0296H341.948C341.575 78.0783 341.388 78.2649 341.388 78.5893ZM375.957 170.676V171.787C376.006 172.16 376.193 172.347 376.518 172.347V170.676H375.957ZM375.957 173.734V174.293H376.518V173.182C376.144 173.231 375.957 173.417 375.957 173.742V173.734Z" fill="#E80D0D"/>
<path d="M398.342 71.7678H417.582L419.256 72.0436L419.817 71.7678C421.719 71.9544 423.207 72.0436 424.28 72.0436H424.841C425.629 72.0436 426.092 73.901 426.239 77.6079C426.938 79.4653 427.401 82.1501 427.629 85.6785C428.189 85.6785 428.555 87.0655 428.742 89.8557C429.303 90.2694 430.88 90.7399 433.481 91.2428C433.481 92.1674 433.668 92.9137 434.042 93.4652C434.042 94.3899 432.741 94.9496 430.14 95.1361C429.766 95.7364 429.579 96.2068 429.579 96.5231C430.278 97.0828 430.929 97.3586 431.53 97.3586H433.481C434.408 97.8209 434.871 98.5672 434.871 99.5811C434.595 100.327 433.847 100.692 432.644 100.692V101.252C434.505 101.252 435.432 101.998 435.432 103.474V105.421C435.432 105.794 434.221 106.07 431.807 106.257L431.246 107.368C431.246 108.155 431.807 110.564 432.92 114.603C433.107 117.847 433.197 119.794 433.197 120.443C433.709 120.443 434.261 122.666 434.871 127.119C434.172 127.492 433.432 127.678 432.644 127.678H423.719C423.443 127.678 423.158 127.954 422.882 128.514V129.349C422.882 129.625 423.158 129.909 423.719 130.185H430.693C434.042 130.185 435.708 130.833 435.708 132.131C435.708 136.909 436.545 142.011 438.22 147.437C438.22 147.624 438.122 147.713 437.943 147.713L438.22 149.1V150.495L437.943 151.882C438.22 151.882 438.594 152.255 439.057 152.993V153.269C438.87 153.829 438.309 154.104 437.383 154.104H435.432C434.359 155.402 433.619 156.051 433.205 156.051C432.831 155.865 432.554 155.775 432.367 155.775L432.091 156.335V156.895C432.229 158.006 432.506 158.566 432.928 158.566C432.928 158.29 433.392 157.917 434.318 157.454H434.595C435.659 159.498 436.684 160.512 437.659 160.512C440.26 160.885 441.56 161.534 441.56 162.459C442.487 163.53 442.95 164.357 442.95 164.965C443.365 167.934 443.739 169.97 444.064 171.089C443.788 172.76 443.414 173.596 442.95 173.596L441.56 173.036C440.349 173.596 439.049 173.871 437.659 173.871H430.969C430.693 173.871 430.408 174.147 430.132 174.707C430.408 175.453 430.693 175.818 430.969 175.818H439.61C439.845 175.818 440.861 176.005 442.674 176.378L444.064 176.102C444.991 177.075 445.454 177.822 445.454 178.324C444.852 178.649 442.804 179.022 439.317 179.436L437.366 179.16L435.976 179.436C435.001 179.249 434.44 179.16 434.302 179.16L432.351 179.436C430.725 179.249 429.701 179.16 429.287 179.16L425.938 179.436V179.16L425.377 179.436H425.101C424.077 179.436 423.337 178.973 422.874 178.049L423.15 175.542C422.589 173.458 421.849 169.378 420.923 163.303V161.632C420.923 161.494 420.646 161.218 420.086 160.796C419.712 160.983 419.435 161.072 419.248 161.072C417.948 161.072 414.046 160.61 407.536 159.677C404.748 159.863 402.423 159.953 400.561 159.953L400.285 160.512C400.472 161.624 400.748 162.183 401.122 162.183H401.683L402.52 161.624H403.358C403.634 161.624 403.918 161.899 404.195 162.459L401.968 174.423V178.041C401.968 178.503 401.317 178.876 400.017 179.152L399.456 178.876C397.083 179.249 395.693 179.436 395.27 179.436C395.172 179.436 393.969 179.347 391.645 179.16C391.547 179.16 390.344 179.257 388.02 179.436L386.63 179.16C386.256 179.347 385.979 179.436 385.792 179.436L384.679 179.16L383.289 179.436C381.988 179.16 381.338 178.787 381.338 178.324L383.289 169.418C383.289 168.632 383.476 166.685 383.85 163.578V161.907C383.85 161.632 383.573 161.348 383.013 161.072H379.948C378.973 161.072 378.323 160.699 377.997 159.961V159.685C378.371 157.876 378.558 156.854 378.558 156.627V156.351C378.558 155.938 378.469 155.564 378.282 155.24C378.282 154.218 379.859 153.666 383.021 153.569C383.435 152.458 383.996 151.809 384.695 151.622L386.369 151.898C387.207 151.525 387.67 151.16 387.759 150.787C387.759 150.227 386.646 149.862 384.411 149.676C384.037 149.213 383.85 148.938 383.85 148.84V148.565C385.711 139.618 386.638 133.77 386.638 131.036C388.125 124.499 388.865 120.978 388.865 120.467C388.865 120.329 388.767 119.77 388.589 118.796L390.263 110.726L389.987 110.166C389.987 108.268 390.726 106.597 392.214 105.162L394.165 105.437H394.725C395.189 105.437 395.839 103.118 396.676 98.4779C396.489 98.1048 396.4 97.829 396.4 97.6425H393.612C393.335 97.6425 392.962 97.2694 392.498 96.5313V95.6958C393.059 94.7711 393.709 94.3088 394.449 94.3088C395.473 94.4953 396.213 94.5846 396.676 94.5846C397.237 93.7491 397.513 93.1002 397.513 92.6379C397.513 92.1269 397.05 91.6645 396.123 91.2428C395.798 91.4293 395.424 91.5185 395.01 91.5185C393.896 90.8696 393.335 90.4073 393.335 90.1315C395.197 80.4387 396.123 74.6878 396.123 72.879C396.912 72.1409 397.66 71.7678 398.351 71.7678H398.342ZM408.934 108.211L409.21 110.994V111.269C409.21 111.683 409.112 112.056 408.934 112.381C408.934 112.567 409.023 112.656 409.21 112.656C409.023 115.674 408.462 119.194 407.536 123.225L405.585 138.247H405.024C404.561 138.247 404.187 137.509 403.91 136.025L404.187 134.913C404 134.54 403.91 134.265 403.91 134.078H403.634C403.26 134.127 403.073 134.313 403.073 134.638V141.037C403.073 141.41 403.447 141.597 404.187 141.597V142.992C404.187 143.365 404 143.552 403.626 143.552H403.065L401.675 143.276L401.399 143.836L408.088 144.947C408.226 144.947 408.787 144.858 409.763 144.671C409.95 144.671 410.226 144.769 410.6 144.947C411.624 144.76 412.461 144.671 413.112 144.671H415.339C415.713 144.671 415.9 144.485 415.9 144.111C413.298 127.654 411.713 116.339 411.161 110.166C410.925 110.166 410.462 109.517 409.763 108.219H408.925L408.934 108.211ZM423.434 77.0482V77.8836L424.824 78.1594L425.101 77.5997V77.0401L424.54 76.2046C423.792 76.4804 423.426 76.7643 423.426 77.0401L423.434 77.0482ZM425.109 85.9543L425.67 86.23H425.946V85.3946H425.67C425.296 85.4433 425.109 85.6298 425.109 85.9543ZM429.571 110.434V113.492C429.571 114.838 429.848 115.576 430.409 115.714L430.685 115.155V112.932C430.872 112.145 430.961 111.496 430.961 110.985C430.636 110.985 430.173 110.799 429.563 110.426L429.571 110.434ZM432.636 159.401V159.677H433.197V159.401H432.636ZM435.147 146.877V147.989H435.424V146.877H435.147ZM435.147 148.548V149.108H435.424V148.548H435.147Z" fill="#E80D0D"/>
<path d="M449.014 77.3321H462.678C470.115 77.3321 473.83 78.2568 473.83 80.1142C473.83 83.0829 474.391 85.4027 475.504 87.0736C475.504 89.1176 477.179 90.1315 480.519 90.1315C481.08 91.3807 481.356 92.4027 481.356 93.1895V93.4652C481.356 93.8384 481.17 94.0249 480.796 94.0249C479.771 93.8384 479.032 93.7491 478.568 93.7491C478.008 94.5359 477.731 95.2821 477.731 95.9716C478.292 97.4559 478.568 98.3806 478.568 98.7537L478.292 99.3134C480.332 104.975 481.356 108.584 481.356 110.166C482.844 113.922 483.771 117.263 484.144 120.183L484.705 120.459H485.266L485.543 119.072V118.796C485.543 115.69 485.356 112.819 484.982 110.174C485.169 105.956 485.258 101.966 485.258 98.2103V94.8685C485.258 94.2196 486.835 93.5707 489.997 92.9218V92.3621C489.859 90.8778 489.208 90.1396 488.046 90.1396L487.485 90.4154C487.071 90.4154 486.233 89.8558 484.974 88.7445L485.25 86.7978V81.2336L485.526 79.5627C485.339 79.2382 485.25 78.7759 485.25 78.1675C485.949 77.6079 486.786 77.3321 487.762 77.3321L489.712 77.6079C490.411 77.4213 491.249 77.3321 492.224 77.3321V77.6079L492.785 77.3321H493.346C494.508 77.3321 495.898 77.4294 497.524 77.6079L498.922 77.3321C501.71 77.7052 503.1 77.981 503.1 78.1675L503.66 77.8918H504.498C504.774 77.8918 505.148 78.2649 505.611 79.003V80.1142C504.863 80.9497 504.498 81.412 504.498 81.5093L505.611 83.456L505.335 84.8512L505.611 86.5221L504.221 87.3575L502.831 87.0817C499.304 87.5441 497.532 88.0064 497.532 88.4769V89.0365C497.58 89.4096 497.767 89.5962 498.093 89.5962H499.483C501.433 89.5962 504.408 89.6935 508.407 89.872C509.334 91.1211 509.797 92.1431 509.797 92.9299C508.871 93.6761 508.31 94.0411 508.123 94.0411C507.749 93.8546 507.473 93.7653 507.286 93.7653C505.798 94.0411 505.059 95.4363 505.059 97.9426C505.059 98.8267 505.148 99.7514 505.335 100.725C505.148 102.298 505.059 103.596 505.059 104.618C505.059 105.543 505.148 106.938 505.335 108.795C505.148 109.817 505.059 110.556 505.059 111.018C505.245 111.991 505.335 112.551 505.335 112.689L505.059 114.635C505.245 116.258 505.335 117.28 505.335 117.693L505.059 120.2C505.059 122.244 506.448 123.258 509.236 123.258C509.423 123.582 509.61 124.507 509.797 126.04C509.472 126.364 508.074 126.827 505.611 127.427L505.335 127.986V129.657C505.335 130.728 505.237 131.377 505.059 131.604C505.245 132.626 505.335 133.364 505.335 133.827C505.335 136.098 505.237 138.88 505.059 142.173C505.245 144.355 505.335 145.928 505.335 146.902C505.148 149.222 505.059 150.609 505.059 151.079C505.245 152.328 505.335 153.35 505.335 154.137C505.148 154.51 505.059 154.786 505.059 154.972C505.245 155.297 505.335 155.759 505.335 156.368C505.237 156.741 504.774 157.114 503.945 157.479C502.921 157.292 502.181 157.203 501.718 157.203C500.97 157.252 500.604 157.438 500.604 157.763L498.653 157.487H496.979C495.865 157.487 495.305 158.047 495.305 159.158C496.004 159.717 496.654 159.993 497.255 159.993C498.231 159.993 499.068 159.904 499.767 159.717C500.978 159.904 502.181 159.993 503.392 159.993H504.506C504.782 159.993 505.067 160.269 505.343 160.829C505.343 161.242 505.245 162.264 505.067 163.887C505.067 165.557 506.457 166.393 509.245 166.393C511.106 166.393 512.033 166.669 512.033 167.228V167.504C512.033 168.153 509.984 168.526 505.896 168.615C505.709 168.615 505.432 168.526 505.059 168.34C503.807 168.526 502.783 168.615 501.994 168.615H498.645C498.369 168.615 498.084 168.891 497.808 169.451V169.727C497.995 170.286 498.548 170.562 499.483 170.562H505.335C507.562 170.611 508.684 170.797 508.684 171.122L509.245 170.846H510.358C510.87 170.846 511.423 171.033 512.033 171.406C511.659 173.401 511.472 174.699 511.472 175.299C511.659 179.655 511.748 182.623 511.748 184.205C511.374 184.254 511.187 184.44 511.187 184.765C507.188 184.951 504.213 185.041 502.262 185.041H493.898C493.484 185.041 493.11 184.943 492.785 184.765C492.46 184.951 492.086 185.041 491.671 185.041C489.81 185.041 488.883 183.929 488.883 181.699C488.322 180.352 488.046 179.517 488.046 179.192V178.917C488.046 178.406 489.16 177.943 491.395 177.521L491.671 176.962V176.686C491.671 176.41 491.395 176.126 490.834 175.851H488.883C487.16 175.851 486.144 173.993 485.819 170.286C485.169 168.104 484.608 166.904 484.144 166.669C483.958 166.669 483.868 166.766 483.868 166.945C479.593 166.945 477.455 165.922 477.455 163.887C477.081 161.478 475.407 155.354 472.44 145.523C470.213 138.012 469.091 133.372 469.091 131.612C469.091 130.55 468.441 129.154 467.14 127.435L466.303 128.83C466.677 130.59 466.864 131.701 466.864 132.172C466.677 136.674 466.587 140.105 466.587 142.465H466.311C466.498 143.576 466.685 144.136 466.872 144.136L466.596 145.523V147.47C466.596 148.492 466.685 149.789 466.872 151.363L465.482 155.54C464.555 155.865 464.092 156.611 464.092 157.763L464.368 158.874H464.929L465.766 158.314H466.327C466.742 158.314 467.026 158.777 467.165 159.701L466.888 162.208C466.888 164.803 467.725 166.101 469.4 166.101C470.7 166.239 471.351 166.425 471.351 166.661L471.911 166.385H472.472L473.586 167.22L473.309 170.002V173.344C473.309 173.758 473.399 174.131 473.586 174.455C473.212 175.202 473.025 175.842 473.025 176.402C473.025 176.864 473.212 179.371 473.586 183.913L472.472 184.749H472.196C471.123 184.749 469.644 184.838 467.733 185.024C467.547 185.024 467.457 184.927 467.457 184.749L466.067 185.024H462.166C461.751 185.024 461.377 184.927 461.052 184.749C460.727 184.935 460.353 185.024 459.938 185.024L457.15 184.749C456.126 184.935 455.387 185.024 454.923 185.024C454.086 184.651 453.623 184.278 453.533 183.913V179.736C453.533 177.976 453.436 176.216 453.257 174.447C453.444 173.198 453.631 170.781 453.818 167.212C453.07 166.839 452.704 166.563 452.704 166.377L449.916 166.653H449.355C447.917 166.653 447.08 166.279 446.844 165.541V153.301C446.844 149.124 446.933 144.217 447.12 138.555C446.933 137.347 446.844 136.146 446.844 134.938C447.031 132.715 447.12 130.209 447.12 127.427C449.908 126.591 451.298 125.756 451.298 124.92V123.25C448.51 123.25 447.12 122.511 447.12 121.027L446.844 119.916C447.031 118.707 447.12 117.507 447.12 116.298C447.12 116.112 447.023 115.836 446.844 115.463C446.844 115.276 446.933 115.187 447.12 115.187C446.933 112.681 446.844 110.831 446.844 109.623C446.844 106.792 446.933 102.436 447.12 96.5475C446.933 96.1744 446.844 95.8986 446.844 95.712C446.844 94.4142 448.331 93.4896 451.306 92.9299C451.493 92.281 451.583 91.9079 451.583 91.8187C451.534 91.405 450.981 90.7561 449.908 89.872L448.795 90.4316C447.957 90.1072 447.307 89.5475 446.844 88.7607L447.12 87.0898L446.844 85.1432L447.12 83.7561L446.844 82.361C447.031 80.7388 447.12 79.7168 447.12 79.3031C446.933 78.93 446.844 78.6542 446.844 78.4676C447.632 77.7295 448.38 77.3564 449.071 77.3564L449.014 77.3321ZM457.102 171.089V171.925C457.476 172.671 458.028 173.036 458.776 173.036C459.565 173.036 460.589 172.947 461.84 172.76C463.791 172.947 465.929 173.036 468.254 173.036C469.091 172.663 469.554 172.298 469.644 171.925V171.089C468.343 170.716 467.23 170.53 466.295 170.53H457.654C457.281 170.578 457.094 170.765 457.094 171.089H457.102ZM502.271 142.432V142.992H502.547V142.432H502.271Z" fill="#E80D0D"/>
<path d="M591.308 75.2475L593.258 75.5233H607.475C607.889 75.5233 608.263 75.6206 608.588 75.7991C608.913 75.6125 609.287 75.5233 609.702 75.5233L610.539 76.6345C609.426 80.39 608.401 83.2695 607.475 85.2567C606.727 89.434 605.898 92.1188 604.963 93.3273C604.776 93.6518 604.687 94.1141 604.687 94.7144V96.3853C607.288 96.5232 608.588 96.7989 608.588 97.2207V97.7804C608.588 98.2427 607.938 98.6158 606.638 98.8916C605.613 98.7051 604.874 98.6158 604.41 98.6158C602.923 101.122 601.622 104.926 600.509 110.02L594.933 127.548C594.559 127.873 594.283 129.268 594.096 131.726L591.868 138.685L589.641 146.196C589.406 146.196 589.129 146.756 588.804 147.867C588.991 151.395 589.178 153.618 589.365 154.542L588.251 155.378C587.504 155.378 587.138 155.289 587.138 155.102C585.277 155.289 583.887 155.378 582.952 155.378H569.573C568.597 155.378 568.036 155.102 567.898 154.542V148.978C567.898 148.329 567.801 147.494 567.622 146.472C567.996 145.636 568.362 145.174 568.735 145.085H582.952C583.228 145.085 583.513 144.809 583.789 144.249C583.602 143.511 583.041 143.138 582.115 143.138H569.849L567.061 143.414C565.988 142.351 565.248 140.121 564.834 136.738C564.086 135.676 563.159 132.423 562.046 127.005C560.558 123.485 559.168 118.934 557.86 113.37C556.559 110.126 555.161 105.299 553.674 98.8997L554.787 98.0643H557.014V97.5046C557.014 97.1315 556.738 96.9449 556.177 96.9449L554.226 97.2207C552.975 97.2207 552.138 95.5498 551.715 92.2161C550.089 88.6472 549.154 85.4027 548.927 82.4827C548.553 82.069 547.813 80.1142 546.7 76.6426V76.3668C546.7 76.0911 546.976 75.8072 547.537 75.5314H563.428C564.216 75.5314 565.24 75.6287 566.492 75.8072C566.817 75.6206 567.281 75.5314 567.882 75.5314C568.996 75.5314 569.646 76.6426 569.833 78.8732L569.556 79.9844L570.394 81.9311L570.117 83.0424C571.418 84.6159 572.166 86.5707 572.344 88.8824C572.531 88.8824 572.621 88.9797 572.621 89.1582V90.8291L572.897 92.7758C571.784 93.011 571.223 93.2868 571.223 93.6112V94.7225C571.223 95.0956 571.499 95.2821 572.06 95.2821L574.011 95.0064C574.474 96.1176 575.222 96.6773 576.238 96.6773H578.189C578.465 96.6773 578.839 97.0504 579.302 97.7885V98.0643C579.302 98.4374 578.091 98.7132 575.677 98.8997C575.539 101.122 574.978 102.793 574.003 103.904L573.726 105.291C573.913 105.664 574.003 105.94 574.003 106.127H574.279C575.206 105.616 575.677 105.153 575.677 104.74H576.238C576.978 105.989 577.725 108.958 578.465 113.646C578.652 113.646 578.741 113.832 578.741 114.206H579.018C579.904 114.206 580.643 111.61 581.245 106.419C581.757 105.397 582.594 102.801 583.756 98.6321L585.707 98.0724H587.658C588.032 98.0724 588.219 97.8858 588.219 97.5127C588.219 97.1396 587.105 96.8638 584.87 96.6773L584.594 96.1176C587.569 84.3888 589.056 77.9891 589.056 76.9184C589.056 76.2208 589.796 75.6693 591.283 75.2475H591.308ZM568.443 157.876H587.682C588.796 157.876 589.357 158.249 589.357 158.987C588.983 159.588 588.796 160.058 588.796 160.374C588.796 162.597 589.446 163.716 590.747 163.716C593.072 164.13 594.746 164.503 595.762 164.827C595.949 168.259 596.038 170.765 596.038 172.338V180.125C596.038 181.796 595.388 182.632 594.088 182.632H593.25C593.063 182.632 592.974 182.534 592.974 182.356C592.137 182.729 590.926 182.915 589.349 182.915H588.788C586 182.915 582.749 182.818 579.026 182.64C578.278 182.826 577.636 182.915 577.075 182.915L576.514 182.64L575.953 182.915C575.254 182.915 574.604 182.542 574.003 181.804C574.19 179.947 574.279 178.56 574.279 177.635V170.124C574.279 169.475 574.368 168.64 574.555 167.618C574.555 165.582 573.807 164.56 572.328 164.56C569.353 164.56 567.866 164.187 567.866 163.449V160.391L567.589 158.444L568.427 157.884L568.443 157.876ZM569.004 85.2648V86.9357C569.378 86.9357 569.565 86.6599 569.565 86.1003C569.378 85.7272 569.288 85.4514 569.288 85.2648H569.012H569.004ZM587.406 159.831C587.406 160.204 587.309 160.391 587.13 160.391C587.317 160.764 587.406 161.04 587.406 161.226C587.78 161.226 587.967 161.04 587.967 160.666V160.391C587.967 160.018 587.78 159.831 587.406 159.831ZM592.706 124.774L592.429 126.721L592.706 128.116C593.12 128.116 593.494 127.378 593.819 125.894C593.543 125.156 593.258 124.783 592.982 124.783H592.706V124.774ZM592.706 128.668V129.503H592.982V128.668H592.706ZM592.706 168.453V170.124H593.267C593.267 169.938 593.356 169.662 593.543 169.289L593.267 167.894C592.893 167.942 592.706 168.129 592.706 168.453ZM605.256 84.4294L606.093 84.989L606.369 84.4294V83.0424H606.093C605.678 83.0424 605.394 83.5047 605.256 84.4294Z" fill="#E80D0D"/>
<path d="M615.278 73.1548C615.879 73.1548 616.343 73.2521 616.668 73.4306C618.716 73.244 620.48 73.1548 621.968 73.1548H623.918C626.658 73.1548 630.38 73.2521 635.07 73.4306C635.119 73.8037 635.306 73.9903 635.631 73.9903C635.444 76.2127 635.168 77.8836 634.794 78.9949C635.168 79.6924 635.355 80.4305 635.355 81.2173V81.777C635.355 82.288 635.168 82.8477 634.794 83.4479L633.12 83.1721C632.331 83.1721 631.494 83.3587 630.608 83.7318C629.958 83.5452 629.584 83.456 629.494 83.456C627.592 83.6426 626.471 83.7318 626.146 83.7318L622.797 83.456L622.236 84.2915V84.8511C622.236 84.989 622.512 85.2648 623.073 85.6866L626.422 85.4108H629.486C633.388 85.7353 635.339 86.1976 635.339 86.7978V90.1396C635.339 91.624 636.728 92.3621 639.525 92.3621C639.712 92.7352 639.899 93.5707 640.085 94.8685C639.85 95.6147 639.386 96.1663 638.696 96.5394H636.184C635.908 96.5394 635.623 96.8152 635.347 97.3748V97.6506C635.347 98.3482 636.737 98.8105 639.533 99.0376C639.72 99.4107 639.809 99.6865 639.809 99.8731C639.622 102.193 639.533 103.393 639.533 103.491C639.533 103.864 639.72 104.513 640.094 105.437C639.907 106.922 639.167 107.66 637.866 107.66C637.452 107.66 637.078 107.571 636.753 107.384C635.916 107.757 635.452 108.13 635.363 108.495V110.442C635.363 111.188 635.265 111.926 635.087 112.664C635.274 113.362 635.363 114.1 635.363 114.887V117.109C635.363 117.385 634.989 117.758 634.249 118.221H632.299C631.697 118.221 631.226 118.318 630.901 118.496L629.226 118.221H624.211C623.837 118.269 623.65 118.456 623.65 118.78V119.891C623.65 120.167 624.024 120.451 624.764 120.727C624.951 120.727 625.04 120.638 625.04 120.451C625.227 120.451 625.503 120.548 625.877 120.727C627.779 120.54 629.267 120.451 630.34 120.451L632.29 121.011L634.241 120.735C634.518 120.735 634.981 121.108 635.631 121.846L635.355 123.793V145.774L635.631 147.445C635.444 147.77 635.355 148.232 635.355 148.832V152.726L635.631 154.672L634.518 155.508H633.68L632.29 155.232C631.73 155.881 631.266 156.716 630.892 157.738L631.169 159.125C630.982 160.423 630.892 161.169 630.892 161.348C633.68 162.272 635.908 162.832 637.582 163.019V163.294C637.582 164.868 637.671 167.188 637.858 170.254C637.671 173.036 637.582 174.983 637.582 176.094L637.858 178.041C637.671 178.414 637.582 178.689 637.582 178.876C637.769 179.249 637.858 179.525 637.858 179.712C637.858 180.125 635.347 180.498 630.332 180.823H623.081C622.008 180.823 620.529 180.734 618.619 180.547C618.245 180.734 617.968 180.823 617.781 180.823C617.034 180.636 616.392 180.36 615.831 179.987C615.831 179.574 615.92 179.201 616.107 178.876C615.92 175.445 615.831 172.574 615.831 170.254V167.196C615.831 166.271 615.92 164.876 616.107 163.027C615.506 162.654 614.945 162.467 614.433 162.467H611.368C610.718 162.467 609.978 162.094 609.141 161.356L609.702 158.574C609.515 157.836 609.426 157.089 609.426 156.351C609.426 156.076 609.986 155.613 611.1 154.964H612.774L613.335 155.24L614.173 153.853C613.986 150.471 613.896 148.337 613.896 147.453C613.896 146.391 613.986 145.734 614.173 145.507C613.986 143.609 613.896 142.124 613.896 141.054V128.53C613.896 125.796 613.986 122.082 614.173 117.401C613.986 116.663 613.896 115.917 613.896 115.179C614.27 114.343 614.636 113.881 615.01 113.792H617.798C618.074 113.792 618.448 113.419 618.911 112.681V112.405C618.911 112.032 618.724 111.845 618.35 111.845H615.002C614.725 111.845 614.351 111.472 613.888 110.734V109.063C613.888 108.041 614.449 107.206 615.562 106.557L617.237 106.832C617.838 106.832 618.212 105.348 618.35 102.379C618.164 100.344 617.887 99.135 617.513 98.7618L616.123 99.0376H615.01C614.774 99.0376 614.311 98.5753 613.62 97.6506C613.994 96.3528 614.733 95.7039 615.847 95.7039C616.822 95.8905 617.383 95.9797 617.521 95.9797L618.082 95.1443V94.033C618.082 93.522 617.895 92.9705 617.521 92.3621C617.147 92.3621 616.497 92.5487 615.571 92.9218C615.294 92.9218 614.733 92.4594 613.896 91.5348C614.083 87.828 614.173 85.0458 614.173 83.1884V79.8465C614.173 79.0598 614.262 78.0377 614.449 76.7886C614.213 75.7261 613.937 74.9798 613.612 74.5662V74.2904C613.612 73.9173 614.173 73.5523 615.286 73.1791L615.278 73.1548ZM632.282 77.6079V79.5545C632.331 79.9277 632.518 80.1142 632.843 80.1142L633.12 78.7272L632.843 77.616H632.282V77.6079ZM635.07 164.965V166.912H635.631C635.631 166.725 635.721 166.45 635.908 166.077C635.721 165.752 635.631 165.379 635.631 164.965H635.07Z" fill="#E80D0D"/>
<path d="M645.954 75.2475C646.141 75.2475 646.23 75.3448 646.23 75.5233L646.791 75.2475H655.992C658.78 75.2475 661.008 75.4341 662.682 75.8072C662.958 75.6206 663.519 75.5314 664.356 75.5314L665.746 76.3668C665.649 78.0378 665.47 78.8732 665.186 78.8732L665.462 79.4329V81.6553C665.462 82.069 665.364 82.4421 665.186 82.7666C665.559 83.6912 665.746 84.3401 665.746 84.7133C665.559 85.4108 665.47 86.1489 665.47 86.9357C666.21 87.3088 666.584 87.5846 666.584 87.7712L667.144 87.4954C669.006 87.7306 669.932 88.0956 669.932 88.6066V90.5533C669.932 90.8291 669.559 91.2022 668.819 91.6645C667.657 91.6645 664.495 91.8511 659.341 92.2242C657.252 92.0377 655.302 91.9484 653.489 91.9484C651.164 92.135 649.774 92.2242 649.303 92.2242C648.701 91.4861 648.141 90.1883 647.628 88.3309C647.255 88.1443 646.978 88.0551 646.791 88.0551L645.117 88.3309C644.19 87.4954 643.719 85.7353 643.719 83.0424C643.719 82.9045 643.808 82.3448 643.995 81.3714C643.808 79.149 643.719 77.4781 643.719 76.3668C644.507 75.6287 645.255 75.2556 645.946 75.2556L645.954 75.2475ZM645.393 91.1049C645.905 91.1049 646.279 92.0296 646.507 93.887L647.068 94.1628H659.333C659.61 94.1628 661.097 94.3493 663.796 94.7225H664.909C665.186 94.7225 665.47 94.9982 665.746 95.5579C665.746 96.8557 665.559 97.5046 665.186 97.5046L665.462 98.8997V108.633L665.738 110.304L664.901 111.699L662.95 111.423C661.186 111.983 659.788 112.259 658.764 112.259H652.627C651.977 112.259 651.14 112.17 650.116 111.983C649.742 112.17 649.465 112.259 649.279 112.259C647.653 112.072 646.629 111.983 646.214 111.983L644.816 112.259C644.068 111.472 643.703 110.726 643.703 110.036V107.254C643.703 106.695 643.792 106.419 643.979 106.419L643.703 105.032V98.3563C643.703 97.5695 643.792 96.5475 643.979 95.2984C643.792 94.9739 643.703 94.5116 643.703 93.9113C643.703 92.7028 644.263 91.7781 645.377 91.1292L645.393 91.1049ZM644.832 113.922L646.507 114.197C647.157 114.197 647.994 114.108 649.018 113.922C652.042 114.108 654.733 114.197 657.106 114.197L659.618 113.922C663.332 114.619 665.194 115.082 665.194 115.317C665.381 115.317 665.568 115.593 665.755 116.152C665.568 117.45 665.478 118.561 665.478 119.494C665.478 120.467 666.876 121.116 669.664 121.441V122L669.388 122.56C669.575 122.885 669.664 123.258 669.664 123.671V123.947C669.664 124.458 668.453 124.831 666.039 125.058C665.665 125.659 665.478 126.218 665.478 126.729C665.478 127.289 665.568 127.565 665.755 127.565L665.478 130.347V161.51C665.478 163.043 666.966 164.154 669.941 164.852L670.217 165.411V165.687C670.217 165.874 670.128 165.963 669.941 165.963C670.128 166.336 670.217 166.612 670.217 166.799H670.493C670.867 166.799 671.054 166.612 671.054 166.239V165.963L670.778 165.403L671.339 165.128C671.615 166.425 672.078 167.074 672.737 167.074L674.688 166.799L677.475 167.358C680.727 167.172 682.775 167.082 683.612 167.082C685.1 167.082 687.051 167.18 689.465 167.358L693.366 167.082C695.829 167.269 697.869 167.358 699.503 167.358L699.779 167.918C699.779 171.211 699.593 173.344 699.219 174.318C699.593 175.34 699.869 177.286 700.056 180.158C700.056 181.829 699.129 182.664 697.268 182.664C696.016 182.851 694.065 182.94 691.416 182.94H674.411C673.997 182.94 673.623 182.842 673.298 182.664C672.972 182.851 672.599 182.94 672.184 182.94H671.623C671.022 182.94 670.55 182.842 670.225 182.664L668.551 182.94C666.551 182.94 664.413 182.753 662.137 182.38C659.349 182.753 657.301 182.94 656.001 182.94C655.814 182.94 655.724 182.842 655.724 182.664L654.326 182.94H652.375C651.4 182.94 650.75 182.477 650.425 181.553C650.612 179.046 650.701 177.197 650.701 175.988V166.255C650.701 165.192 650.14 164.544 649.027 164.308L647.637 164.584C645.036 164.308 643.735 163.935 643.735 163.473V139.821C643.735 136.901 643.824 132.074 644.011 125.35C644.288 125.35 644.662 124.977 645.125 124.239L646.515 124.515H647.628C648.002 124.515 648.189 124.328 648.189 123.955V121.733C648.189 121.173 646.978 120.808 644.564 120.622C644.003 119.924 643.727 119.186 643.727 118.399C643.727 116.128 644.101 114.644 644.84 113.946L644.832 113.922ZM662.121 97.7885L662.398 99.1755C663.511 99.1755 664.072 98.6158 664.072 97.5046L663.511 97.2288H662.674C662.3 97.2775 662.113 97.464 662.113 97.7885H662.121ZM662.398 79.9844V80.2602C662.446 80.6333 662.633 80.8199 662.958 80.8199L663.235 80.2602V79.4248H662.958C662.585 79.4734 662.398 79.66 662.398 79.9844ZM696.967 172.079V173.19C697.016 173.563 697.203 173.75 697.528 173.75V172.079H696.967ZM696.967 175.137V175.696H697.528V174.585C697.154 174.634 696.967 174.82 696.967 175.145V175.137Z" fill="#E80D0D"/>
<path d="M705.339 75.2475C705.526 75.2475 705.616 75.3448 705.616 75.5233L706.177 75.2475H715.378C718.166 75.2475 720.393 75.4341 722.067 75.8072C722.344 75.6206 722.905 75.5314 723.742 75.5314L725.132 76.3668C725.034 78.0378 724.855 78.8732 724.571 78.8732L724.847 79.4329V81.6553C724.847 82.069 724.75 82.4421 724.571 82.7666C724.945 83.6912 725.132 84.3401 725.132 84.7133C724.945 85.4108 724.855 86.1489 724.855 86.9357C725.595 87.3088 725.969 87.5846 725.969 87.7712L726.53 87.4954C728.391 87.7306 729.318 88.0956 729.318 88.6066V90.5533C729.318 90.8291 728.944 91.2022 728.204 91.6645C727.042 91.6645 723.88 91.8511 718.727 92.2242C716.638 92.0377 714.687 91.9484 712.874 91.9484C710.55 92.135 709.16 92.2242 708.688 92.2242C708.087 91.4861 707.526 90.1883 707.014 88.3309C706.64 88.1443 706.363 88.0551 706.177 88.0551L704.502 88.3309C703.575 87.4954 703.104 85.7353 703.104 83.0424C703.104 82.9045 703.193 82.3448 703.38 81.3714C703.193 79.149 703.104 77.4781 703.104 76.3668C703.892 75.6287 704.64 75.2556 705.331 75.2556L705.339 75.2475ZM704.778 91.1049C705.291 91.1049 705.664 92.0296 705.892 93.887L706.453 94.1628H718.718C718.995 94.1628 720.482 94.3493 723.181 94.7225H724.294C724.571 94.7225 724.855 94.9982 725.132 95.5579C725.132 96.8557 724.945 97.5046 724.571 97.5046L724.847 98.8997V108.633L725.124 110.304L724.286 111.699L722.336 111.423C720.572 111.983 719.174 112.259 718.149 112.259H712.013C711.362 112.259 710.525 112.17 709.501 111.983C709.127 112.17 708.851 112.259 708.664 112.259C707.038 112.072 706.014 111.983 705.599 111.983L704.201 112.259C703.454 111.472 703.088 110.726 703.088 110.036V107.254C703.088 106.695 703.177 106.419 703.364 106.419L703.088 105.032V98.3563C703.088 97.5695 703.177 96.5475 703.364 95.2984C703.177 94.9739 703.088 94.5116 703.088 93.9113C703.088 92.7028 703.649 91.7781 704.762 91.1292L704.778 91.1049ZM704.218 113.922L705.892 114.197C706.542 114.197 707.38 114.108 708.404 113.922C711.427 114.108 714.118 114.197 716.491 114.197L719.003 113.922C722.718 114.619 724.579 115.082 724.579 115.317C724.766 115.317 724.953 115.593 725.14 116.152C724.953 117.45 724.863 118.561 724.863 119.494C724.863 120.467 726.261 121.116 729.049 121.441V122L728.773 122.56C728.96 122.885 729.049 123.258 729.049 123.671V123.947C729.049 124.458 727.838 124.831 725.424 125.058C725.05 125.659 724.863 126.218 724.863 126.729C724.863 127.289 724.953 127.565 725.14 127.565L724.863 130.347V161.51C724.863 163.043 726.351 164.154 729.326 164.852L729.602 165.411V165.687C729.602 165.874 729.513 165.963 729.326 165.963C729.513 166.336 729.602 166.612 729.602 166.799H729.879C730.252 166.799 730.439 166.612 730.439 166.239V165.963L730.163 165.403L730.724 165.128C731 166.425 731.464 167.074 732.122 167.074L734.073 166.799L736.861 167.358C740.112 167.172 742.16 167.082 742.998 167.082C744.485 167.082 746.436 167.18 748.85 167.358L752.752 167.082C755.214 167.269 757.255 167.358 758.888 167.358L759.165 167.918C759.165 171.211 758.978 173.344 758.604 174.318C758.978 175.34 759.254 177.286 759.441 180.158C759.441 181.829 758.515 182.664 756.653 182.664C755.401 182.851 753.451 182.94 750.801 182.94H733.796C733.382 182.94 733.008 182.842 732.683 182.664C732.358 182.851 731.984 182.94 731.569 182.94H731.008C730.407 182.94 729.935 182.842 729.61 182.664L727.936 182.94C725.936 182.94 723.799 182.753 721.523 182.38C718.735 182.753 716.686 182.94 715.386 182.94C715.199 182.94 715.11 182.842 715.11 182.664L713.711 182.94H711.761C710.785 182.94 710.135 182.477 709.81 181.553C709.997 179.046 710.086 177.197 710.086 175.988V166.255C710.086 165.192 709.525 164.544 708.412 164.308L707.022 164.584C704.421 164.308 703.12 163.935 703.12 163.473V139.821C703.12 136.901 703.21 132.074 703.397 125.35C703.673 125.35 704.047 124.977 704.51 124.239L705.9 124.515H707.014C707.388 124.515 707.575 124.328 707.575 123.955V121.733C707.575 121.173 706.363 120.808 703.949 120.622C703.389 119.924 703.112 119.186 703.112 118.399C703.112 116.128 703.486 114.644 704.226 113.946L704.218 113.922ZM721.506 97.7885L721.783 99.1755C722.896 99.1755 723.457 98.6158 723.457 97.5046L722.896 97.2288H722.059C721.685 97.2775 721.498 97.464 721.498 97.7885H721.506ZM721.783 79.9844V80.2602C721.832 80.6333 722.019 80.8199 722.344 80.8199L722.62 80.2602V79.4248H722.344C721.97 79.4734 721.783 79.66 721.783 79.9844ZM756.352 172.079V173.19C756.393 173.563 756.588 173.75 756.913 173.75V172.079H756.352ZM756.352 175.137V175.696H756.913V174.585C756.539 174.634 756.352 174.82 756.352 175.145V175.137Z" fill="#E80D0D"/>
<path d="M778.729 73.1548H797.969L799.644 73.4306L800.204 73.1548C802.106 73.3414 803.594 73.4306 804.667 73.4306H805.228C806.016 73.4306 806.479 75.2881 806.626 78.9949C807.325 80.8523 807.788 83.5371 808.016 87.0655C808.577 87.0655 808.942 88.4525 809.129 91.2428C809.69 91.6564 811.267 92.1269 813.868 92.6298C813.868 93.5545 814.055 94.3007 814.429 94.8522C814.429 95.7769 813.128 96.3366 810.527 96.5232C810.153 97.1234 809.966 97.5938 809.966 97.9102C810.665 98.4698 811.316 98.7456 811.917 98.7456H813.868C814.795 99.208 815.258 99.9542 815.258 100.968C814.982 101.714 814.234 102.079 813.031 102.079V102.639C814.892 102.639 815.819 103.385 815.819 104.861V106.808C815.819 107.181 814.608 107.457 812.194 107.644L811.633 108.755C811.633 109.542 812.194 111.951 813.307 115.99C813.494 119.234 813.584 121.181 813.584 121.83C814.096 121.83 814.648 124.053 815.258 128.506C814.559 128.879 813.819 129.065 813.031 129.065H804.106C803.83 129.065 803.545 129.341 803.269 129.901V130.736C803.269 131.012 803.545 131.296 804.106 131.572H811.08C814.429 131.572 816.095 132.22 816.095 133.518C816.095 138.296 816.932 143.398 818.607 148.824C818.607 149.011 818.509 149.1 818.33 149.1L818.607 150.487V151.874L818.33 153.261C818.607 153.261 818.981 153.634 819.444 154.372V154.648C819.257 155.208 818.696 155.483 817.77 155.483H815.819C814.746 156.781 814.006 157.43 813.592 157.43C813.218 157.244 812.941 157.154 812.754 157.154L812.478 157.714V158.274C812.616 159.385 812.893 159.945 813.315 159.945C813.315 159.669 813.779 159.296 814.705 158.833H814.982C816.046 160.877 817.071 161.891 818.046 161.891C820.647 162.264 821.947 162.913 821.947 163.838C822.874 164.909 823.337 165.736 823.337 166.344C823.752 169.313 824.126 171.349 824.451 172.468C824.175 174.139 823.801 174.975 823.337 174.975L821.947 174.415C820.736 174.975 819.436 175.25 818.046 175.25H811.356C811.08 175.25 810.795 175.526 810.519 176.086C810.795 176.832 811.08 177.197 811.356 177.197H819.997C820.232 177.197 821.248 177.384 823.061 177.757L824.451 177.481C825.378 178.454 825.841 179.201 825.841 179.703C825.239 180.028 823.191 180.401 819.704 180.815L817.753 180.539L816.363 180.815C815.388 180.628 814.827 180.539 814.689 180.539L812.738 180.815C811.113 180.628 810.088 180.539 809.674 180.539L806.325 180.815V180.539L805.764 180.815H805.488C804.464 180.815 803.724 180.352 803.261 179.428L803.537 176.921C802.976 174.837 802.236 170.757 801.31 164.681V163.011C801.31 162.873 801.033 162.597 800.473 162.175C800.099 162.362 799.822 162.451 799.635 162.451C798.335 162.451 794.433 161.989 787.923 161.064C785.135 161.25 782.81 161.34 780.949 161.34L780.672 161.899C780.859 163.011 781.135 163.57 781.509 163.57H782.07L782.907 163.011H783.745C784.021 163.011 784.305 163.286 784.582 163.846L782.355 175.81V179.428C782.355 179.89 781.704 180.263 780.404 180.539L779.843 180.263C777.47 180.636 776.08 180.823 775.657 180.823C775.559 180.823 774.356 180.734 772.032 180.547C771.934 180.547 770.731 180.644 768.407 180.823L767.017 180.547C766.643 180.734 766.366 180.823 766.179 180.823L765.066 180.547L763.676 180.823C762.375 180.547 761.725 180.174 761.725 179.712L763.676 170.805C763.676 170.019 763.863 168.072 764.237 164.965V163.294C764.237 163.019 763.96 162.735 763.4 162.459H760.335C759.36 162.459 758.71 162.086 758.384 161.348V161.072C758.758 159.263 758.945 158.241 758.945 158.014V157.738C758.945 157.325 758.856 156.952 758.669 156.627C758.669 155.605 760.246 155.053 763.408 154.956C763.822 153.845 764.383 153.196 765.082 153.009L766.757 153.285C767.594 152.912 768.057 152.547 768.146 152.174C768.146 151.614 767.033 151.249 764.798 151.063C764.424 150.6 764.237 150.325 764.237 150.227V149.952C766.098 141.005 767.025 135.157 767.025 132.423C768.512 125.886 769.252 122.365 769.252 121.854C769.252 121.717 769.154 121.157 768.976 120.183L770.65 112.113L770.374 111.553C770.374 109.655 771.113 107.984 772.601 106.549L774.552 106.824H775.112C775.576 106.824 776.226 104.505 777.063 99.865C776.876 99.4918 776.787 99.2161 776.787 99.0295H773.999C773.722 99.0295 773.349 98.6564 772.885 97.9183V97.0828C773.446 96.1581 774.096 95.6877 774.836 95.6877C775.86 95.8743 776.6 95.9635 777.063 95.9635C777.624 95.128 777.9 94.4791 777.9 94.0168C777.9 93.5058 777.437 93.0434 776.51 92.6298C776.185 92.8163 775.811 92.9056 775.397 92.9056C774.283 92.2567 773.722 91.7943 773.722 91.5185C775.584 81.8257 776.51 76.0748 776.51 74.266C777.299 73.5279 778.047 73.1548 778.738 73.1548H778.729ZM789.321 109.598L789.597 112.381V112.656C789.597 113.07 789.499 113.443 789.321 113.768C789.321 113.954 789.41 114.043 789.597 114.043C789.41 117.061 788.849 120.581 787.923 124.612L785.972 139.634H785.411C784.948 139.634 784.574 138.896 784.297 137.412L784.574 136.3C784.387 135.927 784.297 135.652 784.297 135.465H784.021C783.647 135.514 783.46 135.7 783.46 136.025V142.424C783.46 142.797 783.834 142.984 784.574 142.984V144.371C784.574 144.744 784.387 144.931 784.013 144.931H783.452L782.062 144.655L781.786 145.215L788.475 146.326C788.613 146.326 789.174 146.237 790.15 146.05C790.337 146.05 790.613 146.147 790.987 146.326C792.011 146.139 792.848 146.05 793.499 146.05H795.726C796.1 146.05 796.287 145.864 796.287 145.49C793.686 129.033 792.1 117.718 791.548 111.545C791.312 111.545 790.849 110.896 790.15 109.598H789.312H789.321ZM803.821 78.4352V79.2707L805.211 79.5464L805.488 78.9868V78.4271L804.927 77.5916C804.179 77.8674 803.813 78.1513 803.813 78.4271L803.821 78.4352ZM805.496 87.3413L806.057 87.6171H806.333V86.7816H806.057C805.683 86.8303 805.496 87.0168 805.496 87.3413ZM809.958 111.821V114.879C809.958 116.225 810.235 116.963 810.796 117.101L811.072 116.542V114.319C811.259 113.532 811.348 112.883 811.348 112.372C811.023 112.372 810.56 112.186 809.95 111.813L809.958 111.821ZM813.023 160.788V161.064H813.584V160.788H813.023ZM815.534 148.264V149.376H815.811V148.264H815.534ZM815.534 149.935V150.495H815.811V149.935H815.534Z" fill="#E80D0D"/>
<path d="M828.149 73.1548C828.523 73.1548 828.71 73.2521 828.71 73.4306C831.222 73.244 833.075 73.1548 834.286 73.1548H851.851C864.905 73.1548 873.082 75.4746 876.382 80.1142C876.659 80.1142 876.943 80.39 877.22 80.9497L876.943 83.456L877.504 83.7318C877.878 83.5452 878.154 83.456 878.341 83.456C879.78 85.3135 881.731 86.2382 884.194 86.2382L884.47 86.7978V87.0736L884.194 87.6333C879.504 87.8198 875.781 87.9091 873.042 87.9091H864.678C864.401 87.9091 864.117 88.1848 863.841 88.7445C864.166 89.4908 864.816 89.8558 865.791 89.8558H876.382C876.756 89.8558 877.496 90.1315 878.61 90.6912C878.748 90.6912 879.309 90.602 880.284 90.4154C881.259 90.4154 881.82 91.7132 881.959 94.3088C881.772 94.6819 881.682 94.9577 881.682 95.1442C881.682 95.7039 881.772 95.9797 881.959 95.9797L881.682 99.3215V106.557C881.682 110.036 881.219 113.743 880.292 117.685C881.032 118.245 882.243 118.61 883.917 118.796V119.356C883.917 119.916 882.243 120.281 878.902 120.467C878.902 120.654 878.715 120.743 878.341 120.743C877.781 120.743 877.13 120.654 876.391 120.467C874.765 120.654 873.741 120.743 873.326 120.743L868.864 120.467C867.75 120.84 867.189 121.214 867.189 121.579V122.138C867.189 122.414 867.563 122.698 868.303 122.974C868.49 122.974 869.23 122.885 870.53 122.698C872.944 122.885 874.895 122.974 876.382 122.974L876.943 123.809V124.085L871.928 127.703V128.814C874.529 129.373 877.317 132.245 880.292 137.436L879.731 138.547C873.318 138.734 868.669 138.823 865.791 138.823H857.151C854.55 137.712 852.038 137.152 849.624 137.152C848.698 137.525 848.234 137.801 848.234 137.988C848.234 138.263 848.324 139.383 848.511 141.329C847.535 142.076 844.837 142.441 840.423 142.441H840.147C839.773 142.489 839.586 142.676 839.586 143V143.56C840.512 145.093 840.984 146.107 840.984 146.618H843.211C843.91 146.618 844.747 146.991 845.723 147.729C846.048 146.991 846.698 146.618 847.673 146.618C848.234 146.618 848.511 146.991 848.511 147.729C848.511 147.916 848.413 148.005 848.234 148.005C848.234 148.102 848.324 148.467 848.511 149.116C848.511 149.765 848.413 150.6 848.234 151.622C848.234 151.76 848.324 152.507 848.511 153.845C848.511 154.68 848.324 156.716 847.95 159.969C847.95 160.942 849.25 161.778 851.851 162.475L852.412 162.199H854.363C854.639 162.199 854.924 162.475 855.2 163.035C855.2 163.173 855.103 163.732 854.924 164.706C855.111 165.079 855.2 165.355 855.2 165.541C854.826 166.141 854.639 166.701 854.639 167.212V171.941C854.639 172.128 854.542 172.217 854.363 172.217L854.639 172.776V174.447C854.639 174.861 854.542 175.234 854.363 175.559C854.737 176.394 854.924 177.603 854.924 179.176V179.736C854.924 180.296 854.55 180.571 853.81 180.571C852.786 180.571 851.022 180.669 848.511 180.847C848.324 180.847 848.234 180.758 848.234 180.571L846.284 180.847H837.359C836.944 180.847 836.57 180.758 836.245 180.571C835.92 180.758 835.546 180.847 835.131 180.847C834.53 180.847 833.88 180.571 833.181 180.012C833.368 177.83 833.457 176.256 833.457 175.283V172.501C833.457 171.625 833.36 170.692 833.181 169.719C833.368 169.021 833.457 168.186 833.457 167.212V166.936L833.181 163.595H833.457C833.457 162.67 831.596 162.208 827.881 162.208H827.32C826.857 161.834 826.572 161.648 826.483 161.648L826.759 159.701V144.395C826.759 142.96 826.849 141.662 827.036 140.502C826.849 139.577 826.759 138.369 826.759 136.884V131.044C826.759 130.631 826.662 130.258 826.483 129.933L827.044 128.538C826.906 127.8 826.719 127.427 826.483 127.427L826.759 126.04L826.483 124.369C826.483 123.533 827.133 122.795 828.434 122.146L830.108 122.422H830.385C830.661 122.422 830.945 122.146 831.222 121.587V119.364C831.222 118.991 831.035 118.805 830.661 118.805H828.71C827.41 118.805 826.759 118.156 826.759 116.858V96.8233C826.759 96.6367 826.849 96.5475 827.036 96.5475L826.759 95.9878V92.646C826.759 92.2323 826.662 91.8592 826.483 91.5348C826.483 90.3749 827.507 89.5394 829.547 89.0284C829.873 89.215 830.246 89.3042 830.661 89.3042L831.222 88.4687V87.6333C831.222 86.3355 830.661 85.6866 829.547 85.6866C828.946 86.0597 828.385 86.2463 827.873 86.2463C827.125 85.3216 826.759 84.7619 826.759 84.5754C826.759 84.3888 826.849 84.113 827.036 83.7399L826.759 81.2336L827.036 79.2869L826.759 77.8999L827.036 75.9532L826.759 74.0065C827.686 73.6334 828.157 73.3576 828.157 73.171L828.149 73.1548ZM850.453 90.1234C850.079 89.9369 849.803 89.8476 849.616 89.8476C848.868 90.0342 848.503 90.5939 848.503 91.5185V94.5765C848.503 97.7804 848.405 101.95 848.226 107.1L848.503 108.771C848.503 110.815 847.478 111.829 845.438 111.829L844.877 112.94L845.715 114.327C845.901 114.327 845.991 114.238 845.991 114.051C847.665 114.287 848.503 114.652 848.503 115.163V115.438C848.503 115.852 848.405 116.225 848.226 116.55C848.69 118.221 849.153 119.056 849.616 119.056C849.99 119.056 850.64 118.869 851.567 118.496C852.307 118.683 852.681 119.056 852.681 119.608C852.494 119.981 852.404 120.256 852.404 120.443C853.241 121.003 853.892 121.279 854.355 121.279C857.98 121.279 860.305 120.63 861.329 119.332V118.772H859.655C859.378 118.772 859.094 118.496 858.817 117.937V117.661C859.378 115.065 860.207 113.768 861.329 113.768C862.166 113.768 862.719 113.865 863.003 114.043L870.53 113.484C870.807 113.67 871.367 113.759 872.205 113.759C872.944 113.484 873.318 113.2 873.318 112.924V112.648C873.131 112.089 872.57 111.813 871.644 111.813H864.393C864.206 111.813 864.117 111.724 864.117 111.537L863.556 111.813H861.329C861.053 111.813 860.768 111.537 860.492 110.977V109.031C860.492 107.595 860.394 106.297 860.215 105.137C860.402 104.164 860.492 103.239 860.492 102.355L860.215 99.0133C860.402 98.0399 860.492 97.1153 860.492 96.2311C859.793 93.8627 858.866 92.1026 857.704 90.9427C857.891 90.5695 857.98 90.2938 857.98 90.1072C856.769 89.3691 855.655 88.996 854.631 88.996L850.453 90.1072V90.1234ZM845.715 158.566L845.154 159.953L845.715 160.228H846.552C846.926 160.228 847.113 160.042 847.113 159.669V159.393C846.788 159.393 846.324 159.117 845.723 158.558L845.715 158.566ZM860.215 140.762L862.727 141.037C862.914 141.037 863.19 140.948 863.564 140.762L864.954 141.037L866.629 140.762L868.579 141.037C871.831 140.851 873.782 140.762 874.432 140.762C879.081 140.997 881.406 141.362 881.406 141.873C881.78 146.375 881.967 148.873 881.967 149.384V149.943C881.967 150.219 881.69 150.503 881.129 150.779H879.179C878.943 150.779 877.927 150.965 876.114 151.339H874.724C874.31 151.339 873.936 151.249 873.611 151.063C873.334 151.063 872.961 151.436 872.497 152.174C872.684 152.92 873.237 153.285 874.172 153.285H875.846C876.911 153.285 878.398 153.383 880.309 153.561L880.869 153.285C881.796 153.561 882.267 154.21 882.267 155.232C882.267 155.418 882.17 155.694 881.991 156.067C882.178 156.814 882.267 157.454 882.267 158.014C881.894 159.174 881.707 159.823 881.707 159.961C882.406 161.445 884.08 162.183 886.722 162.183C887.559 162.183 888.299 162.459 888.949 163.019C888.713 165.103 888.534 166.401 888.388 166.912L888.664 168.583V168.859C888.664 169.605 888.567 170.343 888.388 171.081C888.575 173.304 889.225 176.183 890.339 179.703L889.225 180.539H888.664C887.177 180.539 885.413 180.636 883.365 180.815C883.178 180.815 883.088 180.725 883.088 180.539L881.138 180.815H869.986C868.596 180.815 867.661 179.241 867.198 176.086V167.739C867.198 164.219 866.824 162.451 866.084 162.451H864.41C861.808 162.451 860.508 162.078 860.508 161.34V146.869C860.508 145.847 859.858 144.087 858.557 141.581C859.297 141.021 859.858 140.745 860.232 140.745L860.215 140.762Z" fill="#E80D0D"/>
<path d="M890.184 73.1548C890.786 73.1548 891.249 73.2521 891.574 73.4306C893.615 73.244 895.386 73.1548 896.874 73.1548H898.825C901.564 73.1548 905.287 73.2521 909.977 73.4306C910.026 73.8037 910.212 73.9903 910.538 73.9903C910.351 76.2127 910.074 77.8836 909.7 78.9949C910.074 79.6924 910.261 80.4305 910.261 81.2173V81.777C910.261 82.288 910.074 82.8477 909.7 83.4479L908.026 83.1721C907.238 83.1721 906.4 83.3587 905.514 83.7318C904.864 83.5452 904.49 83.456 904.401 83.456C902.499 83.6426 901.377 83.7318 901.052 83.7318L897.703 83.456L897.142 84.2915V84.8511C897.142 84.989 897.419 85.2648 897.979 85.6866L901.328 85.4108H904.393C908.294 85.7353 910.245 86.1976 910.245 86.7978V90.1396C910.245 91.624 911.635 92.3621 914.431 92.3621C914.618 92.7352 914.805 93.5707 914.992 94.8685C914.756 95.6147 914.293 96.1663 913.602 96.5394H911.09C910.814 96.5394 910.529 96.8152 910.253 97.3748V97.6506C910.253 98.3482 911.643 98.8105 914.439 99.0376C914.626 99.4107 914.715 99.6865 914.715 99.8731C914.529 102.193 914.439 103.393 914.439 103.491C914.439 103.864 914.626 104.513 915 105.437C914.813 106.922 914.073 107.66 912.773 107.66C912.358 107.66 911.984 107.571 911.659 107.384C910.822 107.757 910.359 108.13 910.269 108.495V110.442C910.269 111.188 910.172 111.926 909.993 112.664C910.18 113.362 910.269 114.1 910.269 114.887V117.109C910.269 117.385 909.895 117.758 909.156 118.221H907.205C906.603 118.221 906.132 118.318 905.815 118.496L904.141 118.221H899.126C898.752 118.269 898.565 118.456 898.565 118.78V119.891C898.565 120.167 898.939 120.451 899.678 120.727C899.865 120.727 899.955 120.638 899.955 120.451C900.141 120.451 900.418 120.548 900.792 120.727C902.694 120.54 904.181 120.451 905.254 120.451L907.205 121.011L909.156 120.735C909.432 120.735 909.895 121.108 910.546 121.846L910.269 123.793V145.774L910.546 147.445C910.359 147.77 910.269 148.232 910.269 148.832V152.726L910.546 154.672L909.432 155.508H908.595L907.197 155.232C906.636 155.881 906.173 156.716 905.807 157.738L906.083 159.125C905.896 160.423 905.807 161.169 905.807 161.348C908.595 162.272 910.822 162.832 912.496 163.019V163.294C912.496 164.868 912.586 167.188 912.773 170.254C912.586 173.036 912.496 174.983 912.496 176.094L912.773 178.041C912.586 178.414 912.496 178.689 912.496 178.876C912.683 179.249 912.773 179.525 912.773 179.712C912.773 180.125 910.261 180.498 905.246 180.823H897.996C896.923 180.823 895.443 180.734 893.533 180.547C893.159 180.734 892.883 180.823 892.696 180.823C891.948 180.636 891.306 180.36 890.745 179.987C890.745 179.574 890.835 179.201 891.022 178.876C890.835 175.445 890.745 172.574 890.745 170.254V167.196C890.745 166.271 890.835 164.876 891.022 163.027C890.42 162.654 889.859 162.467 889.347 162.467H886.283C885.633 162.467 884.885 162.094 884.056 161.356L884.616 158.574C884.43 157.836 884.34 157.089 884.34 156.351C884.34 156.076 884.901 155.613 886.015 154.964H887.689L888.25 155.24L889.087 153.853C888.9 150.471 888.811 148.337 888.811 147.453C888.811 146.391 888.9 145.734 889.087 145.507C888.9 143.609 888.811 142.124 888.811 141.054V128.53C888.811 125.796 888.9 122.082 889.087 117.401C888.9 116.663 888.811 115.917 888.811 115.179C889.185 114.343 889.55 113.881 889.924 113.792H892.712C892.989 113.792 893.363 113.419 893.826 112.681V112.405C893.826 112.032 893.639 111.845 893.265 111.845H889.916C889.64 111.845 889.266 111.472 888.803 110.734V109.063C888.803 108.041 889.363 107.206 890.477 106.557L892.151 106.832C892.753 106.832 893.127 105.348 893.265 102.379C893.078 100.344 892.802 99.135 892.428 98.7618L891.038 99.0376H889.924C889.689 99.0376 889.225 98.5753 888.526 97.6506C888.9 96.3528 889.64 95.7039 890.753 95.7039C891.729 95.8905 892.29 95.9797 892.428 95.9797L892.989 95.1443V94.033C892.989 93.522 892.802 92.9705 892.428 92.3621C892.054 92.3621 891.404 92.5487 890.477 92.9218C890.201 92.9218 889.64 92.4594 888.803 91.5348C888.99 87.828 889.079 85.0458 889.079 83.1884V79.8465C889.079 79.0598 889.168 78.0377 889.355 76.7886C889.12 75.7261 888.843 74.9798 888.518 74.5662V74.2904C888.518 73.9173 889.079 73.5523 890.193 73.1791L890.184 73.1548ZM907.189 77.6079V79.5545C907.237 79.9277 907.424 80.1142 907.75 80.1142L908.026 78.7272L907.75 77.616H907.189V77.6079ZM909.977 164.965V166.912H910.538C910.538 166.725 910.627 166.45 910.814 166.077C910.627 165.752 910.538 165.379 910.538 164.965H909.977Z" fill="#E80D0D"/>
<path d="M249.213 12.7183C247.4 12.8319 245.482 12.2236 243.832 12.9374C243.995 14.7461 244.328 16.2792 244.328 17.7635C244.385 27.2455 244.433 36.6707 244.385 46.1527C244.328 48.732 244.881 51.4655 243.669 54.1016C245.864 54.7019 253.009 54.5396 254.382 53.9394C254.277 52.6254 254.049 51.3114 254.049 49.9974C253.992 44.352 253.935 38.6498 254.049 33.0044C254.106 26.3695 253.61 19.7426 254.545 13.059C252.789 12.402 250.977 12.621 249.221 12.7265L249.213 12.7183Z" fill="white"/>
<path d="M286.944 28.7785C284.311 27.1887 281.669 25.5421 279.198 23.7333C278.044 22.8573 276.947 21.8191 276.174 20.5538C274.524 17.8689 275.679 15.3464 278.759 14.6894C282.823 13.8134 286.449 14.8516 289.692 17.2119C290.903 18.0312 292 18.964 293.374 20.0103C293.593 19.2397 293.756 18.7531 293.756 18.3151C293.813 17.3255 293.756 16.4008 293.756 15.4113C293.699 13.6025 293.536 13.4402 291.781 13.0022C286.505 11.6314 281.125 11.1934 275.687 11.745C274.915 11.8018 274.207 11.964 273.435 12.1262C264.315 13.716 263.828 22.1517 266.567 27.2536C268.103 29.9952 270.468 32.023 273.045 33.775C275.297 35.3648 277.605 36.7356 279.8 38.3821C282.271 40.1909 284.465 42.2755 285.514 45.2361C286.172 47.1503 285.733 48.4725 284.14 49.6729C282.604 50.7679 280.848 51.3195 278.979 51.3195C273.265 51.4331 268.046 49.7297 263.6 46.1121C263.161 45.7309 262.722 45.4551 262.007 45.0171C261.568 48.3589 262.34 50.1109 264.974 51.6521C269.591 54.4504 274.695 55.4886 280.076 55.5454C285.4 55.6509 289.684 53.4041 293.26 49.6243C296.666 45.9499 297.162 39.98 294.252 35.9812C292.277 33.1829 289.911 30.6684 286.944 28.8028V28.7785Z" fill="white"/>
<path d="M300.348 13.0996C300.624 14.6894 300.787 16.3359 301.665 17.3742C305.948 17.3174 309.85 17.2119 313.743 17.2119C315.336 17.2119 315.719 17.65 315.719 19.2965C315.719 23.4576 315.662 27.6835 315.662 31.9013C315.662 39.2987 315.995 46.6961 315.442 54.3125H325.602V46.4203C325.546 41.2697 325.489 36.1191 325.489 30.9117C325.489 27.0752 325.489 23.2386 325.546 19.3452C325.546 17.3742 325.822 17.2119 327.797 17.2119C331.642 17.2119 335.486 17.3174 339.494 17.3742C340.315 16.2224 340.648 14.7461 340.754 13.1564C338.998 12.6048 302.583 12.5561 300.332 13.0996H300.348Z" fill="white"/>
<path d="M378.436 44.2303C376.022 38.2605 373.6 32.3393 371.129 26.3614C369.536 22.5248 368 18.6882 366.349 14.9084C366.016 14.1946 365.195 13.3186 364.48 13.0996C362.009 12.4426 359.538 12.4426 357.392 12.8238C356.677 15.4032 356.238 17.65 355.417 19.7832C352.67 27.1806 349.817 34.578 346.955 41.9754C345.639 45.4308 344.541 48.9916 342.233 52.0008C341.737 52.6578 341.241 53.3149 340.754 53.9151C340.973 54.1341 341.087 54.2963 341.136 54.2963C343.387 54.3531 345.639 54.4099 347.833 54.2963C348.167 54.2963 348.605 53.7447 348.768 53.3635C349.646 51.1167 350.467 48.8699 351.239 46.6231C353.653 39.9882 356.075 33.3613 358.433 26.6777C358.709 26.0207 358.928 25.4205 359.969 25.1447C360.521 26.4587 361.009 27.7727 361.562 29.0381C362.602 31.6174 363.651 34.2454 364.691 36.8167C365.512 38.8445 365.35 39.1203 363.651 40.5397C361.342 42.454 358.871 43.9383 355.799 44.2141C355.636 44.2709 355.466 44.4331 355.246 44.5467C357.002 47.1747 360.026 48.1075 362.992 46.9557C363.927 46.5745 364.911 46.1364 365.846 45.6984C367.496 44.9279 367.878 45.0414 368.479 46.7367C369.3 48.8699 370.178 51.0113 371.007 53.2013C371.283 53.9151 371.665 54.4099 372.486 54.4099C375.339 54.4099 378.249 54.4666 381.11 54.4666C381.444 54.4666 381.769 54.2476 382.151 54.0854C382.045 53.5906 382.045 53.1526 381.874 52.8282C380.72 49.9244 379.623 47.0773 378.412 44.2222L378.436 44.2303Z" fill="white"/>
<path d="M425.995 12.9374C425.995 16.9929 426.052 20.935 425.995 24.8284C425.938 28.7217 426.377 32.607 425.662 36.7194C424.946 36.3381 424.45 36.2246 424.182 35.9001C421.768 33.5398 419.46 31.1307 417.094 28.7217C412.258 23.8469 407.43 18.964 402.65 14.0324C401.61 12.9941 400.456 12.6048 399.082 12.6048C397.213 12.6616 395.4 12.6616 393.587 12.6616H389.141C389.198 13.3754 389.198 13.7566 389.255 14.1946C389.418 15.5654 389.751 16.9362 389.751 18.307V43.1353C389.694 46.7529 389.645 50.3705 389.645 54.2639C391.125 54.3206 392.888 54.5964 394.587 54.2071C394.587 48.8943 394.53 43.6869 394.587 38.5363C394.701 33.3857 394.368 28.2918 394.92 22.5897C395.855 23.3035 396.514 23.6847 396.952 24.1795C400.244 27.5213 403.488 30.9766 406.731 34.3752C409.917 37.717 413.047 41.0588 416.29 44.4007C419.143 47.418 422.004 50.3705 424.914 53.3311C425.41 53.8259 426.174 54.3206 426.832 54.3693C428.206 54.5315 429.636 54.3693 430.953 54.3125V44.2871C430.953 36.4517 430.896 28.6163 430.953 20.7728C431.01 18.4124 431.286 16.0602 431.449 13.6998C431.506 13.4808 431.392 13.2618 431.335 12.986C429.522 12.3858 427.653 12.548 426.011 12.9292L425.995 12.9374Z" fill="white"/>
<path d="M474.326 29.6545C474.163 29.541 474.163 29.2733 473.992 28.9975C474.374 28.5027 474.708 28.0079 475.146 27.5699C478.829 23.7333 477.78 17.1065 473.114 14.5839C470.481 13.1077 467.571 12.6129 464.604 12.6129C461.637 12.6697 458.671 12.7265 455.761 12.7265C450.819 12.6697 445.933 12.6697 441.04 12.6697C440.439 12.6697 439.886 12.8319 439.504 12.8887C439.667 14.7543 439.837 16.344 439.837 17.9338C439.894 23.0277 439.951 28.1783 439.837 33.2802C439.78 40.1828 440.219 47.0936 439.618 54.3287C440.171 54.3287 440.715 54.3855 441.268 54.3855C446.153 54.4423 451.095 54.4423 455.988 54.3855C460.166 54.3855 464.279 54.3855 468.4 54.1097C471.643 53.9475 474.553 52.6335 476.691 50.1109C479.601 46.6556 480.536 42.6567 479.715 38.2767C479.056 34.7159 477.569 31.6418 474.334 29.6707L474.326 29.6545ZM449.559 24.1227V18.8585C449.502 17.7635 449.998 17.0497 451.095 17.0497C454.94 17.1633 458.841 16.5549 462.629 17.6499C465.262 18.3637 466.531 20.3915 465.978 22.8573C465.701 24.2849 464.767 25.2177 463.612 25.9234C463.011 26.3614 462.296 26.6939 461.58 26.9616C458.288 28.2756 455.045 29.541 451.753 30.7414C450.055 31.3416 449.616 30.9604 449.559 29.1516C449.502 27.505 449.559 25.8098 449.559 24.1065V24.1227ZM465.043 47.5802C463.344 48.6185 461.475 48.8375 459.548 48.8942H455.817C454.338 48.8942 452.851 48.951 451.371 48.8942C449.941 48.8375 449.616 48.5617 449.559 47.199C449.502 44.1816 449.559 41.1724 449.559 38.155C449.559 37.2222 449.941 36.5652 450.819 36.2408C454.062 35.0322 457.248 33.8318 460.483 32.68C464.328 31.366 467.514 33.6695 468.668 37.1736C469.985 41.2292 468.506 45.5605 465.043 47.5883V47.5802Z" fill="white"/>
<path d="M514.357 12.8319C514.52 14.5271 514.796 16.1737 514.853 17.8203C514.91 19.8481 514.796 21.8759 514.796 23.9037C514.796 28.673 514.902 33.4424 514.796 38.2037C514.739 40.0125 514.3 41.8213 513.805 43.5165C513.26 45.3821 511.886 46.5339 510.074 47.2963C507.928 48.1723 505.733 48.1723 503.482 47.8479C500.629 47.4099 498.597 45.9823 497.767 43.2407C497.329 41.7077 496.946 40.1179 496.946 38.5281C496.841 32.7773 496.841 27.0184 496.89 21.2675C496.89 18.4205 497.052 15.6221 497.166 12.5561C493.76 12.4426 490.298 12.3371 486.949 12.4993C487.054 14.6894 487.225 16.6685 487.282 18.5827C487.282 23.2386 487.225 27.9512 487.282 32.6638C487.282 36.0623 487.119 39.5177 487.615 42.9082C488.436 48.8294 491.517 53.1607 497.556 54.9614C502.173 56.3322 506.839 56.2186 511.447 54.9046C516.007 53.6474 518.86 50.7355 520.128 46.1364C520.844 43.5084 520.901 40.8723 520.901 38.1875C521.12 29.6951 520.405 21.1459 521.453 12.7021C519.421 12.2641 515.633 12.3209 514.365 12.8157L514.357 12.8319Z" fill="white"/>
<path d="M558.624 48.3427C557.803 48.5049 556.974 48.7239 556.153 48.7239C551.536 48.7807 546.87 48.6671 542.262 48.8375C540.449 48.8942 540.01 48.3995 540.01 46.4771C540.01 42.9731 540.01 39.4609 540.067 35.9569C540.124 28.3973 539.685 20.7728 540.449 12.9941C538.693 12.2236 536.824 12.7751 534.954 12.7183C533.085 12.6048 531.272 12.6616 529.46 12.8319C530.281 19.9535 530.012 26.8075 529.899 33.6533C529.842 40.5073 530.5 47.3531 529.46 54.3693C540.278 54.4747 551.04 54.5315 562.355 54.3693C561.753 52.5037 561.363 51.0843 560.924 49.7135C560.485 48.2859 560.103 48.0669 558.616 48.3427H558.624Z" fill="white"/>
<path d="M574.051 12.8806C571.686 12.9941 569.491 14.9084 569.052 17.2687C568.451 20.2293 570.312 22.5815 573.669 23.0763C575.644 23.3521 575.921 23.7901 575.262 25.5989C574.441 27.7403 573.23 29.5977 571.304 30.9685C571.028 31.1875 570.751 31.5201 570.483 31.7877C570.54 31.9013 570.597 32.0067 570.646 32.1203C571.141 32.0067 571.743 32.0635 572.125 31.7877C573.499 30.7495 575.092 29.8167 576.132 28.5027C578.936 25.1041 580.196 21.1621 579.099 16.7739C578.441 14.1946 576.408 12.7183 574.043 12.8806H574.051Z" fill="white"/>
<path d="M613.921 12.8319C614.083 14.5271 614.36 16.1737 614.416 17.8203C614.473 19.8481 614.36 21.8759 614.36 23.9037C614.36 28.673 614.465 33.4424 614.36 38.2037C614.303 40.0125 613.864 41.8213 613.368 43.5165C612.823 45.3821 611.45 46.5339 609.637 47.2963C607.491 48.1723 605.296 48.1723 603.045 47.8479C600.192 47.4099 598.16 45.9823 597.331 43.2407C596.892 41.7077 596.51 40.1179 596.51 38.5281C596.404 32.7773 596.404 27.0184 596.453 21.2675C596.453 18.4205 596.615 15.6221 596.729 12.5561C593.324 12.4426 589.861 12.3371 586.512 12.4993C586.618 14.6894 586.788 16.6685 586.845 18.5827C586.845 23.2386 586.788 27.9512 586.845 32.6638C586.845 36.0623 586.683 39.5177 587.179 42.9082C588 48.8294 591.08 53.1607 597.119 54.9614C601.736 56.3322 606.402 56.2186 611.011 54.9046C615.571 53.6474 618.424 50.7355 619.692 46.1364C620.407 43.5084 620.464 40.8723 620.464 38.1875C620.683 29.6951 619.968 21.1459 621.017 12.7021C618.984 12.2641 615.197 12.3209 613.929 12.8157L613.921 12.8319Z" fill="white"/>
<path d="M671.201 12.9941C669.388 12.3939 667.518 12.5561 665.877 12.9373C665.877 16.9929 665.933 20.935 665.877 24.8283C665.82 28.7217 666.259 32.607 665.543 36.7193C664.828 36.3381 664.332 36.2246 664.064 35.9001C661.65 33.5398 659.341 31.1307 656.976 28.7217C652.14 23.8469 647.312 18.964 642.532 14.0324C641.492 12.9941 640.337 12.6048 638.964 12.6048C637.094 12.6616 635.282 12.6616 633.469 12.6616H629.023C629.08 13.3753 629.08 13.7566 629.129 14.1946C629.291 15.5654 629.624 16.9362 629.624 18.3069V43.1353C629.568 46.7529 629.511 50.3705 629.511 54.2639C630.99 54.3206 632.754 54.5964 634.453 54.2071C634.453 48.8942 634.396 43.6869 634.453 38.5363C634.566 33.3856 634.233 28.2918 634.786 22.5897C635.721 23.3034 636.379 23.6847 636.818 24.1794C640.11 27.5213 643.353 30.9766 646.596 34.3752C649.783 37.717 652.912 41.0588 656.155 44.4006C659.008 47.418 661.869 50.3705 664.779 53.3311C665.275 53.8258 666.039 54.3206 666.697 54.3693C668.071 54.5315 669.502 54.3693 670.819 54.3125V44.2871C670.819 36.4517 670.762 28.6163 670.819 20.7728C670.875 18.4124 671.152 16.0601 671.314 13.6998C671.371 13.4808 671.257 13.2618 671.209 12.986L671.201 12.9941Z" fill="white"/>
<path d="M249.18 9.65232C251.851 9.65232 254.017 7.49157 254.017 4.82616C254.017 2.16074 251.851 0 249.18 0C246.509 0 244.344 2.16074 244.344 4.82616C244.344 7.49157 246.509 9.65232 249.18 9.65232Z" fill="white"/>
</g>
<defs>
<clipPath id="clip0_1_5">
<rect width="915" height="185" fill="white"/>
</clipPath>
</defs>
</svg>
