<svg width="23" height="30" viewBox="0 0 23 30" fill="none" xmlns="http://www.w3.org/2000/svg">
<path d="M3.72641 19.8919L4.16674 20.6153L4.46906 20.9339L4.58079 21.0202L4.9554 21.3853L5.20514 21.7039L5.3563 21.8565L5.61261 22.049L5.65862 22.0557L5.89522 22.1884H5.93465L6.1121 22.3145L6.3947 22.5999L6.80874 23.0579L7.12421 23.3101L7.35423 23.5557L7.74856 24.1797L7.96544 24.4651L7.95887 24.5779L7.99173 24.6244L8.11003 24.6111L8.37292 24.8235L8.34005 24.9363L8.36634 24.9761H8.48464L8.53065 25.0093L8.5898 25.0956L8.84611 25.381L9.16815 25.693L9.23387 25.7063L9.62162 25.912L9.84508 26.0581L10.2197 26.5028L10.4169 26.7019L10.7323 26.9674L11.0281 27.2661L11.2252 27.6378L11.3698 27.8103L11.5144 28.036L11.8364 28.3612L12.0073 28.494L12.1125 28.6267L12.1453 28.713L12.1388 28.8259L12.0796 28.9254L11.8299 29.2175L11.7116 29.3237L11.5341 29.3967L11.3172 29.2971L11.1661 29.1445L10.9492 28.8856L10.9295 28.8391L10.9361 28.806L10.9098 28.7794L10.8243 28.7993L10.7849 28.786L10.7389 28.6334L10.7717 28.494L10.522 28.2019L10.1803 27.8966L9.87137 27.6776L9.35874 27.1466L8.96441 26.8944L8.90526 26.8877L8.61608 26.6753L8.37949 26.4231L8.16918 26.1178H8.24805L8.28748 26.0912L8.28091 26.0581L8.02459 25.7594L7.57769 25.3346L7.53168 25.3147L7.43967 25.3279L7.36081 25.235V25.089L7.11106 24.8235L6.93362 24.5779L6.71673 24.3589L6.32241 24.0668L5.7112 23.4495L5.43517 23.277L5.30372 23.3168L4.94225 23.0048L4.78452 22.819L4.6728 22.6265L4.59393 22.5999L4.51507 22.5336V22.4274H4.39677L4.29818 22.3544L3.7527 21.8167L3.66069 21.684L3.64097 21.6242L3.6804 21.5048L3.58182 21.3521H3.56868L3.39123 21.0003L3.05605 20.6618L2.53028 20.2636L2.10309 19.8188L1.78105 19.56L1.70876 19.5268L1.62332 19.5202L1.46559 19.4272L1.24871 19.2348L0.972678 18.9162L0.775513 18.6241L0.328607 18.1993L0.0722936 17.9139L0 17.8011L0.046005 17.5953L0.0854379 17.5157L0.262886 17.3099L0.42719 17.2236H0.545488L0.663787 17.1307L0.782086 17.1838L0.834663 17.2369L0.821518 17.2502V17.3696L1.02525 17.5754L1.05154 17.6285L1.11069 17.6749L1.24871 17.6418L1.61675 18.0798L1.76134 18.2259L1.91249 18.3254H1.93878L2.37912 18.5577L2.75373 18.9228L2.9969 19.2215L3.44381 19.6064L3.72641 19.8919Z" fill="#E80D0D"/>
<path d="M19.2736 19.8919L18.8333 20.6153L18.5309 20.9339L18.4192 21.0202L18.0446 21.3853L17.7949 21.7039L17.6437 21.8565L17.3874 22.049L17.3414 22.0557L17.1048 22.1884H17.0654L16.8879 22.3145L16.6053 22.5999L16.1913 23.0579L15.8758 23.3101L15.6458 23.5557L15.2514 24.1797L15.0346 24.4651L15.0411 24.5779L15.0083 24.6244L14.89 24.6111L14.6271 24.8235L14.6599 24.9363L14.6337 24.9761H14.5154L14.4694 25.0093L14.4102 25.0956L14.1539 25.381L13.8319 25.693L13.7661 25.7063L13.3784 25.912L13.1549 26.0581L12.7803 26.5028L12.5831 26.7019L12.2677 26.9674L11.9719 27.2661L11.7748 27.6378L11.6302 27.8103L11.4856 28.036L11.1636 28.3612L10.9927 28.494L10.8875 28.6267L10.8547 28.713L10.8612 28.8259L10.9204 28.9254L11.1701 29.2175L11.2884 29.3237L11.4659 29.3967L11.6828 29.2971L11.8339 29.1445L12.0508 28.8856L12.0705 28.8391L12.0639 28.806L12.0902 28.7794L12.1757 28.7993L12.2151 28.786L12.2611 28.6334L12.2283 28.494L12.478 28.2019L12.8197 27.8966L13.1286 27.6776L13.6413 27.1466L14.0356 26.8944L14.0947 26.8877L14.3839 26.6753L14.6205 26.4231L14.8308 26.1178H14.752L14.7125 26.0912L14.7191 26.0581L14.9754 25.7594L15.4223 25.3346L15.4683 25.3147L15.5603 25.3279L15.6392 25.235V25.089L15.8889 24.8235L16.0664 24.5779L16.2833 24.3589L16.6776 24.0668L17.2888 23.4495L17.5648 23.277L17.6963 23.3168L18.0577 23.0048L18.2155 22.819L18.3272 22.6265L18.4061 22.5999L18.4849 22.5336V22.4274H18.6032L18.7018 22.3544L19.2473 21.8167L19.3393 21.684L19.359 21.6242L19.3196 21.5048L19.4182 21.3521H19.4313L19.6088 21.0003L19.944 20.6618L20.4697 20.2636L20.8969 19.8188L21.2189 19.56L21.2912 19.5268L21.3767 19.5202L21.5344 19.4272L21.7513 19.2348L22.0273 18.9162L22.2245 18.6241L22.6714 18.1993L22.9277 17.9139L23 17.8011L22.954 17.5953L22.9146 17.5157L22.7371 17.3099L22.5728 17.2236H22.4545L22.3362 17.1307L22.2179 17.1838L22.1653 17.2369L22.1785 17.2502V17.3696L21.9747 17.5754L21.9485 17.6285L21.8893 17.6749L21.7513 17.6418L21.3833 18.0798L21.2387 18.2259L21.0875 18.3254H21.0612L20.6209 18.5577L20.2463 18.9228L20.0031 19.2215L19.5562 19.6064L19.2736 19.8919Z" fill="#E80D0D"/>
<path d="M11.407 9.2016L11.5836 9.25792L11.8624 9.26731L11.9182 9.29547L12.0204 9.39872L12.039 9.49259L12.0483 9.81174L11.9925 9.97132L11.9739 10.4688L12.0297 11.2198L12.0111 11.5952L11.9368 12.0082L11.9182 12.3837L11.9925 13.2848L11.9832 13.6603L11.9368 14.2517L12.039 15.1153L12.0483 15.6222L11.9925 16.0915L11.9739 16.1197V16.4388L12.0204 17.0302V17.4713L11.9275 18.1096V18.5602H11.9089L11.8903 18.6165L11.8996 18.6729L11.9553 18.7667L11.9368 18.8324L11.8531 18.8981L11.8903 19.2361L11.881 19.5928L11.8345 20.0996L11.881 20.1466H11.8996L11.9553 20.2404L11.9739 20.6722L12.0483 21.104L12.0576 21.3387L12.1598 21.395L12.1784 21.442L12.1505 21.4889L12.0576 21.5264L11.9739 22.1554L11.9832 22.6341L12.0297 23.0471V23.2536L11.9832 23.3662L12.0111 23.5821L11.9553 23.7699L11.9275 24.502L11.9925 25.4407L11.946 26.079L11.9553 26.4827L12.0483 27.0928V27.7593L12.0204 27.8343L11.9739 28.191L11.8996 28.3225L11.8066 28.4069L11.5557 28.4633H11.1932L11.156 28.4445L11.0631 28.3412L11.0259 28.2568L10.9794 27.6091L11.0259 27.1303V26.5296L11.0073 26.4639L10.998 26.2761L10.9515 26.079L10.9237 25.6848L10.933 25.4126L11.0073 24.8963V24.4739L10.9423 23.8919L10.9515 23.5821L11.0352 23.0753L11.0538 22.7843L10.9887 21.7987L10.998 21.3481L11.0166 21.2824L11.0259 20.5033L10.9701 20.0246L10.933 19.8838V19.4144L11.0073 18.8794V18.3819L11.091 18.2974L11.0631 18.2411L10.998 18.2129L10.9701 18.1284L10.9423 17.9407L10.9515 17.8938L11.0073 17.7999L11.0166 17.1147L11.0445 16.8706V16.6641L10.9794 15.5658L11.0166 15.2091L11.0259 14.599L11.0073 14.3925L10.9701 14.2517L10.9794 14.1766L10.9237 13.8105L10.9423 13.4538L10.9144 13.3787L10.9051 13.1628L10.9794 13.0877L10.9701 13.0408L10.9144 12.9939L10.9051 12.318L10.9701 12.2429V12.2148L10.9051 12.149V12.0458L10.9608 11.9707L10.9423 11.8487L10.9515 11.5671L11.0259 11.154L11.0538 10.6941L11.0352 10.5627L11.0166 9.77419L11.1003 9.67094L11.0817 9.50198L11.1653 9.2016H11.407Z" fill="#E80D0D"/>
<path d="M11.407 0.0165253L11.5836 0.0728459L11.8624 0.0822327L11.9182 0.110393L12.0204 0.213648L12.039 0.307515L12.0483 0.626666L11.9925 0.786241L11.9739 1.28374L12.0297 2.03468L12.0111 2.41015L11.9368 2.82317L11.9182 3.19864L11.9925 4.09977L11.9832 4.47524L11.9368 5.06661L12.039 5.93019L12.0483 6.43708L11.9925 6.90642L11.9739 6.93458V7.25373L12.0204 7.8451V8.28627L11.9275 8.92458V9.37514H11.9089L11.8903 9.43146L11.8996 9.48778L11.9553 9.58165L11.9368 9.64736L11.8531 9.71306L11.8903 10.051L11.881 10.4077L11.8345 10.9146L11.881 10.9615H11.8996L11.9553 11.0554L11.9739 11.4872L12.0483 11.919L12.0576 12.1536L12.1598 12.2099L12.1784 12.2569L12.1505 12.3038L12.0576 12.3414L11.9739 12.9703L11.9832 13.449L12.0297 13.862V14.0685L11.9832 14.1812L12.0111 14.3971L11.9553 14.5848L11.9275 15.317L11.9925 16.2556L11.946 16.8939L11.9553 17.2976L12.0483 17.9077V18.5742L12.0204 18.6493L11.9739 19.006L11.8996 19.1374L11.8066 19.2219L11.5557 19.2782H11.1932L11.156 19.2594L11.0631 19.1562L11.0259 19.0717L10.9794 18.424L11.0259 17.9453V17.3445L11.0073 17.2788L10.998 17.0911L10.9515 16.8939L10.9237 16.4997L10.933 16.2275L11.0073 15.7112V15.2888L10.9423 14.7068L10.9515 14.3971L11.0352 13.8902L11.0538 13.5992L10.9887 12.6136L10.998 12.163L11.0166 12.0973L11.0259 11.3182L10.9701 10.8395L10.933 10.6987V10.2293L11.0073 9.69429V9.19679L11.091 9.11231L11.0631 9.05599L10.998 9.02783L10.9701 8.94335L10.9423 8.75561L10.9515 8.70868L11.0073 8.61481L11.0166 7.92958L11.0445 7.68552V7.47901L10.9794 6.38076L11.0166 6.02406L11.0259 5.41392L11.0073 5.20741L10.9701 5.06661L10.9794 4.99152L10.9237 4.62543L10.9423 4.26873L10.9144 4.19364L10.9051 3.97774L10.9794 3.90265L10.9701 3.85572L10.9144 3.80878L10.9051 3.13293L10.9701 3.05784V3.02968L10.9051 2.96397V2.86072L10.9608 2.78562L10.9423 2.6636L10.9515 2.38199L11.0259 1.96897L11.0538 1.50902L11.0352 1.37761L11.0166 0.589119L11.1003 0.485864L11.0817 0.316902L11.1653 0.0165253H11.407Z" fill="#E80D0D"/>
</svg>
