<svg width="29" height="29" viewBox="0 0 29 29" fill="none" xmlns="http://www.w3.org/2000/svg">
<path d="M28.2519 0.355158L28.4287 0.696656L28.8232 1.12011L28.864 1.24305V1.54357L28.7552 1.70749L28.3063 2.18559L27.9934 2.33585L27.2453 3.0325L26.2387 4.20725L25.6675 4.72633L24.9601 5.21809L24.3888 5.73716L23.1918 7.15779L22.6341 7.69053L21.7092 8.48281L20.6074 9.88978L19.8865 10.6411L19.1248 11.2421L19.0568 11.2558L18.5943 11.7202L17.8053 12.6491L17.166 13.2911L16.1051 14.0834L15.4522 14.739L15.425 14.7117L15.3161 14.7664L15.2481 14.862L15.1937 15.0805L15.0713 15.1488L14.8537 15.1215L14.4184 15.6679L13.8879 16.1733L13.0854 16.8427V16.9793L13.1126 17.0066L13.0582 17.2252L12.4597 17.8808L11.9428 18.6185L11.6163 18.9736L11.6843 19.2058L11.6435 19.3015L11.5347 19.3288L11.3443 19.2468L10.3105 20.0391L9.63039 20.7494L9.09991 21.4187L8.80066 21.7193L8.56942 21.8149L8.29737 22.17L7.94372 22.3613L6.84193 23.3858L5.57692 24.8474L4.58396 25.708L4.01266 26.309L3.26454 27.3335L2.29878 28.3033L2.14916 28.3716L1.56426 28.8224L1.26501 28.9044L1.00657 28.8907L0.557692 28.6039L0.0272045 28.0711L0 27.9892L0.0136023 27.7023L0.0816135 27.5247L0.952158 26.5139L1.71388 25.8855L2.58443 25.0113L2.65244 24.8884L2.91088 24.6015L3.12852 24.2463L3.65901 23.6317L4.06707 23.2492L4.92402 22.6072L5.53612 21.9925L6.28424 21.0499L6.74672 20.6128L7.60366 19.9981L8.05253 19.602L9.38555 18.0721L10.0521 17.43L10.1745 17.3617L11.3171 16.2416L11.9292 15.463L12.0788 15.2035L12.7589 14.5205L13.6431 13.8512L14.364 13.1272H14.6088L14.6496 13.0042L14.5952 12.8676L14.6768 12.7037L14.9081 12.3895L14.9897 12.3349L15.2073 12.2803L16.2139 11.2967L16.6084 10.9826L16.9076 10.6821L18.4038 8.98822L18.9751 8.52379L19.8729 7.64955L20.1449 7.32171L20.2946 7.06218L20.417 6.96656L20.8659 6.35186L21.4099 5.8601L21.478 5.70984L21.7772 5.38201H21.9948L22.0493 5.30005L22.0357 5.14979L23.0014 4.15261L23.2054 4.13895L23.2463 4.09797V3.90674L23.3959 3.75648L23.5863 3.72916L23.7359 3.52426L24.1576 3.12812L24.8649 2.63636L25.5722 2.00801L25.7355 1.78945L26.8508 0.614696L27.1229 0.587376L27.3405 0.314178L27.8982 0L28.2519 0.355158Z" fill="white"/>
<path d="M28.6463 28.3853L28.3063 28.5629L27.8846 28.959L27.7622 29H27.4629L27.2997 28.8907L26.8236 28.4399L26.674 28.1258L25.9803 27.3745L24.8105 26.3636L24.2936 25.7899L23.8039 25.0796L23.2871 24.5059L21.8724 23.3038L21.3419 22.7438L20.553 21.8149L19.152 20.7084L18.4038 19.9845L17.8053 19.2195L17.7917 19.1512L17.3293 18.6868L16.4043 17.8945L15.765 17.2525L14.9761 16.187L14.3232 15.5313L14.3504 15.504L14.296 15.3947L14.2008 15.3264L13.9831 15.2718L13.9151 15.1488L13.9423 14.9303L13.3982 14.4932L12.8949 13.9604L12.2284 13.1545H12.0924L12.0652 13.1818L11.8476 13.1272L11.1947 12.5261L10.4601 12.0071L10.1065 11.6792L9.87523 11.7475L9.78002 11.7065L9.75281 11.5973L9.83443 11.406L9.0455 10.3679L8.33818 9.68488L7.67167 9.15214L7.37242 8.85162L7.2772 8.61941L6.92355 8.34621L6.73311 7.99105L5.71294 6.8846L4.2575 5.61422L3.40056 4.61705L2.80206 4.04333L1.78189 3.29204L0.816134 2.32219L0.748123 2.17193L0.299249 1.58455L0.217635 1.28403L0.231238 1.02449L0.516885 0.573717L1.04737 0.0409801L1.12899 0.0136603L1.41463 0.0273202L1.59146 0.0956198L2.59803 0.969854L3.22373 1.73481L4.09428 2.60904L4.2167 2.67734L4.50235 2.93688L4.856 3.15544L5.4681 3.68818L5.84897 4.09797L6.48827 4.95855L7.10038 5.57325L8.03893 6.32454L8.4742 6.78898L9.0863 7.64955L9.48077 8.10033L11.0042 9.439L11.6435 10.1083L11.7115 10.2313L12.8269 11.3787L13.6023 11.9934L13.8607 12.1437L14.5408 12.8267L15.2073 13.7146L15.9282 14.4385V14.6844L16.0507 14.7254L16.1867 14.6707L16.3499 14.7527L16.6628 14.9849L16.7172 15.0669L16.7716 15.2854L17.7509 16.2963L18.0638 16.6924L18.363 16.9929L20.0497 18.4955L20.5122 19.0692L21.3827 19.9708L21.7092 20.244L21.9676 20.3943L22.0629 20.5172L22.675 20.968L23.1646 21.5144L23.3143 21.5827L23.6407 21.8832V22.1017L23.7223 22.1564L23.872 22.1427L24.8649 23.1126L24.8785 23.3175L24.9193 23.3585H25.1098L25.2594 23.5087L25.2866 23.7L25.4906 23.8502L25.8851 24.2737L26.3748 24.984L27.0005 25.6943L27.2181 25.8582L28.3879 26.9783L28.4151 27.2515L28.6871 27.4701L29 28.0301L28.6463 28.3853Z" fill="white"/>
</svg>
