<svg width="25" height="24" viewBox="0 0 25 24" fill="none" xmlns="http://www.w3.org/2000/svg">
<path d="M17.0146 0.71814L17.2051 0.997854L18.4436 1.55728L21.3017 3.51529L23.2071 5.38005L23.3976 9.57578L23.2071 10.042L23.4929 11.1608L24.1598 12.0932L23.7787 13.2121L22.6355 14.3309L22.4449 15.8227L22.0638 16.5686L21.6828 16.7551L20.0632 19.3658L19.2058 20.1117L15.1092 22.8156L13.1086 23.2818H10.9174L8.91675 22.9088L4.24858 20.2982L3.29589 19.2726V17.9672L2.53374 16.8484L1.67632 16.6619L1.48579 16.4754L0.34256 12.6526V10.7879L0.723635 10.042L1.39052 7.80425L2.15267 6.12596L3.67697 5.10034L4.34385 4.16796L5.67761 3.0491L8.24987 1.37081L11.2032 0.997854L15.5856 1.09109L16.2524 0.71814H17.0146Z" fill="#E80D0D"/>
</svg>
