<svg width="15" height="15" viewBox="0 0 15 15" fill="none" xmlns="http://www.w3.org/2000/svg">
<path d="M10.4971 0.478699L10.6171 0.65865L11.3969 1.01855L13.1964 2.27821L14.3961 3.47788L14.5161 6.17715L14.3961 6.47707L14.576 7.19687L14.9959 7.79671L14.756 8.51651L14.0362 9.23632L13.9162 10.1961L13.6763 10.6759L13.4363 10.7959L12.4166 12.4754L11.8768 12.9553L9.29747 14.6948L8.03781 14.9948H6.65819L5.39853 14.7548L2.45933 13.0753L1.85949 12.4155V11.5757L1.37962 10.8559L0.839772 10.7359L0.719804 10.6159L0 8.15661V6.95694L0.239935 6.47707L0.65982 5.03746L1.13969 3.95775L2.09943 3.29793L2.51931 2.6981L3.35909 1.97829L4.97865 0.898585L6.83814 0.65865L9.59739 0.718633L10.0173 0.478699H10.4971Z" fill="#474747"/>
</svg>
